<svg width="80" height="80" viewBox="0 0 80 80" fill="none" xmlns="http://www.w3.org/2000/svg">
<g clip-path="url(#clip0_23_88067)">
<path d="M41.1796 22.57C41.8296 23.22 41.8296 24.2767 41.1796 24.9267C40.5296 25.5767 39.4729 25.5767 38.8229 24.9267C38.1729 24.2767 38.1729 23.22 38.8229 22.57C39.4729 21.92 40.5263 21.92 41.1796 22.57Z" stroke="white" stroke-width="3" stroke-linecap="round" stroke-linejoin="round"/>
<path d="M54.3662 24.09C54.3662 27.9933 52.6329 31.69 49.6362 34.19L44.9262 38.1167C43.0496 39.6833 41.6462 41.74 40.8729 44.06L39.9996 46.6667L39.1296 44.0567C38.3562 41.74 36.9529 39.68 35.0762 38.1133L30.3662 34.1867C27.3662 31.6867 25.6362 27.99 25.6362 24.0867V24.16C25.6329 15.2 33.0562 10 39.9996 10C46.9429 10 54.3662 15.2 54.3662 24.1633" stroke="white" stroke-width="3" stroke-linecap="round" stroke-linejoin="round"/>
<path d="M20.0031 40C16.8265 40 14.0898 42.2433 13.4665 45.36L10.1331 62.0267C9.30646 66.15 12.4631 70 16.6698 70H63.3331C67.5398 70 70.6965 66.15 69.8698 62.0267L66.5365 45.36C65.9131 42.2433 63.1765 40 59.9998 40" stroke="white" stroke-width="3" stroke-linecap="round" stroke-linejoin="round"/>
</g>
<defs>
<clipPath id="clip0_23_88067">
<rect width="80" height="80" fill="white"/>
</clipPath>
</defs>
</svg>
