<svg width="81" height="80" viewBox="0 0 81 80" fill="none" xmlns="http://www.w3.org/2000/svg">
<g clip-path="url(#clip0_23_88079)">
<path d="M35.6362 11.6667H47.2879C53.4442 11.6668 59.3482 14.1123 63.7013 18.4654C68.0544 22.8185 70.5 28.7226 70.5 34.8788V35.1198C70.5 38.168 69.8996 41.1864 68.7331 44.0027C67.5666 46.8189 65.8568 49.3778 63.7013 51.5332C61.5459 53.6887 58.987 55.3984 56.1708 56.565C53.3546 57.7315 50.3362 58.3319 47.2879 58.3319H43.877C43.8654 58.3319 43.8543 58.3365 43.8461 58.3447C43.8379 58.3528 43.8333 58.3639 43.8333 58.3755V65.9167C43.8333 66.3361 43.724 66.7482 43.5162 67.1125C43.3084 67.4768 43.0093 67.7806 42.6483 67.9941C42.2873 68.2075 41.877 68.3232 41.4576 68.3297C41.0383 68.3363 40.6245 68.2334 40.2571 68.0313L23.5229 58.8278C19.5791 56.6588 16.2901 53.4707 13.9993 49.5964C11.7085 45.7221 10.5 41.3038 10.5 36.8029C10.5 33.502 11.1502 30.2334 12.4134 27.1837C13.6766 24.1341 15.5281 21.3631 17.8622 19.029C20.1963 16.6948 22.9673 14.8433 26.017 13.5801C29.0666 12.3169 32.3352 11.6667 35.6362 11.6667Z" stroke="white" stroke-width="3" stroke-linecap="round" stroke-linejoin="round"/>
<path d="M30.5 31.6667H50.5" stroke="white" stroke-width="3" stroke-linecap="round" stroke-linejoin="round"/>
<path d="M30.5 41.6667H38.5" stroke="white" stroke-width="3" stroke-linecap="round" stroke-linejoin="round"/>
</g>
<defs>
<clipPath id="clip0_23_88079">
<rect width="80" height="80" fill="white" transform="translate(0.5)"/>
</clipPath>
</defs>
</svg>
