<svg width="80" height="80" viewBox="0 0 80 80" fill="none" xmlns="http://www.w3.org/2000/svg">
<g clip-path="url(#clip0_23_88056)">
<path d="M49.9999 10V30M49.9999 30H69.9999M49.9999 30L69.9999 10M33.7699 46.23C29.8699 42.33 26.9299 37.9633 24.9766 33.5333C24.5666 32.5967 24.8066 31.5 25.5299 30.7767L28.2599 28.0467C30.4966 25.81 30.4966 22.6467 28.5433 20.6933L24.6333 16.7833C22.0299 14.18 17.8099 14.18 15.2066 16.7833L13.0333 18.9533C10.5633 21.4233 9.53325 24.9867 10.1999 28.52C11.8466 37.23 16.9066 46.7667 25.0699 54.93C33.2333 63.0933 42.7699 68.1533 51.4799 69.8C55.0133 70.4667 58.5766 69.4367 61.0466 66.9667L63.2166 64.7967C65.8199 62.1933 65.8199 57.9733 63.2166 55.37L59.3066 51.46C57.3533 49.5067 54.1866 49.5067 52.2366 51.46L49.2266 54.4733C48.5033 55.1967 47.4066 55.44 46.4699 55.0267C42.0399 53.07 37.6699 50.1267 33.7699 46.23Z" stroke="white" stroke-width="3" stroke-linecap="round" stroke-linejoin="round"/>
</g>
<defs>
<clipPath id="clip0_23_88056">
<rect width="80" height="80" fill="white"/>
</clipPath>
</defs>
</svg>
