<svg width="79" height="78" viewBox="0 0 79 78" fill="none" xmlns="http://www.w3.org/2000/svg">
<path d="M32.2007 72.792L31.9413 72.0056C32.1844 71.8306 32.4657 71.716 32.762 71.6712C33.1101 71.6122 33.4657 71.6122 33.8139 71.6712C34.1963 71.7157 34.5659 71.8366 34.9006 72.0267C35.2353 72.2168 35.5282 72.4723 35.7618 72.7778C35.9864 73.092 36.1442 73.4489 36.2253 73.8263C36.3064 74.2037 36.3092 74.5937 36.2335 74.9722C36.1434 75.7309 35.759 76.424 35.1628 76.9029C34.8499 77.1343 34.491 77.296 34.1102 77.3772C33.7295 77.4584 33.3357 77.4573 32.9554 77.3738C32.3372 77.3109 31.7659 77.0164 31.3564 76.5498L31.9036 75.8999C32.2348 76.2047 32.651 76.4018 33.0969 76.465C33.3375 76.5099 33.5849 76.5037 33.823 76.447C34.0611 76.3902 34.2846 76.284 34.4789 76.1354C34.8871 75.8018 35.1479 75.3216 35.2053 74.798C35.256 74.5411 35.2545 74.2765 35.2011 74.0201C35.1476 73.7638 35.0432 73.5207 34.894 73.3052C34.7382 73.0987 34.5421 72.9259 34.3176 72.7972C34.093 72.6685 33.8446 72.5866 33.5874 72.5565C33.1118 72.4769 32.6232 72.5598 32.2007 72.792Z" fill="#8993AA"/>
<path d="M28.8145 75.3774L30.5549 75.9142L30.2814 76.7901L25.8618 75.4291L26.1307 74.5533L27.8711 75.0854L29.2531 70.6118L30.1965 70.9038L28.8145 75.3774Z" fill="#8993AA"/>
<path d="M26.6731 69.698L27.5693 70.1312L22.9799 74.1574L22.2017 73.7807L22.5177 67.6873L23.461 68.1582L23.362 69.7027L25.5222 70.7481L26.6731 69.698ZM23.3007 70.6822L23.1686 72.8342L24.7817 71.398L23.3007 70.6822Z" fill="#8993AA"/>
<path d="M22.5269 67.8096L19.0177 68.8362L19.0932 72.2455L18.1876 71.5674L18.164 68.2099L16.5603 70.3478L15.7773 69.7638L17.381 67.6213L14.1501 68.5631L13.2397 67.8802L16.5414 67.0044V63.3455L17.4518 64.0236L17.3999 67.6165L19.1451 65.2903L19.928 65.8789L18.1828 68.2052L21.6308 67.1504L22.5269 67.8096Z" fill="#8993AA"/>
<path d="M12.8484 62.1353L14.4049 60.8356L15.0369 61.5891L10.7353 65.1915L10.2636 64.6123L9.69293 63.9813C9.46515 63.7167 9.28051 63.4179 9.14579 63.096C9.04025 62.8514 8.99807 62.5842 9.02315 62.319C9.04994 62.0949 9.12217 61.8786 9.23541 61.6833C9.35048 61.4838 9.50068 61.3067 9.67878 61.1606C9.86144 61.0034 10.0748 60.8857 10.3054 60.8152C10.536 60.7447 10.7788 60.7228 11.0183 60.7509C11.2907 60.7881 11.5529 60.8794 11.7894 61.0193C12.0259 61.1592 12.2321 61.3449 12.3956 61.5655C12.6079 61.8151 12.7588 62.0035 12.8484 62.1353ZM10.3438 63.3173L10.8155 63.8447L12.1362 62.7381C11.9758 62.5026 11.8343 62.319 11.7164 62.1777C11.5513 61.9621 11.3162 61.8105 11.0513 61.7492C10.9261 61.7286 10.7978 61.7375 10.6766 61.7751C10.5555 61.8127 10.4447 61.878 10.3533 61.9658C9.90046 62.3331 9.90047 62.804 10.3438 63.3173Z" fill="#8993AA"/>
<path d="M11.9331 57.7184L12.4472 58.566L6.39096 59.4466L5.94287 58.7073L9.53228 53.7722L10.0747 54.6716L9.13136 55.9101L10.3719 57.9585L11.9331 57.7184ZM8.56535 56.7106L7.28243 58.4389L9.41437 58.1139L8.56535 56.7106Z" fill="#8993AA"/>
<path d="M9.32958 53.1554L4.14121 55.2838L2.896 52.2559L3.74972 51.9075L4.61759 54.0218L5.7779 53.5509C5.65115 53.3334 5.54078 53.1067 5.44773 52.8728C5.23223 52.4194 5.19519 51.9018 5.34396 51.4224C5.42373 51.2067 5.54936 51.0109 5.71221 50.8483C5.87506 50.6857 6.07126 50.5603 6.2873 50.4806C6.51587 50.3698 6.76665 50.3123 7.02074 50.3123C7.27484 50.3123 7.52563 50.3698 7.7542 50.4806C8.24536 50.7776 8.61607 51.2377 8.80129 51.7803C8.84846 51.898 8.95224 52.1617 9.10789 52.5714C9.14091 52.6468 9.17392 52.7315 9.20694 52.821C9.23995 52.9105 9.26826 52.9811 9.28241 53.0282L9.32958 53.1554ZM6.32503 52.595C6.41225 52.8038 6.5131 53.0067 6.6269 53.2024L8.10323 52.595C8.02305 52.3454 7.9523 52.1476 7.8957 52.0064C7.63156 51.3706 7.24479 51.154 6.73067 51.3659C6.62201 51.4046 6.52331 51.4669 6.44174 51.5484C6.36016 51.6298 6.29775 51.7283 6.259 51.8368C6.18666 52.089 6.21017 52.359 6.32503 52.595Z" fill="#8993AA"/>
<path d="M4.93833 49.8116C4.56857 49.9039 4.18405 49.9215 3.80739 49.8633C3.43073 49.805 3.06952 49.6722 2.74505 49.4725C2.41675 49.2653 2.13414 48.9935 1.91439 48.6737C1.69464 48.3539 1.54236 47.9929 1.46683 47.6125C1.36907 47.2404 1.34667 46.8526 1.40093 46.4717C1.4552 46.0909 1.58504 45.7247 1.78286 45.3945C1.98792 45.0665 2.25824 44.784 2.57709 44.5645C2.89593 44.345 3.25652 44.1932 3.63651 44.1184C4.00974 44.0222 4.39884 44.0039 4.77947 44.0646C5.16011 44.1254 5.52409 44.2639 5.84865 44.4716C6.17327 44.6803 6.45248 44.9522 6.66965 45.2709C6.88682 45.5897 7.0375 45.9488 7.11272 46.3269C7.20992 46.6985 7.23163 47.0858 7.17654 47.4659C7.12146 47.846 6.9907 48.2113 6.79199 48.5402C6.58863 48.8692 6.31871 49.1522 5.99953 49.3712C5.68034 49.5901 5.31891 49.7401 4.93833 49.8116ZM4.7072 48.7944C4.96129 48.7457 5.20312 48.6468 5.41853 48.5037C5.63395 48.3606 5.81864 48.1761 5.96184 47.961C6.09993 47.7559 6.19352 47.5243 6.23657 47.281C6.27962 47.0377 6.27119 46.7881 6.21183 46.5482C6.16789 46.2955 6.06858 46.0555 5.92101 45.8455C5.77343 45.6355 5.58122 45.4606 5.35811 45.3333C4.9055 45.0819 4.3727 45.016 3.87235 45.1497C3.61599 45.1989 3.37209 45.2989 3.155 45.4436C2.93791 45.5884 2.75203 45.775 2.60828 45.9926C2.47435 46.1995 2.3836 46.4312 2.34145 46.674C2.29931 46.9167 2.30663 47.1654 2.363 47.4053C2.41282 47.651 2.51315 47.8838 2.65766 48.0889C2.80218 48.2939 2.98772 48.4668 3.20257 48.5967C3.65827 48.8584 4.19918 48.9295 4.7072 48.7944Z" fill="#8993AA"/>
<path d="M1.59426 41.7403L1.70747 43.5532L0.787712 43.6098L0.5 38.9996L1.41975 38.9431L1.53296 40.7561L6.21663 40.4641L6.27795 41.4483L1.59426 41.7403Z" fill="#8993AA"/>
<path d="M0.504883 37.3755L0.613372 36.396L2.52363 36.6032C2.52363 36.3725 2.52363 36.1653 2.55193 35.9769C2.57555 35.426 2.80432 34.9038 3.19341 34.5124C3.38317 34.3542 3.60482 34.2387 3.84329 34.1737C4.08176 34.1087 4.33145 34.0957 4.57539 34.1357C4.84189 34.1518 5.10126 34.228 5.33407 34.3585C5.56688 34.489 5.76707 34.6704 5.91965 34.8891C6.23327 35.4003 6.35214 36.0071 6.25454 36.5985C6.22152 36.8952 6.18851 37.1495 6.16021 37.3661C6.13191 37.5827 6.10833 37.7852 6.08474 37.9782L0.504883 37.3755ZM6.66489 32.6665L6.56112 33.6365L0.981274 33.0338L1.08504 32.0637L6.66489 32.6665ZM3.46226 36.1747C3.46226 36.2595 3.46226 36.4431 3.46226 36.7209L5.28762 36.9187C5.28762 36.8763 5.28761 36.7916 5.32535 36.6644C5.36308 36.5373 5.36308 36.4478 5.36779 36.396C5.44798 35.6661 5.16027 35.2658 4.50465 35.1905C4.3787 35.1694 4.24959 35.177 4.12704 35.2129C4.00449 35.2488 3.89169 35.312 3.79714 35.3977C3.59729 35.6092 3.47869 35.8844 3.46226 36.1747Z" fill="#8993AA"/>
<path d="M5.00445 29.5867C4.92961 29.5653 4.85999 29.5288 4.79994 29.4794C4.73988 29.43 4.69069 29.3687 4.65542 29.2995C4.58019 29.1541 4.56495 28.985 4.61297 28.8286C4.63382 28.7536 4.6702 28.6838 4.71976 28.6238C4.76932 28.5638 4.83096 28.5148 4.90068 28.4801C5.03645 28.4065 5.19583 28.3896 5.34405 28.433C5.4247 28.4536 5.50043 28.49 5.56683 28.5402C5.63323 28.5903 5.68898 28.6531 5.73082 28.725C5.77834 28.7926 5.80909 28.8706 5.82057 28.9525C5.83205 29.0343 5.82392 29.1177 5.79685 29.1959C5.77566 29.2793 5.73696 29.3573 5.68329 29.4247C5.62963 29.4921 5.56221 29.5473 5.48555 29.5867C5.40957 29.6193 5.32772 29.6362 5.245 29.6362C5.16229 29.6362 5.08043 29.6193 5.00445 29.5867Z" fill="#8993AA"/>
<path d="M8.93356 22.6312L9.75898 22.5982C9.86092 22.8782 9.89486 23.1784 9.85803 23.4741C9.82483 23.8261 9.73233 24.17 9.58445 24.4912C9.43628 24.8454 9.21842 25.1662 8.94377 25.4348C8.66911 25.7033 8.34325 25.9141 7.9855 26.0546C7.62084 26.1841 7.23345 26.2375 6.84728 26.2116C6.46111 26.1857 6.08437 26.081 5.74035 25.9039C5.03557 25.6069 4.47404 25.048 4.1744 24.3452C4.03569 23.9809 3.97656 23.5912 4.00096 23.2022C4.02537 22.8132 4.13275 22.4338 4.31591 22.0896C4.54742 21.5146 4.98677 21.0474 5.54696 20.7805L6.01863 21.4869C5.63409 21.7219 5.32861 22.0663 5.14133 22.4758C5.03362 22.6941 4.97255 22.9325 4.96199 23.1757C4.95144 23.4189 4.99163 23.6616 5.08001 23.8885C5.2878 24.3732 5.67962 24.7559 6.16957 24.9527C6.40197 25.0729 6.65635 25.1449 6.91738 25.1644C7.1784 25.1838 7.44066 25.1502 7.68835 25.0657C7.93144 24.9753 8.15326 24.8358 8.33991 24.6559C8.52657 24.476 8.67406 24.2597 8.77318 24.0203C8.97968 23.5879 9.03612 23.0991 8.93356 22.6312Z" fill="#8993AA"/>
<path d="M7.36757 18.671L6.37706 20.1921L5.60352 19.6929L8.12224 15.8174L8.89577 16.3213L7.90527 17.8423L11.839 20.3945L11.3013 21.2186L7.36757 18.671Z" fill="#8993AA"/>
<path d="M13.4236 18.153L12.7633 18.897L10.1313 13.3922L10.7068 12.7471L16.4942 14.7107L15.7961 15.4924L14.3339 14.9791L12.7397 16.7686L13.4236 18.153ZM13.3906 14.6448L11.3577 13.9337L12.301 15.8738L13.3906 14.6448Z" fill="#8993AA"/>
<path d="M16.3624 14.706L16.3388 11.0518L13.0371 10.1901L13.938 9.50727L17.1831 10.402L15.5558 8.27821L16.3388 7.68488L17.9613 9.81335V6.45582L18.867 5.76831L18.8103 9.17292L22.3384 10.1759L21.4328 10.8635L17.9849 9.83219L19.749 12.1443L18.966 12.7329L17.2067 10.4208L17.2774 14.0185L16.3624 14.706Z" fill="#8993AA"/>
<path d="M24.4799 6.96926L25.3054 8.8199L24.4045 9.22017L22.1216 4.10147L22.8149 3.78597C23.0649 3.66354 23.3149 3.55051 23.5696 3.4375C23.8871 3.28997 24.2263 3.19456 24.5743 3.15495C24.8394 3.12126 25.1088 3.1553 25.3572 3.25385C25.5659 3.34135 25.7551 3.4694 25.9138 3.63057C26.0733 3.79595 26.2012 3.98905 26.2911 4.20035C26.3956 4.42046 26.4521 4.66018 26.457 4.90369C26.4618 5.14719 26.415 5.38896 26.3194 5.61306C26.092 6.11846 25.673 6.51309 25.1544 6.71027C24.8573 6.82799 24.6309 6.91746 24.4799 6.96926ZM24.0366 4.23803L23.3951 4.5394L24.0979 6.11221C24.3667 6.02274 24.5696 5.93798 24.7488 5.86735C25.0055 5.77159 25.2184 5.58578 25.3478 5.34466C25.4057 5.2317 25.436 5.1066 25.436 4.9797C25.436 4.85279 25.4057 4.7277 25.3478 4.61475C25.0978 4.08734 24.6639 3.94137 24.0366 4.23803Z" fill="#8993AA"/>
<path d="M28.9936 7.30363L28.0503 7.56262L28.8663 1.52095L29.7011 1.29492L33.4745 6.09341L32.4604 6.37124L31.5171 5.14218L29.2012 5.76849L28.9936 7.30363ZM30.8803 4.35107L29.5643 2.64169L29.2908 4.77959L30.8803 4.35107Z" fill="#8993AA"/>
<path d="M34.1114 6.05532L33.4746 0.484565L36.7338 0.112549L36.8376 1.03081L34.5594 1.2898L34.7009 2.52828C34.946 2.46723 35.195 2.42318 35.4462 2.39642C35.9385 2.31285 36.4442 2.41887 36.8612 2.69309C37.0476 2.82903 37.202 3.00397 37.3136 3.20569C37.4252 3.40741 37.4914 3.63103 37.5074 3.86092C37.5521 4.11204 37.5384 4.37008 37.4672 4.61506C37.3961 4.86003 37.2694 5.08537 37.097 5.27363C36.6796 5.66866 36.1339 5.90094 35.5594 5.92819L34.7151 6.00825L34.4415 6.0365H34.2246L34.1114 6.05532ZM35.4698 3.31939C35.2455 3.347 35.0233 3.38948 34.8047 3.44654L34.9887 5.02876C35.2528 5.02876 35.4603 5.01464 35.6113 4.98638C36.2999 4.91104 36.6112 4.59553 36.5546 4.04458C36.5478 3.93014 36.5159 3.81857 36.4613 3.7177C36.4067 3.61684 36.3307 3.52911 36.2386 3.46067C36.0098 3.31717 35.7347 3.26661 35.4698 3.31939Z" fill="#8993AA"/>
<path d="M38.5214 2.74522C38.5339 2.36303 38.6239 1.98734 38.786 1.6409C38.9482 1.29446 39.1791 0.984491 39.4648 0.729763C39.7541 0.470908 40.0931 0.273549 40.4612 0.149686C40.8294 0.0258234 41.2189 -0.0219511 41.6061 0.00928374C41.9916 0.0165733 42.3716 0.100728 42.724 0.256806C43.0763 0.412884 43.3939 0.63773 43.6579 0.91812C43.9176 1.20476 44.1157 1.54156 44.2398 1.90766C44.3639 2.27377 44.4115 2.66141 44.3796 3.0466C44.371 3.43156 44.2827 3.81058 44.1204 4.15985C43.9581 4.50912 43.7251 4.8211 43.4362 5.07619C43.1465 5.33065 42.8084 5.52431 42.4421 5.64566C42.0759 5.76701 41.6889 5.81356 41.3043 5.78254C40.9198 5.77411 40.5408 5.68941 40.1893 5.53338C39.8379 5.37735 39.521 5.15312 39.2572 4.8737C38.9931 4.58951 38.7912 4.25343 38.6645 3.88694C38.5378 3.52044 38.4891 3.13158 38.5214 2.74522ZM39.5638 2.79703C39.5432 3.05568 39.5743 3.31584 39.6553 3.5624C39.7363 3.80896 39.8655 4.03699 40.0355 4.23327C40.1968 4.42404 40.3964 4.57881 40.6215 4.68752C40.8466 4.79623 41.0921 4.85645 41.342 4.86428C41.598 4.89309 41.8571 4.86589 42.1015 4.78456C42.3459 4.70324 42.5696 4.56975 42.757 4.39338C43.1231 4.02613 43.3327 3.5317 43.3419 3.01364C43.3635 2.75346 43.3329 2.49161 43.2519 2.24338C43.1709 1.99515 43.0411 1.76553 42.8702 1.56797C42.7073 1.37982 42.5071 1.22743 42.2822 1.12045C42.0573 1.01346 41.8127 0.954197 41.5637 0.946388C41.3147 0.924699 41.0638 0.955395 40.8274 1.03651C40.591 1.11762 40.3742 1.24734 40.1911 1.41729C39.9996 1.59383 39.8455 1.80685 39.7377 2.04381C39.63 2.28078 39.5708 2.53689 39.5638 2.79703Z" fill="#8993AA"/>
<path d="M47.2333 1.74681L45.4551 1.35597L45.6532 0.456543L50.1718 1.45485L49.9737 2.34956L48.1955 1.95872L47.1861 6.53117L46.2192 6.31926L47.2333 1.74681Z" fill="#8993AA"/>
<path d="M51.7 1.89795L52.615 2.26997L51.8887 4.04997C52.0904 4.10451 52.2888 4.17054 52.483 4.24774C53.0084 4.41956 53.4496 4.78274 53.7187 5.26489C53.8196 5.48677 53.8718 5.7276 53.8718 5.97124C53.8718 6.21489 53.8196 6.45572 53.7187 6.6776C53.63 6.92831 53.4854 7.15565 53.2959 7.34245C53.1063 7.52925 52.8767 7.67064 52.6245 7.75597C52.0473 7.91922 51.4304 7.86733 50.8887 7.60999L50.1718 7.3086L49.6011 7.06845L51.7 1.89795ZM52.0632 5.06712L51.5396 4.9023L50.8463 6.59755L51.0821 6.70585L51.3274 6.81886C52.0097 7.09512 52.4814 6.93031 52.7424 6.32442C52.7976 6.20982 52.8262 6.08428 52.8262 5.95712C52.8262 5.82995 52.7976 5.70442 52.7424 5.58982C52.5854 5.34051 52.3446 5.1552 52.0632 5.06712ZM54.5583 9.10745L53.6527 8.74015L55.7705 3.56023L56.6761 3.92753L54.5583 9.10745Z" fill="#8993AA"/>
<path d="M57.9869 8.35344C58.029 8.28853 58.0837 8.23262 58.1476 8.18897C58.2116 8.14532 58.2836 8.11478 58.3595 8.09915C58.4405 8.0831 58.5238 8.08316 58.6047 8.09933C58.6857 8.11549 58.7626 8.14743 58.8312 8.19334C58.8965 8.23501 58.9528 8.28944 58.9966 8.35337C59.0403 8.4173 59.0707 8.48941 59.0859 8.56536C59.1195 8.71556 59.0924 8.87295 59.0104 9.00329C58.9684 9.07498 58.9126 9.13767 58.8462 9.18777C58.7798 9.23787 58.7042 9.2744 58.6236 9.29525C58.5461 9.32325 58.463 9.33272 58.3811 9.32291C58.2992 9.3131 58.2207 9.28427 58.152 9.23874C58.0771 9.19601 58.0122 9.13776 57.9618 9.0679C57.9113 8.99804 57.8765 8.91821 57.8595 8.83377C57.8479 8.74928 57.8532 8.66332 57.875 8.58088C57.8969 8.49843 57.9349 8.42113 57.9869 8.35344Z" fill="#8993AA"/>
<path d="M63.6188 14.0278L63.4254 14.8331C63.1271 14.8531 62.8283 14.8031 62.5528 14.6871C62.222 14.5599 61.9156 14.3767 61.6472 14.1456C61.3465 13.9072 61.0967 13.611 60.9128 13.2745C60.7289 12.938 60.6145 12.5681 60.5765 12.1866C60.5509 11.8014 60.6047 11.4151 60.7345 11.0514C60.8643 10.6878 61.0674 10.3545 61.3312 10.0723C61.8094 9.47617 62.5013 9.08941 63.2603 8.99391C63.6495 8.95763 64.0419 9.00575 64.4106 9.13498C64.7794 9.26421 65.1159 9.4715 65.397 9.74264C65.8971 10.1166 66.2346 10.6677 66.3403 11.2825L65.5337 11.5509C65.4113 11.1173 65.1616 10.7302 64.8168 10.4396C64.636 10.2747 64.4224 10.1496 64.19 10.0726C63.9576 9.99549 63.7115 9.96811 63.4678 9.99221C62.943 10.0599 62.4664 10.3325 62.1424 10.7504C61.9657 10.9392 61.8286 11.1615 61.7395 11.4042C61.6504 11.6468 61.611 11.9049 61.6236 12.1631C61.6451 12.4206 61.7194 12.671 61.8419 12.8986C61.9644 13.1263 62.1325 13.3263 62.3358 13.4863C62.6905 13.8054 63.1424 13.9962 63.6188 14.0278Z" fill="#8993AA"/>
<path d="M67.8543 13.5998L66.6562 12.2295L67.3543 11.6267L70.3966 15.102L69.7032 15.7094L68.5052 14.3391L64.9724 17.4235L64.3262 16.6795L67.8543 13.5998Z" fill="#8993AA"/>
<path d="M66.7034 19.5613L66.1704 18.7231L72.1936 17.7107L72.6653 18.4406L69.1844 23.4557L68.6231 22.5704L69.5193 21.3084L68.2363 19.2882L66.7034 19.5613ZM70.09 20.5032L71.3352 18.742L69.208 19.1187L70.09 20.5032Z" fill="#8993AA"/>
<path d="M69.2222 23.3331L72.7455 24.3173L74.4813 21.3835L74.8916 22.4336L73.137 25.3014L75.6322 24.3267L75.9859 25.2402L73.4908 26.2103L76.7217 27.1238L77.1368 28.1834L73.8775 27.1945L71.9531 30.3118L71.5381 29.2523L73.4861 26.2291L70.774 27.2839L70.4155 26.3704L73.1276 25.3156L69.6467 24.3973L69.2222 23.3331Z" fill="#8993AA"/>
<path d="M74.4389 33.2456L72.4296 33.5375L72.2881 32.5627L77.8444 31.7622C77.8774 31.9929 77.9151 32.2331 77.9623 32.5157C78.0094 32.7982 78.0472 33.0619 78.0849 33.335C78.1417 33.6796 78.1417 34.0311 78.0849 34.3757C78.0479 34.6415 77.9423 34.893 77.7783 35.1056C77.6369 35.2808 77.4622 35.4265 77.2642 35.5341C77.0605 35.6394 76.8404 35.7095 76.6133 35.7413C76.3747 35.7793 76.1308 35.7675 75.8971 35.7067C75.6633 35.6459 75.4446 35.5375 75.2549 35.3882C75.044 35.2136 74.8702 34.9987 74.7439 34.7561C74.6175 34.5135 74.5411 34.248 74.5191 33.9755C74.4796 33.7337 74.4529 33.4901 74.4389 33.2456ZM77.1887 33.5611L77.0708 32.8688L75.3634 33.1137C75.3634 33.3962 75.4011 33.627 75.4247 33.8106C75.4528 34.0809 75.5726 34.3335 75.7643 34.5264C75.8598 34.6098 75.9735 34.6699 76.0963 34.7017C76.2191 34.7336 76.3477 34.7365 76.4718 34.7101C77.0472 34.6253 77.2878 34.2439 77.1887 33.5611Z" fill="#8993AA"/>
<path d="M72.8964 37.498V36.5044L78.4999 38.9342V39.796L72.8398 42.1081V41.058L74.2832 40.4882V38.096L72.8964 37.498ZM75.2265 40.1256L77.2311 39.3298L75.2454 38.4822L75.2265 40.1256Z" fill="#8993AA"/>
<path d="M72.6986 42.7388L78.236 43.6806L77.6936 46.9062L76.788 46.7556L77.1606 44.4999L75.9295 44.2927C75.9203 44.5437 75.8951 44.7937 75.8541 45.0415C75.7966 45.5397 75.5543 45.9983 75.1749 46.327C74.9927 46.4684 74.7818 46.5681 74.5569 46.6194C74.332 46.6706 74.0986 46.6721 73.8731 46.6237C73.6207 46.5949 73.3781 46.5097 73.1634 46.3744C72.9486 46.239 72.7671 46.0571 72.6326 45.842C72.3693 45.333 72.2957 44.7472 72.425 44.1891L72.5807 43.3556C72.5807 43.2709 72.6137 43.1814 72.6278 43.0872C72.642 42.9931 72.6656 42.9224 72.675 42.8706C72.6845 42.8188 72.6939 42.767 72.6986 42.7388ZM74.9579 44.7966C74.9922 44.5736 75.0127 44.3487 75.0192 44.1232L73.4438 43.8642C73.3825 44.1185 73.3354 44.3351 73.3118 44.4717C73.1986 45.1498 73.4155 45.5359 73.9627 45.6301C74.0753 45.6538 74.1917 45.6531 74.3041 45.6279C74.4164 45.6027 74.5219 45.5537 74.6136 45.4841C74.8094 45.3052 74.932 45.0603 74.9579 44.7966Z" fill="#8993AA"/>
<path d="M74.6702 47.8907C75.0336 48.0053 75.37 48.192 75.6594 48.4396C75.9487 48.6872 76.185 48.9907 76.354 49.3317C76.5241 49.6808 76.621 50.0609 76.6389 50.4488C76.6567 50.8366 76.5951 51.224 76.4578 51.5873C76.3445 51.9543 76.1589 52.2949 75.9118 52.5893C75.6648 52.8836 75.3613 53.1257 75.0192 53.3014C74.6723 53.4744 74.2931 53.5734 73.9057 53.592C73.5183 53.6107 73.1313 53.5486 72.7693 53.4096C72.4009 53.296 72.06 53.1071 71.7686 52.855C71.4771 52.6029 71.2412 52.2931 71.076 51.9452C70.9097 51.5972 70.8156 51.2192 70.7994 50.834C70.7832 50.4488 70.8452 50.0643 70.9817 49.7037C71.095 49.3367 71.2806 48.996 71.5277 48.7016C71.7747 48.4073 72.0782 48.1652 72.4203 47.9896C72.7686 47.8202 73.148 47.7241 73.535 47.7071C73.922 47.6901 74.3083 47.7526 74.6702 47.8907ZM74.3306 48.8749C74.0883 48.7828 73.8302 48.7396 73.5712 48.7477C73.3121 48.7557 73.0572 48.815 72.8212 48.922C72.5929 49.0246 72.3888 49.1741 72.2222 49.3607C72.0556 49.5473 71.9303 49.7668 71.8543 50.005C71.7583 50.2463 71.7174 50.5059 71.7346 50.7649C71.7517 51.024 71.8264 51.2759 71.9533 51.5025C72.2058 51.9544 72.6231 52.2917 73.1184 52.4443C73.3634 52.5361 73.6243 52.5783 73.8858 52.5686C74.1473 52.5589 74.4043 52.4975 74.6419 52.3878C74.865 52.2813 75.0638 52.1303 75.2261 51.944C75.3884 51.7577 75.5106 51.5401 75.5852 51.3047C75.6726 51.0703 75.7101 50.8203 75.6955 50.5706C75.6809 50.3209 75.6144 50.077 75.5003 49.8543C75.378 49.6199 75.2098 49.4124 75.0056 49.2442C74.8014 49.0759 74.5654 48.9503 74.3117 48.8749H74.3306Z" fill="#8993AA"/>
<path d="M73.236 56.5223L74.0991 54.9212L74.9104 55.3592L72.7124 59.423L71.9012 58.9851L72.769 57.384L68.6372 55.1614L69.1089 54.2949L73.236 56.5223Z" fill="#8993AA"/>
<path d="M64.1377 61.5466L64.7414 60.779L69.1657 64.226L68.562 64.9983L64.1377 61.5466ZM71.8684 60.7696L71.2646 61.5466L69.7459 60.3646C69.6374 60.5436 69.5193 60.7165 69.3921 60.8826C69.0827 61.3392 68.6132 61.6635 68.0761 61.7915C67.8305 61.8269 67.5802 61.8086 67.3424 61.7379C67.1046 61.6671 66.885 61.5456 66.6989 61.3818C66.4813 61.228 66.3016 61.0268 66.1733 60.7935C66.045 60.5602 65.9715 60.3008 65.9583 60.035C65.961 59.4367 66.1805 58.8597 66.5762 58.4104L67.0479 57.8029C67.1847 57.6381 67.3168 57.478 67.4347 57.332L71.8684 60.7696ZM68.7129 60.2516C68.7695 60.1857 68.8685 60.0303 69.0195 59.7807L67.5715 58.6553C67.5432 58.6882 67.4913 58.7542 67.4064 58.8483C67.3215 58.9425 67.2601 59.0132 67.2271 59.0555C66.7743 59.6363 66.8058 60.1292 67.3215 60.5342C67.4172 60.6192 67.5312 60.6812 67.6546 60.7155C67.7781 60.7498 67.9077 60.7554 68.0337 60.7319C68.3089 60.6551 68.5489 60.4853 68.7129 60.2516Z" fill="#8993AA"/>
<path d="M63.9348 65.0312C63.9861 65.0894 64.0251 65.1573 64.0495 65.231C64.0738 65.3046 64.0829 65.3824 64.0763 65.4597C64.0717 65.5447 64.0496 65.6278 64.0115 65.704C63.9734 65.7801 63.92 65.8476 63.8546 65.9023C63.7984 65.9552 63.7312 65.9952 63.6579 66.0196C63.5846 66.044 63.5069 66.0522 63.4301 66.0436C63.3534 66.0406 63.278 66.0224 63.2084 65.99C63.1388 65.9577 63.0763 65.9119 63.0245 65.8553C62.9649 65.7927 62.9187 65.7187 62.8887 65.6377C62.8587 65.5568 62.8455 65.4706 62.85 65.3844C62.8476 65.3064 62.8624 65.2288 62.8934 65.1572C62.9244 65.0856 62.9707 65.0217 63.0292 64.97C63.0905 64.9088 63.1646 64.8619 63.2461 64.8326C63.3276 64.8033 63.4146 64.7923 63.5009 64.8004C63.585 64.808 63.6667 64.8323 63.7412 64.8719C63.8158 64.9116 63.8816 64.9657 63.9348 65.0312Z" fill="#8993AA"/>
<path d="M56.9355 68.8976L56.2139 68.4879C56.2749 68.1966 56.4042 67.9238 56.5912 67.6921C56.8034 67.409 57.0636 67.1652 57.36 66.9716C57.6723 66.7474 58.0266 66.5881 58.4017 66.5032C58.7768 66.4182 59.1652 66.4094 59.5439 66.4771C59.9224 66.5587 60.2801 66.717 60.5949 66.9422C60.9097 67.1674 61.1748 67.4546 61.3739 67.7862C61.8153 68.4094 61.9979 69.179 61.8833 69.9336C61.811 70.3162 61.6568 70.6788 61.4313 70.9965C61.2059 71.3143 60.9144 71.5797 60.5768 71.7748C60.0782 72.1442 59.4584 72.3124 58.8411 72.2457L58.8033 71.3933C59.2542 71.396 59.6952 71.2613 60.0674 71.0072C60.2761 70.8801 60.4554 70.7103 60.5936 70.509C60.7318 70.3077 60.8258 70.0795 60.8692 69.8394C60.9461 69.3174 60.814 68.7861 60.5013 68.3607C60.3657 68.1367 60.1864 67.9422 59.9742 67.7885C59.7619 67.6348 59.521 67.5252 59.2656 67.466C59.0113 67.4173 58.7498 67.4206 58.4969 67.4756C58.244 67.5307 58.0048 67.6363 57.794 67.7862C57.3925 68.0516 57.0905 68.4425 56.9355 68.8976Z" fill="#8993AA"/>
<path d="M56.1571 73.0933L57.8033 72.3211L58.1947 73.1546L54.0063 75.1182L53.6148 74.2847L55.2657 73.5124L53.2705 69.2743L54.1667 68.8552L56.1571 73.0933Z" fill="#8993AA"/>
<path d="M50.7283 70.3384L51.6716 70.0605L50.9877 76.121L50.1576 76.3612L46.2852 71.6522L47.2945 71.3555L48.2615 72.5657L50.5632 71.8876L50.7283 70.3384ZM48.8935 73.3333L50.2425 75.0144L50.4689 72.8671L48.8935 73.3333Z" fill="#8993AA"/>
<path d="M46.4172 71.7134L44.5306 74.8354L46.8889 77.2983L45.7616 77.4113L43.4787 74.9438L43.7334 77.6043L42.7618 77.6985L42.5024 75.0379L40.7431 77.8916L39.6063 77.9999L41.4506 75.1368L38.979 72.4339L40.1157 72.3208L42.5024 75.0144L42.2194 72.1183L43.1957 72.0242L43.474 74.9202L45.3088 71.8217L46.4172 71.7134Z" fill="#8993AA"/>
</svg>
