<svg width="8" height="11" viewBox="0 0 8 11" fill="none" xmlns="http://www.w3.org/2000/svg">
<g clip-path="url(#clip0_35_24448)">
<path fill-rule="evenodd" clip-rule="evenodd" d="M5.05823 0C5.69528 0 6.2116 0.520622 6.2116 1.16298C6.2116 1.80534 5.69528 2.32596 5.05823 2.32596C4.42118 2.32596 3.90486 1.80534 3.90486 1.16298C3.90486 0.520622 4.42118 0 5.05823 0ZM5.15221 4.59694L4.32439 6.04273C4.98035 6.62758 5.26097 7.02512 5.03902 7.94625C4.85105 8.72513 4.38217 9.81552 4.38084 9.81853C4.08189 10.4874 3.07319 10.0291 3.37214 9.36019C3.37332 9.35748 3.80142 8.36381 3.96529 7.68431C4.05928 7.29378 3.95554 7.21212 3.68068 6.95614C3.18402 6.87895 2.85818 6.85601 2.54948 6.72786C2.24655 8.17542 1.77264 8.84312 1.02993 10.0411C0.646015 10.6634 -0.293527 10.0739 0.0903876 9.45164L0.583212 8.65671C1.41606 7.31315 1.31986 6.0867 1.72697 5.37519L2.88892 3.34575C2.17517 3.30969 1.66491 4.3107 1.24597 4.86217C0.805018 5.44433 -0.0737883 4.76741 0.367019 4.18539C1.32636 2.92228 1.513 2.0287 3.28244 2.26651C4.32897 2.40702 5.31683 2.71457 5.93689 3.65464C6.09191 3.88961 6.15914 4.11625 6.22771 4.30564C6.5568 4.15693 6.89224 4.02447 7.22636 3.88783C7.90138 3.61232 8.31665 4.64716 7.64189 4.92252C7.49927 4.98093 6.33277 5.47309 6.32405 5.47309C5.39722 5.79121 5.40076 5.17672 5.15221 4.59694Z" fill="black"/>
</g>
<defs>
<clipPath id="clip0_35_24448">
<rect width="8" height="11" fill="white"/>
</clipPath>
</defs>
</svg>
