<svg width="26" height="27" viewBox="0 0 26 27" fill="none" xmlns="http://www.w3.org/2000/svg">
<path d="M13 26.5C15.5712 26.5 18.0846 25.7376 20.2224 24.3091C22.3602 22.8806 24.0265 20.8503 25.0104 18.4749C25.9944 16.0994 26.2518 13.4856 25.7502 10.9638C25.2486 8.44208 24.0105 6.1257 22.1924 4.30762C20.3743 2.48954 18.0579 1.25141 15.5362 0.749799C13.0144 0.248191 10.4005 0.505634 8.02511 1.48957C5.64967 2.47351 3.61935 4.13976 2.19089 6.2776C0.762436 8.41543 -6.80637e-07 10.9288 -5.68248e-07 13.5C-4.17539e-07 16.9478 1.36964 20.2544 3.80761 22.6924C6.24558 25.1304 9.55218 26.5 13 26.5Z" fill="white"/>
<mask id="mask0_163_1016" style="mask-type:alpha" maskUnits="userSpaceOnUse" x="8" y="8" width="10" height="11">
<rect x="9" y="9.5" width="8" height="8" fill="#D9D9D9" stroke="black" stroke-width="2"/>
</mask>
<g mask="url(#mask0_163_1016)">
<path d="M17.3244 9.45102L8.6377 18.1377" stroke="#FB3D01" stroke-width="1.2" stroke-linecap="round"/>
<path d="M17.3895 18.202L8.57422 9.38672" stroke="#FB3D01" stroke-width="1.2" stroke-linecap="round"/>
</g>
</svg>
