<svg width="86" height="86" viewBox="0 0 86 86" fill="none" xmlns="http://www.w3.org/2000/svg">
<path d="M43 86C51.5046 86 59.8182 83.4781 66.8895 78.7532C73.9608 74.0283 79.4722 67.3126 82.7268 59.4554C85.9814 51.5982 86.8329 42.9523 85.1737 34.6111C83.5146 26.27 79.4192 18.6081 73.4056 12.5944C67.3919 6.58078 59.73 2.48542 51.3889 0.826254C43.0477 -0.832911 34.4018 0.0186371 26.5446 3.2732C18.6874 6.52777 11.9717 12.0392 7.2468 19.1105C2.5219 26.1818 -2.25134e-06 34.4954 -1.87959e-06 43C-1.38109e-06 54.4043 4.53034 65.3415 12.5944 73.4056C20.6585 81.4697 31.5957 86 43 86Z" fill="#501AA8"/>
<path d="M64.3167 29.7693L38.5902 55.4958L23.1543 40.0599" stroke="white" stroke-width="4" stroke-linejoin="round"/>
</svg>
