<svg width="120" height="120" viewBox="0 0 120 120" fill="none" xmlns="http://www.w3.org/2000/svg">
<path d="M30 90C13.4315 73.4315 13.4315 46.5685 30 30V30C46.5685 13.4315 73.4315 13.4315 90 30V30C106.569 46.5685 106.569 73.4315 90 90L60 120L30 90Z" fill="white"/>
<rect x="72" y="13" width="34" height="34" rx="17" fill="#6E6E6E"/>
<path d="M92.829 23.061L92.6607 23.0607L89.0855 30.1735L85.3817 23L80.3105 35.9592H79V37H86.1796V35.9592H84.7551L86.1796 31.909L89.0855 37L91.8777 31.909L93.302 35.9592H91.8777V37H99V35.9592H97.7661L92.829 23.061Z" fill="white"/>
</svg>
