<svg width="191" height="26" viewBox="0 0 191 26" fill="none" xmlns="http://www.w3.org/2000/svg"><rect x="146.779" y=".996" width="43.774" height="25" rx="5" fill="#F5F6F8"/><path fill-rule="evenodd" clip-rule="evenodd" d="M175.694 12.959v4.656h2.858v-2.76h3.239c1.363-.009 2.521-.797 2.958-1.896h-9.055z" fill="#37A72E"/><path fill-rule="evenodd" clip-rule="evenodd" d="M175.314 9.121c.166 1.903 2.156 3.406 4.585 3.406h4.97c.037-.174.056-.354.056-.539 0-1.576-1.405-2.855-3.144-2.867h-6.467z" fill="url(#paint0_linear_332_2937)"/><path fill-rule="evenodd" clip-rule="evenodd" d="M171.054 12.482l.002-.005a.175.175 0 01.15-.08c.093 0 .169.068.171.152h.001v5.023h2.858v-8.45h-2.858c-.363.01-.772.25-.925.546l-2.274 4.415a.184.184 0 01-.026.05l-.001.002a.197.197 0 01-.157.074c-.105 0-.19-.078-.19-.173V9.121h-2.858v8.45h2.858c.358-.017.758-.255.908-.547l2.335-4.53.006-.012zm-10.643.144l-1.67 4.946h-2.056l-1.672-4.949c-.016-.079-.093-.139-.185-.139-.104 0-.188.076-.188.17v4.918h-2.858v-8.45h3.184c.525 0 1.077.368 1.23.823l1.391 4.118c.069.205.182.205.251 0l1.391-4.118c.154-.455.705-.824 1.231-.824h3.183v8.45h-2.858v-4.917c0-.094-.084-.17-.188-.17-.094 0-.171.062-.186.142z" fill="#37A72E"/><rect x="98.002" y=".996" width="43.774" height="25" rx="5" fill="#F5F6F8"/><path d="M111.778 5.524h6.4c.893 0 1.449.724 1.241 1.615l-2.98 12.717c-.21.888-1.105 1.612-1.999 1.612h-6.399c-.892 0-1.449-.724-1.24-1.612l2.981-12.717c.208-.891 1.102-1.615 1.996-1.615z" fill="#E21836"/><path d="M117.648 5.524h7.359c.894 0 .491.724.281 1.615l-2.979 12.717c-.209.888-.144 1.612-1.039 1.612h-7.36c-.895 0-1.449-.724-1.238-1.612l2.979-12.717c.211-.891 1.103-1.615 1.997-1.615z" fill="#00447C"/><path d="M124.712 5.524h6.4c.894 0 1.45.724 1.24 1.615l-2.979 12.717c-.211.888-1.106 1.612-2 1.612h-6.397c-.895 0-1.45-.724-1.24-1.612l2.979-12.717c.209-.891 1.102-1.615 1.997-1.615z" fill="#007B84"/><path d="M113.449 9.6c-.658.006-.852 0-.914-.015l-.469 2.151c-.096.412-.166.706-.402.895a.718.718 0 01-.472.164c-.292 0-.462-.144-.491-.417l-.005-.094.089-.555s.466-1.856.549-2.101c.005-.014.006-.022.007-.028-.907.008-1.068 0-1.079-.015-.006.02-.029.135-.029.135l-.476 2.092-.04.177-.08.58c0 .173.034.313.102.432.217.377.835.433 1.185.433.451 0 .874-.095 1.16-.269.496-.291.626-.747.741-1.152l.054-.207s.48-1.928.562-2.178c.003-.014.004-.022.008-.028zm1.634 1.555c-.116 0-.327.027-.517.12-.069.035-.135.076-.203.116l.062-.223-.034-.037c-.403.081-.493.092-.865.144l-.032.02c-.043.357-.081.625-.241 1.325-.061.258-.125.518-.188.776l.017.032c.381-.02.497-.02.828-.014l.027-.029c.042-.214.048-.265.141-.7.044-.205.135-.658.181-.819a.615.615 0 01.242-.075c.186 0 .163.16.156.225-.008.108-.076.46-.145.762l-.046.195c-.033.144-.068.284-.1.427l.014.028c.376-.02.49-.02.811-.014l.038-.029c.058-.335.075-.425.178-.912l.052-.224c.1-.439.151-.661.075-.842-.081-.203-.274-.252-.451-.252zm1.825.459c-.2.038-.327.063-.454.08-.126.02-.248.038-.441.065l-.016.013-.014.011c-.02.143-.034.267-.06.412-.023.15-.058.321-.114.567a2.203 2.203 0 01-.092.319c-.024.066-.051.13-.1.315l.011.017.01.015c.18-.008.298-.014.42-.015.121-.005.247 0 .441 0l.017-.013.018-.015c.028-.167.033-.211.05-.293.017-.087.046-.208.118-.53.034-.151.072-.302.107-.456l.112-.457-.006-.018-.007-.017zm.004-.62c-.182-.106-.5-.072-.715.075-.214.144-.238.349-.057.457.179.104.498.073.711-.076.213-.147.24-.35.061-.455zm1.098 2.468c.367 0 .744-.1 1.027-.4.219-.242.319-.602.353-.75.113-.492.025-.722-.085-.862-.168-.213-.464-.281-.771-.281-.185 0-.624.018-.968.333-.247.227-.361.535-.43.83-.069.302-.149.844.353 1.046.154.066.377.084.521.084zm-.029-1.107c.085-.372.185-.685.44-.685.2 0 .215.233.126.606-.016.083-.089.392-.188.523-.069.097-.15.156-.24.156-.027 0-.187 0-.189-.236a1.56 1.56 0 01.051-.364zm2.327 1.059l.029-.029c.041-.214.048-.265.138-.7.045-.205.138-.658.182-.819.083-.038.163-.075.244-.075.184 0 .162.16.154.225a7.01 7.01 0 01-.145.762l-.043.195c-.034.144-.07.284-.103.427l.014.029c.377-.02.488-.02.811-.015l.039-.029c.056-.335.072-.425.178-.912l.05-.225c.101-.438.152-.66.077-.841-.082-.203-.277-.252-.452-.252a1.27 1.27 0 00-.719.236l.058-.222-.031-.038c-.403.081-.495.092-.866.144l-.029.02a11.32 11.32 0 01-.242 1.325c-.061.258-.124.518-.187.776l.017.033c.382-.02.496-.02.826-.015zm2.772.014l.165-.797s.12-.5.128-.518c0 0 .037-.052.075-.073h.056c.524 0 1.115 0 1.579-.339.316-.233.531-.576.628-.994.025-.102.043-.224.043-.345a.72.72 0 00-.126-.442c-.236-.329-.707-.335-1.251-.337l-.268.002c-.695.009-.974.006-1.089-.008l-.028.14-.249 1.15-.625 2.557c.608-.007.857-.007.962.005zm.461-2.04l.264-1.141.009-.06.004-.044.105.01.56.049c.216.083.305.297.242.576a.838.838 0 01-.436.573c-.177.088-.392.095-.615.095h-.143l.01-.058zm1.651.988c-.07.297-.151.84.348 1.033a.981.981 0 00.447.08c.153-.009.294-.085.426-.195l-.036.136.023.029c.359-.015.47-.015.859-.012l.035-.027c.057-.332.111-.654.258-1.289.072-.304.144-.605.218-.908l-.012-.033c-.401.074-.509.09-.895.144l-.029.024-.012.09a.551.551 0 00-.281-.23c-.172-.068-.576.019-.922.333-.244.224-.361.53-.427.825zm.843.019c.086-.366.185-.676.44-.676.162 0 .247.149.23.402l-.046.204c-.026.11-.054.217-.081.325a.771.771 0 01-.094.19c-.066.092-.223.15-.313.15-.025 0-.183 0-.189-.231a1.586 1.586 0 01.053-.364zm4.403-1.208l-.031-.035a9.46 9.46 0 01-.834.141l-.027.027-.004.017-.001-.006c-.272.623-.264.489-.485.98l-.003-.06-.055-1.064-.035-.035c-.416.08-.426.092-.81.141l-.03.027c-.004.013-.004.027-.007.042l.003.005c.048.244.036.19.084.575.023.19.053.38.075.566.038.312.059.466.106.943-.26.426-.321.587-.571.96l.002.004-.176.277c-.021.03-.039.05-.064.058a.27.27 0 01-.116.016h-.097l-.145.48.497.008c.292-.002.475-.137.574-.32l.313-.532h-.005l.033-.038c.21-.45 1.809-3.177 1.809-3.177zm-5.246 6.293h-.211l.78-2.567h.259l.082-.264.008.294c-.009.182.134.343.512.316h.437l.151-.494h-.165c-.094 0-.138-.024-.133-.075l-.008-.299h-.809v.002c-.261.005-1.043.025-1.201.066a1.423 1.423 0 00-.393.194l.079-.265h-.756l-.158.525-.791 2.606h-.154l-.15.49h1.507l-.05.164h.743l.049-.163h.208l.164-.53zm-.619-2.045a3.377 3.377 0 00-.347.134l.201-.656h.601l-.145.478s-.186.011-.31.044zm.012.937s-.189.023-.314.051c-.122.037-.352.154-.352.154l.207-.683h.605l-.146.478zm-.337 1.114h-.604l.175-.576h.602l-.173.576zm1.452-1.592h.87l-.125.402h-.881l-.132.44h.77l-.583.817a.24.24 0 01-.119.098.343.343 0 01-.156.045h-.214l-.147.482h.559a.682.682 0 00.59-.304l.4-.545.086.553a.259.259 0 00.144.188c.056.028.114.076.195.083.088.003.151.006.194.006h.274l.165-.539h-.108c-.062 0-.169-.01-.188-.03-.018-.023-.018-.06-.028-.114l-.087-.555h-.357l.157-.185h.879l.135-.44h-.814l.127-.402h.811l.151-.496h-2.42l-.148.496zm-7.343 1.704l.203-.671h.834l.152-.5h-.835l.128-.412h.816l.151-.484h-2.042l-.148.484h.464l-.123.413h-.465l-.155.507h.464l-.27.888c-.037.118.017.163.051.217.034.053.07.089.149.109a.91.91 0 00.214.029h.94l.168-.553-.417.056c-.081 0-.304-.01-.279-.083zm.095-3.213l-.211.38a.436.436 0 01-.123.158c-.032.02-.096.028-.188.028h-.111l-.147.486h.366a.837.837 0 00.376-.096c.069-.037.088-.016.141-.067l.124-.107h1.144l.152-.506h-.838l.147-.276h-.832zm1.689 3.223c-.02-.028-.006-.077.024-.18l.313-1.028h1.112c.162-.003.279-.005.355-.01a.73.73 0 00.268-.09.496.496 0 00.194-.178c.048-.066.125-.21.192-.432l.393-1.302-1.154.007s-.355.052-.512.11c-.158.064-.383.243-.383.243l.104-.357h-.713l-.998 3.29a2.2 2.2 0 00-.065.277c-.001.06.077.12.127.164.06.045.148.037.233.045.089.006.216.01.39.01h.548l.168-.564-.49.046a.13.13 0 01-.106-.051zm.539-1.903h1.168l-.075.231c-.01.006-.035-.011-.154.003h-1.011l.072-.234zm.233-.776h1.178l-.084.279s-.556-.006-.644.01c-.392.068-.62.276-.62.276l.17-.565zm.886 1.782a.122.122 0 01-.046.072c-.024.015-.062.02-.119.02h-.167l.01-.282h-.692l-.028 1.378c-.001.1.008.157.082.203.073.058.298.065.602.065h.433l.157-.516-.378.02-.125.008a.141.141 0 01-.052-.032c-.016-.016-.043-.006-.038-.105l.003-.354.396-.016a.515.515 0 00.383-.135c.074-.063.099-.136.127-.234l.066-.312h-.544l-.07.22z" fill="#FEFEFE"/><rect x="49.226" y=".996" width="43.774" height="25" rx="5" fill="#F5F6F8"/><path fill-rule="evenodd" clip-rule="evenodd" d="M76.5 21.872h.4l.436-.037.4-.073.4-.074.4-.073.4-.11.363-.147.363-.146.363-.147.364-.183.363-.22.327-.184.327-.256.29-.22.291-.294.291-.256.29-.294.255-.293.218-.33.255-.294.218-.366.181-.33.182-.367.145-.367.146-.366.145-.367.11-.403.108-.404.073-.403.036-.403.037-.44v-.845l-.037-.403-.036-.44-.073-.403-.109-.367-.109-.403-.145-.404-.146-.366-.145-.367-.182-.33-.181-.367-.218-.33-.255-.33-.218-.293-.254-.293-.29-.294-.291-.293-.291-.257-.29-.22-.328-.257-.327-.183-.363-.22-.364-.183-.363-.147-.363-.147-.364-.146-.4-.11-.4-.074-.399-.073-.4-.073-.436-.037h-.835l-.4.037-.436.073-.4.073-.363.074-.4.11-.4.146-.363.147-.363.147-.327.183-.364.22-.327.183-.327.257-.29.22-.291.257-.29.293-.291.294-.255.293-.218.293-.254.33-.182.33-.218.367-.182.33-.145.367-.145.366-.146.404-.109.403-.072.367-.073.403-.073.44-.036.403v.845l.036.44.073.403.073.403.072.404.11.403.145.367.145.366.145.367.182.367.218.33.182.366.254.294.218.33.255.293.29.293.29.257.292.294.29.22.327.256.327.184.364.22.327.183.363.147.363.146.4.147.4.11.363.073.4.074.436.073.4.037h.436z" fill="#FBB231"/><path fill-rule="evenodd" clip-rule="evenodd" d="M65.567 21.872h.4l.436-.037.4-.073.4-.074.399-.073.4-.11.363-.147.363-.146.364-.147.363-.183.327-.22.327-.184.327-.256.327-.22.29-.294.292-.256.254-.294.254-.293.255-.33.218-.294.218-.366.181-.33.182-.367.182-.367.145-.366.11-.367.108-.403.11-.404.072-.403.036-.403.037-.44v-.845l-.037-.403-.036-.44-.073-.403-.109-.367-.109-.403-.109-.404-.145-.366-.182-.367-.182-.33-.181-.367-.218-.33-.218-.33-.255-.293-.254-.293-.254-.294-.291-.293-.29-.257-.328-.22-.327-.257-.327-.183-.327-.22-.363-.183-.364-.147-.363-.147-.363-.146-.4-.11-.4-.074-.4-.073-.4-.073-.435-.037h-.837l-.4.037-.436.073-.4.073-.4.074-.362.11-.4.146-.364.147-.363.147-.363.183-.327.22-.327.183-.327.257-.327.22-.291.257-.29.293-.255.294-.255.293-.254.293-.218.33-.218.33-.218.367-.182.33-.145.367-.145.366-.146.404-.109.403-.072.367-.073.403-.073.44v.403l-.036.44.036.404v.44l.073.403.073.403.072.404.11.403.145.367.145.366.145.367.182.367.218.33.218.366.218.294.255.33.254.293.254.293.29.257.292.294.327.22.327.256.327.184.327.22.363.183.363.147.364.146.4.147.363.11.4.073.4.074.435.073.4.037h.436z" fill="#EC1C2E"/><path fill-rule="evenodd" clip-rule="evenodd" d="M70.072 8.525h4.324v-.44h-3.961l-.364.44zm-.652.99h4.978v-.44h-4.724l-.254.44zm-.474 1.026h5.45v-.476h-5.268l-.182.476zm-.363.99h5.814v-.476h-5.669l-.145.476zm.22 4.803h5.632v-.44h-5.777l.145.44zm.401.991h5.232v-.44h-5.45l.218.44zm.578.989h4.651v-.44h-4.905l.254.44zm.8.991h3.852v-.44h-4.215l.363.44zm-2.178-6.784H74.4v-.44h-5.923l-.073.44zm3.668 2.824h2.289v-.44h-2.217l-.073.44zm.178-.99h2.107v-.44h-2.035l-.072.44zm-3.996-.44h.582v.44h-.545l-.037-.44z" fill="#FBB231"/><path fill-rule="evenodd" clip-rule="evenodd" d="M67.129 13.364h-.036l-.037-.037h-.218l-.036-.036h-.327l-.073.037h-.181l-.037.036h-.036l-.036.037-.037.037v.036h-.036v.184l.036.036.037.037.036.037.073.073.072.037h.073l.109.036.073.037.109.037.072.036.11.037.072.073.073.073.036.074.036.11.037.11v.477l-.037.11-.072.11-.037.073-.072.073-.073.074-.073.073-.072.037-.11.073-.072.037h-.11l-.072.036h-.109l-.109.037h-.654l-.073-.037h-.254l-.036-.036h-.109l-.037-.037h-.036l-.073-.037.146-.586h.073l.072.036h.109l.037.037h.217l.073.037h.473l.072-.037.037-.037.036-.036.036-.037.037-.037v-.11l.036-.073-.036-.073-.037-.037-.072-.037-.11-.073-.072-.037-.11-.037-.108-.036-.11-.037-.108-.073-.11-.074-.072-.073-.072-.11-.037-.146-.036-.147v-.294l.036-.073.037-.11.036-.073.036-.11.037-.073.072-.074.073-.037.073-.073.072-.037.11-.036.108-.037h.11l.145-.037h.908l.036.037h.182l.036.037-.145.623zm.655-1.32h.763l-.109.66h.473l-.11.624h-.472l-.29 1.54v.073l.036.037.036.037v.036h.073l.036.037h.364l.036-.037h.036l-.109.514-.036.036h-.036v.037h-.109l-.037.037h-.726l-.073-.037-.073-.037h-.036l-.073-.037-.036-.036-.036-.037v-.11l-.037-.037v-.146l.037-.037v-.073l.508-3.044zm8.324.844l-.036-.037h-.037L76 12.815h-.072l-.037-.037h-.036l-.037-.037h-.109l-.072-.036h-.146l-.072-.037H75.2l-.073.037h-.145l-.073.036-.073.037-.072.037-.073.036-.109.074-.036.073-.073.073-.073.11-.072.11-.037.147-.072.147-.037.183-.036.11v.367l.036.11v.073l.037.073.036.074.073.073.036.073.073.074.072.036.11.037.072.037.11.036h.143l.037.037h.254l.073-.037h.073l.072-.036h.073l.073-.037.072-.037.037-.036.072-.074-.145.77v.037H75.6l-.037.037h-.036l-.037.036h-.036l-.036.037h-.073l-.073.037h-.835l-.11-.037-.145-.037-.109-.073-.145-.073-.109-.074-.109-.073-.109-.11-.073-.147-.072-.146-.073-.147-.073-.183v-.184l-.036-.183v-.22l.036-.22.037-.11v-.11l.036-.11.036-.11.037-.11.036-.073.036-.11.037-.074.036-.11.036-.073.037-.073.072-.074.037-.073.072-.073.037-.037.072-.073.073-.074.036-.036.073-.037.073-.037.072-.073.073-.037h.073l.072-.036.11-.037.072-.037h.11l.072-.036h.181l.11-.037h.218l.072.037h.255l.072.036h.073l.036.037h.073l.073.037h.036l.036.036h.073l.036.037-.109.77zm6.792 2.787h-.8l.074-.294v-.037l-.037.074-.036.037-.073.036-.036.037-.073.037-.036.036-.036.037-.073.037h-.037l-.072.036h-.146l-.036.037h-.145l-.11-.037-.145-.036-.109-.037-.109-.073-.109-.074-.109-.073-.072-.11-.073-.11-.036-.147-.037-.11-.036-.147-.036-.146v-.44l.036-.11.036-.184.073-.146.036-.147.073-.146.073-.11.072-.11.11-.11.072-.074.11-.11.108-.037.11-.073.072-.037.145-.073h.11l.108-.037h.182l.073.037h.145l.073.037.036.037.073.036h.036l.036.037.036.037.037.036.036.037.037.037.036.036v.037l.036.037.182-1.1h.763l-.618 3.63z" fill="#F5F6F8"/><path fill-rule="evenodd" clip-rule="evenodd" d="M81.629 15.015h.145l.073-.036.072-.037.037-.037.072-.036.036-.037.073-.073.037-.037.036-.073.036-.037.037-.073v-.074l.036-.073.036-.073v-.147l.036-.11v-.073l-.036-.074v-.146l-.036-.037v-.073l-.037-.074-.036-.036-.036-.037-.036-.037-.037-.036-.073-.037h-.036l-.073-.037-.072.037h-.073l-.036.037H81.7l-.072.036-.037.074-.036.036-.073.037-.036.073-.037.074-.036.036-.036.074-.037.073v.11l-.036.073v.074l-.036.11.036.146v.147l.036.11.073.11.073.11.072.073h.11z" fill="#FBB231"/><path fill-rule="evenodd" clip-rule="evenodd" d="M64.694 15.088l-.109.586h-.69v-.11l.036-.073v-.147l-.036.074-.037.036-.036.037-.073.037-.072.036-.073.037-.072.037-.073.036h-.073l-.073.037h-.072l-.11.037h-.216l-.073-.037h-.109l-.073-.037-.072-.036-.073-.037-.073-.073-.036-.037-.073-.037-.036-.073-.036-.037v-.073l-.037-.073v-.037l-.036-.073v-.294l.036-.11v-.11l.037-.073.036-.11.073-.073.036-.074.073-.073.072-.073.073-.037.073-.073.109-.037.072-.037.11-.037.072-.036h.254l.037-.037h.326l.036-.037h.073l.072.037h.255v-.037l.036-.036v-.184l-.036-.036-.037-.073-.036-.037-.036-.037h-.073l-.072-.037h-.656l-.109.037h-.145l-.073.037h-.072l-.073.037h-.036l-.037.036h-.036l.182-.66.072-.037h.073l.073-.036h.036l.073-.037h.219l.072-.037h.618l.11.037h.145l.108.037.073.037.073.036.109.037.073.073.072.037.037.073.072.073.037.11.036.074v.33l-.29 1.467z" fill="#F5F6F8"/><path fill-rule="evenodd" clip-rule="evenodd" d="M64.041 14.355v-.037h-.109l-.036-.037h-.073l-.036.037h-.218l-.036.037h-.073l-.036.036h-.073l-.036.037h-.037l-.036.037-.036.036-.037.037h-.036l-.036.037v.036l-.037.037v.11l-.036.073.036.074.037.073.036.037.036.036h.037l.036.037h.146l.072-.037h.109l.073-.036.036-.037h.073l.036-.037.036-.036.037-.037.036-.037v-.036h.036v-.074l.037-.036v-.074l.036-.11v-.073l.036-.073z" fill="#EC1C2E"/><path fill-rule="evenodd" clip-rule="evenodd" d="M58.883 15.675h-.726l.618-3.63h1.308l.109 2.163.908-2.164h1.38l-.653 3.63h-.763l.472-2.713H61.5l-1.09 2.714h-.872v-.405l-.037-.44-.036-.476-.037-.514v-.44l-.036-.293v-.147h-.036l-.473 2.714zm19.514-.587l-.109.586h-.69v-.293l-.036.037-.037.036-.072.037-.037.037-.072.036-.037.037-.072.037-.073.036h-.073l-.072.037h-.11l-.072.037h-.218l-.073-.037h-.109l-.073-.037-.072-.036-.073-.037-.073-.073-.072-.037-.037-.037-.036-.073-.036-.037v-.073l-.036-.073v-.037l-.037-.073v-.294l.037-.11v-.11l.036-.073.036-.11.073-.073.036-.074.073-.073.073-.073.072-.037.073-.073.109-.037.073-.037.109-.037.072-.036h.255l.036-.037h.291l.036-.037h.109l.073.037h.254v-.073l.036-.073v-.037l-.036-.074v-.036l-.036-.073-.037-.037-.072-.037h-.037l-.072-.037h-.654l-.11.037h-.145l-.073.037h-.072l-.073.037H76.4l-.037.036h-.036l.182-.66.073-.037h.072l.073-.036h.036l.073-.037h.217l.073-.037h.617l.073.037h.182l.072.037.11.037.072.036.073.037.072.073.073.037.073.073.072.073.037.11.036.074v.33l-.29 1.467z" fill="#F5F6F8"/><path fill-rule="evenodd" clip-rule="evenodd" d="M78.283 15.712l.11-.623h-.037l-.11.587h.037v.036z" fill="#F5F6F8"/><path fill-rule="evenodd" clip-rule="evenodd" d="M77.557 15.675l.037.036h.69v-.036h-.727v.036h.037l-.037-.036zm.037-.294v-.036l-.037.073v.257h.037v-.33.036z" fill="#F5F6F8"/><path fill-rule="evenodd" clip-rule="evenodd" d="M76.538 15.748h.363l.109-.037h.073l.072-.036.073-.037.073-.037h.072l.037-.073.072-.037.037-.036.036-.037.036-.037v-.036l-.036.073-.036.037-.073.036-.036.037-.073.037-.073.036h-.072l-.037.037-.072.037h-.11l-.072.036h-.363v.037z" fill="#F5F6F8"/><path fill-rule="evenodd" clip-rule="evenodd" d="M75.85 14.905v.037l.037.073v.147l.036.037v.073l.037.073.036.037.036.073.037.037.072.073.037.037.072.037.11.036.072.037.109.037v-.037l-.109-.037-.073-.036-.072-.037-.073-.037-.073-.036-.036-.037-.036-.073-.037-.037-.036-.073-.036-.037-.037-.073v-.184l-.036-.073v-.037h-.036z" fill="#F5F6F8"/><path fill-rule="evenodd" clip-rule="evenodd" d="M76.868 13.842h-.109l-.109.037-.073.036-.109.037-.072.037-.073.036-.073.073-.072.074-.073.073-.073.074-.036.073-.036.11-.037.073-.036.11v.11l-.036.11h.036l.036-.11v-.11l.037-.11.036-.073.036-.11.037-.073.072-.074.037-.073.072-.037.073-.073.109-.037.073-.073.072-.037h.11l.072-.036.109-.037z" fill="#F5F6F8"/><path fill-rule="evenodd" clip-rule="evenodd" d="M77.413 13.769h-.218l-.072.036h-.255v.037h.255l.072-.037h.218v-.036z" fill="#F5F6F8"/><path fill-rule="evenodd" clip-rule="evenodd" d="M77.812 13.805v-.036h-.4v.036h.4z" fill="#F5F6F8"/><path fill-rule="evenodd" clip-rule="evenodd" d="M77.81 13.621v.184l.038-.037v-.147h-.037z" fill="#F5F6F8"/><path fill-rule="evenodd" clip-rule="evenodd" d="M77.483 13.328l.072.037h.073l.036.037.037.036.036.037.036.037.037.036v.073h.036v-.073l-.037-.037-.036-.073-.036-.037-.036-.036-.073-.037h-.073l-.072-.037v.037z" fill="#F5F6F8"/><path fill-rule="evenodd" clip-rule="evenodd" d="M76.326 13.475v.037l.037-.037h.036l.073-.037h.036l.073-.037h.145l.073-.036h.182l.109-.037h.399l-.073-.037h-.254l-.073.037h-.291l-.072.037h-.145l-.073.037h-.073l-.036.036h-.036l-.037.037h.037-.037z" fill="#F5F6F8"/><path fill-rule="evenodd" clip-rule="evenodd" d="M76.508 12.778v.037l-.182.66h.037l.181-.66-.036-.037v.037-.037z" fill="#F5F6F8"/><path fill-rule="evenodd" clip-rule="evenodd" d="M77.74 12.668h-.763l-.073.036h-.145l-.036.037h-.073l-.073.037h-.072l.036.036h.036l.073-.037.073-.036h.109l.072-.037h.836v-.037zm.945.952l.036-.11v-.11l-.036-.11-.036-.11-.037-.072-.072-.074-.037-.073-.072-.074-.073-.036-.109-.037-.073-.037-.109-.036-.072-.037-.073-.037h-.182v.037h.146l.109.037.072.037h.073l.109.073.073.036.072.037.073.074.073.073.036.073.036.073.037.074.036.11v.11l-.036.073.036.037z" fill="#F5F6F8"/><path fill-rule="evenodd" clip-rule="evenodd" d="M78.4 15.088l.29-1.467-.036-.037-.29 1.504h.036z" fill="#F5F6F8"/><path fill-rule="evenodd" clip-rule="evenodd" d="M77.707 14.355v-.037h-.036l-.037-.037h-.108l-.072.037h-.182l-.036.037h-.11l-.037.036h-.036l-.036.037h-.036l-.037.037h-.036l-.037.036-.036.037v.037l-.036.036-.037.037v.257l.037.073v.037l.072.036h.037l.036.037h.146l.072-.037h.073l.073-.036h.036l.073-.037.036-.037.036-.036h.036l.037-.037.036-.037.037-.036v-.037l.036-.037v-.073l.036-.073v-.22z" fill="#FBB231"/><path fill-rule="evenodd" clip-rule="evenodd" d="M83.41 15.309v-.147l.072-.073.036-.037.037-.037.072-.036.073-.037h.145l.073.037.073.036.072.037.037.037.036.073.036.073v.074H84.1v-.037l-.037-.073-.036-.037-.036-.073-.037-.037-.036-.037h-.255l-.072.037-.036.037-.037.073v.037l-.036.073v.037h-.073z" fill="#F5F6F8"/><path fill-rule="evenodd" clip-rule="evenodd" d="M83.665 15.308v-.146h.254v.073h.036l-.036.037v.036h-.11.037l.036-.036v-.074H83.7v.11h-.035zm-.255 0v.183l.072.074.036.036.037.037.072.037.073.036h.145l.073-.036.073-.037.072-.037.037-.036.036-.074.036-.073v-.11H84.1v.073l-.037.074-.036.036-.036.074-.037.036-.036.037h-.255l-.072-.037-.036-.036-.037-.074v-.036l-.036-.074v-.073h-.073z" fill="#F5F6F8"/><path fill-rule="evenodd" clip-rule="evenodd" d="M83.665 15.308v.184h.036v-.147h.073l.11.147h.036l-.073-.147h.036l.037-.037h-.255zm-5.088.366h.8l.254-1.576.036-.037v-.073l.037-.074v-.037l.036-.073.036-.073.037-.037.036-.073.073-.037.036-.037.073-.036.072-.037.073-.037.073-.036h.29l.11-.733-.073.036h-.146l-.072.037h-.037l-.072.037-.037.036-.072.037-.037.036-.036.037-.073.037-.036.037-.036.073-.037.037-.036.036-.036.073.072-.513h-.763l-.545 2.97zm-7.307 0h.799l.254-1.576.037-.037v-.073l.036-.074v-.037l.036-.073v-.037l.037-.036.036-.073.073-.037.036-.037.073-.037.036-.036h.109l.073-.037h.109l.109-.037v.037h.072v-.11l.037-.037v-.073l.036-.11.036-.073v-.073l.037-.037.036-.074v-.036l.036-.037.037-.073.036-.037h-.073l-.036-.037h-.036l-.073.037h-.145l-.073.037h-.073l-.036.037-.073.036-.036.037-.036.036-.073.037-.036.037-.037.037-.036.036-.036.073-.037.037-.036.073.073-.513h-.763l-.546 2.97z" fill="#F5F6F8"/><path fill-rule="evenodd" clip-rule="evenodd" d="M83.41 18.608v-.073l.072-.073.036-.037.037-.037.072-.036.073-.037h.145l.073.037.073.036.072.037.037.037.036.073.036.073H84.1l-.037-.036-.036-.074-.036-.036-.037-.037-.036-.037h-.073l-.073-.036-.036.036h-.073l-.072.037-.036.037-.037.036v.074l-.036.036h-.073z" fill="#FBB231"/><path fill-rule="evenodd" clip-rule="evenodd" d="M83.665 18.609v-.073h.254v.073h.036-.073v-.037H83.7v.037h-.035zm-.255.074v-.074h.073v.074h-.074z" fill="#FBB231"/><path fill-rule="evenodd" clip-rule="evenodd" d="M83.665 18.682v-.073h.036v.073h.145v-.036h.036v-.037h.073l-.036.037v.036h-.254zm.431.001v-.074h.074v.074h-.074z" fill="#FBB231"/><path fill-rule="evenodd" clip-rule="evenodd" d="M83.41 18.681v.147l.072.073.036.073.037.037.072.037.073.037h.145l.073-.037.073-.037.072-.037.037-.073.036-.073.036-.073v-.074H84.1v.073l-.037.074-.036.037-.036.036-.037.073h-.036l-.073.037h-.109l-.073-.037h-.072l-.036-.073-.037-.037v-.036l-.036-.073v-.074h-.073z" fill="#FBB231"/><path fill-rule="evenodd" clip-rule="evenodd" d="M83.665 18.681v.147h.036v-.11h.073l.11.11h.036l-.073-.11.036-.037h.037-.255z" fill="#FBB231"/><path fill-rule="evenodd" clip-rule="evenodd" d="M71.379 13.585l-.037-.184-.036-.146-.073-.11-.072-.11-.073-.11-.073-.074-.109-.073-.109-.037-.109-.036-.109-.037-.109-.037h-.436l-.181.037-.182.037-.145.073-.146.073-.109.11-.109.11-.073.11-.072.11-.073.11-.036.11-.037.11-.036.11-.036.11v.624l.036.183.037.147.072.146.073.11.109.11.109.11.109.074.109.073.145.037.146.036.145.037.145.037h1.09l.037-.037.036-.037.11-.696-.074.036-.072.037-.073.037-.073.036-.072.037h-.873l-.073-.037-.073-.036-.036-.037-.036-.037-.037-.036-.036-.037-.036-.037-.037-.036-.036-.037-.036-.037-.037-.036v-.147h1.78v-.183l.037-.22.036-.22-.072-.22zm-.763.256h-1.018v-.183l.037-.073.036-.037.036-.037.037-.036.036-.037.036-.037.037-.036.036-.037.036-.037.037-.036h.29l.037.036.036.037.036.037.037.036.036.037.036.037.037.036.036.037v.22l.073.073z" fill="#F5F6F8"/><rect x=".449" y=".996" width="43.774" height="25" rx="5" fill="#F5F6F8"/><path d="M19.837 18.882h-2.692L18.822 8.67h2.736l-1.721 10.213zM14.851 8.669l-2.56 7.01-.308-1.514-.927-4.587s-.088-.909-1.28-.909h-4.28l-.045.173s1.324.26 2.825 1.168l2.383 8.872h2.824l4.281-10.213h-2.912zm21.272 10.213h2.472l-2.163-10.17H34.27c-1.015 0-1.236.779-1.236.779l-4.016 9.39h2.825l.573-1.514h3.443l.264 1.515zm-2.957-3.636l1.413-3.808.794 3.808h-2.207zm-3.969-4.11l.397-2.207s-1.192-.433-2.428-.433c-1.323 0-4.545.563-4.545 3.376 0 2.64 3.751 2.683 3.751 4.024 0 1.385-3.354 1.125-4.457.26l-.397 2.293s1.191.563 3.045.563c1.853 0 4.634-.952 4.634-3.505 0-2.64-3.796-2.9-3.796-4.025.044-1.125 2.648-.952 3.796-.346z" fill="#0066B2"/><path d="M11.983 14.165l-.927-4.587s-.088-.909-1.28-.909h-4.28l-.045.174s2.03.432 4.016 1.99c1.898 1.472 2.516 3.332 2.516 3.332z" fill="#F9A533"/><defs><linearGradient id="paint0_linear_332_2937" x1="175.314" y1="10.824" x2="184.925" y2="10.824" gradientUnits="userSpaceOnUse"><stop stop-color="#00A0E5"/><stop offset="1" stop-color="#0077C3"/></linearGradient></defs></svg>