<svg width="40" height="40" viewBox="0 0 40 40" fill="none" xmlns="http://www.w3.org/2000/svg"><rect width="40" height="40" rx="20" fill="#fff" fill-opacity=".05"/><path d="M19.131 20.42a12.634 12.634 0 01-2.637-3.81.749.749 0 01.166-.826l.819-.818c.67-.671.67-1.62.085-2.206l-1.174-1.174a2 2 0 00-2.829 0l-.652.652c-.74.74-1.05 1.81-.85 2.87.495 2.613 2.013 5.474 4.461 7.923 2.45 2.449 5.31 3.967 7.924 4.46 1.06.2 2.129-.108 2.87-.85l.65-.65a2 2 0 000-2.828l-1.172-1.173a1.5 1.5 0 00-2.122 0l-.903.904a.749.749 0 01-.826.166 12.66 12.66 0 01-3.81-2.64z" fill="#fff"/></svg>