<svg width="97" height="74" viewBox="0 0 97 74" fill="none" xmlns="http://www.w3.org/2000/svg">
<path d="M18.1576 36.6361C19.2726 36.4743 20.7857 36.3934 22.697 36.3934C28.7496 36.3934 33.289 38.1727 36.3153 41.7311C39.5008 45.1279 41.0936 49.4142 41.0936 54.5902C41.0936 60.0896 39.2619 64.6995 35.5985 68.4197C32.0944 72.1399 27.2365 74 21.0246 74C14.6535 74 9.55665 72.2208 5.73399 68.6623C1.91133 64.9421 0 59.6044 0 52.6492C0 43.2678 2.78736 33.8055 8.36207 24.2623C13.9368 14.5574 20.7857 6.46994 28.9089 0L33.6872 5.09508C23.3342 16.2557 18.1576 26.7694 18.1576 36.6361ZM74.064 36.6361C75.179 36.4743 76.6921 36.3934 78.6034 36.3934C84.656 36.3934 89.1954 38.1727 92.2217 41.7311C95.4072 45.1279 97 49.4142 97 54.5902C97 60.0896 95.1683 64.6995 91.5049 68.4197C88.0008 72.1399 83.1429 74 76.931 74C70.5599 74 65.463 72.2208 61.6404 68.6623C57.8177 64.9421 55.9064 59.6044 55.9064 52.6492C55.9064 43.2678 58.6938 33.8055 64.2685 24.2623C69.8432 14.5574 76.6921 6.46994 84.8153 0L89.5936 5.09508C79.2406 16.2557 74.064 26.7694 74.064 36.6361Z" fill="white" fill-opacity="0.1"/>
</svg>
