<svg width="208" height="47" viewBox="0 0 208 47" fill="none" xmlns="http://www.w3.org/2000/svg">
<path d="M64.974 7.5458C64.2103 4.69215 61.9675 2.44959 59.1139 1.68571C53.947 0.299805 33.2182 0.299805 33.2182 0.299805C33.2182 0.299805 12.4898 0.299805 7.32263 1.68571C4.469 2.44959 2.22645 4.69215 1.46256 7.5458C0.0766606 12.7129 0.0766602 23.5001 0.0766602 23.5001C0.0766602 23.5001 0.0766606 34.2873 1.46256 39.4544C2.22645 42.308 4.469 44.5506 7.32263 45.3143C12.4898 46.7003 33.2182 46.7003 33.2182 46.7003C33.2182 46.7003 53.947 46.7003 59.1139 45.3143C61.9675 44.5506 64.2103 42.308 64.974 39.4544C66.36 34.2873 66.36 23.5001 66.36 23.5001C66.36 23.5001 66.3545 12.7129 64.974 7.5458Z" fill="#FF0000"/>
<path d="M26.5835 33.4424L43.8037 23.501L26.5835 13.5596V33.4424Z" fill="white"/>
<path d="M80.355 30.4686L72.9126 3.59082H79.4057L82.0138 15.7748C82.6794 18.7757 83.165 21.3347 83.4815 23.4518H83.6724C83.8907 21.9349 84.3819 19.3923 85.1403 15.8184L87.841 3.59082H94.3341L86.7989 30.4686V43.362H80.3497V30.4686H80.355Z" fill="white"/>
<path d="M96.2875 42.5094C94.978 41.6255 94.0449 40.2504 93.4884 38.3844C92.9373 36.5184 92.6592 34.0413 92.6592 30.942V26.7242C92.6592 23.5977 92.9756 21.0825 93.6085 19.1891C94.2414 17.2958 95.2291 15.9099 96.5712 15.0423C97.9136 14.1748 99.6759 13.7383 101.859 13.7383C104.008 13.7383 105.727 14.1802 107.025 15.0642C108.319 15.9481 109.268 17.334 109.868 19.211C110.468 21.0934 110.769 23.5977 110.769 26.7242V30.942C110.769 34.0413 110.474 36.5293 109.89 38.4062C109.306 40.2887 108.357 41.6638 107.047 42.5312C105.738 43.3989 103.959 43.8353 101.717 43.8353C99.403 43.8407 97.5971 43.3934 96.2875 42.5094ZM103.632 37.9589C103.992 37.0096 104.177 35.4654 104.177 33.3156V24.2636C104.177 22.1792 103.997 20.6514 103.632 19.6911C103.266 18.7254 102.628 18.2452 101.711 18.2452C100.827 18.2452 100.2 18.7254 99.8397 19.6911C99.474 20.6569 99.294 22.1792 99.294 24.2636V33.3156C99.294 35.4654 99.4685 37.0149 99.8179 37.9589C100.167 38.9083 100.794 39.383 101.711 39.383C102.628 39.383 103.266 38.9083 103.632 37.9589Z" fill="white"/>
<path d="M131.89 43.3671H126.772L126.204 39.8096H126.062C124.671 42.4941 122.587 43.8362 119.804 43.8362C117.878 43.8362 116.454 43.2033 115.537 41.9431C114.621 40.677 114.162 38.702 114.162 36.0175V14.3067H120.704V35.6354C120.704 36.9341 120.846 37.8561 121.13 38.4074C121.414 38.9584 121.888 39.2365 122.554 39.2365C123.121 39.2365 123.667 39.0621 124.191 38.7129C124.715 38.3635 125.097 37.9215 125.353 37.387V14.3013H131.89V43.3671Z" fill="white"/>
<path d="M149.661 8.85511H143.168V43.3662H136.768V8.85511H130.275V3.59521H149.661V8.85511Z" fill="white"/>
<path d="M165.44 43.3671H160.322L159.755 39.8096H159.613C158.222 42.4941 156.138 43.8362 153.355 43.8362C151.429 43.8362 150.005 43.2033 149.088 41.9431C148.171 40.677 147.713 38.702 147.713 36.0175V14.3067H154.255V35.6354C154.255 36.9341 154.397 37.8561 154.681 38.4074C154.964 38.9584 155.439 39.2365 156.105 39.2365C156.672 39.2365 157.218 39.0621 157.742 38.7129C158.266 38.3635 158.647 37.9215 158.904 37.387V14.3013H165.44V43.3671Z" fill="white"/>
<path d="M187.091 18.9498C186.693 17.1165 186.055 15.7906 185.171 14.9667C184.287 14.1428 183.07 13.7336 181.521 13.7336C180.32 13.7336 179.196 14.0719 178.154 14.7539C177.112 15.436 176.304 16.3254 175.737 17.433H175.688V2.12256H169.386V43.3614H174.787L175.453 40.6115H175.595C176.102 41.5935 176.861 42.3628 177.87 42.9359C178.88 43.5034 180.004 43.7871 181.237 43.7871C183.447 43.7871 185.078 42.7668 186.12 40.7314C187.162 38.6907 187.686 35.5097 187.686 31.1775V26.5778C187.686 23.3312 187.484 20.7832 187.091 18.9498ZM181.095 30.8063C181.095 32.9234 181.008 34.5822 180.833 35.7826C180.659 36.9829 180.369 37.8397 179.955 38.3415C179.545 38.8489 178.989 39.1 178.296 39.1C177.756 39.1 177.259 38.9744 176.801 38.7181C176.343 38.4671 175.972 38.0852 175.688 37.5831V21.0887C175.906 20.2975 176.288 19.6537 176.828 19.1463C177.363 18.6388 177.952 18.3878 178.58 18.3878C179.245 18.3878 179.758 18.6497 180.118 19.1681C180.484 19.6919 180.735 20.5649 180.877 21.798C181.019 23.0312 181.09 24.7826 181.09 27.0579V30.8063H181.095Z" fill="white"/>
<path d="M196.967 32.481C196.967 34.347 197.021 35.7439 197.131 36.677C197.24 37.6099 197.469 38.2867 197.818 38.7177C198.167 39.1432 198.702 39.356 199.428 39.356C200.405 39.356 201.081 38.9741 201.441 38.2157C201.807 37.4573 202.003 36.1914 202.036 34.4236L207.678 34.7563C207.711 35.0073 207.727 35.3565 207.727 35.7984C207.727 38.4829 206.99 40.4909 205.523 41.8168C204.055 43.1427 201.976 43.8083 199.291 43.8083C196.067 43.8083 193.808 42.7989 192.515 40.7747C191.216 38.7504 190.572 35.624 190.572 31.3897V26.3153C190.572 21.9558 191.243 18.7693 192.586 16.7614C193.928 14.7535 196.225 13.7495 199.482 13.7495C201.725 13.7495 203.449 14.1587 204.649 14.9827C205.85 15.8065 206.696 17.0833 207.187 18.8239C207.678 20.5644 207.923 22.9652 207.923 26.0316V31.0078H196.967V32.481ZM197.796 18.7857C197.463 19.1949 197.245 19.8661 197.131 20.7991C197.021 21.7321 196.967 23.1453 196.967 25.0442V27.1285H201.752V25.0442C201.752 23.178 201.687 21.7649 201.561 20.7991C201.436 19.8333 201.207 19.1567 200.874 18.7584C200.541 18.3656 200.028 18.1637 199.335 18.1637C198.637 18.1691 198.124 18.3765 197.796 18.7857Z" fill="white"/>
</svg>
