<svg width="25" height="17" viewBox="0 0 25 17" fill="none" xmlns="http://www.w3.org/2000/svg">
<path d="M23.9982 2.72325C23.7216 1.69 22.9096 0.878009 21.8763 0.60142C20.0055 0.0996095 12.5 0.0996094 12.5 0.0996094C12.5 0.0996094 4.99456 0.0996095 3.12364 0.60142C2.09039 0.878009 1.2784 1.69 1.00181 2.72325C0.5 4.59417 0.5 8.5 0.5 8.5C0.5 8.5 0.5 12.4058 1.00181 14.2768C1.2784 15.31 2.09039 16.122 3.12364 16.3986C4.99456 16.9004 12.5 16.9004 12.5 16.9004C12.5 16.9004 20.0055 16.9004 21.8763 16.3986C22.9096 16.122 23.7216 15.31 23.9982 14.2768C24.5 12.4058 24.5 8.5 24.5 8.5C24.5 8.5 24.498 4.59417 23.9982 2.72325Z" fill="white"/>
<path d="M10.0977 12.1001L16.3328 8.5005L10.0977 4.90088V12.1001Z" fill="#FF0000"/>
</svg>
