<svg width="321" height="37" viewBox="0 0 321 37" fill="none" xmlns="http://www.w3.org/2000/svg"><path d="M12.274 28.992c-1.574 0-3.148-.3-4.642-.9-1.495-.6-2.754-1.5-3.934-2.625a12.27 12.27 0 01-2.675-4.2C.315 19.617 0 17.817 0 15.717c0-2.1.315-3.9 1.023-5.625.63-1.65 1.573-3.15 2.753-4.35 1.18-1.2 2.518-2.1 4.092-2.775 1.573-.675 3.225-.975 5.035-.975 1.337 0 2.518.15 3.62.45 1.1.3 2.123.75 3.067 1.35l.787-1.2h1.495l.157 9.225h-1.573c-.236-.9-.472-1.875-.944-2.925-.394-1.05-.866-1.95-1.416-2.625-.63-.825-1.338-1.5-2.203-1.95-.866-.45-1.81-.675-2.911-.675-1.26 0-2.36.225-3.462.75-.944.45-1.81 1.275-2.596 2.25-.709.975-1.338 2.25-1.731 3.75-.394 1.5-.63 3.225-.63 5.1 0 1.65.236 3.15.63 4.5.472 1.35 1.101 2.55 1.888 3.6.787 1.05 1.81 1.8 2.91 2.4 1.102.6 2.361.9 3.699.9 1.023 0 1.967-.15 2.832-.45.866-.3 1.574-.75 2.282-1.2a9.198 9.198 0 001.652-1.8c.472-.675.865-1.425 1.18-2.25l1.416.675c-1.101 2.55-2.517 4.35-4.327 5.475s-3.934 1.65-6.452 1.65zm30.054-5.625c0 .9-.236 1.65-.63 2.325-.393.675-1.022 1.2-1.73 1.575s-1.417.675-2.282.825c-.865.225-1.81.3-2.754.3H25.02v-1.2c.315 0 .63-.075.944-.075.315 0 .551-.075.787-.15.393-.075.63-.3.787-.6.157-.3.236-.6.236-1.05V13.692c0-.375-.079-.75-.236-.975-.158-.3-.472-.45-.787-.6-.315-.15-.63-.225-.944-.3-.315-.075-.63-.075-.866-.075v-1.2h9.442c.944 0 1.888.075 2.675.225.865.15 1.573.375 2.203.675.708.3 1.18.75 1.573 1.275.394.525.55 1.2.55 1.95 0 1.2-.393 2.175-1.18 2.85-.786.675-1.809 1.2-3.068 1.425v.225c.63.075 1.26.225 1.889.45s1.18.45 1.652.825c.472.375.944.75 1.259 1.275.236.3.393.9.393 1.65zm-4.8-8.775c0-.6-.078-1.125-.314-1.5a2.654 2.654 0 00-.944-.9c-.394-.15-.866-.3-1.338-.375-.472-.075-1.022-.15-1.495-.15h-1.101c-.393 0-.787 0-1.023.075v6.525h1.81c.865 0 1.573-.075 2.203-.3.63-.225 1.023-.45 1.337-.75.315-.3.551-.675.708-1.125.079-.45.158-.9.158-1.5zm1.023 8.475c0-1.05-.393-1.875-1.258-2.55-.866-.6-2.046-.9-3.54-.9h-2.518v5.925c0 .45.236.825.629 1.125.393.225 1.101.375 1.967.375.944 0 1.73-.15 2.36-.375.63-.225 1.102-.525 1.495-.975.315-.375.55-.825.708-1.275.079-.3.157-.825.157-1.35zm24.94-3.825c0 1.275-.235 2.475-.629 3.75-.393 1.2-1.022 2.25-1.81 3.075-.864.975-1.887 1.725-3.067 2.175-1.18.45-2.44.675-3.856.675-1.18 0-2.36-.225-3.383-.675a9.103 9.103 0 01-2.91-1.875c-.866-.825-1.496-1.8-1.968-3s-.708-2.475-.708-3.9c0-2.775.866-5.1 2.597-6.9 1.73-1.8 3.933-2.7 6.687-2.7 2.596 0 4.8.825 6.53 2.55 1.653 1.725 2.518 3.975 2.518 6.825zm-3.933 0c0-.9-.079-1.875-.315-2.85-.157-.975-.472-1.875-.865-2.55a5.146 5.146 0 00-1.574-1.8c-.629-.45-1.494-.675-2.439-.675-.944 0-1.81.225-2.517.675-.708.45-1.259 1.125-1.652 1.875a8.213 8.213 0 00-.866 2.55 17.2 17.2 0 00-.236 2.775c0 1.2.079 2.25.315 3.225.236.975.55 1.875.944 2.625.472.75.944 1.35 1.652 1.8.63.45 1.495.675 2.44.675 1.573 0 2.831-.75 3.776-2.175.944-1.425 1.337-3.525 1.337-6.15zm8.655-4.125h.157a9.194 9.194 0 012.832-3.6c1.259-.975 2.754-1.425 4.485-1.425 1.416 0 2.675.225 3.855.675a8.179 8.179 0 012.832 1.95c.787.825 1.338 1.8 1.731 2.925.394 1.125.55 2.325.55 3.675 0 1.275-.235 2.55-.629 3.75-.393 1.2-1.022 2.25-1.81 3.075-.864.9-1.809 1.65-2.989 2.1-1.101.525-2.439.75-4.012.75a8.772 8.772 0 01-3.383-.675 7.462 7.462 0 01-2.833-2.025c-.786-.9-1.495-2.1-1.967-3.6s-.708-3.15-.708-5.175c0-1.875.158-3.6.394-5.1.236-1.5.63-2.85 1.022-4.05.551-1.725 1.495-3.075 2.754-4.125 1.259-1.05 2.754-1.65 4.563-1.725.866-.075 1.889-.075 2.911-.15 1.023-.075 1.81-.075 2.36-.15.551 0 1.023-.15 1.574-.45.472-.225 1.023-.675 1.495-1.275l1.102.75c-.315.375-.63.825-1.102 1.425-.472.6-.865 1.05-1.259 1.425-.315.3-.55.525-.708.75-.236.225-.393.3-.63.45-.235.075-.471.225-.707.225-.315.075-.708.075-1.18.075-.551 0-1.18.075-1.967.15-.787.075-1.495.075-2.046.075-.865 0-1.652.225-2.282.6-.629.375-1.18.75-1.652 1.275a4.744 4.744 0 00-1.101 1.65c-.315.6-.472 1.125-.63 1.575-.236.75-.472 1.5-.63 2.175-.235.525-.314 1.275-.392 2.025zm11.172 9.975a8.13 8.13 0 00.944-2.625c.236-.9.314-2.025.314-3.225 0-.975-.078-1.95-.236-2.85a8.216 8.216 0 00-.865-2.55 5.147 5.147 0 00-1.574-1.8c-.629-.45-1.416-.675-2.439-.675-1.022 0-1.888.225-2.596.675a4.66 4.66 0 00-1.652 1.8 8.216 8.216 0 00-.866 2.55 17.039 17.039 0 00-.236 2.7c0 1.425.08 2.625.315 3.525.236.975.55 1.8.944 2.475.394.75.944 1.275 1.574 1.725.63.375 1.495.6 2.439.6.865 0 1.652-.225 2.281-.675.708-.3 1.26-.9 1.653-1.65zm26.278-5.85c0 1.275-.237 2.475-.63 3.75a8.116 8.116 0 01-1.809 3.075c-.866.975-1.889 1.725-3.069 2.175-1.18.45-2.439.675-3.855.675-1.18 0-2.36-.225-3.383-.675a9.102 9.102 0 01-2.911-1.875c-.787-.825-1.495-1.8-1.967-3s-.708-2.475-.708-3.9c0-2.775.865-5.1 2.596-6.9 1.731-1.8 3.934-2.7 6.688-2.7 2.596 0 4.799.825 6.53 2.55 1.652 1.725 2.518 3.975 2.518 6.825zm-3.934 0c0-.9-.079-1.875-.315-2.85-.157-.975-.472-1.875-.865-2.55a5.154 5.154 0 00-1.574-1.8c-.63-.45-1.495-.675-2.439-.675s-1.81.225-2.518.675c-.708.45-1.258 1.125-1.652 1.875a8.216 8.216 0 00-.865 2.55 17.211 17.211 0 00-.236 2.775c0 1.2.078 2.25.314 3.225.236.975.551 1.875.945 2.625.472.75.944 1.35 1.652 1.8.63.45 1.495.675 2.439.675 1.573 0 2.832-.75 3.776-2.175.866-1.5 1.338-3.525 1.338-6.15zm7.395 7.65c1.259-1.575 2.361-3.675 3.305-6.225s1.416-4.725 1.416-6.375c0-.6-.079-1.125-.236-1.425-.158-.3-.394-.525-.787-.675-.236-.15-.629-.225-1.18-.3a15.427 15.427 0 01-1.338-.225v-1.2h17.152v1.2c-.393 0-.708.075-.944.075s-.551.075-.787.15c-.393.075-.629.3-.787.6-.157.3-.236.675-.236 1.05v11.625c0 .675.158 1.125.394 1.35.236.3.786.375 1.652.375h1.259v6.675h-1.338c-.236-1.2-.708-2.4-1.337-3.45-.63-1.125-1.338-1.725-2.046-1.875h-11.093c-.708.075-1.417.75-2.125 1.8a9.315 9.315 0 00-1.416 3.525h-1.337v-6.675h1.809zm2.203 0h8.183c.55 0 .944-.075 1.18-.3.236-.225.393-.45.393-.9V11.967h-5.271c-.079 3.075-.551 5.85-1.338 8.4-.786 2.55-1.809 4.725-3.147 6.525zm39.968 1.5h-9.205v-1.2c.314 0 .629-.075.944-.075.315 0 .551-.075.787-.15.393-.075.629-.3.786-.6.158-.3.315-.6.315-1.05v-5.7h-8.34v5.55c0 .375.079.75.236 1.05.158.3.472.45.787.6.236.15.551.225.866.3.314.075.629.075.944.15v1.2h-9.205v-1.2c.314 0 .629-.075.944-.075.314 0 .55-.075.786-.15.394-.075.63-.3.787-.6.158-.3.236-.6.236-1.05v-11.7c0-.375-.078-.75-.236-.975-.157-.3-.472-.45-.787-.6-.314-.15-.629-.225-.944-.3-.314-.075-.629-.075-.865-.075v-1.2h9.205v1.2c-.393 0-.708.075-.944.075s-.551.075-.787.15c-.393.075-.629.3-.787.6-.157.3-.236.675-.236 1.05v4.65h8.34v-4.425c0-.375-.079-.75-.236-.975-.157-.3-.472-.45-.787-.6-.314-.15-.629-.225-.944-.3-.315-.075-.629-.075-.865-.075v-1.2h9.205v1.2c-.394 0-.708.075-.944.075s-.551.075-.787.15c-.393.075-.629.3-.787.6-.157.3-.236.675-.236 1.05v11.625c0 .45.079.75.236 1.05.158.225.394.45.787.6.236.15.551.225.865.3.315.075.63.075.945.15v.9h-.079zm20.456-.375c-.63.225-1.102.375-1.574.525-.472.15-.944.225-1.573.225-1.023 0-1.81-.225-2.361-.675-.55-.45-.944-1.05-1.101-1.95h-.079a8.35 8.35 0 01-2.675 2.025c-.944.45-2.124.675-3.383.675-1.416 0-2.596-.375-3.462-1.2-.944-.825-1.337-1.875-1.337-3.225 0-.675.079-1.275.315-1.875.236-.525.472-1.05.944-1.5.314-.375.708-.675 1.259-.975.55-.3 1.022-.525 1.494-.675.551-.225 1.731-.6 3.462-1.125s2.911-.975 3.541-1.275v-1.875c0-.15 0-.45-.079-.9s-.236-.9-.472-1.275c-.236-.45-.63-.825-1.102-1.2-.472-.3-1.101-.525-1.967-.525-.55 0-1.101.075-1.652.3-.472.225-.865.375-1.023.6 0 .225.079.6.158 1.05.157.45.157.9.157 1.275 0 .45-.236.825-.629 1.2-.394.375-.944.525-1.652.525-.63 0-1.102-.225-1.417-.675-.314-.45-.472-.9-.472-1.425s.236-1.125.63-1.575c.393-.525.944-.975 1.573-1.35.551-.375 1.259-.6 2.046-.9.787-.225 1.573-.375 2.36-.375 1.102 0 1.967.075 2.754.225.787.15 1.495.45 2.203.9.629.45 1.101 1.05 1.495 1.8.314.75.472 1.725.472 3 0 1.725 0 3.3-.079 4.575-.079 1.275-.079 2.775-.079 4.425 0 .45.079.825.236 1.125.158.3.472.525.787.675.157.075.472.15.944.15h1.259v1.275h.079zm-6.609-9.6c-1.102.3-2.046.6-2.832.9-.787.3-1.574.675-2.282 1.125-.629.45-1.102.9-1.495 1.5s-.551 1.2-.551 2.025c0 .975.315 1.725.866 2.25.551.45 1.259.675 2.124.675.866 0 1.731-.225 2.36-.6.708-.45 1.259-.9 1.731-1.5l.079-6.375zm15.027 1.275v-.075c-1.731-.3-2.99-.9-3.776-1.65-.787-.75-1.18-1.725-1.18-2.85 0-1.425.708-2.55 2.045-3.375 1.338-.825 3.068-1.275 5.114-1.275h9.835v1.2c-.394 0-.708.075-.944.075-.237 0-.551.075-.787.15-.394.075-.63.3-.787.6-.157.3-.236.675-.236 1.05v11.625c0 .45.079.75.236 1.05.157.225.393.45.787.6.236.15.55.225.865.3.315.075.63.075.944.15v1.2h-9.205v-1.2c.315 0 .63-.075.944-.075.315 0 .551-.075.787-.15.393-.075.629-.3.787-.6.157-.3.315-.6.315-1.05v-5.025h-.787c-1.18 0-2.125.225-2.754.675-.629.45-1.337 1.275-1.888 2.4-.472.9-.787 1.725-1.102 2.475-.314.75-.55 1.575-.865 2.55h-6.452v-1.2c.315 0 .551-.075.866-.075.236 0 .551-.075.865-.15a2.83 2.83 0 001.102-.45c.315-.225.629-.6.865-1.05.158-.3.315-.675.551-1.125.236-.45.472-.975.787-1.575.393-.75.865-1.35 1.337-1.875.394-.6 1.023-.975 1.731-1.275zm5.744-.75v-7.2h-2.125c-1.337 0-2.439.3-3.304.9-.866.6-1.338 1.5-1.338 2.625 0 1.2.472 2.1 1.417 2.775.944.6 2.281.975 3.933.975h1.417v-.075z" fill="#000"/><path d="M223.284 28.392h-11.251v-1.275c.315 0 .708-.075 1.338-.075.55-.075.944-.15 1.18-.225.393-.15.629-.375.865-.675.158-.3.236-.675.236-1.125V4.167h-12.431v20.55c0 .45.079.75.236 1.05.158.3.473.525.866.75.236.075.629.225 1.18.3.551.075 1.023.15 1.338.15v1.275H195.59v-1.275c.315 0 .708-.075 1.337-.075.63 0 .944-.15 1.18-.225.394-.15.63-.375.866-.675.157-.3.236-.675.236-1.125V6.342c0-.375-.079-.75-.236-1.05-.157-.3-.472-.6-.866-.75-.314-.15-.786-.3-1.258-.45-.472-.15-.944-.225-1.259-.225V2.592h27.773v1.275c-.394 0-.787.075-1.338.15s-.865.225-1.18.3c-.393.15-.708.375-.865.75a2.62 2.62 0 00-.236 1.125v18.6c0 .45.078.75.236 1.05.157.3.472.525.865.75.236.075.629.225 1.18.3.551.075 1.023.15 1.338.15v1.35h-.079zm20.456-15.825c.787.825 1.337 1.8 1.731 2.925.393 1.125.629 2.4.629 3.825 0 1.425-.236 2.7-.708 3.9-.472 1.2-1.18 2.175-1.967 3-.865.825-1.809 1.5-2.832 1.95a8.114 8.114 0 01-3.305.675c-1.101 0-2.045-.15-2.753-.375a7.933 7.933 0 01-1.81-.825h-.157v5.4c0 .45.078.825.236 1.125.157.3.472.525.787.675.314.075.708.225 1.337.3.551.075 1.023.15 1.416.15v1.2H225.88v-1.2c.394 0 .787-.075 1.18-.075.394 0 .709-.075 1.023-.15.394-.15.63-.3.787-.6.157-.3.236-.675.236-1.05v-19.2c0-.375-.079-.75-.315-1.05-.236-.3-.472-.6-.708-.825-.236-.15-.551-.225-.944-.3-.393-.075-.787-.15-1.18-.15v-1.2l6.373-.375.236.225v2.025h.157c.63-.75 1.495-1.35 2.439-1.8.944-.45 1.967-.75 2.911-.75 1.18 0 2.203.225 3.226.675a7.233 7.233 0 012.439 1.875zm-3.069 12.9a8.89 8.89 0 001.102-2.625c.236-.975.393-2.1.393-3.3 0-.9-.078-1.8-.314-2.775-.236-.9-.551-1.725-.945-2.4-.393-.675-1.022-1.275-1.73-1.725-.708-.45-1.574-.675-2.518-.675-.944 0-1.731.225-2.439.6-.629.375-1.259.9-1.731 1.425v10.575c.079.3.315.675.551 1.05.236.375.551.675.865.9.394.3.787.525 1.259.75.472.225 1.023.3 1.652.3.708 0 1.416-.15 2.046-.525.787-.45 1.337-.9 1.809-1.575zm24.941-1.35a9.705 9.705 0 01-3.147 3.45c-1.338.825-2.833 1.275-4.563 1.275-1.495 0-2.833-.225-4.013-.75-1.101-.525-2.045-1.2-2.832-2.1a9.755 9.755 0 01-1.652-3.075c-.394-1.125-.551-2.4-.551-3.675 0-1.125.157-2.325.551-3.45a8.913 8.913 0 011.73-3 9.06 9.06 0 012.675-2.1 8.244 8.244 0 013.62-.825c1.337 0 2.517.225 3.54.6.944.375 1.81.975 2.36 1.725a8.027 8.027 0 011.338 2.4c.314.9.393 1.95.393 3v1.2H252.63c0 1.2.079 2.25.315 3.225.236.975.629 1.8 1.101 2.55a5.178 5.178 0 001.967 1.65c.787.375 1.731.6 2.833.6 1.101 0 2.124-.225 2.911-.75.787-.525 1.573-1.425 2.36-2.7l1.495.75zm-4.249-6.825c0-.675-.078-1.425-.157-2.175-.157-.75-.315-1.425-.551-1.95a4.964 4.964 0 00-1.18-1.35c-.472-.375-1.18-.525-1.967-.525-1.337 0-2.439.525-3.304 1.575-.866 1.05-1.338 2.55-1.416 4.425h8.575zm15.106 11.55c-2.753 0-4.878-.825-6.373-2.55-1.573-1.725-2.281-4.05-2.281-6.9 0-1.275.236-2.4.629-3.525.394-1.125 1.023-2.1 1.81-3 .787-.825 1.652-1.575 2.832-2.1a8.589 8.589 0 013.698-.825c1.81 0 3.304.45 4.485 1.275 1.18.825 1.73 2.025 1.73 3.45 0 .6-.157 1.125-.472 1.575-.314.45-.786.675-1.494.675-.787 0-1.338-.15-1.731-.525-.394-.375-.63-.75-.63-1.2 0-.525.079-1.125.236-1.65.158-.6.236-.975.236-1.275-.236-.375-.55-.6-1.023-.75a4.653 4.653 0 00-1.416-.225c-.629 0-1.18.15-1.731.375-.55.225-1.101.675-1.573 1.35-.472.6-.866 1.425-1.18 2.475-.315 1.05-.472 2.25-.472 3.675 0 2.25.55 4.125 1.573 5.55 1.023 1.425 2.439 2.1 4.091 2.1 1.259 0 2.282-.3 3.069-.825.787-.525 1.573-1.425 2.281-2.55l1.181.75c-.866 1.425-1.967 2.55-3.305 3.375-1.337.825-2.754 1.275-4.17 1.275zm17.702 0c-2.753 0-4.877-.825-6.372-2.55-1.574-1.725-2.282-4.05-2.282-6.9 0-1.275.236-2.4.629-3.525.394-1.125 1.023-2.1 1.81-3 .787-.825 1.652-1.575 2.832-2.1a8.592 8.592 0 013.698-.825c1.81 0 3.305.45 4.485 1.275 1.18.825 1.731 2.025 1.731 3.45 0 .6-.158 1.125-.472 1.575-.315.45-.787.675-1.495.675-.787 0-1.338-.15-1.731-.525-.394-.375-.63-.75-.63-1.2 0-.525.079-1.125.236-1.65.158-.6.236-.975.236-1.275-.236-.375-.55-.6-1.022-.75a4.653 4.653 0 00-1.416-.225c-.63 0-1.181.15-1.731.375-.551.225-1.102.675-1.574 1.35-.472.6-.865 1.425-1.18 2.475-.315 1.05-.472 2.25-.472 3.675 0 2.25.551 4.125 1.573 5.55 1.023 1.425 2.439 2.1 4.092 2.1 1.258 0 2.281-.3 3.068-.825.865-.6 1.573-1.425 2.282-2.55l1.18.75c-.866 1.425-1.967 2.55-3.305 3.375-1.337.825-2.753 1.275-4.17 1.275zM321 28.017c-.629.225-1.101.375-1.573.525-.472.15-.945.225-1.574.225-1.023 0-1.809-.225-2.36-.675-.551-.45-.944-1.05-1.102-1.95h-.078a8.35 8.35 0 01-2.675 2.025c-.944.45-2.125.675-3.383.675-1.417 0-2.597-.375-3.462-1.2-.866-.825-1.338-1.875-1.338-3.225 0-.675.079-1.275.315-1.875.236-.525.472-1.05.944-1.5.315-.375.708-.675 1.259-.975.551-.3 1.023-.525 1.495-.675.551-.225 1.731-.6 3.462-1.125 1.73-.525 2.911-.975 3.54-1.275v-1.875c0-.15 0-.45-.079-.9a3.57 3.57 0 00-.472-1.275c-.236-.45-.629-.825-1.101-1.2-.472-.3-1.102-.525-1.967-.525-.551 0-1.102.075-1.652.3-.472.225-.866.375-1.023.6 0 .225.079.6.157 1.05.158.45.158.9.158 1.275 0 .45-.236.825-.63 1.2-.393.375-.944.525-1.652.525-.629 0-1.102-.225-1.416-.675-.315-.45-.472-.9-.472-1.425s.236-1.125.629-1.575c.394-.525.944-.975 1.574-1.35.55-.375 1.259-.6 2.045-.9.787-.225 1.574-.375 2.361-.375 1.101 0 1.966.075 2.753.225.787.15 1.495.45 2.203.9.63.45 1.102 1.05 1.495 1.8.315.75.472 1.725.472 3 0 1.725 0 3.3-.079 4.575 0 1.35-.078 2.775-.078 4.425 0 .45.078.825.236 1.125.157.3.472.525.787.675.157.075.472.15.944.15h1.258v1.275H321zm-6.687-9.6c-1.102.3-2.046.6-2.833.9-.786.3-1.573.675-2.281 1.125-.63.45-1.102.9-1.495 1.5-.394.6-.551 1.2-.551 2.025 0 .975.315 1.725.866 2.25.55.45 1.258.675 2.124.675.865 0 1.731-.225 2.36-.6.708-.45 1.259-.9 1.731-1.5l.079-6.375z" fill="#DF0810"/></svg>