<svg width="269" height="62" viewBox="0 0 269 62" fill="none" xmlns="http://www.w3.org/2000/svg"><path d="M201.75.419H0v61h201.75v-61z" fill="url(#paint0_linear_414_4530)"/><path d="M269 .419h-62.626v61H269v-61z" fill="#C40000"/><path d="M170.41 15.018c-5.817 0-10.612 4.153-10.612 9.936 0 3.975 2.262 7.473 5.569 9.27l-6.042 12.847h7.71l5.109-11.568h2.89v11.568h6.935V15.018H170.41zm0 5.914h4.624v8.291h-4.624c-2.069 0-3.677-1.819-3.677-4.152s1.608-4.139 3.677-4.139zm-21.514-5.914L137.18 33.715V15.018h-6.936V47.07h6.016l11.598-18.514V47.07h6.935V15.018h-5.897zM31.088 20.93h-4.624v8.293h4.624c2.069 0 3.677-1.813 3.677-4.146s-1.608-4.147-3.677-4.147zm0-5.912c5.817 0 10.612 4.153 10.612 9.936s-4.795 10.55-10.612 10.55h-4.624V47.07H19.53V15.018h11.559zm32.931 16.046c0-1.968-.214-3.73-.263-5.112-.112-3.185-2.567-5.751-5.74-5.751s-5.642 2.566-5.753 5.751c-.048 1.382-.262 3.144-.262 5.112s.213 3.742.262 5.124c.113 3.185 2.58 5.752 5.753 5.752s5.628-2.567 5.74-5.752c.049-1.382.263-3.156.263-5.124zm-6.016 16.934c-7.149 0-12.938-5.767-12.938-12.874v-8.12c0-7.107 5.79-12.861 12.938-12.861 7.15 0 12.951 5.754 12.951 12.86v8.121c0 7.107-5.802 12.874-12.95 12.874zM88.62 14.143c-7.149 0-12.992 4.662-12.938 12.86.019 2.707 0 8.121 0 8.121 0 8.417 5.79 12.874 12.938 12.874 3.057 0 6.57-.58 9.55-1.789l-1.524-5.98c-2.876 1.07-6.32 1.71-8.013 1.71-3.173 0-5.64-2.56-5.753-5.744-.048-1.382-.262-3.163-.262-5.131 0-1.968.214-3.723.262-5.105.11-3.185 2.58-5.758 5.753-5.758 1.821 0 5.394.531 8.13 1.58l1.472-5.758c-2.763-1.33-6.226-1.88-9.615-1.88zm26.957 0c-7.149 0-12.993 4.662-12.938 12.86.018 2.707 0 8.121 0 8.121 0 8.417 5.789 12.874 12.938 12.874 3.057 0 6.569-.58 9.549-1.789l-1.524-5.98c-2.875 1.07-6.319 1.71-8.012 1.71-3.173 0-5.641-2.56-5.753-5.744-.049-1.382-.263-3.163-.263-5.131 0-1.968.215-3.723.263-5.105.11-3.185 2.58-5.758 5.753-5.758 1.821 0 5.394.531 8.13 1.58l1.471-5.758c-2.763-1.33-6.226-1.88-9.614-1.88zM252.61 31.872v6.724h-14.434v-6.724h14.434zm.103-17.099L238.244 30.89h8.921l14.469-16.117h-8.921zm1.009 0v.262l.231-.262h-.231zm7.586 1.745l-7.586 8.45v20.473h7.586V16.518zm-35.873-1.734v6.769a3.199 3.199 0 012.637 3.144c0 2.587-1.832 4.326-4.424 6.413l-9.908 7.98v5.985h5.768l12.336-10.727c2.707-2.354 4.845-5.744 4.845-10.226 0-6.232-5.017-9.258-11.254-9.338zm-.957.021c-5.617.336-10.138 4.68-10.728 10.195h7.902c-.01-.101-.011-.2-.011-.303 0-1.638 1.241-2.978 2.838-3.165v-6.727h-.001zm4.477 23.136l-8.207 7.134h15.699v-7.134h-7.492z" fill="#fff"/><defs><linearGradient id="paint0_linear_414_4530" x1="201.667" y1="61.072" x2="201.667" y2=".759" gradientUnits="userSpaceOnUse"><stop stop-color="#0029A6"/><stop offset="1" stop-color="#0069E4"/></linearGradient></defs></svg>