<svg width="213" height="60" viewBox="0 0 213 60" fill="none" xmlns="http://www.w3.org/2000/svg"><path fill-rule="evenodd" clip-rule="evenodd" d="M97.968 24.595l8.434 5.226v9.107H94.035v-6.52h-6.002v19.508h6.002v-8.02h12.367v10.607l-8.434 5.227H84.1l-8.434-5.227V29.821l8.434-5.226h13.868zm-33.926 0l8.434 5.226v24.63l-8.434 5.227H50.174l-8.434-5.226V29.82l8.434-5.226h13.868zm-48.829.517s3.88 13.66 4.243 14.851c.31-1.242 3.933-14.85 3.933-14.85h15.213v34.1H26.235V43.43c-1.45 5.64-4.14 15.782-4.14 15.782h-5.588s-2.64-10.194-4.14-15.782v15.782H0v-34.1h15.213zm106.539 0v12.264c1.759-3.002 7.193-12.264 7.193-12.264h13.402s-10.246 14.747-10.763 15.472c.498.747 10.929 17.33 11.701 18.556l.045.072h-13.816s-6.003-9.521-7.814-12.367v12.367h-12.367v-34.1h12.419zm45.414 0l7.865 4.502v9.418s-3.415 1.966-4.916 2.794c1.604.828 5.899 2.95 5.899 2.95v9.365l-8.486 5.071h-22.302v-34.1h21.94zm36.151 0l8.9 34.1h-12.885s-.983-5.07-1.138-6.054h-7.451c-.155.983-.983 6.054-.983 6.054h-12.885l7.607-34.1h18.835zM60.109 32.408h-6.002v19.508h6.002V32.408zm103.538 13.506h-6.002v5.692h6.002v-5.692zm30.77-13.144c-.259 1.035-2.225 11.333-2.432 12.781h4.657c-.259-1.448-2.07-11.746-2.225-12.78zm-30.77-.051h-6.002v5.588h6.002V32.72zM34.765.693v7.906l-3.218 1.976 3.218 1.977v7.906H15V.693h19.765zm87.843 0v14.033h-11.399v5.732h-6.17V.693h17.569zm47.149 0v5.073h.067v14.692h-6.977v-5.864h-2.06l-4.053 5.864h-7.773l4.717-6.26h-3.787V.694h19.866zm23.125 0v19.765h-6.976v-5.864h-2.06l-4.053 5.864h-7.773l4.717-6.26h-3.787V.694h19.932zM56.865.416v4.693H45.174v2.843h5.846v4.693h-5.846v2.909h11.691v4.627H38.2V.416h18.666zm9.137 0v8.263h5.883V.416h6.941v19.765h-6.94v-6.478H59.061V.416h6.94zm34.785 0v4.693H89.095v2.843h5.846v4.693h-5.846v2.909h11.692v4.627H82.12V.416h18.667zm32.15 0v7.271h5.975V.416h6.895v19.765h-6.895v-7.404h-5.975v7.404h-6.895V.416h6.895zM27.353 12.771h-4.598v3.294h6.52V14.09l-1.922-1.318zm89.765-7.686h-5.491v4.392h5.491V5.085zm46.117 0h-5.49v4.392h5.49V5.085zm23.059 0h-5.49v4.392h5.49V5.085zm-157.02.06h-6.588v3.234h4.667l1.921-1.317V5.145z" fill="#FC0E49"/></svg>