<svg width="1823" height="879" viewBox="0 0 1823 879" fill="none" xmlns="http://www.w3.org/2000/svg"><mask id="mask0_193_791" style="mask-type:alpha" maskUnits="userSpaceOnUse" x="0" y="0" width="1823" height="879"><path fill="#666" d="M0 .584h1823v878H0z"/></mask><g mask="url(#mask0_193_791)"><path fill="url(#paint0_radial_193_791)" d="M0 .584h1823v1069H0z"/><path fill="url(#paint1_linear_193_791)" d="M0 .584h1823v476H0z"/><g opacity=".05" fill="#fff"><path d="M50.923 627.385c8.938-2.804 18.498 2.205 21.309 11.163 2.812 8.963-2.175 18.534-11.11 21.337-8.94 2.805-18.5-2.202-21.311-11.164-2.811-8.959 2.173-18.531 11.112-21.336zm7.36 23.451c3.957-1.242 6.168-5.486 4.922-9.456-1.246-3.971-5.483-6.186-9.442-4.944-3.962 1.243-6.17 5.482-4.924 9.452 1.245 3.97 5.48 6.192 9.443 4.948z"/><path d="M7.765 662.019l-10.943-.229-1.856-7.757 9.655-5.149a52.299 52.299 0 01-.276-6.697l-10.187-4.363 1.2-7.88 11.013-1.097a52.878 52.878 0 012.525-6.929l-7.582-7.916 4.16-6.788 10.472 3.205a52.252 52.252 0 014.526-4.916l-4.057-10.201 6.41-4.718 8.505 6.927a51.732 51.732 0 016.668-3.101l.218-10.968 7.736-1.847 5.149 9.683a52.396 52.396 0 016.684-.269l4.338-10.198 7.866 1.207 1.11 11.044a52.61 52.61 0 016.92 2.538l7.887-7.589 6.785 4.181-3.19 10.492a52.479 52.479 0 014.913 4.541l10.176-4.051 4.713 6.43-6.9 8.516a52.733 52.733 0 013.105 6.687l10.942.231 1.855 7.755-9.652 5.147c.232 2.204.327 4.44.275 6.699L119.114 649l-1.195 7.879-11.017 1.097a52.409 52.409 0 01-2.524 6.929l7.582 7.917-4.161 6.789-10.473-3.208a52.082 52.082 0 01-4.525 4.92l4.059 10.2-6.41 4.717-8.506-6.93a52.68 52.68 0 01-6.668 3.104l-.218 10.966-7.736 1.847-5.15-9.683c-2.2.23-4.43.322-6.68.269l-4.34 10.199-7.87-1.21-1.108-11.04a52.14 52.14 0 01-6.921-2.541l-7.885 7.59-6.784-4.178 3.186-10.492a51.835 51.835 0 01-4.91-4.543l-10.18 4.053-4.715-6.43 6.901-8.514a53.134 53.134 0 01-3.1-6.688zm60.942 19.869c21.196-6.652 32.972-29.27 26.305-50.517-6.667-21.249-29.252-33.085-50.449-26.434-21.194 6.651-32.973 29.27-26.306 50.519 6.669 21.248 29.256 33.082 50.45 26.432zm-337.216-390.242l-32.571-.682-5.525-23.086 28.743-15.324a154.346 154.346 0 01-.823-19.93l-30.325-12.986 3.566-23.452 32.784-3.268a156.898 156.898 0 017.517-20.622l-22.569-23.563 12.384-20.205 31.172 9.544a155.562 155.562 0 0113.47-14.634l-12.079-30.365 19.072-14.039 25.323 20.62a155.26 155.26 0 0119.847-9.23l.645-32.644 23.031-5.492 15.327 28.816a155.344 155.344 0 0119.896-.796l12.91-30.356 23.415 3.595 3.305 32.868A155.708 155.708 0 01-59.4 93.97l23.473-22.586 20.193 12.44-9.492 31.223a157.624 157.624 0 0114.63 13.516l30.288-12.06 14.035 19.134-20.54 25.348a156 156 0 019.239 19.896l32.575.696 5.52 23.081-28.735 15.316c.69 6.564.974 13.216.822 19.94l30.32 12.979-3.562 23.455-32.795 3.27a155.761 155.761 0 01-7.511 20.62L41.63 323.8l-12.382 20.209-31.176-9.551a156.291 156.291 0 01-13.464 14.64l12.077 30.363-19.076 14.035-25.321-20.621a155.6 155.6 0 01-19.845 9.235l-.644 32.644-23.032 5.495-15.327-28.818a156.32 156.32 0 01-19.89.802l-12.916 30.358-23.418-3.607-3.301-32.858a155.25 155.25 0 01-20.599-7.565l-23.474 22.589-20.188-12.437 9.485-31.227a154.353 154.353 0 01-14.618-13.518l-30.292 12.061-14.033-19.132 20.541-25.344a156.518 156.518 0 01-9.246-19.907zm181.401 59.137c63.087-19.795 98.142-87.114 78.298-150.358-19.846-63.247-87.077-98.472-150.164-78.677-63.086 19.795-98.148 87.116-78.302 150.362 19.844 63.245 87.082 98.468 150.168 78.673zM86.66 295.018l-13.4-.28-2.27-9.494 11.822-6.3a64.34 64.34 0 01-.345-8.199l-12.466-5.337 1.468-9.652 13.482-1.341a64.316 64.316 0 013.094-8.481l-9.28-9.694 5.087-8.31 12.82 3.927a62.693 62.693 0 015.548-6.021l-4.971-12.492 7.849-5.776 10.408 8.484a64.628 64.628 0 018.162-3.797l.271-13.424 9.472-2.26 6.302 11.849a64.816 64.816 0 018.187-.324l5.308-12.484 9.629 1.477 1.361 13.52a63.055 63.055 0 018.466 3.107l9.654-9.295 8.312 5.118-3.906 12.842a64.84 64.84 0 016.014 5.562l12.461-4.959 5.765 7.865-8.439 10.43a63.296 63.296 0 013.794 8.181l13.399.293 2.273 9.494-11.823 6.298c.286 2.7.403 5.433.336 8.197l12.479 5.346-1.47 9.644-13.488 1.343a64.105 64.105 0 01-3.089 8.481l9.281 9.69-5.087 8.318-12.827-3.933a64.245 64.245 0 01-5.541 6.027l4.969 12.484-7.848 5.776-10.41-8.486a63.157 63.157 0 01-8.161 3.801l-.271 13.425-9.47 2.267-6.303-11.861a65.17 65.17 0 01-8.184.333l-5.308 12.485-9.631-1.485-1.36-13.514a62.966 62.966 0 01-8.477-3.115l-9.657 9.296-8.297-5.123 3.9-12.842a62.62 62.62 0 01-6.014-5.561l-12.458 4.971-5.773-7.874 8.45-10.424a63.404 63.404 0 01-3.799-8.193zm77.614 33.9c31.219-9.796 48.565-43.112 38.744-74.412-9.82-31.297-43.093-48.733-74.31-38.938-31.223 9.797-48.569 43.117-38.749 74.413 9.82 31.299 43.092 48.734 74.315 38.937z"/><path d="M163.468 326.346c29.756-9.337 46.35-41.204 36.988-71.04-9.36-29.83-41.186-46.512-70.943-37.175-29.76 9.338-46.354 41.211-36.993 71.043 9.363 29.836 41.187 46.51 70.948 37.172zm-32.002-101.992c26.333-8.263 54.501 6.494 62.785 32.897 8.285 26.405-6.403 54.609-32.736 62.871-26.339 8.265-54.507-6.492-62.792-32.896-8.282-26.404 6.406-54.608 32.743-62.872zm-423.525 393.005l3.278-.535c5.202-.845 9.264-5.234 9.295-10.511.045-6.814-6.03-11.787-12.45-10.747l-2.924.477c-4.034.657-7.723-2.421-7.805-6.512a141.423 141.423 0 01-.002-6.04c.08-3.993 3.597-7.034 7.552-6.535l3.336.42c5.228.655 10.361-2.407 11.883-7.459 1.955-6.517-2.481-13.008-8.935-13.817l-2.924-.369c-4.056-.508-6.741-4.507-5.66-8.465.53-1.938 1.103-3.867 1.708-5.776a6.71 6.71 0 019.086-4.126l3.337 1.454c5.408 2.36 11.751-.143 14.1-5.561 5.389-1.691 5.781-9.184.595-11.444l-8.852-3.864c-3.748-1.63-5.199-6.22-3.059-9.702 1.052-1.71 2.134-3.4 3.253-5.063 2.223-3.313 6.828-3.965 9.887-1.404l2.783 2.331c4.527 3.788 11.325 3.179 15.101-1.351 3.772-4.535 3.156-11.343-1.372-15.132l-2.275-1.902c-3.136-2.624-3.242-7.432-.208-10.167a148.643 148.643 0 014.553-3.946c3.063-2.547 7.665-1.878 9.883 1.448l2.035 3.049c3.282 4.912 9.977 6.245 14.87 2.965l-.001-.003c4.899-3.282 6.221-9.984 2.94-14.896l-1.639-2.453c-2.276-3.403-1.025-8.05 2.661-9.814a142.902 142.902 0 015.476-2.49c3.661-1.573 7.882.367 9.077 4.178l1.092 3.478c1.769 5.64 7.817 8.809 13.44 7.044 5.625-1.765 8.778-7.822 7.009-13.461l-.883-2.811c-1.226-3.908 1.28-8.003 5.313-8.66 1.983-.328 3.97-.614 5.953-.855 3.955-.488 7.468 2.575 7.543 6.564l.066 3.351c.099 5.275 3.863 9.94 9.072 10.728 6.722 1.028 12.491-4.286 12.368-10.804l-.054-2.969c-.08-4.098 3.482-7.318 7.543-6.808 1.993.253 3.98.547 5.961.875 3.925.661 6.431 4.585 5.383 8.428l-.964 3.54c-1.554 5.695 1.829 11.639 7.517 13.197 5.691 1.564 11.61-1.818 13.166-7.512l.77-2.829c1.073-3.956 5.4-6.039 9.151-4.402 1.838.803 3.66 1.643 5.464 2.516 3.587 1.74 4.892 6.21 2.8 9.601l-1.901 3.094c-3.09 5.027-1.51 11.676 3.504 14.783 5.024 3.106 11.659 1.533 14.753-3.495l1.541-2.504c2.144-3.483 6.874-4.263 10.016-1.641a152.61 152.61 0 014.547 3.953c2.958 2.679 2.955 7.335-.004 10.012l-2.707 2.439c-4.383 3.947-4.739 10.77-.795 15.166 3.944 4.393 10.76 4.762 15.139.816l2.201-1.981c3.037-2.734 7.8-2.151 10.078 1.259a143.706 143.706 0 013.246 5.082c2.082 3.406.771 7.875-2.824 9.592l-3.292 1.58c-5.314 2.551-7.576 8.995-5.028 14.328 2.556 5.33 8.988 7.602 14.303 5.057l2.652-1.271c3.663-1.76 8.076.115 9.296 4.004l.023.075a145.161 145.161 0 011.692 5.805c1.033 3.837-1.5 7.72-5.415 8.359l-3.582.58c-5.819.946-9.803 6.488-8.85 12.32.949 5.83 6.49 9.829 12.304 8.884l2.926-.473c4.034-.655 7.723 2.423 7.807 6.513.043 2.017.044 4.033.005 6.035-.08 3.996-3.599 7.035-7.553 6.54l-3.642-.46c-5.85-.738-11.231 3.454-11.957 9.316-.727 5.862 3.464 11.26 9.319 11.999l2.918.364c4.06.513 6.743 4.513 5.663 8.466-.532 1.939-1.1 3.866-1.709 5.776-1.203 3.799-5.431 5.719-9.084 4.124l-3.337-1.454c-5.406-2.354-11.75.149-14.1 5.562-5.389 1.691-5.78 9.188-.598 11.448l8.851 3.862c3.75 1.634 5.204 6.221 3.062 9.703a156.746 156.746 0 01-3.251 5.063c-2.223 3.306-6.827 3.96-9.89 1.401l-2.549-2.132c-4.05-3.388-10.018-3.595-14.028-.17-5.166 4.418-4.93 12.274.066 16.451l2.272 1.903c3.142 2.624 3.247 7.43.213 10.171a147.454 147.454 0 01-4.554 3.943c-3.063 2.547-7.67 1.877-9.885-1.447l-1.89-2.83c-2.897-4.334-8.472-6.205-13.245-4.143-6.318 2.724-8.355 10.397-4.709 15.857l1.638 2.456c2.276 3.405 1.023 8.05-2.663 9.815-1.806.859-3.629 1.69-5.478 2.484-3.656 1.575-7.88-.368-9.076-4.179l-1.09-3.476c-1.769-5.638-7.82-8.804-13.441-7.04-5.626 1.765-8.779 7.819-7.01 13.458l.881 2.809c1.226 3.906-1.283 8.002-5.314 8.665-1.982.325-3.968.611-5.951.85-3.959.489-7.471-2.572-7.548-6.567l-.06-3.345c-.104-5.277-3.863-9.939-9.074-10.733-6.723-1.024-12.493 4.291-12.367 10.807l.055 2.97c.078 4.1-3.485 7.323-7.544 6.805a154.404 154.404 0 01-5.961-.872c-3.93-.664-6.43-4.585-5.381-8.431l.883-3.236c1.388-5.095-.914-10.624-5.693-12.857-6.167-2.881-13.195.588-14.91 6.872l-.77 2.828c-1.077 3.952-5.403 6.041-9.152 4.402a145.06 145.06 0 01-5.464-2.518c-3.589-1.738-4.893-6.206-2.802-9.605l1.738-2.826c2.762-4.494 2.108-10.448-1.85-13.936-5.11-4.503-12.832-3.159-16.242 2.381l-1.543 2.507c-2.143 3.481-6.877 4.262-10.012 1.641a148.16 148.16 0 01-4.547-3.952c-2.962-2.684-2.955-7.339.004-10.012l2.705-2.441c4.385-3.945 4.738-10.771.793-15.169-1.653-5.27-8.193-7.068-12.291-3.376l-5.045 4.546c-3.036 2.736-7.803 2.146-10.078-1.259a155.636 155.636 0 01-3.251-5.085c-2.076-3.408-.762-7.868 2.827-9.595l3.295-1.578c5.864-2.815 8.008-10.364 4.082-15.932-3.042-4.311-8.887-5.591-13.636-3.315l-2.371 1.138c-3.668 1.76-8.079-.118-9.299-4.007l-.024-.077a141.159 141.159 0 01-1.69-5.799c-1.036-3.834 1.498-7.715 5.416-8.349zm101.47-125.818c-22.065 8.596-39.623 24.205-50.902 43.445l30.803 16.136c7.079-11.393 17.541-20.743 30.535-26.331l-10.434-33.251-.002.001zm13.265-4.162l10.434 33.25c13.858-2.837 27.784-1.137 40.1 4.168l16.064-30.842c-20.247-9.347-43.577-12.127-66.598-6.576zm78.813 13.255l-16.116 30.947a67.487 67.487 0 0124.243 31.016l33.11-10.389c-7.951-22.038-22.766-39.791-41.237-51.574zm38.052 129.197c8.962-19.545 11.831-41.969 7.032-64.227l-33.28 10.442c2.164 13.05.4 26.059-4.554 37.644l30.802 16.141zm-55.668 52.582c20.874-8.129 37.71-22.535 49.013-40.351l-30.907-16.193c-6.992 10.016-16.716 18.214-28.54 23.293l10.434 33.251zm-19.894-40.177c30.449-9.554 47.357-42.034 37.781-72.555-9.573-30.511-42.008-47.51-72.457-37.956-30.439 9.551-47.357 42.036-37.783 72.547 9.576 30.52 42.019 47.515 72.459 37.964zm6.629 44.339l-10.433-33.251c-12.61 2.588-25.271 1.414-36.731-2.812l-16.12 30.948c19.458 8.164 41.508 10.369 63.284 5.115zm-75.73-11.353l16.062-30.843c-10.686-6.677-19.567-16.348-25.24-28.295l-33.285 10.444c8.779 21.007 23.944 37.772 42.463 48.694zm-13.85-72.277a67.518 67.518 0 012.177-39.306l-30.904-16.193c-8.431 20.222-10.449 43.258-4.383 65.888l33.11-10.389zm196.526-110.991c-.791-2.947 1.165-5.945 4.201-6.431l2.534-.41c4.024-.658 7.15-4.03 7.19-8.093.032-5.227-4.644-9.025-9.598-8.221l-2.27.373c-3.096.501-5.954-1.843-6.017-4.989-.017-1.541-.011-3.11.003-4.647.083-3.057 2.81-5.394 5.853-5.022l2.572.327c4.039.488 8.013-1.878 9.183-5.749 1.528-5.006-1.895-9.979-6.858-10.582l-2.258-.292c-3.15-.385-5.204-3.444-4.363-6.474.413-1.488.85-2.978 1.332-4.441.91-2.924 4.184-4.399 7.01-3.179l2.573 1.099c4.172 1.817 9.076-.118 10.9-4.289 4.145-1.301 4.462-7.045.475-8.77l-6.825-2.957c-2.89-1.246-4.012-4.78-2.36-7.441a112.202 112.202 0 012.527-3.901c1.726-2.545 5.278-3.04 7.646-1.087l2.141 1.79c3.486 2.887 8.741 2.41 11.65-1.061 2.933-3.515 2.456-8.724-1.037-11.613l-1.747-1.461c-2.42-2.016-2.496-5.704-.137-7.807 1.14-1.04 2.317-2.024 3.49-3.032 2.384-1.965 5.945-1.452 7.66 1.081l1.548 2.338c2.533 3.765 7.694 4.795 11.49 2.26 3.78-2.538 4.804-7.665 2.284-11.44l-1.247-1.873c-1.755-2.62-.78-6.18 2.067-7.557a143.74 143.74 0 014.236-1.895c2.81-1.201 6.073.257 6.994 3.192l.83 2.642c1.363 4.345 6.008 6.767 10.371 5.398 4.36-1.368 6.8-6.013 5.437-10.358l-.67-2.135c-.937-2.985 1-6.141 4.095-6.662a109.39 109.39 0 014.608-.649c3.04-.392 5.759 1.958 5.81 5.039l.041 2.558c.067 4.036 2.987 7.626 6.977 8.218 5.203.786 9.666-3.306 9.59-8.312l-.04-2.279c-.064-3.155 2.7-5.615 5.818-5.238 1.549.194 3.083.416 4.61.673a5.153 5.153 0 014.146 6.451l-.742 2.715c-1.21 4.367 1.397 8.933 5.769 10.119 4.398 1.194 8.988-1.417 10.17-5.783l.623-2.169c.828-3.051 4.179-4.645 7.065-3.414 1.411.627 2.817 1.259 4.219 1.936 2.754 1.319 3.763 4.75 2.136 7.382l-1.475 2.363c-2.386 3.867-1.185 8.959 2.686 11.345 3.873 2.359 9.007 1.157 11.387-2.71l1.196-1.925c1.661-2.683 5.312-3.282 7.747-1.277 1.194.982 2.354 2.002 3.508 3.033 2.27 2.053 2.264 5.621-.014 7.675l-2.125 1.875c-3.367 3.053-3.645 8.272-.612 11.649 3.049 3.374 8.297 3.635 11.68.596l1.692-1.512c2.363-2.109 6.026-1.662 7.796.952a155.933 155.933 0 012.499 3.891c1.59 2.613.576 6.05-2.19 7.377l-2.55 1.207c-4.106 1.961-5.869 6.919-3.922 11.003 1.98 4.089 6.948 5.837 11.04 3.868l2.058-.987c2.835-1.343 6.231.069 7.171 3.064a103.301 103.301 0 011.318 4.498c.783 2.963-1.175 5.952-4.204 6.442l-2.753.436c-4.504.752-7.573 5.015-6.852 9.48.728 4.49 4.981 7.524 9.489 6.792l2.251-.35c3.107-.534 5.965 1.851 6.021 4.975.019 1.56.036 3.087-.018 4.63-.06 3.074-2.785 5.419-5.824 5.037l-2.824-.341c-4.506-.571-8.671 2.674-9.249 7.16-.567 4.494 2.657 8.642 7.181 9.191l2.246.288c3.145.378 5.203 3.444 4.364 6.484a134.076 134.076 0 01-1.318 4.445c-.942 2.916-4.209 4.388-7.025 3.182l-2.587-1.124c-4.165-1.79-9.072.137-10.88 4.277-4.169 1.307-4.491 7.064-.477 8.808l6.819 2.948c2.895 1.245 4.001 4.771 2.34 7.456a164.617 164.617 0 01-2.494 3.88c-1.737 2.55-5.296 3.052-7.657 1.092l-1.966-1.636c-3.108-2.588-7.723-2.734-10.822-.098-3.992 3.389-3.831 9.422.025 12.604l1.753 1.464c2.42 1.999 2.499 5.722.135 7.809a91.491 91.491 0 01-3.514 3.028c-2.369 1.983-5.917 1.455-7.632-1.093l-1.447-2.178c-2.23-3.309-6.529-4.737-10.235-3.144-4.872 2.099-6.453 7.983-3.641 12.169l1.246 1.882a5.137 5.137 0 01-2.068 7.529 92.017 92.017 0 01-4.221 1.929c-2.831 1.219-6.09-.269-7.006-3.188l-.84-2.677c-1.359-4.332-6.024-6.741-10.371-5.377-4.34 1.362-6.789 6.003-5.429 10.335l.678 2.161c.939 2.993-1.005 6.153-4.101 6.658-1.544.26-3.076.478-4.61.662-3.054.401-5.75-1.969-5.812-5.019l-.04-2.59c-.067-4.04-2.977-7.604-6.983-8.213-5.19-.76-9.656 3.327-9.572 8.312l.036 2.261c.05 3.174-2.706 5.656-5.823 5.271-1.552-.198-3.07-.429-4.617-.684-3.029-.499-4.957-3.504-4.144-6.453l.701-2.499c1.074-3.902-.693-8.14-4.384-9.852-4.748-2.203-10.176.481-11.512 5.31l-.612 2.159c-.834 3.04-4.17 4.645-7.058 3.399a115.479 115.479 0 01-4.218-1.932 5.155 5.155 0 01-2.151-7.363l1.348-2.181c2.136-3.447 1.648-8.008-1.412-10.694-3.929-3.436-9.891-2.394-12.534 1.864l-1.194 1.923c-1.657 2.684-5.316 3.285-7.726 1.283-1.197-.991-2.366-2-3.523-3.038-2.268-2.047-2.26-5.644.025-7.671l2.098-1.877c3.377-3.041 3.664-8.278.632-11.653-1.27-4.045-6.316-5.423-9.476-2.578l-3.908 3.504c-2.358 2.097-6.028 1.654-7.779-.965a100.862 100.862 0 01-2.51-3.891c-1.598-2.608-.585-6.027 2.19-7.372l2.548-1.209c4.538-2.162 6.203-7.96 3.186-12.226-2.35-3.315-6.857-4.29-10.521-2.53l-1.839.876c-2.832 1.342-6.245-.095-7.175-3.059l-.02-.063c-.467-1.477-.9-2.944-1.3-4.44zm102.36 14.478l3.795-37.122-28.889 23.512c6.72 7.045 15.525 11.834 25.095 13.61zm-37.096-53.928l37.07 3.894-23.501-29.015a46.413 46.413 0 00-13.569 25.121zm36.32 11.127l-37.053-3.87a46.405 46.405 0 002.116 14.971c1.426 4.545 3.458 8.717 6.035 12.402l28.901-23.503zM20.87 482.727c1.214 3.867 5.348 6.044 9.228 4.826 3.887-1.219 6.036-5.368 4.823-9.235-1.221-3.89-5.357-6.073-9.244-4.853-3.88 1.217-6.027 5.371-4.807 9.262zm15.15-56.867a7.31 7.31 0 00-9.934 3.117c-1.889 3.616-.491 8.069 3.12 9.944 3.592 1.889 8.058.488 9.934-3.117 1.882-3.596.484-8.05-3.12-9.944zm31.685-31.13a7.35 7.35 0 00-4.819 9.232 7.352 7.352 0 009.23 4.824c3.868-1.214 6.032-5.344 4.813-9.23-1.22-3.888-5.355-6.04-9.224-4.826zm6.699 22.031c-4.543 1.425-8.675 3.457-12.363 6.043l23.496 28.994 3.828-37.13a45.702 45.702 0 00-14.961 2.093zm59.26 52.569l-37.034-3.845 23.486 28.965a46.17 46.17 0 0013.548-25.12zm12.679-32.408c-3.876 1.217-6.013 5.372-4.797 9.247 1.217 3.878 5.344 6.068 9.221 4.852 3.881-1.218 6.027-5.376 4.81-9.255-1.216-3.875-5.353-6.061-9.234-4.844zm-14.063 10.176a46.536 46.536 0 00-6.016-12.376l-28.89 23.505 37.037 3.876a46.269 46.269 0 00-2.131-15.005zm-35.703-31.677l-3.838 37.157 28.931-23.539a46.246 46.246 0 00-25.093-13.618zm24.765-15.408c-3.613-1.87-8.046-.479-9.932 3.117-1.88 3.623-.485 8.067 3.123 9.951a7.336 7.336 0 009.932-3.116c1.876-3.605.482-8.049-3.123-9.952zm19.092 98.615a7.362 7.362 0 009.95-3.122 7.393 7.393 0 00-3.127-9.965 7.38 7.38 0 00-9.949 3.122c-1.86 3.626-.467 8.064 3.126 9.965zm-31.665 31.139c3.877-1.216 6.018-5.351 4.796-9.246-1.218-3.88-5.336-6.048-9.213-4.831-3.886 1.219-6.053 5.359-4.836 9.239a7.384 7.384 0 009.253 4.838zm-6.659-24.708c4.481-1.406 8.656-3.422 12.35-6.005l-23.489-29-3.844 37.137c4.97.134 9.985-.564 14.983-2.132zm-46.99 19.416c3.598 1.885 8.058.486 9.929-3.115 1.877-3.631.48-8.085-3.123-9.954a7.31 7.31 0 00-9.929 3.115c-1.897 3.595-.5 8.049 3.123 9.954zm95.434 95.927l-9.918-.208-1.684-7.03 8.755-4.666a46.501 46.501 0 01-.251-6.07l-9.234-3.954 1.084-7.142 9.983-.996a47.657 47.657 0 012.29-6.281l-6.872-7.176 3.771-6.154 9.492 2.905a47.068 47.068 0 014.102-4.456l-3.679-9.247 5.809-4.275 7.709 6.278a47.787 47.787 0 016.044-2.81l.198-9.942 7.014-1.673 4.667 8.778a47.235 47.235 0 016.06-.242l3.933-9.247 7.129 1.096 1.008 10.009a47.666 47.666 0 016.271 2.301l7.149-6.879 6.151 3.788-2.891 9.512a47.728 47.728 0 014.454 4.116l9.226-3.673 4.274 5.827-6.254 7.718a47.64 47.64 0 012.813 6.061l9.919.212 1.682 7.029-8.754 4.665c.21 1.999.298 4.023.25 6.071l9.233 3.951-1.082 7.144-9.99.996a47.457 47.457 0 01-2.285 6.281l6.874 7.175-3.769 6.155-9.494-2.907a47.597 47.597 0 01-4.1 4.457l3.679 9.247-5.812 4.277-7.711-6.28a47.327 47.327 0 01-6.043 2.812l-.196 9.941-7.014 1.675-4.668-8.777a47.36 47.36 0 01-6.055.244l-3.936 9.246-7.131-1.097-1.006-10.009a46.91 46.91 0 01-6.27-2.304l-7.151 6.88-6.149-3.788 2.89-9.511a46.919 46.919 0 01-4.45-4.117l-9.226 3.673-4.272-5.826 6.254-7.718a47.312 47.312 0 01-2.82-6.065zm34.99-3.843c-2.419-1.695-4.626-4.926-5.434-6.792l-19.559 6.137c3.272 9.572 8.448 14.862 15.456 19.139l9.537-18.484zm10.803-6.298c3.588-1.126 5.59-4.972 4.461-8.571-1.129-3.597-4.969-5.607-8.556-4.482-3.591 1.127-5.592 4.971-4.464 8.568 1.129 3.599 4.968 5.612 8.559 4.485zm-36.963 1.77l19.637-6.162c-.17-2.067.026-6.079 1.299-8.81l-18.357-9.676c-3.599 7.459-4.497 16.771-2.579 24.648zm5.116-27.636l18.924 9.538c1.471-1.932 2.401-3.21 6.16-4.741l-6.342-20.214c-9.472 3.591-14.739 8.734-18.742 15.417zm20.646-16.104l6.342 20.214c3.935-.972 5.674-.326 8.381.673l10.113-19.192c-7.614-3.379-17.068-3.961-24.836-1.695zm27.319 3.169l-9.983 19.062c2.364 1.507 4.564 4.433 5.577 6.235l20.764-6.515c-2.934-7.559-9.059-14.726-16.358-18.782zm17.609 22.628l-20.681 6.49c.417 1.989.468 5.464-.37 8.075l19.221 10.16c3.376-7.557 4.612-14.999 1.83-24.725zm-3.128 27.269l-18.903-10.024c-1.663 2.879-3.58 5.019-7.352 6.508l6.328 20.17c7.669-2.589 15.648-9.005 19.927-16.654zm-21.881 17.176l-6.328-20.17c-3.978.833-6.824.423-9.471-.691l-9.112 18.223c7.376 3.634 15.077 5.073 24.911 2.638z"/></g><g opacity=".05" fill="#fff"><path d="M1648.04 242.455c-5.57 7.529-16.25 9.108-23.8 3.522-7.55-5.588-9.15-16.261-3.58-23.788 5.58-7.53 16.25-9.111 23.8-3.522 7.55 5.586 9.15 16.258 3.58 23.788zm-19.76-14.623c-2.46 3.334-1.75 8.066 1.59 10.542 3.35 2.476 8.08 1.772 10.55-1.563 2.47-3.337 1.75-8.064-1.59-10.539-3.34-2.476-8.07-1.778-10.55 1.56z"/><path d="M1662.53 189.05l8.99-6.258 6.06 5.178-4.77 9.846a53.104 53.104 0 014.17 5.251l10.8-2.471 3.67 7.075-8.26 7.371a52.206 52.206 0 012.04 7.087l10.79 1.936.63 7.935-10.35 3.575a52.514 52.514 0 01-.76 6.638l9.28 5.858-2.4 7.587-10.95-.592a50.82 50.82 0 01-3.57 6.433l6.28 8.994-5.16 6.047-9.86-4.795a53.658 53.658 0 01-5.25 4.152l2.5 10.798-7.07 3.655-7.4-8.273a52.78 52.78 0 01-7.09 2.022l-1.9 10.778-7.95.615-3.6-10.359a51.983 51.983 0 01-6.64-.778l-5.84 9.266-7.6-2.422.56-10.947a52.542 52.542 0 01-6.44-3.577l-8.98 6.256-6.07-5.177 4.77-9.842a52.059 52.059 0 01-4.16-5.253l-10.8 2.472-3.68-7.072 8.26-7.374a53.542 53.542 0 01-2.04-7.086l-10.79-1.936-.63-7.938 10.35-3.572c.11-2.233.37-4.449.76-6.641l-9.28-5.856 2.4-7.586 10.96.594a52.343 52.343 0 013.56-6.435l-6.28-8.992 5.17-6.048 9.86 4.795a52.067 52.067 0 015.24-4.151l-2.5-10.8 7.08-3.654 7.39 8.271a52.336 52.336 0 017.09-2.021l1.91-10.777 7.94-.617 3.6 10.357c2.24.117 4.46.377 6.65.781l5.84-9.269 7.6 2.42-.57 10.946a52.965 52.965 0 016.44 3.58zm-60.95 19.82c-13.22 17.855-9.42 43.071 8.48 56.32 17.9 13.251 43.12 9.521 56.34-8.335 13.21-17.854 9.42-43.073-8.48-56.323-17.9-13.249-43.13-9.516-56.34 8.338zm502.35 116.898l26.72-18.626 18.06 15.408-14.21 29.31a153.102 153.102 0 0112.4 15.625l32.16-7.358 10.92 21.056-24.57 21.944a156.87 156.87 0 016.06 21.094l32.12 5.759 1.88 23.623-30.81 10.638c-.34 6.647-1.1 13.244-2.27 19.76l27.64 17.432-7.15 22.577-32.61-1.758a156.617 156.617 0 01-10.61 19.144l18.7 26.768-15.38 17.999-29.36-14.269a155.791 155.791 0 01-15.61 12.357l7.43 32.138-21.04 10.88-22.02-24.621a155.985 155.985 0 01-21.1 6.017l-5.67 32.077-23.65 1.834-10.71-30.827a157.416 157.416 0 01-19.78-2.312l-17.38 27.581-22.61-7.203 1.67-32.582a155.995 155.995 0 01-19.18-10.643l-26.74 18.617-18.05-15.408 14.21-29.297c-4.42-4.9-8.57-10.109-12.4-15.634l-32.15 7.361-10.93-21.057 24.58-21.951a156.488 156.488 0 01-6.07-21.09l-32.11-5.757-1.89-23.625 30.82-10.635c.33-6.647 1.1-13.244 2.26-19.761l-27.64-17.432 7.16-22.576 32.61 1.76a155.267 155.267 0 0110.6-19.148l-18.7-26.766 15.39-18.002 29.35 14.27a155.809 155.809 0 0115.61-12.359l-7.44-32.143 21.06-10.872 22.01 24.617c6.96-2.528 14-4.522 21.1-6.013l5.68-32.08 23.64-1.833 10.72 30.826a154.18 154.18 0 0119.77 2.32l17.39-27.584 22.6 7.203-1.68 32.58a157.141 157.141 0 0119.2 10.647zm-181.45 59c-39.34 53.143-28.04 128.197 25.24 167.634 53.27 39.439 128.36 28.328 167.7-24.814 39.34-53.143 28.04-128.202-25.24-167.641-53.27-39.437-128.36-28.322-167.7 24.821zm-107.64 147.381l10.99-7.662 7.43 6.337-5.85 12.053a64.294 64.294 0 015.11 6.424l13.22-3.025 4.49 8.665-10.1 9.022a65.44 65.44 0 012.49 8.677l13.21 2.372.78 9.712-12.68 4.375c-.13 2.735-.45 5.45-.94 8.132l11.38 7.17-2.95 9.291-13.41-.731a63.358 63.358 0 01-4.36 7.876l7.69 11.01-6.33 7.404-12.07-5.868a63.562 63.562 0 01-6.43 5.081l3.06 13.217-8.65 4.475-9.06-10.127a62.934 62.934 0 01-8.67 2.473l-2.33 13.197-9.74.757-4.4-12.68a64.682 64.682 0 01-8.13-.955l-7.16 11.346-9.29-2.965.68-13.399a63.707 63.707 0 01-7.88-4.378l-11 7.652-7.43-6.336 5.85-12.052a62.853 62.853 0 01-5.1-6.428l-13.23 3.026-4.49-8.66 10.11-9.027a63.536 63.536 0 01-2.5-8.675l-13.2-2.368-.79-9.718 12.68-4.373c.14-2.733.46-5.443.93-8.134l-11.36-7.166 2.94-9.288 13.41.729a63.156 63.156 0 014.36-7.877l-7.68-11.011 6.31-7.408 12.08 5.877a64.627 64.627 0 016.42-5.088l-3.06-13.216 8.66-4.471 9.06 10.123a63.087 63.087 0 018.68-2.473l2.34-13.2 9.72-.744 4.41 12.677c2.73.142 5.45.458 8.13.954l7.15-11.353 9.3 2.966-.69 13.4a64.281 64.281 0 017.89 4.386zm-82.7 18.295c-19.46 26.298-13.87 63.44 12.5 82.959 26.36 19.515 63.52 14.019 82.99-12.277 19.47-26.302 13.87-63.447-12.49-82.963-26.37-19.517-63.53-14.021-83 12.281z"/><path d="M1734.31 552.049c-18.56 25.066-13.21 60.594 11.93 79.199 25.12 18.601 60.67 13.348 79.23-11.719 18.56-25.07 13.2-60.602-11.93-79.205s-60.67-13.345-79.23 11.725zm85.91 63.599c-16.42 22.183-47.87 26.839-70.11 10.375-22.25-16.465-26.98-47.91-10.56-70.093 16.43-22.188 47.88-26.844 70.13-10.379 22.24 16.466 26.97 47.911 10.54 70.097zm110.96-567.024l-2.34 2.363c-3.7 3.746-4.4 9.685-1.32 13.97 3.98 5.534 11.81 5.976 16.39 1.356l2.08-2.107c2.88-2.906 7.67-2.59 10.15.668 1.22 1.606 2.41 3.234 3.55 4.881 2.29 3.275 1.24 7.803-2.25 9.728l-2.95 1.626c-4.61 2.547-6.95 8.045-5.21 13.025 2.26 6.419 9.66 9.054 15.36 5.908l2.58-1.424c3.58-1.977 8.1-.326 9.56 3.51.71 1.879 1.38 3.776 2.02 5.675a6.719 6.719 0 01-4.92 8.684l-3.55.79c-5.76 1.276-9.42 7.034-8.12 12.796-3.37 4.54.73 10.827 6.25 9.601l9.43-2.088c3.99-.89 7.87 1.966 8.19 6.041.15 2.001.27 4.004.35 6.007.15 3.987-3.19 7.225-7.17 6.956l-3.62-.246c-5.89-.396-11.02 4.098-11.41 9.983-.38 5.887 4.13 11.027 10.02 11.424l2.96.198c4.08.274 6.99 4.099 6.15 8.095-.41 1.96-.86 3.919-1.36 5.871-.97 3.862-5.09 6.03-8.84 4.648l-3.44-1.266c-5.54-2.039-11.74.825-13.76 6.357v.003c-2.03 5.537.85 11.733 6.39 13.771l2.77 1.018c3.85 1.411 5.57 5.903 3.63 9.5-.94 1.76-1.93 3.503-2.96 5.236-2.03 3.427-6.59 4.344-9.8 1.967l-2.93-2.168c-4.75-3.517-11.5-2.518-15.01 2.219-3.51 4.738-2.49 11.491 2.26 15.007l2.37 1.753c3.29 2.437 3.68 7.222.81 10.128a140.63 140.63 0 01-4.31 4.195c-2.91 2.723-7.56 2.316-9.96-.864l-2.03-2.67c-3.19-4.205-8.98-5.76-13.65-3.33-6.04 3.126-7.57 10.818-3.64 16.014l1.79 2.369c2.48 3.265 1.5 7.965-2.08 9.943-1.76.969-3.54 1.902-5.34 2.803-3.56 1.777-7.89.08-9.31-3.643l-1.31-3.429c-2.09-5.519-8.33-8.332-13.84-6.242-5.52 2.086-8.32 8.304-6.22 13.823l1.04 2.741c1.46 3.829-.81 8.061-4.8 8.946-1.96.433-3.93.826-5.9 1.182-3.93.706-7.61-2.139-7.92-6.111l-.28-3.62c-.46-5.883-5.66-10.328-11.54-9.887-5.89.447-10.32 5.625-9.87 11.511l.23 2.932c.32 4.077-3.04 7.493-7.13 7.223-2-.132-4-.307-6-.518-3.97-.424-6.71-4.19-5.89-8.095l.75-3.566c1.22-5.77-2.51-11.495-8.29-12.726-5.77-1.229-11.5 2.485-12.71 8.253l-.62 2.898c-.84 3.997-5.03 6.33-8.88 4.915-1.89-.692-3.76-1.422-5.62-2.197-3.69-1.527-5.26-5.911-3.36-9.415l1.73-3.215c2.79-5.192.83-11.732-4.37-14.542-5.21-2.803-11.74-.853-14.54 4.333l-1.4 2.588c-1.92 3.58-6.59 4.662-9.87 2.237-.02-.014-.04-.032-.06-.047a150.67 150.67 0 01-4.79-3.696c-3.09-2.493-3.33-7.124-.54-9.945l2.55-2.577c4.15-4.191 4.11-11.016-.1-15.169-4.2-4.154-11.03-4.124-15.17.063l-2.09 2.104c-2.88 2.905-7.67 2.589-10.15-.668a139.294 139.294 0 01-3.55-4.875c-2.29-3.276-1.24-7.805 2.25-9.732l3.22-1.773c5.16-2.848 7.04-9.405 4.18-14.57-2.87-5.167-9.43-7.063-14.6-4.212l-2.57 1.423c-3.59 1.975-8.11.323-9.56-3.509-.72-1.88-1.39-3.772-2.02-5.675-1.27-3.779 1.02-7.82 4.91-8.682l3.55-.789c5.76-1.28 9.41-7.038 8.13-12.797 3.36-4.54-.74-10.83-6.26-9.606l-9.43 2.09c-3.99.887-7.87-1.965-8.19-6.041-.15-1.996-.27-4.001-.35-6.006-.15-3.981 3.19-7.221 7.17-6.955l3.32.222c5.26.355 10.21-2.992 11.43-8.121 1.58-6.613-3.24-12.825-9.73-13.259l-2.96-.201c-4.09-.271-7-4.094-6.16-8.096.41-1.96.86-3.916 1.36-5.868.97-3.862 5.09-6.032 8.84-4.65l3.19 1.175c4.9 1.797 10.5.027 13.15-4.449 3.5-5.922.63-13.324-5.53-15.59l-2.77-1.022c-3.84-1.411-5.57-5.904-3.63-9.5.96-1.758 1.94-3.503 2.97-5.234 2.03-3.426 6.58-4.342 9.8-1.965l2.92 2.167c4.75 3.516 11.51 2.512 15.01-2.223 3.51-4.739 2.5-11.489-2.25-15.005l-2.37-1.752c-3.29-2.435-3.68-7.223-.81-10.133 1.41-1.43 2.85-2.83 4.31-4.19 2.91-2.726 7.56-2.32 9.97.864l2.02 2.668c3.19 4.205 8.97 5.76 13.65 3.334 6.04-3.13 7.57-10.824 3.63-16.017l-1.79-2.368c-2.47-3.268-1.49-7.971 2.09-9.942 1.76-.972 3.54-1.905 5.34-2.805 3.56-1.777 7.89-.08 9.31 3.646l1.19 3.137c1.88 4.935 6.99 8.048 12.17 7.04 6.68-1.303 10.32-8.244 8.01-14.333l-1.05-2.74c-1.45-3.828.82-8.063 4.81-8.946 1.96-.433 3.93-.829 5.9-1.181 3.92-.709 7.61 2.135 7.92 6.114l.26 3.307c.41 5.258 4.45 9.687 9.7 10.175 6.78.632 12.23-5.001 11.73-11.487l-.23-2.935c-.32-4.075 3.05-7.494 7.12-7.22 2.01.132 4.01.303 6.01.517 3.97.426 6.71 4.192 5.89 8.095l-.75 3.565c-1.22 5.771 2.51 11.496 8.29 12.73 4.44 3.285 10.78.888 11.92-4.509l1.4-6.645c.85-3.998 5.05-6.328 8.89-4.915 1.88.693 3.76 1.425 5.62 2.196 3.69 1.532 5.25 5.91 3.36 9.42l-1.73 3.215c-3.08 5.728-.37 13.092 6.08 15.282 5 1.693 10.48-.714 12.97-5.35l1.25-2.315c1.93-3.582 6.6-4.66 9.88-2.236.02.014.04.03.06.048a139.36 139.36 0 014.78 3.692c3.1 2.49 3.33 7.119.54 9.938zm-7.94 161.442c12.77-19.939 17.77-42.894 15.56-65.086l-34.4 5.092c.99 13.377-1.96 27.095-9.17 39.262l28.01 20.734v-.002zm-8.27 11.175l-28.01-20.735c-9.54 10.453-21.79 17.278-34.87 20.241l5.17 34.387c21.87-4.364 42.37-15.853 57.71-33.893zm-71.51 35.687l-5.2-34.504a67.466 67.466 0 01-37.85-10.797l-20.65 27.892c19.4 13.132 41.83 18.76 63.7 17.409zM1736.63 174.9c4.27 21.075 15.15 40.889 32.13 56.056l20.75-28.035c-9.43-9.274-15.66-20.828-18.48-33.109l-34.4 5.088zm14.04-75.278c-12.09 18.861-17.21 40.417-15.86 61.474l34.52-5.109c-.25-12.212 2.78-24.563 9.35-35.63l-28.01-20.735zm39.74 20.763c-18.99 25.65-13.54 61.859 12.17 80.891 25.71 19.025 61.93 13.67 80.92-11.979 18.98-25.642 13.53-61.86-12.17-80.886-25.71-19.032-61.94-13.668-80.92 11.974zm-31.47-31.937l28.01 20.734c8.67-9.515 19.6-16.02 31.35-19.352l-5.19-34.506c-20.54 4.856-39.66 16.056-54.17 33.124zm67.9-35.41l5.18 34.388c12.57-.895 25.44 1.694 37.06 8.01l20.75-28.039c-19.46-11.811-41.59-16.434-62.99-14.359zm53.75 50.269a67.556 67.556 0 0121.38 33.052l34.51-5.105c-5.09-21.31-17.02-41.118-35.24-55.839l-20.65 27.892zm-93.51 205.422c2.38 1.915 2.56 5.491.39 7.671l-1.81 1.823c-2.86 2.902-3.4 7.468-1.04 10.775 3.05 4.244 9.07 4.561 12.6.994l1.61-1.637c2.21-2.229 5.9-2.016 7.8.489.92 1.236 1.84 2.508 2.74 3.758 1.73 2.521.9 6.015-1.78 7.506l-2.27 1.25c-3.55 1.984-5.37 6.236-4.04 10.054 1.71 4.945 7.41 6.949 11.78 4.515l1.99-1.094c2.78-1.543 6.24-.279 7.34 2.665a98.201 98.201 0 011.54 4.374c.99 2.899-.79 6.019-3.8 6.697l-2.72.627c-4.44.987-7.27 5.438-6.29 9.884-2.58 3.492.54 8.322 4.78 7.368l7.26-1.628c3.07-.694 6.06 1.502 6.29 4.625.12 1.544.19 3.087.25 4.641.1 3.073-2.47 5.565-5.54 5.381l-2.78-.186c-4.52-.282-8.49 3.198-8.79 7.716-.31 4.568 3.15 8.497 7.67 8.776l2.27.153c3.15.205 5.38 3.141 4.71 6.229-.31 1.513-.68 3.001-1.04 4.506-.77 2.992-3.95 4.674-6.82 3.636l-2.63-.979c-4.27-1.551-9.04.655-10.62 4.938-1.56 4.278.63 9.025 4.89 10.592l2.11.78c2.96 1.085 4.27 4.536 2.78 7.325-.74 1.34-1.5 2.68-2.31 4.026-1.56 2.625-5.06 3.368-7.53 1.538l-2.23-1.647c-3.66-2.71-8.84-1.932-11.56 1.743-2.72 3.672-1.96 8.864 1.7 11.573l1.8 1.331c2.52 1.862 2.81 5.553.61 7.796a106.015 106.015 0 01-3.34 3.238c-2.22 2.106-5.81 1.808-7.66-.652l-1.54-2.043c-2.43-3.224-6.9-4.407-10.48-2.536-4.67 2.428-5.86 8.363-2.86 12.365l1.38 1.819c1.91 2.513 1.12 6.128-1.62 7.659-1.37.755-2.74 1.479-4.12 2.17a5.152 5.152 0 01-7.15-2.773l-1-2.632c-1.59-4.242-6.39-6.397-10.62-4.782-4.26 1.624-6.43 6.437-4.82 10.662l.77 2.12c1.13 2.954-.64 6.215-3.7 6.919-1.51.324-3.01.641-4.55.919-3 .555-5.83-1.624-6.07-4.709l-.2-2.779c-.34-4.53-4.31-7.939-8.85-7.589-4.52.374-7.96 4.368-7.61 8.895l.17 2.26c.24 3.147-2.36 5.78-5.51 5.594a115.97 115.97 0 01-4.62-.386c-3.05-.324-5.14-3.211-4.51-6.213l.62-2.767c.92-4.45-1.93-8.832-6.37-9.776-4.45-.932-8.85 1.946-9.79 6.395l-.48 2.219c-.67 3.095-3.89 4.891-6.86 3.82-1.44-.538-2.87-1.087-4.31-1.674-2.82-1.176-4.03-4.551-2.57-7.252l1.35-2.478c2.16-4.001.67-9.047-3.31-11.202-4.01-2.139-9.05-.627-11.2 3.374l-1.09 2.009c-1.5 2.754-5.07 3.612-7.6 1.745a.29.29 0 00-.04-.033c-1.24-.919-2.48-1.862-3.67-2.827-2.38-1.934-2.55-5.502-.39-7.683l1.97-1.972c3.19-3.259 3.16-8.513-.05-11.697-3.23-3.201-8.45-3.15-11.67.096l-1.61 1.609c-2.2 2.261-5.91 2.016-7.8-.477-.93-1.25-1.84-2.474-2.71-3.753-1.76-2.519-.94-6.02 1.74-7.5l2.49-1.387c3.98-2.192 5.43-7.266 3.26-11.233-2.19-3.967-7.24-5.421-11.22-3.202l-1.98 1.09c-2.77 1.546-6.24.28-7.35-2.672-.55-1.458-1.05-2.893-1.55-4.369-.95-2.911.82-6.025 3.81-6.708l2.75-.614c4.42-1.006 7.25-5.452 6.28-9.863 2.6-3.511-.53-8.354-4.8-7.401l-7.25 1.633a5.15 5.15 0 01-6.28-4.65c-.12-1.527-.2-3.069-.27-4.604-.1-3.084 2.48-5.585 5.54-5.391l2.56.165c4.03.262 7.85-2.337 8.8-6.292 1.23-5.09-2.45-9.872-7.44-10.174l-2.28-.152c-3.13-.19-5.39-3.153-4.7-6.232.31-1.512.67-3.026 1.05-4.516.75-2.997 3.93-4.66 6.82-3.611l2.45.91c3.75 1.362 8.06-.016 10.12-3.485 2.7-4.565.52-10.252-4.22-11.98l-2.11-.788a5.141 5.141 0 01-2.77-7.303 97.26 97.26 0 012.28-4.044c1.57-2.652 5.08-3.369 7.54-1.548l2.25 1.669c3.65 2.702 8.84 1.902 11.55-1.76 2.71-3.656 1.96-8.849-1.69-11.55l-1.82-1.348c-2.52-1.866-2.81-5.565-.61-7.795 1.1-1.12 2.21-2.198 3.34-3.25 2.23-2.122 5.8-1.794 7.65.635l1.56 2.071c2.43 3.225 6.88 4.393 10.48 2.526 4.64-2.441 5.84-8.374 2.84-12.354l-1.36-1.806c-1.91-2.536-1.14-6.166 1.6-7.689 1.38-.754 2.74-1.461 4.14-2.166 2.74-1.379 6.07-.086 7.15 2.776l.9 2.433c1.43 3.786 5.36 6.172 9.35 5.383 5.13-1.015 7.94-6.381 6.18-11.07l-.78-2.105c-1.12-2.95.64-6.21 3.7-6.904 1.51-.337 3.02-.642 4.55-.921a5.147 5.147 0 016.07 4.685l.2 2.556c.3 4.044 3.38 7.444 7.44 7.813 5.19.464 9.4-3.888 9.03-8.886l-.17-2.257c-.24-3.145 2.37-5.785 5.49-5.587 1.55.097 3.09.224 4.64.383 3.04.318 5.15 3.23 4.5 6.214l-.6 2.753c-.93 4.446 1.92 8.849 6.35 9.791 3.41 2.522 8.3.665 9.18-3.495l1.1-5.133c.67-3.083 3.9-4.887 6.85-3.8a96.13 96.13 0 014.32 1.668c2.83 1.167 4.02 4.527 2.57 7.248l-1.34 2.477c-2.4 4.419-.33 10.086 4.62 11.758 3.85 1.296 8.07-.57 9.99-4.15l.97-1.79c1.5-2.753 5.11-3.6 7.6-1.752l.06.04c1.24.919 2.46 1.849 3.66 2.824zm-91.26 48.563l18.79 32.239 9.5-36.013c-9.57-1.738-19.51-.426-28.29 3.774zm61.73 21.749l-32.25 18.678 36.08 9.616c1.73-9.59.39-19.52-3.83-28.294zm-35.9 12.389l32.22-18.687a46.167 46.167 0 00-10.52-10.855c-3.83-2.834-7.93-5.01-12.18-6.472l-9.52 36.014zm35.85-49.74c-3.26-2.412-7.88-1.738-10.3 1.531-2.42 3.274-1.72 7.893 1.54 10.304 3.28 2.426 7.9 1.756 10.33-1.518 2.42-3.269 1.71-7.891-1.57-10.317zm21.24 54.885a7.31 7.31 0 006.19-8.369 7.356 7.356 0 00-8.38-6.2c-4.01.588-6.8 4.349-6.19 8.368.6 4.015 4.35 6.792 8.38 6.201zm-7.29 43.818a7.345 7.345 0 00-1.54-10.3 7.353 7.353 0 00-10.3 1.535 7.36 7.36 0 001.55 10.294 7.353 7.353 0 0010.29-1.529zm-18.38-13.864c2.83-3.827 4.97-7.902 6.43-12.164l-36.06-9.602 18.77 32.266a45.822 45.822 0 0010.86-10.5zm-78.85-7.602l32.19-18.696-36.03-9.585c-1.75 9.566-.4 19.489 3.84 28.281zm8.83 33.66c2.41-3.265 1.7-7.882-1.57-10.298-3.27-2.419-7.89-1.759-10.31 1.507-2.42 3.269-1.71 7.894 1.56 10.312 3.27 2.416 7.9 1.748 10.32-1.521zm5.37-16.505a46.793 46.793 0 0012.15 6.462l9.52-36.009-32.22 18.673a46.178 46.178 0 0010.55 10.874zm47.51 4.585l-18.77-32.294-9.53 36.059a46.22 46.22 0 0028.3-3.765zm-10.94 27.034a7.377 7.377 0 006.19-8.366c-.61-4.035-4.36-6.807-8.38-6.206a7.338 7.338 0 00-6.2 8.367c.61 4.019 4.35 6.79 8.39 6.205zm-73.5-68.47a7.362 7.362 0 00-6.2 8.381 7.39 7.39 0 008.39 6.214 7.382 7.382 0 006.21-8.381 7.43 7.43 0 00-8.4-6.214zm7.27-43.813c-2.42 3.265-1.72 7.868 1.56 10.296 3.27 2.42 7.88 1.748 10.29-1.518a7.37 7.37 0 00-1.53-10.316 7.374 7.374 0 00-10.32 1.538zm19.93 16.051c-2.8 3.774-4.99 7.862-6.45 12.125l36.06 9.612-18.76-32.282c-4.1 2.818-7.74 6.334-10.85 10.545zm26.55-43.36c-4.02.594-6.8 4.351-6.2 8.364.63 4.04 4.38 6.817 8.39 6.207a7.31 7.31 0 006.19-8.364c-.58-4.022-4.33-6.8-8.38-6.207zm-133.62-21.352l8.14-5.671 5.5 4.691-4.33 8.926a46.889 46.889 0 013.78 4.759l9.79-2.241 3.33 6.412-7.49 6.682a46.914 46.914 0 011.85 6.425l9.78 1.755.58 7.194-9.39 3.24c-.1 2.024-.33 4.034-.69 6.018l8.42 5.308-2.18 6.875-9.93-.535a48.44 48.44 0 01-3.23 5.829l5.69 8.153-4.68 5.483-8.94-4.349a47.578 47.578 0 01-4.76 3.764l2.27 9.79-6.41 3.312-6.71-7.497a47.537 47.537 0 01-6.42 1.832l-1.73 9.77-7.2.558-3.26-9.39a47.867 47.867 0 01-6.03-.705l-5.29 8.401-6.89-2.194.51-9.92a47.36 47.36 0 01-5.84-3.244l-8.14 5.669-5.5-4.691 4.33-8.924a47.475 47.475 0 01-3.78-4.761l-9.79 2.242-3.33-6.412 7.49-6.686a48.172 48.172 0 01-1.85-6.423l-9.78-1.751-.58-7.195 9.39-3.24c.1-2.023.33-4.033.69-6.017l-8.42-5.308 2.18-6.879 9.93.537a45.988 45.988 0 013.23-5.831l-5.7-8.151 4.69-5.484 8.94 4.347c1.49-1.341 3.07-2.6 4.75-3.763l-2.26-9.79 6.41-3.312 6.7 7.498c2.12-.77 4.27-1.378 6.43-1.829l1.73-9.771 7.2-.559 3.26 9.389c2.03.105 4.04.344 6.02.708l5.3-8.401 6.88 2.195-.51 9.92a47.6 47.6 0 015.85 3.242zm-26.02 23.707c2.95-.054 6.64 1.259 8.39 2.291l12.2-16.477c-8.28-5.81-15.58-7.038-23.76-6.369l3.17 20.555zm-5.03 11.451c-2.23 3.022-1.59 7.31 1.45 9.554 3.03 2.243 7.31 1.608 9.55-1.414 2.24-3.025 1.59-7.31-1.44-9.553-3.03-2.245-7.32-1.612-9.56 1.413zm28.84-23.193l-12.24 16.542c1.35 1.571 3.55 4.929 4.13 7.887l20.54-2.987c-1.48-8.148-6.24-16.204-12.43-21.442zm12.14 25.35l-20.92 3.433c-.05 2.428-.05 4.008-2.18 7.459l17.02 12.605c5.55-8.479 6.77-15.738 6.08-23.497zm-7.21 25.173l-17.03-12.605c-2.61 3.102-4.39 3.604-7.17 4.39l3.13 21.468c8.14-1.752 16.12-6.848 21.07-13.253zm-23.95 13.523l-3.15-21.285c-2.8.173-6.3-.897-8.18-1.757l-12.95 17.491c6.82 4.383 15.99 6.57 24.28 5.551zm-27.56-7.923l12.9-17.422c-1.51-1.362-3.59-4.141-4.45-6.745l-21.52 3.105c1.72 8.095 5.1 14.839 13.07 21.062zm-13.52-23.883l21.18-3.027c-.35-3.307-.06-6.165 2.11-9.59l-16.99-12.577c-4.67 6.607-7.35 16.492-6.3 25.194zm7.57-26.766l16.99 12.577c2.73-3.015 5.27-4.359 8.07-5.018l-3.37-20.094c-8.1 1.406-15.17 4.776-21.69 12.535z"/></g></g><defs><radialGradient id="paint0_radial_193_791" cx="0" cy="0" r="1" gradientUnits="userSpaceOnUse" gradientTransform="rotate(-149.613 1056.734 287.252) scale(2113.31 3402.96)"><stop stop-color="#5E3B26"/><stop offset=".584" stop-color="#14141B"/><stop offset=".705" stop-color="#131320"/><stop offset=".78" stop-color="#20212C"/><stop offset=".89" stop-color="#202C32"/><stop offset="1" stop-color="#48585A"/></radialGradient><linearGradient id="paint1_linear_193_791" x1="911.5" y1=".584" x2="911.5" y2="476.584" gradientUnits="userSpaceOnUse"><stop stop-color="#202A31"/><stop offset="1" stop-color="#202A31" stop-opacity="0"/></linearGradient></defs></svg>