<svg width="528" height="441" viewBox="0 0 528 441" fill="none" xmlns="http://www.w3.org/2000/svg"><g opacity=".05" fill="#fff"><path d="M450.592 151.906c-5.578 7.535-16.263 9.115-23.816 3.524-7.554-5.592-9.162-16.273-3.585-23.807 5.579-7.536 16.265-9.118 23.818-3.527 7.554 5.592 9.161 16.274 3.583 23.81zM430.82 137.27c-2.471 3.339-1.758 8.073 1.589 10.55 3.347 2.478 8.081 1.777 10.553-1.562 2.473-3.341 1.76-8.072-1.587-10.55-3.347-2.477-8.082-1.778-10.555 1.562z"/><path d="M465.097 98.448l8.988-6.263 6.072 5.18-4.778 9.856a52.097 52.097 0 014.169 5.254l10.813-2.474 3.673 7.08-8.264 7.378a52.68 52.68 0 012.04 7.093l10.798 1.936.635 7.943-10.363 3.578a52.311 52.311 0 01-.764 6.644l9.294 5.863-2.404 7.592-10.964-.591a52.535 52.535 0 01-3.567 6.438l6.289 9.002-5.172 6.053-9.87-4.798a52.19 52.19 0 01-5.251 4.155l2.5 10.806-7.076 3.658-7.405-8.279a52.18 52.18 0 01-7.093 2.023l-1.909 10.787-7.951.615-3.601-10.366a52.616 52.616 0 01-6.652-.777l-5.845 9.274-7.603-2.422.564-10.956a52.444 52.444 0 01-6.45-3.579l-8.99 6.259-6.071-5.181 4.778-9.851a52.649 52.649 0 01-4.171-5.258l-10.81 2.475-3.677-7.08 8.266-7.38a52.634 52.634 0 01-2.042-7.092l-10.799-1.936-.635-7.946 10.364-3.576a52.35 52.35 0 01.762-6.644l-9.294-5.862 2.405-7.591 10.965.592a52.348 52.348 0 013.566-6.439l-6.287-9.001 5.171-6.053 9.872 4.799a52.442 52.442 0 015.247-4.156l-2.499-10.808 7.079-3.656 7.402 8.278c2.339-.85 4.71-1.52 7.097-2.023l1.908-10.787 7.949-.616 3.605 10.364c2.237.117 4.458.378 6.65.782l5.846-9.276 7.603 2.42-.567 10.956a52.978 52.978 0 016.454 3.584zm-61.012 19.839c-13.229 17.871-9.428 43.108 8.486 56.368 17.915 13.262 43.162 9.527 56.39-8.343 13.228-17.87 9.43-43.11-8.485-56.371-17.914-13.261-43.163-9.524-56.391 8.346zm-2.245-57.938c-2.333 3.15-6.801 3.812-9.96 1.474-3.159-2.339-3.832-6.805-1.499-9.956 2.333-3.15 6.802-3.813 9.961-1.474 3.159 2.338 3.831 6.804 1.498 9.956zm-8.268-6.12a3.158 3.158 0 005.077 3.758 3.159 3.159 0 00-5.077-3.758z"/><path d="M407.905 37.987l3.76-2.62 2.54 2.167-1.998 4.122a22.03 22.03 0 011.743 2.199l4.523-1.035 1.536 2.962-3.457 3.086c.358.979.641 1.97.853 2.967l4.517.81.266 3.323-4.335 1.497a22.215 22.215 0 01-.32 2.779l3.887 2.452-1.005 3.176-4.586-.247c-.432.93-.931 1.83-1.493 2.693l2.63 3.765-2.164 2.532-4.128-2.008a21.84 21.84 0 01-2.197 1.739l1.046 4.52-2.959 1.53-3.097-3.462c-.978.355-1.97.636-2.967.847l-.799 4.512-3.326.258-1.507-4.336a22.35 22.35 0 01-2.783-.325l-2.444 3.879-3.18-1.013.236-4.583a21.786 21.786 0 01-2.699-1.498l-3.76 2.62-2.54-2.168 1.999-4.12a22.1 22.1 0 01-1.744-2.2l-4.522 1.036-1.538-2.961 3.458-3.087a22.167 22.167 0 01-.854-2.966l-4.517-.81-.265-3.323 4.335-1.495c.046-.934.154-1.862.319-2.78l-3.887-2.452 1.006-3.175 4.587.247c.432-.929.93-1.83 1.491-2.693l-2.63-3.765 2.163-2.532 4.129 2.008a21.998 21.998 0 012.194-1.739l-1.045-4.521 2.961-1.529 3.096 3.463a21.83 21.83 0 012.968-.846l.798-4.511 3.324-.258 1.509 4.336c.935.05 1.865.159 2.781.328l2.445-3.881 3.18 1.013-.236 4.582c.933.427 1.835.927 2.702 1.491zm-25.521 8.297c-5.533 7.476-3.943 18.032 3.549 23.578 7.494 5.548 18.054 3.985 23.588-3.49 5.533-7.475 3.944-18.031-3.55-23.578-7.493-5.547-18.053-3.985-23.587 3.49zM27.267 150.018c-3.356 4.535-9.787 5.486-14.332 2.122-4.547-3.366-5.513-9.794-2.157-14.328 3.357-4.535 9.787-5.487 14.334-2.121 4.545 3.364 5.513 9.792 2.155 14.327zm-11.898-8.807c-1.487 2.008-1.058 4.858.956 6.349a4.544 4.544 0 006.35-.941 4.544 4.544 0 00-.954-6.348c-2.014-1.491-4.864-1.07-6.352.94z"/><path d="M35.997 117.852l5.409-3.769 3.654 3.119-2.875 5.93c.895.99 1.733 2.044 2.51 3.163l6.506-1.489 2.21 4.262-4.972 4.439c.514 1.41.92 2.834 1.227 4.269l6.499 1.166.381 4.779-6.234 2.153a31.437 31.437 0 01-.46 3.998l5.592 3.528-1.447 4.57-6.597-.357a31.161 31.161 0 01-2.147 3.875l3.783 5.417-3.11 3.642-5.941-2.888a31.569 31.569 0 01-3.16 2.501l1.505 6.503-4.257 2.202-4.457-4.983c-1.407.51-2.834.916-4.269 1.218l-1.148 6.491-4.786.371-2.167-6.239a31.698 31.698 0 01-4.003-.469l-3.517 5.581-4.575-1.459.34-6.593a31.715 31.715 0 01-3.883-2.154l-5.41 3.767-3.652-3.118 2.873-5.928a31.44 31.44 0 01-2.509-3.164l-6.505 1.49-2.212-4.26 4.974-4.441a31.557 31.557 0 01-1.229-4.268l-6.498-1.166-.382-4.781 6.237-2.152a31.12 31.12 0 01.458-3.999l-5.593-3.527 1.448-4.569 6.598.357a31.762 31.762 0 012.146-3.875l-3.783-5.416 3.112-3.643 5.94 2.888a31.523 31.523 0 013.158-2.5l-1.504-6.504 4.26-2.201 4.454 4.981a31.395 31.395 0 014.27-1.217l1.148-6.491 4.784-.372 2.17 6.238a31.15 31.15 0 014.001.471l3.519-5.583 4.575 1.458-.34 6.592a32.031 32.031 0 013.88 2.156zM-.717 129.79c-7.961 10.754-5.673 25.941 5.107 33.921 10.78 7.981 25.973 5.734 33.934-5.02 7.96-10.753 5.673-25.942-5.108-33.923-10.781-7.98-25.974-5.731-33.933 5.022zm276.562 166.137c-9.99 13.496-29.127 16.328-42.657 6.312-13.53-10.015-16.411-29.146-6.421-42.642 9.991-13.498 29.131-16.331 42.661-6.315 13.53 10.015 16.408 29.148 6.417 42.645zm-35.413-26.214c-4.425 5.977-3.148 14.459 2.846 18.896 5.995 4.438 14.475 3.18 18.9-2.799 4.428-5.982 3.154-14.458-2.841-18.896-5.994-4.437-14.477-3.184-18.905 2.799z"/><path d="M301.833 200.174l16.098-11.219 10.876 9.281-8.558 17.652a93.337 93.337 0 017.468 9.411l19.368-4.431 6.58 12.682-14.802 13.216a94.402 94.402 0 013.653 12.705l19.343 3.469 1.136 14.228-18.56 6.407a93.599 93.599 0 01-1.369 11.901l16.648 10.499-4.307 13.598-19.639-1.059a93.511 93.511 0 01-6.39 11.531l11.262 16.121-9.265 10.841-17.68-8.594a93.538 93.538 0 01-9.404 7.443l4.479 19.356-12.674 6.553-13.264-14.829a93.573 93.573 0 01-12.705 3.624l-3.418 19.32-14.242 1.104-6.451-18.566a95.056 95.056 0 01-11.915-1.393l-10.469 16.612-13.618-4.338 1.011-19.624a93.813 93.813 0 01-11.553-6.411l-16.106 11.213-10.871-9.279 8.558-17.646a94.335 94.335 0 01-7.471-9.416l-19.364 4.433-6.583-12.682 14.807-13.221a93.918 93.918 0 01-3.656-12.702l-19.343-3.468-1.138-14.229 18.565-6.405a94.168 94.168 0 011.363-11.903l-16.647-10.499 4.311-13.597 19.639 1.06a93.793 93.793 0 016.387-11.533l-11.263-16.12 9.265-10.843 17.681 8.595a94.037 94.037 0 019.398-7.444l-4.477-19.359 12.68-6.549 13.259 14.827a93.466 93.466 0 0112.71-3.622l3.418-19.321 14.239-1.104 6.456 18.566a93.02 93.02 0 0111.91 1.398l10.47-16.614 13.616 4.338-1.013 19.623a94.131 94.131 0 0111.561 6.413zm-109.284 35.535c-23.693 32.007-16.888 77.212 15.2 100.965 32.089 23.753 77.311 17.061 101.004-14.946 23.694-32.008 16.891-77.215-15.198-100.969-32.088-23.752-77.312-17.058-101.006 14.95zM337.648 52.762l9.537-6.648 6.443 5.501-5.07 10.457a55.15 55.15 0 014.424 5.58l11.475-2.63 3.899 7.518-8.769 7.833a55.266 55.266 0 012.162 7.527l11.464 2.053.671 8.434-10.998 3.795a55.754 55.754 0 01-.807 7.048l9.863 6.223-2.555 8.062-11.634-.632a54.926 54.926 0 01-3.786 6.83l6.674 9.555-5.489 6.426-10.479-5.094a54.67 54.67 0 01-5.57 4.406l2.656 11.47-7.509 3.884-7.863-8.787a54.883 54.883 0 01-7.528 2.148l-2.023 11.448-8.442.654-3.818-11.002a57.122 57.122 0 01-7.063-.825l-6.203 9.844-8.067-2.569.6-11.63a56.213 56.213 0 01-6.846-3.797l-9.542 6.643-6.444-5.501 5.072-10.456a54.338 54.338 0 01-4.428-5.581l-11.473 2.629-3.904-7.514 8.776-7.833a54.683 54.683 0 01-2.165-7.531l-11.46-2.052-.677-8.43 10.997-3.796c.12-2.374.398-4.728.81-7.054l-9.86-6.223 2.551-8.052 11.641.626a54.906 54.906 0 013.781-6.833l-6.673-9.551 5.488-6.425 10.477 5.092a55.558 55.558 0 015.572-4.41l-2.655-11.471 7.515-3.881 7.857 8.784a54.842 54.842 0 017.529-2.144l2.026-11.45 8.437-.651 3.825 11c2.372.127 4.731.398 7.058.83l6.202-9.845 8.07 2.566-.601 11.63a56.112 56.112 0 016.849 3.802zm-46.699 34.419c-6.678 9.02-4.762 21.762 4.281 28.456 9.041 6.693 21.787 4.805 28.464-4.216 6.675-9.017 4.759-21.76-4.281-28.452-9.045-6.694-21.79-4.804-28.464 4.212zM379.66-41.195l6.371-4.44 4.304 3.672-3.389 6.983a37.398 37.398 0 012.96 3.723l7.66-1.752 2.605 5.02-5.857 5.228a37.33 37.33 0 011.445 5.028l7.654 1.373.451 5.629-7.344 2.535a36.231 36.231 0 01-.545 4.712l6.59 4.155-1.705 5.384-7.77-.423a37.435 37.435 0 01-2.527 4.563l4.453 6.379-3.665 4.29-6.994-3.401a37.09 37.09 0 01-3.725 2.945l1.773 7.658-5.014 2.593-5.25-5.868a36.69 36.69 0 01-5.026 1.433l-1.35 7.647-5.639.438-2.551-7.348a37.37 37.37 0 01-4.715-.553l-4.145 6.574-5.384-1.719.394-7.765a36.475 36.475 0 01-4.567-2.537l-6.377 4.437-4.302-3.671 3.39-6.983a36.182 36.182 0 01-2.955-3.725l-7.668 1.753-2.602-5.018 5.859-5.231a37.305 37.305 0 01-1.447-5.025l-7.653-1.373-.455-5.632 7.349-2.535a37.27 37.27 0 01.54-4.713l-6.587-4.151 1.706-5.383 7.772.423a36.462 36.462 0 012.526-4.564l-4.453-6.38 3.662-4.294 7 3.406a37.932 37.932 0 013.719-2.949l-1.774-7.658 5.017-2.591 5.248 5.867a36.017 36.017 0 015.032-1.432l1.352-7.65 5.633-.43 2.554 7.345a36.12 36.12 0 014.715.553l4.139-6.578 5.39 1.717-.401 7.765a37.26 37.26 0 014.573 2.544zm-47.917 10.602c-11.28 15.238-8.039 36.76 7.24 48.07 15.276 11.31 36.808 8.125 48.088-7.113 11.282-15.24 8.039-36.764-7.237-48.073-15.279-11.31-36.808-8.126-48.091 7.116z"/><path d="M332.997-29.669c-10.752 14.525-7.652 35.112 6.912 45.893 14.561 10.78 35.158 7.735 45.91-6.79 10.754-14.527 7.652-35.117-6.91-45.896-14.564-10.781-35.158-7.734-45.912 6.794zm49.784 36.854c-9.515 12.854-27.742 15.551-40.63 6.01-12.889-9.54-15.632-27.762-6.117-40.615 9.517-12.857 27.745-15.555 40.634-6.014 12.888 9.54 15.631 27.761 6.113 40.619zm-255.054 317.29l6.623-4.615 4.473 3.817-3.522 7.26a38.617 38.617 0 013.075 3.869l7.962-1.822 2.708 5.219-6.089 5.434a38.633 38.633 0 011.502 5.226l7.955 1.428.47 5.85-7.634 2.634a37.838 37.838 0 01-.565 4.898l6.849 4.319-1.773 5.596-8.075-.44a38.841 38.841 0 01-2.628 4.743l4.629 6.632-3.81 4.459-7.27-3.534a38.8 38.8 0 01-3.871 3.06l1.843 7.96-5.211 2.696-5.457-6.1a37.955 37.955 0 01-5.224 1.49l-1.403 7.948-5.862.456-2.652-7.637a39.092 39.092 0 01-4.9-.575l-4.308 6.833-5.596-1.785.41-8.07a38.063 38.063 0 01-4.748-2.638l-6.627 4.609-4.473-3.816 3.522-7.258a38.23 38.23 0 01-3.07-3.872l-7.971 1.823-2.704-5.217 6.09-5.436a38.624 38.624 0 01-1.504-5.225l-7.954-1.426-.473-5.854 7.64-2.634c.08-1.645.272-3.277.56-4.898l-6.846-4.316 1.772-5.595 8.077.44a38.11 38.11 0 012.626-4.745l-4.629-6.631 3.806-4.462 7.275 3.539a39.344 39.344 0 013.866-3.064l-1.843-7.96 5.215-2.693 5.455 6.097a37.906 37.906 0 015.231-1.489l1.405-7.951 5.856-.448 2.655 7.635c1.649.086 3.285.277 4.9.575l4.303-6.837 5.602 1.786-.417 8.071a38.22 38.22 0 014.754 2.641zm-49.806 11.019c-11.725 15.839-8.356 38.21 7.524 49.965 15.879 11.755 38.261 8.444 49.985-7.394 11.727-15.841 8.356-38.213-7.523-49.967-15.879-11.755-38.26-8.445-49.986 7.396z"/><path d="M79.227 336.461c-11.176 15.097-7.954 36.495 7.184 47.701 15.134 11.203 36.544 8.039 47.72-7.059 11.177-15.099 7.953-36.5-7.183-47.704-15.138-11.205-36.544-8.038-47.721 7.062zm51.746 38.305c-9.89 13.361-28.835 16.165-42.231 6.249-13.397-9.917-16.247-28.857-6.357-42.217 9.892-13.364 28.838-16.168 42.234-6.251 13.395 9.917 16.246 28.857 6.354 42.219zm66.825-341.514l-1.407 1.423c-2.232 2.256-2.653 5.833-.797 8.413 2.394 3.334 7.115 3.6 9.872.817l1.255-1.269c1.73-1.75 4.618-1.56 6.108.403a84.918 84.918 0 012.143 2.94 4.045 4.045 0 01-1.359 5.859l-1.773.979c-2.778 1.534-4.191 4.846-3.14 7.845 1.359 3.866 5.82 5.453 9.249 3.558l1.555-.857a4.063 4.063 0 015.757 2.114 90.761 90.761 0 011.216 3.417 4.042 4.042 0 01-2.96 5.231l-2.14.475c-3.47.77-5.67 4.237-4.893 7.708-2.024 2.734.443 6.52 3.769 5.782l5.679-1.258c2.403-.535 4.737 1.185 4.93 3.639.094 1.205.167 2.412.212 3.618a4.045 4.045 0 01-4.315 4.19l-2.182-.148c-3.547-.239-6.641 2.468-6.873 6.012-.228 3.546 2.486 6.642 6.034 6.881l1.782.119c2.457.165 4.213 2.469 3.706 4.876a88.492 88.492 0 01-.817 3.536 4.045 4.045 0 01-5.324 2.799l-2.073-.763c-3.339-1.227-7.071.498-8.29 3.83l.001.001c-1.221 3.335.512 7.067 3.851 8.294l1.668.614c2.314.849 3.353 3.555 2.185 5.721a88.122 88.122 0 01-1.783 3.154 4.055 4.055 0 01-5.901 1.185l-1.765-1.306c-2.861-2.119-6.929-1.517-9.041 1.336-2.113 2.854-1.5 6.921 1.361 9.039l1.427 1.056c1.982 1.467 2.215 4.349.484 6.099a84.605 84.605 0 01-2.595 2.528c-1.752 1.64-4.548 1.394-6-.521l-1.22-1.608c-1.919-2.533-5.405-3.47-8.221-2.006-3.637 1.883-4.561 6.516-2.19 9.645l1.079 1.427c1.492 1.967.9 4.797-1.258 5.989a96.259 96.259 0 01-3.212 1.688 4.069 4.069 0 01-5.61-2.194l-.785-2.066c-1.264-3.323-5.018-5.018-8.34-3.759-3.325 1.257-5.007 5.002-3.746 8.326l.629 1.65c.88 2.307-.489 4.855-2.894 5.388-1.18.261-2.365.498-3.553.713a4.064 4.064 0 01-4.768-3.681l-.171-2.181c-.278-3.543-3.405-6.22-6.948-5.954-3.547.269-6.22 3.388-5.943 6.933l.137 1.765a4.04 4.04 0 01-4.294 4.351 93.386 93.386 0 01-3.615-.312 4.07 4.07 0 01-3.549-4.876l.453-2.147c.735-3.476-1.511-6.924-4.991-7.665-3.477-.741-6.926 1.497-7.659 4.97l-.369 1.746a4.044 4.044 0 01-5.353 2.96 84.175 84.175 0 01-3.382-1.323c-2.222-.92-3.168-3.56-2.027-5.671l1.043-1.936c1.682-3.127.499-7.066-2.633-8.759-3.135-1.688-7.072-.513-8.757 2.61l-.84 1.559c-1.16 2.156-3.973 2.808-5.945 1.347a87.963 87.963 0 01-2.92-2.254c-1.864-1.502-2.008-4.291-.329-5.99l1.539-1.552c2.497-2.524 2.471-6.635-.06-9.136-2.53-2.502-6.646-2.484-9.141.038l-1.257 1.267c-1.731 1.75-4.619 1.56-6.11-.402a89.786 89.786 0 01-2.142-2.936 4.048 4.048 0 011.358-5.862l1.936-1.068c3.11-1.715 4.243-5.664 2.517-8.775-1.724-3.112-5.679-4.254-8.791-2.537l-1.55.857c-2.158 1.19-4.883.194-5.759-2.113a89.008 89.008 0 01-1.216-3.418 4.042 4.042 0 012.96-5.229l2.14-.476c3.467-.771 5.667-4.239 4.892-7.707 2.024-2.735-.445-6.523-3.768-5.786l-5.679 1.259c-2.405.534-4.739-1.184-4.931-3.639a94.171 94.171 0 01-.213-3.617 4.05 4.05 0 014.318-4.189l1.997.134c3.173.213 6.152-1.802 6.89-4.892.948-3.983-1.952-7.724-5.866-7.985l-1.78-.121c-2.46-.163-4.216-2.466-3.711-4.876a89.03 89.03 0 01.819-3.535 4.048 4.048 0 015.325-2.8l1.924.707c2.947 1.083 6.324.017 7.917-2.68 2.11-3.566.381-8.024-3.33-9.39l-1.669-.614c-2.315-.85-3.352-3.557-2.184-5.723a94.226 94.226 0 011.786-3.152c1.222-2.063 3.967-2.615 5.9-1.183l1.764 1.305c2.86 2.118 6.929 1.513 9.04-1.339 2.113-2.854 1.502-6.92-1.36-9.037l-1.425-1.055c-1.981-1.467-2.212-4.351-.485-6.103a84.487 84.487 0 012.596-2.524c1.753-1.642 4.549-1.398 6.003.52l1.215 1.607c1.922 2.532 5.406 3.47 8.224 2.008 3.636-1.885 4.56-6.519 2.188-9.647l-1.08-1.426c-1.491-1.969-.9-4.801 1.26-5.988a93.03 93.03 0 013.211-1.69 4.067 4.067 0 015.61 2.197l.717 1.889c1.131 2.972 4.213 4.847 7.331 4.24 4.024-.785 6.216-4.965 4.822-8.633l-.628-1.65c-.877-2.305.488-4.856 2.894-5.388 1.179-.261 2.366-.5 3.554-.711a4.064 4.064 0 014.77 3.682l.156 1.992c.249 3.167 2.679 5.834 5.842 6.128 4.085.38 7.368-3.012 7.063-6.918l-.137-1.768c-.192-2.454 1.836-4.513 4.292-4.349 1.207.08 2.411.183 3.614.312a4.068 4.068 0 013.549 4.875l-.451 2.148c-.736 3.475 1.512 6.924 4.993 7.666 2.673 1.98 6.494.536 7.181-2.715l.843-4.002a4.046 4.046 0 015.353-2.96c1.134.417 2.264.858 3.386 1.322 2.219.923 3.162 3.56 2.026 5.674l-1.044 1.936c-1.857 3.45-.223 7.886 3.662 9.204 3.01 1.02 6.309-.43 7.814-3.221l.751-1.395c1.161-2.158 3.975-2.808 5.948-1.347l.039.029c.979.725 1.94 1.465 2.879 2.224 1.864 1.499 2.007 4.287.324 5.985zm-4.784 97.235c7.694-12.009 10.707-25.835 9.375-39.2l-20.718 3.066c.594 8.057-1.184 16.319-5.528 23.647l16.87 12.488.001-.001zm-4.982 6.73l-16.87-12.488c-5.741 6.296-13.123 10.406-21 12.191l3.115 20.711c13.172-2.629 25.516-9.548 34.755-20.414zm-43.07 21.494l-3.128-20.781a40.64 40.64 0 01-22.801-6.503l-12.435 16.799a61.51 61.51 0 0038.364 10.485zm-64.338-49.404c2.567 12.693 9.122 24.627 19.351 33.762l12.499-16.885a40.668 40.668 0 01-11.131-19.942l-20.72 3.065zm8.455-45.34c-7.28 11.36-10.368 24.343-9.553 37.025l20.789-3.076c-.148-7.356 1.679-14.795 5.634-21.46l-16.87-12.489zm23.932 12.506c-11.436 15.448-8.15 37.257 7.335 48.719 15.48 11.46 37.298 8.234 48.734-7.214 11.432-15.444 8.149-37.258-7.331-48.717-15.485-11.463-37.306-8.232-48.738 7.212zm-18.95-19.236l16.87 12.488c5.222-5.73 11.802-9.649 18.879-11.655l-3.126-20.783c-12.368 2.925-23.884 9.67-32.623 19.95zm40.894-21.327l3.117 20.712a40.633 40.633 0 0122.322 4.825l12.501-16.888c-11.723-7.114-25.051-9.898-37.94-8.649zm32.372 30.276a40.665 40.665 0 0112.879 19.908l20.787-3.075a61.492 61.492 0 00-21.23-33.631l-12.436 16.798zm202.255 100.09l-.398.403c-.631.638-.75 1.65-.225 2.38a1.837 1.837 0 002.793.231l.355-.358a1.148 1.148 0 011.728.113c.208.274.411.551.606.832.39.559.211 1.331-.385 1.658l-.502.277c-.785.435-1.184 1.371-.888 2.219a1.84 1.84 0 002.618 1.008l.44-.243a1.151 1.151 0 011.629.598c.12.321.235.644.344.969a1.143 1.143 0 01-.838 1.479l-.605.134a1.829 1.829 0 00-1.384 2.18c-.572.774.126 1.845 1.067 1.637l1.606-.357a1.15 1.15 0 011.395 1.03c.026.341.047.682.06 1.025a1.146 1.146 0 01-1.222 1.185l-.617-.043a1.83 1.83 0 00-1.944 1.701 1.84 1.84 0 001.706 1.947l.506.033a1.151 1.151 0 011.049 1.38c-.07.334-.147.667-.231 1a1.145 1.145 0 01-1.506.792l-.587-.215c-.944-.347-2 .141-2.345 1.083v.001a1.836 1.836 0 001.09 2.346l.471.174c.655.24.949 1.006.618 1.619-.161.299-.33.597-.505.892a1.147 1.147 0 01-1.669.335l-.5-.369c-.809-.6-1.96-.43-2.557.378a1.835 1.835 0 00.384 2.558l.403.298c.561.416.627 1.231.137 1.726-.24.244-.485.482-.734.715a1.15 1.15 0 01-1.697-.147l-.346-.457c-.543-.715-1.529-.981-2.327-.567a1.83 1.83 0 00-.619 2.729l.305.403a1.144 1.144 0 01-.356 1.694c-.3.165-.603.324-.909.478a1.151 1.151 0 01-1.587-.622l-.223-.584a1.838 1.838 0 00-2.36-1.064 1.828 1.828 0 00-1.06 2.355l.178.468a1.143 1.143 0 01-.819 1.524 26.61 26.61 0 01-1.004.202 1.15 1.15 0 01-1.349-1.041l-.048-.618a1.841 1.841 0 00-1.966-1.684 1.831 1.831 0 00-1.683 1.962l.039.5a1.144 1.144 0 01-1.214 1.231 26.957 26.957 0 01-1.023-.088 1.151 1.151 0 01-1.004-1.38l.128-.607a1.836 1.836 0 00-1.412-2.168 1.831 1.831 0 00-2.167 1.406l-.104.494a1.146 1.146 0 01-1.515.838c-.322-.118-.64-.243-.956-.375a1.147 1.147 0 01-.574-1.603l.295-.549a1.837 1.837 0 00-.745-2.478c-.887-.477-2-.145-2.476.739l-.238.442a1.143 1.143 0 01-1.682.38l-.011-.008a26.697 26.697 0 01-.815-.629 1.146 1.146 0 01-.093-1.695l.436-.44a1.834 1.834 0 00-.017-2.585 1.834 1.834 0 00-2.586.011l-.355.359c-.49.495-1.307.44-1.729-.115a24.143 24.143 0 01-.606-.832 1.145 1.145 0 01.384-1.658l.548-.303a1.829 1.829 0 00.711-2.482 1.838 1.838 0 00-2.487-.719l-.438.243a1.15 1.15 0 01-1.629-.598c-.121-.32-.236-.644-.344-.967a1.143 1.143 0 01.837-1.479l.606-.135a1.829 1.829 0 001.385-2.18c.574-.775-.125-1.845-1.065-1.638l-1.607.357a1.15 1.15 0 01-1.395-1.03 28.94 28.94 0 01-.062-1.023 1.147 1.147 0 011.222-1.186l.566.039c.896.06 1.739-.51 1.948-1.384a1.838 1.838 0 00-1.66-2.26l-.504-.033a1.15 1.15 0 01-1.049-1.379c.07-.334.147-.668.231-1a1.147 1.147 0 011.507-.793l.544.2c.834.307 1.79.005 2.24-.757a1.836 1.836 0 00-.942-2.658l-.471-.174a1.148 1.148 0 01-.618-1.62c.162-.298.33-.596.505-.892a1.147 1.147 0 011.669-.334l.499.37c.81.599 1.961.428 2.558-.379a1.833 1.833 0 00-.385-2.557l-.403-.298a1.148 1.148 0 01-.138-1.727c.241-.243.485-.482.735-.714a1.147 1.147 0 011.697.148l.344.454c.544.717 1.529.981 2.327.568a1.83 1.83 0 00.62-2.728l-.306-.404a1.146 1.146 0 01.356-1.695c.301-.165.604-.324.908-.478a1.15 1.15 0 011.587.622l.204.534c.32.841 1.19 1.372 2.074 1.201a1.828 1.828 0 001.363-2.442l-.177-.467a1.144 1.144 0 01.82-1.525 24.13 24.13 0 011.005-.201 1.15 1.15 0 011.35 1.04l.043.564c.071.896.758 1.65 1.653 1.733a1.83 1.83 0 001.999-1.958l-.039-.5a1.143 1.143 0 011.214-1.23c.343.023.683.052 1.023.088a1.15 1.15 0 011.004 1.379l-.128.607a1.838 1.838 0 001.413 2.169 1.29 1.29 0 002.032-.769l.239-1.133a1.144 1.144 0 011.515-.837c.32.118.639.243.957.374.628.261.894 1.007.574 1.605l-.295.548a1.836 1.836 0 001.036 2.605c.851.287 1.785-.122 2.21-.912l.214-.395a1.141 1.141 0 011.682-.381l.011.008c.277.205.549.414.815.629.525.427.565 1.217.089 1.697zm-1.353 27.51a17.323 17.323 0 002.652-11.09l-5.86.867a11.443 11.443 0 01-1.564 6.69l4.772 3.533zm-1.41 1.904l-4.772-3.533a11.447 11.447 0 01-5.942 3.449l.881 5.859a17.325 17.325 0 009.833-5.775zm-12.185 6.08l-.886-5.879a11.512 11.512 0 01-6.45-1.84l-3.518 4.752a17.392 17.392 0 0010.854 2.967zm-18.203-13.977a17.402 17.402 0 005.475 9.552l3.536-4.777a11.496 11.496 0 01-3.15-5.642l-5.861.867zm2.392-12.827a17.306 17.306 0 00-2.703 10.475l5.881-.871a11.422 11.422 0 011.594-6.072l-4.772-3.532zm10.856 6.561a4.78 4.78 0 001.007 6.686 4.78 4.78 0 006.688-.99 4.781 4.781 0 00-1.007-6.686 4.78 4.78 0 00-6.688.99zm-9.446-8.466l4.773 3.533a11.433 11.433 0 015.341-3.297l-.884-5.879a17.31 17.31 0 00-9.23 5.643zm11.569-6.033l.882 5.86a11.492 11.492 0 016.315 1.365l3.537-4.778a17.408 17.408 0 00-10.734-2.447zm9.16 8.566a11.502 11.502 0 013.643 5.632l5.882-.87a17.389 17.389 0 00-6.007-9.514l-3.518 4.752zM111.01 189.915c1.43 1.154 1.541 3.308.235 4.621l-1.088 1.098c-1.726 1.747-2.052 4.498-.63 6.49 1.837 2.556 5.461 2.746 7.587.598l.973-.986c1.33-1.342 3.553-1.214 4.698.295.556.744 1.109 1.51 1.647 2.263 1.044 1.518.545 3.623-1.069 4.521l-1.368.753c-2.139 1.194-3.235 3.756-2.432 6.055 1.031 2.979 4.462 4.186 7.091 2.719l1.203-.658c1.67-.93 3.755-.169 4.42 1.605.327.87.642 1.751.926 2.634.594 1.746-.477 3.625-2.286 4.034l-1.641.377c-2.676.595-4.377 3.276-3.786 5.954-1.557 2.103.326 5.012 2.879 4.437l4.371-.981c1.849-.418 3.648.905 3.788 2.786.072.93.118 1.859.152 2.796a3.148 3.148 0 01-3.337 3.24l-1.676-.112c-2.721-.169-5.111 1.926-5.296 4.648-.181 2.751 1.898 5.118 4.623 5.286l1.369.091a3.1 3.1 0 012.834 3.752c-.186.911-.41 1.808-.623 2.714-.464 1.802-2.38 2.815-4.113 2.19l-1.582-.589c-2.569-.935-5.446.394-6.396 2.974-.94 2.576.38 5.435 2.945 6.379l1.271.47a3.123 3.123 0 011.673 4.412 84.068 84.068 0 01-1.39 2.425c-.941 1.581-3.047 2.028-4.537.926l-1.34-.992c-2.205-1.632-5.325-1.164-6.964 1.05-1.637 2.211-1.178 5.338 1.027 6.97l1.083.802c1.514 1.121 1.69 3.344.369 4.695a64.807 64.807 0 01-2.014 1.95 3.108 3.108 0 01-4.615-.393l-.927-1.23c-1.464-1.941-4.159-2.654-6.311-1.527-2.812 1.462-3.533 5.037-1.721 7.447l.827 1.096c1.15 1.513.677 3.69-.975 4.613a67.69 67.69 0 01-2.483 1.306 3.102 3.102 0 01-4.305-1.67l-.602-1.585c-.96-2.555-3.848-3.853-6.397-2.88-2.564.978-3.873 3.877-2.9 6.422l.465 1.276c.68 1.779-.387 3.744-2.228 4.168-.91.195-1.819.386-2.741.553-1.809.335-3.516-.978-3.658-2.836l-.12-1.674a4.97 4.97 0 00-5.33-4.57c-2.722.225-4.795 2.63-4.583 5.357l.1 1.361a3.142 3.142 0 01-3.318 3.369 68.34 68.34 0 01-2.783-.233 3.113 3.113 0 01-2.715-3.741l.37-1.667c.556-2.68-1.16-5.319-3.833-5.888-2.681-.561-5.328 1.173-5.898 3.852l-.287 1.336a3.139 3.139 0 01-4.133 2.301 96.98 96.98 0 01-2.597-1.008 3.131 3.131 0 01-1.55-4.368l.814-1.492c1.303-2.41.404-5.45-1.992-6.747-2.414-1.289-5.453-.378-6.747 2.032l-.652 1.21c-.904 1.659-3.058 2.175-4.577 1.051l-.027-.02a62.954 62.954 0 01-2.21-1.703c-1.432-1.165-1.539-3.314-.238-4.627l1.186-1.188c1.926-1.963 1.908-5.127-.026-7.045-1.947-1.928-5.093-1.897-7.028.058l-.972.969a3.109 3.109 0 01-4.695-.287 58.383 58.383 0 01-1.633-2.261 3.124 3.124 0 011.05-4.517l1.495-.836c2.396-1.319 3.273-4.376 1.963-6.765-1.317-2.389-4.357-3.265-6.755-1.928l-1.195.656a3.1 3.1 0 01-4.424-1.609 79.903 79.903 0 01-.934-2.632c-.576-1.753.493-3.628 2.291-4.039l1.658-.371c2.663-.605 4.368-3.283 3.78-5.94 1.566-2.115-.318-5.031-2.89-4.458l-4.366.984a3.106 3.106 0 01-3.783-2.801c-.068-.92-.12-1.848-.161-2.773a3.153 3.153 0 013.34-3.247l1.537.1c2.43.158 4.73-1.408 5.303-3.79.742-3.066-1.476-5.946-4.481-6.128l-1.373-.091c-1.887-.114-3.245-1.899-2.835-3.753.188-.912.404-1.823.638-2.72a3.124 3.124 0 014.103-2.175l1.477.548c2.258.82 4.858-.01 6.097-2.099 1.627-2.75.31-6.175-2.543-7.216l-1.273-.474a3.094 3.094 0 01-1.664-4.399c.437-.821.895-1.641 1.372-2.436.946-1.597 3.06-2.028 4.54-.932l1.359 1.005c2.198 1.627 5.323 1.146 6.956-1.06 1.63-2.202 1.176-5.329-1.022-6.956l-1.097-.812c-1.518-1.124-1.692-3.352-.364-4.695a59.928 59.928 0 012.01-1.958c1.344-1.277 3.497-1.08 4.608.383l.938 1.247c1.466 1.943 4.146 2.646 6.312 1.522 2.797-1.471 3.522-5.044 1.713-7.441l-.819-1.088c-1.15-1.527-.688-3.713.965-4.631a75.92 75.92 0 012.49-1.304 3.106 3.106 0 014.307 1.672l.544 1.465c.861 2.281 3.224 3.718 5.629 3.242 3.092-.611 4.783-3.843 3.721-6.667l-.468-1.268a3.13 3.13 0 012.23-4.158 68.625 68.625 0 012.74-.555 3.105 3.105 0 013.658 2.822l.117 1.539c.182 2.436 2.037 4.483 4.48 4.706 3.13.28 5.664-2.342 5.44-5.352l-.1-1.359c-.145-1.895 1.423-3.485 3.306-3.365.935.058 1.862.135 2.793.23 1.83.192 3.101 1.946 2.708 3.743l-.356 1.658c-.566 2.678 1.151 5.33 3.825 5.897 2.052 1.519 4.997.4 5.527-2.105l.66-3.092c.404-1.857 2.348-2.943 4.13-2.288a60.54 60.54 0 012.6 1.004c1.704.703 2.423 2.727 1.55 4.366l-.813 1.492c-1.443 2.661-.197 6.075 2.784 7.081 2.32.781 4.86-.343 6.02-2.499l.584-1.078c.903-1.658 3.074-2.168 4.578-1.055l.032.024a60.707 60.707 0 012.207 1.7zm-54.967 29.25l11.316 19.417 5.727-21.69a27.98 27.98 0 00-17.043 2.273zm37.183 13.099l-19.428 11.25 21.73 5.792a27.956 27.956 0 00-2.302-17.042zm-21.627 7.462l19.41-11.255a27.936 27.936 0 00-6.338-6.538c-2.306-1.707-4.775-3.018-7.336-3.898l-5.736 21.691zm21.595-29.958a4.44 4.44 0 00-6.204.922 4.441 4.441 0 00.927 6.206c1.974 1.461 4.761 1.057 6.221-.915 1.458-1.968 1.03-4.752-.944-6.213zm12.79 33.056a4.403 4.403 0 003.731-5.04 4.432 4.432 0 00-5.045-3.734 4.432 4.432 0 00-3.732 5.04 4.445 4.445 0 005.046 3.734zm-4.387 26.392a4.428 4.428 0 00-.928-6.204 4.429 4.429 0 00-6.203.924 4.435 4.435 0 00.93 6.201 4.434 4.434 0 006.201-.921zm-11.073-8.351c1.706-2.304 2.997-4.759 3.875-7.326l-21.72-5.783 11.303 19.434a27.52 27.52 0 006.542-6.325zm-47.492-4.578l19.393-11.261-21.704-5.773a27.806 27.806 0 002.311 17.034zm5.32 20.273c1.455-1.967 1.022-4.747-.944-6.202-1.968-1.457-4.754-1.06-6.21.907-1.457 1.969-1.028 4.755.94 6.211 1.966 1.456 4.756 1.053 6.213-.916zm3.238-9.941a28.031 28.031 0 007.317 3.892l5.73-21.688-19.406 11.247a27.86 27.86 0 006.358 6.549zm28.614 2.762L68.897 249.93l-5.739 21.719a27.859 27.859 0 0017.046-2.268zm-6.593 16.282a4.443 4.443 0 003.73-5.039 4.444 4.444 0 00-5.049-3.737 4.418 4.418 0 00-3.73 5.039 4.452 4.452 0 005.049 3.737zm-44.264-41.239a4.434 4.434 0 00-3.737 5.048 4.453 4.453 0 005.056 3.743 4.446 4.446 0 003.737-5.048 4.474 4.474 0 00-5.056-3.743zm4.374-26.388c-1.456 1.967-1.032 4.739.944 6.202a4.429 4.429 0 006.198-.915 4.443 4.443 0 10-7.142-5.287zm12.003 9.667c-1.683 2.274-3 4.735-3.883 7.303l21.719 5.789-11.298-19.443c-2.467 1.697-4.66 3.815-6.538 6.351zm15.992-26.115a4.43 4.43 0 00-3.73 5.038c.374 2.433 2.634 4.105 5.05 3.738a4.403 4.403 0 003.73-5.038c-.352-2.422-2.611-4.095-5.05-3.738zm-80.476-12.842l4.902-3.416 3.313 2.826-2.608 5.376a28.173 28.173 0 012.275 2.866l5.897-1.35 2.005 3.862-4.507 4.025a28.653 28.653 0 011.112 3.87l5.89 1.056.347 4.334-5.652 1.951a28.314 28.314 0 01-.417 3.624l5.07 3.197-1.311 4.141-5.98-.322a28.743 28.743 0 01-1.946 3.511l3.43 4.91-2.822 3.302-5.385-2.619a28.411 28.411 0 01-2.864 2.267l1.364 5.897-3.859 1.994-4.04-4.515a28.844 28.844 0 01-3.87 1.104l-1.04 5.884-4.338.336-1.965-5.656a28.741 28.741 0 01-3.628-.424l-3.19 5.06-4.147-1.322.308-5.975a28.638 28.638 0 01-3.519-1.953l-4.903 3.414-3.312-2.825 2.608-5.375a28.514 28.514 0 01-2.275-2.868l-5.896 1.351-2.006-3.862 4.51-4.027a28.639 28.639 0 01-1.115-3.868l-5.89-1.055-.349-4.333 5.654-1.952c.06-1.219.2-2.429.415-3.624l-5.07-3.197 1.313-4.143 5.98.323a28.508 28.508 0 011.945-3.512l-3.43-4.909 2.821-3.303 5.386 2.618a28.55 28.55 0 012.86-2.266l-1.362-5.897 3.86-1.995 4.04 4.517a28.03 28.03 0 013.87-1.102l1.041-5.885 4.337-.337 1.966 5.655a28.53 28.53 0 013.626.426l3.189-5.059 4.146 1.321-.308 5.975a28.641 28.641 0 013.524 1.953zm-15.672 14.278c1.778-.032 3.999.759 5.054 1.381l7.346-9.924c-4.988-3.5-9.384-4.24-14.312-3.837l1.912 12.38zm-3.027 6.898c-1.347 1.82-.958 4.402.868 5.754a4.12 4.12 0 005.755-.852 4.12 4.12 0 00-6.622-4.902zm17.368-13.969l-7.375 9.963c.816.946 2.143 2.968 2.492 4.75l12.368-1.799c-.893-4.908-3.758-9.76-7.485-12.914zm7.31 15.268l-12.596 2.067c-.03 1.462-.03 2.414-1.318 4.493l10.256 7.592c3.338-5.107 4.078-9.479 3.657-14.152zm-4.341 15.161l-10.256-7.592c-1.571 1.869-2.647 2.171-4.319 2.644l1.882 12.93c4.905-1.055 9.714-4.124 12.693-7.982zm-14.424 8.145l-1.9-12.82c-1.685.104-3.794-.54-4.926-1.058l-7.798 10.535c4.108 2.639 9.632 3.956 14.624 3.343zm-16.597-4.772l7.767-10.493c-.908-.821-2.166-2.494-2.684-4.063l-12.96 1.87c1.036 4.876 3.074 8.938 7.877 12.686zm-8.147-14.385l12.757-1.823c-.21-1.991-.037-3.713 1.272-5.776l-10.233-7.575c-2.816 3.98-4.425 9.933-3.796 15.174zm4.562-16.121l10.233 7.576c1.641-1.817 3.173-2.626 4.856-3.023l-2.026-12.102c-4.88.846-9.139 2.876-13.063 7.549z"/></g></svg>