<svg width="1823" height="533" viewBox="0 0 1823 533" fill="none" xmlns="http://www.w3.org/2000/svg"><mask id="mask0_193_706" style="mask-type:alpha" maskUnits="userSpaceOnUse" x="0" y="0" width="1823" height="533"><path fill="#0E100E" d="M0 0h1823v533H0z"/></mask><g mask="url(#mask0_193_706)"><path fill="#0E100E" d="M0 .114h1823v673.792H0z"/><g filter="url(#filter0_f_193_706)"><ellipse cx="867.5" cy="399.381" rx="508.5" ry="382.248" fill="#A47B1B"/></g><g filter="url(#filter1_f_193_706)"><ellipse cx="1463.5" cy="674.293" rx="677.5" ry="509.406" fill="#C2650F"/></g><path opacity=".7" fill="url(#paint0_radial_193_706)" d="M0 .114h1823v580.189H0z"/><path fill="url(#paint1_linear_193_706)" d="M0 .114h1823v580.189H0z"/><g opacity=".05"><mask id="mask1_193_706" style="mask-type:alpha" maskUnits="userSpaceOnUse" x="1227" y="-143" width="842" height="833"><path transform="scale(-1 1) rotate(-31.038 -710.378 3815.057)" fill="#8D8D8D" d="M0 0h624.396v594.209H0z"/></mask><g mask="url(#mask1_193_706)" fill="#8D8D8D"><path d="M1429.85 177.215c-4.4 5.948-12.84 7.196-18.8 2.783-5.96-4.416-7.23-12.848-2.83-18.795 4.4-5.95 12.84-7.199 18.8-2.783 5.97 4.413 7.24 12.845 2.83 18.795zm-15.61-11.554c-1.95 2.634-1.38 6.373 1.26 8.329 2.64 1.957 6.38 1.4 8.33-1.234 1.95-2.637 1.39-6.372-1.25-8.328-2.65-1.955-6.39-1.404-8.34 1.233z"/><path d="M1441.3 135.02l7.1-4.945 4.79 4.091-3.77 7.78a39.165 39.165 0 013.29 4.148l8.54-1.952 2.9 5.59-6.52 5.824c.67 1.849 1.2 3.718 1.61 5.6l8.52 1.529.5 6.269-8.18 2.825a41.72 41.72 0 01-.6 5.245l7.34 4.628-1.9 5.995-8.66-.468a40.455 40.455 0 01-2.81 5.083l4.96 7.106-4.08 4.778-7.79-3.789a40.994 40.994 0 01-4.15 3.281l1.98 8.531-5.59 2.888-5.85-6.537c-1.84.67-3.71 1.202-5.6 1.598l-1.5 8.516-6.28.486-2.84-8.185a41.594 41.594 0 01-5.26-.614l-4.61 7.321-6-1.914.45-8.649a41.776 41.776 0 01-5.1-2.826l-7.09 4.942-4.8-4.09 3.77-7.776a42.3 42.3 0 01-3.29-4.151l-8.53 1.953-2.9-5.587 6.52-5.826a42.126 42.126 0 01-1.61-5.599l-8.52-1.529-.51-6.272 8.19-2.823c.08-1.764.29-3.515.6-5.247l-7.34-4.626 1.9-5.994 8.65.469a42 42 0 012.82-5.084l-4.96-7.105 4.08-4.778 7.79 3.788c1.3-1.17 2.68-2.267 4.14-3.28l-1.97-8.532 5.59-2.888 5.84 6.535a41.08 41.08 0 015.61-1.597l1.5-8.514 6.28-.488 2.84 8.183c1.77.093 3.52.298 5.25.617l4.62-7.323 6 1.912-.45 8.648c1.76.821 3.46 1.765 5.09 2.829zm-48.16 15.659c-10.44 14.108-7.44 34.031 6.7 44.499 14.14 10.47 34.07 7.522 44.52-6.585 10.44-14.107 7.44-34.032-6.7-44.501-14.15-10.468-34.08-7.519-44.52 6.587zm362.8 217.961c-13.1 17.703-38.21 21.419-55.95 8.28-17.75-13.139-21.53-38.236-8.43-55.94 13.11-17.706 38.22-21.423 55.97-8.284 17.75 13.139 21.52 38.237 8.41 55.944zm-46.45-34.39c-5.81 7.841-4.13 18.968 3.73 24.789 7.87 5.821 18.99 4.171 24.8-3.671 5.8-7.848 4.13-18.967-3.73-24.788-7.86-5.821-18.99-4.177-24.8 3.67z"/><path d="M1790.03 243.041l21.12-14.717 14.27 12.174-11.23 23.158c3.5 3.861 6.77 7.979 9.8 12.345l25.4-5.813 8.64 16.636-19.42 17.338a123.04 123.04 0 014.79 16.667l25.38 4.55 1.49 18.664-24.35 8.406c-.27 5.251-.87 10.464-1.8 15.612l21.84 13.773-5.65 17.838-25.76-1.389a123.562 123.562 0 01-8.38 15.126l14.77 21.149-12.15 14.221-23.2-11.273c-3.86 3.48-7.97 6.743-12.33 9.763l5.87 25.392-16.62 8.596-17.4-19.453a123.19 123.19 0 01-16.67 4.754l-4.48 25.344-18.69 1.449-8.46-24.356c-5.26-.28-10.48-.891-15.63-1.827l-13.73 21.792-17.87-5.691 1.33-25.743a122.907 122.907 0 01-15.16-8.409l-21.12 14.709-14.27-12.174 11.23-23.148a124.292 124.292 0 01-9.8-12.352l-25.4 5.816-8.64-16.637 19.43-17.344a122.746 122.746 0 01-4.8-16.663l-25.37-4.549-1.5-18.666 24.36-8.403c.26-5.252.86-10.464 1.78-15.613l-21.83-13.773 5.65-17.837 25.76 1.39a123.747 123.747 0 018.38-15.129l-14.77-21.147 12.15-14.224 23.2 11.275c3.86-3.481 7.97-6.745 12.33-9.765l-5.88-25.396 16.64-8.59 17.39 19.45c5.5-1.998 11.07-3.573 16.67-4.751l4.49-25.347 18.68-1.448 8.47 24.356c5.25.275 10.47.889 15.62 1.833l13.73-21.794 17.87 5.691-1.33 25.741c5.23 2.44 10.29 5.246 15.16 8.413zm-143.36 46.616c-31.08 41.988-22.15 101.288 19.94 132.448 42.1 31.16 101.42 22.382 132.5-19.606 31.08-41.989 22.16-101.293-19.94-132.453-42.09-31.16-101.42-22.378-132.5 19.611zm190.35-240.013l12.51-8.721 8.45 7.216-6.65 13.718a71.722 71.722 0 015.8 7.32l15.06-3.45 5.11 9.862-11.5 10.275a72.177 72.177 0 012.83 9.875l15.04 2.693.88 11.063-14.42 4.979a75.208 75.208 0 01-1.06 9.246l12.93 8.164-3.35 10.575-15.26-.829a72.366 72.366 0 01-4.96 8.96l8.75 12.534-7.2 8.43-13.75-6.682a72.275 72.275 0 01-7.3 5.78l3.48 15.047-9.85 5.094-10.32-11.527a71.705 71.705 0 01-9.87 2.818l-2.65 15.018-11.08.858-5.01-14.433c-3.12-.17-6.21-.528-9.26-1.082l-8.14 12.914-10.58-3.371.78-15.256a74.32 74.32 0 01-8.98-4.981l-12.51 8.715-8.46-7.216 6.66-13.717a69.852 69.852 0 01-5.81-7.322l-15.05 3.449-5.12-9.857 11.51-10.275a70.601 70.601 0 01-2.84-9.88l-15.04-2.691-.88-11.059 14.42-4.98a73.36 73.36 0 011.07-9.254l-12.94-8.163 3.35-10.563 15.27.821a71.287 71.287 0 014.96-8.963l-8.76-12.53 7.2-8.429 13.75 6.68a72.885 72.885 0 017.31-5.783l-3.49-15.05 9.86-5.09 10.31 11.523a72.059 72.059 0 019.88-2.813l2.65-15.022 11.07-.853 5.02 14.43c3.11.167 6.21.523 9.26 1.089l8.13-12.914 10.59 3.365-.79 15.258c3.1 1.446 6.1 3.109 8.99 4.987zm-61.26 45.151c-8.76 11.834-6.25 28.548 5.61 37.33 11.86 8.779 28.58 6.303 37.34-5.531 8.76-11.829 6.25-28.545-5.61-37.324-11.87-8.78-28.59-6.302-37.34 5.525zm116.38-168.386l8.35-5.826 5.65 4.817-4.45 9.162a49.104 49.104 0 013.89 4.884l10.04-2.3 3.42 6.586-7.68 6.858c.8 2.178 1.42 4.383 1.89 6.596l10.04 1.802.6 7.383-9.64 3.326c-.1 2.08-.34 4.142-.71 6.18l8.64 5.452-2.23 7.062-10.2-.554a48.017 48.017 0 01-3.31 5.985l5.84 8.369-4.81 5.628-9.17-4.462a48.63 48.63 0 01-4.89 3.863l2.33 10.046-6.58 3.401-6.89-7.697a48.076 48.076 0 01-6.59 1.88l-1.77 10.031-7.4.574-3.35-9.638a49.144 49.144 0 01-6.18-.726l-5.44 8.624-7.06-2.255.52-10.186a47.55 47.55 0 01-6-3.328l-8.36 5.82-5.65-4.815 4.45-9.16a47.62 47.62 0 01-3.87-4.888l-10.06 2.3-3.42-6.583 7.69-6.862c-.8-2.173-1.43-4.38-1.9-6.592l-10.04-1.801-.6-7.388 9.65-3.326c.1-2.077.34-4.137.7-6.182l-8.64-5.445 2.24-7.062 10.2.555a46.55 46.55 0 013.31-5.988l-5.84-8.37 4.8-5.631 9.18 4.467a50.267 50.267 0 014.88-3.867l-2.32-10.047 6.58-3.4 6.88 7.697a47.573 47.573 0 016.6-1.878l1.78-10.034 7.39-.566 3.35 9.636c2.08.107 4.14.348 6.18.725l5.43-8.63 7.07 2.254-.52 10.186c2.07.97 4.07 2.08 6 3.338zm-62.86 13.907c-14.8 19.99-10.55 48.223 9.49 63.06 20.04 14.835 48.29 10.658 63.09-9.332 14.8-19.992 10.54-48.228-9.5-63.063-20.04-14.837-48.28-10.66-63.08 9.335z"/><path d="M1830.92-58.47c-14.1 19.053-10.04 46.06 9.07 60.203 19.1 14.14 46.12 10.146 60.22-8.908 14.11-19.057 10.04-46.067-9.06-60.207-19.11-14.144-46.12-10.147-60.23 8.911zm65.31 48.344c-12.48 16.863-36.39 20.401-53.3 7.886-16.91-12.516-20.51-36.42-8.03-53.281 12.49-16.866 36.4-20.405 53.31-7.889 16.91 12.515 20.5 36.418 8.02 53.284zm-334.59 416.229l8.69-6.054 5.86 5.007-4.62 9.523a50.594 50.594 0 014.04 5.076l10.44-2.391 3.55 6.847-7.98 7.128a50.476 50.476 0 011.97 6.856l10.43 1.874.62 7.673-10.02 3.457c-.1 2.161-.35 4.306-.74 6.425l8.99 5.665-2.33 7.341-10.59-.577a51.453 51.453 0 01-3.45 6.222l6.07 8.7-4.99 5.849-9.54-4.636a50.66 50.66 0 01-5.08 4.015l2.42 10.442-6.84 3.536-7.16-8.001a49.83 49.83 0 01-6.85 1.954l-1.84 10.426-7.69.599-3.48-10.019a51.263 51.263 0 01-6.43-.755l-5.65 8.965-7.34-2.342.54-10.587a49.802 49.802 0 01-6.23-3.46l-8.69 6.046-5.87-5.005 4.62-9.523a50.659 50.659 0 01-4.03-5.079l-10.45 2.392-3.55-6.843 7.99-7.132a50.163 50.163 0 01-1.97-6.854l-10.44-1.872-.62-7.678 10.02-3.455c.11-2.159.36-4.3.74-6.426l-8.98-5.662 2.32-7.339 10.6.577c.99-2.152 2.15-4.23 3.44-6.225l-6.07-8.699 4.99-5.853 9.55 4.643a50.572 50.572 0 015.07-4.02l-2.42-10.442 6.84-3.533 7.16 7.999a49.702 49.702 0 016.86-1.954l1.84-10.43 7.68-.588 3.49 10.016c2.16.113 4.31.363 6.42.755l5.65-8.97 7.35 2.343-.55 10.588a50.216 50.216 0 016.24 3.465zm-65.34 14.454c-15.38 20.779-10.96 50.125 9.87 65.546 20.83 15.42 50.19 11.078 65.57-9.7 15.39-20.781 10.96-50.129-9.87-65.548-20.83-15.421-50.19-11.079-65.57 9.702z"/><path d="M1498.01 421.825c-14.66 19.806-10.43 47.876 9.42 62.576 19.86 14.697 47.94 10.546 62.6-9.259 14.67-19.808 10.44-47.882-9.42-62.58-19.86-14.699-47.94-10.544-62.6 9.263zm67.88 50.251c-12.97 17.526-37.82 21.205-55.4 8.197-17.57-13.01-21.31-37.855-8.34-55.381 12.98-17.531 37.83-21.21 55.41-8.2 17.57 13.01 21.31 37.854 8.33 55.384zm87.67-448.006l-1.85 1.866c-2.93 2.96-3.48 7.652-1.04 11.037 3.14 4.373 9.33 4.723 12.95 1.072l1.64-1.665c2.27-2.296 6.06-2.047 8.02.528.96 1.269 1.9 2.555 2.81 3.857 1.8 2.587.97 6.165-1.79 7.686l-2.32 1.284c-3.64 2.013-5.5 6.357-4.12 10.291 1.78 5.072 7.63 7.154 12.13 4.668l2.04-1.125c2.83-1.562 6.4-.257 7.55 2.774.57 1.484 1.1 2.983 1.6 4.483 1 2.99-.81 6.18-3.88 6.862l-2.81.623c-4.55 1.009-7.44 5.558-6.42 10.11-2.65 3.588.58 8.556 4.95 7.587l7.45-1.65c3.15-.703 6.21 1.553 6.46 4.773.13 1.581.22 3.164.28 4.746a5.308 5.308 0 01-5.66 5.496l-2.86-.194c-4.66-.313-8.71 3.238-9.02 7.887-.3 4.651 3.26 8.713 7.92 9.027l2.33.156c3.23.217 5.53 3.238 4.87 6.396-.33 1.549-.68 3.096-1.08 4.638-.77 3.052-4.02 4.765-6.98 3.673l-2.72-1.001c-4.38-1.61-9.28.653-10.87 5.024v.001c-1.6 4.375.67 9.271 5.05 10.881l2.19.805c3.03 1.114 4.4 4.663 2.86 7.505a94.206 94.206 0 01-2.34 4.138c-1.6 2.707-5.2 3.431-7.74 1.554l-2.31-1.714c-3.76-2.779-9.09-1.989-11.86 1.754-2.77 3.744-1.97 9.079 1.78 11.857l1.87 1.385c2.61 1.925 2.91 5.706.64 8.002a111.69 111.69 0 01-3.4 3.315c-2.3 2.151-5.97 1.83-7.87-.683l-1.61-2.11c-2.51-3.322-7.09-4.551-10.78-2.631-4.77 2.47-5.98 8.547-2.87 12.653l1.41 1.871c1.96 2.58 1.18 6.294-1.65 7.857-1.39.766-2.79 1.502-4.21 2.214-2.82 1.404-6.24.063-7.36-2.878l-1.03-2.709c-1.66-4.361-6.58-6.583-10.94-4.932-4.36 1.648-6.57 6.561-4.91 10.922l.82 2.165c1.15 3.025-.64 6.369-3.8 7.068-1.54.342-3.1.653-4.66.935-3.1.557-6.01-1.69-6.25-4.829l-.23-2.86c-.36-4.648-4.46-8.16-9.11-7.812-4.65.353-8.16 4.444-7.8 9.095l.18 2.316c.25 3.222-2.4 5.921-5.63 5.708-1.58-.105-3.16-.243-4.74-.41-3.14-.335-5.3-3.31-4.66-6.396l.6-2.817c.96-4.559-1.99-9.082-6.55-10.055-4.56-.971-9.09 1.964-10.05 6.521l-.48 2.289c-.67 3.158-3.98 5.002-7.02 3.884-1.49-.547-2.97-1.124-4.44-1.736-2.92-1.206-4.16-4.67-2.66-7.439l1.37-2.54c2.2-4.102.65-9.27-3.46-11.49-4.11-2.215-9.27-.674-11.48 3.424l-1.11 2.045c-1.52 2.828-5.21 3.683-7.8 1.767a130.049 130.049 0 01-3.83-2.957c-2.44-1.97-2.63-5.629-.43-7.858l2.02-2.036c3.28-3.311 3.24-8.704-.08-11.985-3.32-3.282-8.71-3.259-11.99.05l-1.65 1.662c-2.27 2.295-6.06 2.046-8.01-.527-.97-1.268-1.91-2.555-2.81-3.852a5.306 5.306 0 011.78-7.69l2.54-1.4c4.08-2.251 5.56-7.431 3.3-11.512-2.26-4.083-7.45-5.581-11.53-3.329l-2.04 1.125c-2.83 1.561-6.4.255-7.55-2.772-.56-1.486-1.1-2.981-1.6-4.484-.99-2.986.81-6.179 3.89-6.86l2.81-.623c4.54-1.011 7.43-5.561 6.41-10.111 2.66-3.587-.58-8.557-4.94-7.59l-7.45 1.651c-3.15.701-6.22-1.552-6.47-4.773-.12-1.577-.21-3.161-.28-4.745-.12-3.146 2.52-5.705 5.67-5.495l2.62.176c4.16.28 8.07-2.365 9.03-6.417 1.25-5.225-2.56-10.133-7.69-10.476l-2.34-.159c-3.22-.214-5.53-3.235-4.86-6.397.32-1.548.68-3.094 1.07-4.636.77-3.051 4.03-4.766 6.99-3.674l2.52.928c3.87 1.42 8.3.022 10.39-3.515 2.76-4.679.5-10.527-4.37-12.318l-2.19-.807c-3.04-1.115-4.4-4.665-2.87-7.507.76-1.388 1.54-2.767 2.35-4.134 1.6-2.707 5.2-3.43 7.74-1.553l2.31 1.712c3.75 2.778 9.09 1.985 11.86-1.756 2.77-3.744 1.97-9.077-1.78-11.855l-1.87-1.385c-2.6-1.924-2.91-5.707-.64-8.006 1.11-1.13 2.25-2.235 3.4-3.31 2.3-2.154 5.97-1.834 7.88.682l1.59 2.108c2.53 3.322 7.09 4.552 10.79 2.634 4.77-2.473 5.98-8.552 2.87-12.655l-1.41-1.87c-1.96-2.583-1.18-6.299 1.65-7.856 1.39-.768 2.79-1.505 4.21-2.216 2.82-1.404 6.24-.063 7.36 2.881l.94 2.478c1.48 3.9 5.53 6.359 9.62 5.562 5.28-1.029 8.15-6.513 6.32-11.324l-.82-2.165c-1.15-3.024.64-6.37 3.8-7.068 1.54-.343 3.1-.655 4.66-.933a5.322 5.322 0 016.25 4.83l.21 2.614c.33 4.154 3.51 7.653 7.66 8.039 5.36.499 9.67-3.952 9.27-9.077l-.18-2.318c-.25-3.22 2.41-5.921 5.63-5.705 1.58.104 3.16.24 4.74.408a5.344 5.344 0 014.66 6.397l-.6 2.816c-.96 4.56 1.99 9.084 6.55 10.058 3.51 2.596 8.52.702 9.42-3.562l1.11-5.25c.67-3.16 3.99-5 7.02-3.884 1.49.548 2.97 1.126 4.44 1.735 2.92 1.21 4.15 4.67 2.66 7.443l-1.37 2.54c-2.43 4.526-.29 10.345 4.81 12.074 3.95 1.338 8.27-.563 10.25-4.226l.98-1.83c1.53-2.83 5.22-3.682 7.81-1.767.01.012.03.024.05.039 1.28.95 2.54 1.922 3.77 2.917 2.45 1.967 2.64 5.624.43 7.851zm-6.28 127.555c10.1-15.754 14.05-33.891 12.3-51.425l-27.18 4.024c.78 10.569-1.55 21.407-7.25 31.02l22.13 16.382v-.001zm-6.53 8.829l-22.13-16.383c-7.53 8.259-17.22 13.652-27.55 15.993l4.09 27.169c17.27-3.448 33.47-12.526 45.59-26.779zm-56.5 28.196l-4.11-27.261a53.322 53.322 0 01-29.91-8.531l-16.31 22.037c15.33 10.376 33.05 14.822 50.33 13.755zm-84.4-64.81c3.36 16.651 11.96 32.307 25.38 44.29l16.4-22.15a53.329 53.329 0 01-14.6-26.16l-27.18 4.02zm11.09-59.478c-9.55 14.902-13.6 31.934-12.53 48.571l27.27-4.036c-.2-9.649 2.2-19.408 7.39-28.152l-22.13-16.383zm31.39 16.405c-15 20.266-10.69 48.875 9.62 63.912 20.31 15.033 48.93 10.802 63.94-9.464 14.99-20.26 10.69-48.876-9.62-63.908-20.31-15.037-48.94-10.8-63.94 9.46zm-24.86-25.233l22.13 16.382c6.85-7.518 15.49-12.658 24.77-15.29l-4.1-27.264c-16.23 3.838-31.33 12.687-42.8 26.172zm53.65-27.977l4.09 27.17c9.93-.707 20.1 1.338 29.28 6.329l16.4-22.154c-15.38-9.333-32.86-12.985-49.77-11.345zm42.47 39.717a53.321 53.321 0 0116.89 26.115l27.27-4.034a80.662 80.662 0 00-27.85-44.118l-16.31 22.037zm265.32 131.3l-.52.528c-.83.838-.98 2.165-.3 3.123a2.416 2.416 0 003.67.303l.46-.47a1.51 1.51 0 012.27.149c.27.359.54.723.8 1.091.51.733.27 1.746-.51 2.175l-.66.364c-1.03.569-1.55 1.798-1.16 2.911a2.407 2.407 0 003.43 1.321l.58-.318c.8-.443 1.81-.072 2.14.784l.45 1.271c.28.845-.23 1.748-1.1 1.94l-.8.176a2.4 2.4 0 00-1.81 2.861c-.75 1.014.16 2.42 1.4 2.147l2.1-.468c.9-.198 1.76.44 1.83 1.35.04.447.07.895.08 1.345.04.891-.71 1.615-1.6 1.555l-.81-.056a2.406 2.406 0 00-2.55 2.231 2.415 2.415 0 002.24 2.554l.66.044c.91.061 1.57.916 1.38 1.809-.09.439-.19.876-.3 1.313a1.506 1.506 0 01-1.98 1.038l-.77-.281a2.408 2.408 0 00-3.08 1.42v.001a2.411 2.411 0 001.43 3.078l.62.228a1.5 1.5 0 01.81 2.123c-.21.393-.43.783-.66 1.171-.45.765-1.47.971-2.19.44l-.66-.485a2.398 2.398 0 00-3.35.496 2.41 2.41 0 00.5 3.355l.53.392c.74.545.83 1.615.18 2.264-.31.32-.63.633-.96.938-.65.607-1.69.515-2.23-.194l-.45-.598c-.71-.939-2.01-1.287-3.05-.744a2.402 2.402 0 00-.82 3.58l.4.528c.56.73.34 1.782-.46 2.223-.4.216-.79.425-1.2.626a1.51 1.51 0 01-2.08-.815l-.29-.767a2.406 2.406 0 00-3.09-1.395 2.406 2.406 0 00-1.4 3.09l.24.614a1.5 1.5 0 01-1.08 1.998c-.43.097-.87.186-1.31.265a1.503 1.503 0 01-1.77-1.366l-.07-.809a2.411 2.411 0 00-2.58-2.21 2.394 2.394 0 00-2.2 2.573l.05.656a1.5 1.5 0 01-1.59 1.616c-.45-.031-.9-.069-1.35-.116a1.506 1.506 0 01-1.31-1.81l.17-.796a2.419 2.419 0 00-1.86-2.845 2.398 2.398 0 00-2.84 1.845l-.14.647a1.5 1.5 0 01-1.98 1.1 31.31 31.31 0 01-1.26-.491 1.51 1.51 0 01-.75-2.104l.39-.719a2.417 2.417 0 00-.98-3.251c-1.16-.626-2.63-.191-3.25.969l-.31.579c-.43.8-1.48 1.042-2.21.5 0-.003-.01-.007-.01-.011-.37-.269-.72-.545-1.07-.826a1.497 1.497 0 01-.12-2.223l.57-.577a2.42 2.42 0 00-.02-3.392 2.417 2.417 0 00-3.4.015l-.46.471c-.64.65-1.72.578-2.27-.15-.27-.359-.54-.723-.8-1.092a1.505 1.505 0 01.51-2.176l.72-.396a2.401 2.401 0 00.93-3.257 2.409 2.409 0 00-3.26-.942l-.58.318a1.5 1.5 0 01-2.13-.785c-.16-.42-.31-.844-.46-1.268a1.502 1.502 0 011.1-1.941l.8-.176a2.4 2.4 0 001.81-2.86c.76-1.016-.16-2.421-1.39-2.149l-2.11.468c-.89.2-1.76-.439-1.83-1.351-.04-.446-.06-.894-.08-1.342a1.502 1.502 0 011.6-1.555l.74.05c1.18.079 2.28-.668 2.56-1.815a2.414 2.414 0 00-2.18-2.964l-.66-.044a1.516 1.516 0 01-1.38-1.809c.1-.439.2-.876.31-1.312a1.501 1.501 0 011.97-1.04l.72.262c1.09.403 2.35.007 2.94-.993a2.41 2.41 0 00-1.24-3.486l-.62-.229a1.508 1.508 0 01-.81-2.125c.21-.391.43-.782.66-1.169a1.506 1.506 0 012.19-.439l.66.485c1.06.786 2.57.562 3.35-.497a2.4 2.4 0 00-.5-3.354l-.53-.392a1.502 1.502 0 01-.18-2.264c.31-.319.63-.633.96-.937a1.51 1.51 0 012.23.193l.45.597c.71.939 2.01 1.286 3.05.745 1.35-.7 1.7-2.42.82-3.58l-.4-.529c-.56-.73-.34-1.782.46-2.224.4-.216.79-.425 1.19-.626.8-.398 1.77-.018 2.09.815l.26.701c.42 1.103 1.56 1.8 2.72 1.574a2.392 2.392 0 001.79-3.202l-.23-.614a1.496 1.496 0 011.07-1.999c.44-.098.88-.186 1.32-.265.88-.158 1.7.478 1.77 1.365l.06.74c.09 1.175.99 2.165 2.17 2.273a2.398 2.398 0 002.62-2.568l-.05-.656a1.498 1.498 0 011.59-1.614c.45.03.9.068 1.34.116.89.095 1.51.938 1.32 1.808l-.17.797c-.27 1.29.57 2.57 1.86 2.845.99.735 2.41.2 2.66-1.009l.32-1.486a1.495 1.495 0 011.98-1.098c.42.155.84.319 1.26.49.82.344 1.17 1.322.75 2.107l-.38.719a2.406 2.406 0 001.35 3.416c1.12.377 2.35-.16 2.9-1.196l.28-.518a1.502 1.502 0 012.21-.5c0 .003.01.007.02.011.36.269.72.543 1.06.825.69.56.75 1.596.12 2.226zm-1.77 36.088a22.788 22.788 0 003.48-14.548l-7.69 1.138c.22 2.99-.44 6.055-2.05 8.776l6.26 4.634zm-1.85 2.498l-6.26-4.635a15.04 15.04 0 01-7.8 4.525l1.16 7.686a22.725 22.725 0 0012.9-7.576zm-15.99 7.976l-1.16-7.713c-2.91.051-5.86-.735-8.46-2.413l-4.62 6.234a22.843 22.843 0 0014.24 3.892zm-23.88-18.335a22.86 22.86 0 007.18 12.53l4.64-6.266a15.079 15.079 0 01-4.13-7.401l-7.69 1.137zm3.14-16.828a22.662 22.662 0 00-3.54 13.742l7.71-1.143c-.05-2.73.62-5.491 2.09-7.965l-6.26-4.634zm14.24 8.608c-2.06 2.782-1.47 6.707 1.32 8.771 2.79 2.063 6.72 1.482 8.78-1.299 2.05-2.78 1.46-6.708-1.32-8.771-2.79-2.064-6.72-1.481-8.78 1.299zm-12.39-11.106l6.26 4.635a14.996 14.996 0 017.01-4.326l-1.16-7.712a22.702 22.702 0 00-12.11 7.403zm15.18-7.914l1.15 7.687c2.81-.2 5.69.379 8.29 1.791l4.64-6.268a22.842 22.842 0 00-14.08-3.21zm12.01 11.237c2.37 2 3.98 4.588 4.78 7.388l7.72-1.141a22.86 22.86 0 00-7.88-12.482l-4.62 6.235zm-327.89 18.78c1.87 1.513 2.02 4.339.31 6.061l-1.43 1.44c-2.27 2.293-2.69 5.901-.83 8.514 2.41 3.353 7.16 3.603 9.95.785l1.28-1.294c1.75-1.76 4.66-1.592 6.16.387.73.977 1.46 1.981 2.16 2.969 1.37 1.992.72 4.752-1.4 5.931l-1.79.988c-2.81 1.567-4.25 4.926-3.19 7.943 1.35 3.907 5.85 5.491 9.3 3.567l1.58-.864a4.067 4.067 0 015.8 2.105c.42 1.143.84 2.298 1.21 3.456.78 2.291-.63 4.756-3 5.292l-2.15.495c-3.51.78-5.74 4.297-4.97 7.81-2.04 2.758.43 6.575 3.78 5.821l5.73-1.286c2.43-.549 4.79 1.186 4.97 3.654.1 1.22.16 2.439.2 3.667.08 2.428-1.96 4.397-4.38 4.251l-2.2-.147c-3.56-.222-6.7 2.527-6.94 6.097-.24 3.609 2.49 6.714 6.06 6.934l1.8.121a4.073 4.073 0 013.72 4.921c-.25 1.195-.54 2.371-.82 3.56-.61 2.364-3.12 3.693-5.4 2.873l-2.07-.773c-3.37-1.226-7.15.517-8.39 3.902-1.24 3.379.5 7.13 3.86 8.368l1.67.616c2.34.857 3.37 3.585 2.19 5.788a90.276 90.276 0 01-1.82 3.181c-1.24 2.074-4 2.661-5.95 1.215l-1.76-1.301c-2.89-2.141-6.99-1.527-9.14 1.377-2.14 2.901-1.54 7.003 1.35 9.144l1.42 1.052c1.99 1.47 2.22 4.387.49 6.159a84.99 84.99 0 01-2.65 2.558c-1.75 1.665-4.58 1.429-6.05-.515l-1.22-1.614c-1.92-2.547-5.45-3.482-8.28-2.003-3.68 1.918-4.63 6.607-2.25 9.769l1.08 1.437c1.51 1.985.89 4.842-1.28 6.052a92.051 92.051 0 01-3.25 1.714 4.07 4.07 0 01-5.65-2.191l-.79-2.079c-1.26-3.352-5.05-5.055-8.39-3.779-3.37 1.283-5.08 5.086-3.81 8.424l.61 1.675c.89 2.334-.5 4.911-2.92 5.467-1.19.256-2.39.507-3.6.726-2.37.439-4.61-1.283-4.79-3.721l-.16-2.195c-.28-3.58-3.41-6.273-6.99-5.996-3.57.295-6.29 3.451-6.02 7.028l.14 1.785a4.129 4.129 0 01-4.36 4.42 91.59 91.59 0 01-3.65-.305 4.087 4.087 0 01-3.56-4.909l.48-2.186c.73-3.515-1.52-6.978-5.02-7.724-3.52-.736-6.99 1.538-7.74 5.053l-.38 1.753c-.53 2.446-3.07 3.864-5.42 3.018-1.14-.425-2.27-.859-3.41-1.323a4.104 4.104 0 01-2.03-5.729l1.07-1.958c1.71-3.161.53-7.148-2.61-8.851-3.17-1.69-7.16-.495-8.85 2.666l-.86 1.587c-1.19 2.177-4.01 2.854-6 1.379a.302.302 0 00-.04-.026 83.159 83.159 0 01-2.9-2.234c-1.88-1.528-2.02-4.347-.31-6.07l1.55-1.558c2.53-2.575 2.51-6.726-.03-9.242-2.55-2.529-6.68-2.489-9.22.076l-1.27 1.271c-1.74 1.786-4.67 1.593-6.16-.376a82.875 82.875 0 01-2.15-2.966c-1.39-1.991-.74-4.756 1.38-5.926l1.96-1.096c3.15-1.731 4.3-5.741 2.58-8.875-1.73-3.134-5.72-4.283-8.86-2.53l-1.57.862c-2.19 1.221-4.93.221-5.8-2.111a86.473 86.473 0 01-1.23-3.453c-.75-2.3.65-4.76 3.01-5.299l2.17-.486c3.49-.794 5.73-4.308 4.96-7.793 2.05-2.774-.42-6.6-3.79-5.847l-5.73 1.29c-2.43.551-4.77-1.186-4.96-3.674-.09-1.207-.16-2.424-.21-3.638-.08-2.436 1.96-4.412 4.38-4.259l2.02.131c3.18.207 6.2-1.847 6.95-4.972.98-4.022-1.93-7.8-5.88-8.038l-1.8-.12c-2.47-.15-4.25-2.491-3.72-4.924.25-1.195.53-2.391.84-3.568.59-2.369 3.1-3.683 5.38-2.853l1.94.718c2.96 1.076 6.37-.012 8-2.753 2.13-3.607.41-8.1-3.34-9.465l-1.67-.623a4.059 4.059 0 01-2.18-5.77 65.044 65.044 0 011.8-3.196c1.24-2.095 4.01-2.661 5.96-1.222l1.78 1.318c2.88 2.135 6.98 1.503 9.12-1.39 2.14-2.889 1.55-6.992-1.34-9.126l-1.44-1.065c-1.99-1.474-2.22-4.397-.47-6.159.86-.885 1.74-1.736 2.63-2.568 1.77-1.676 4.59-1.417 6.05.502l1.23 1.636c1.92 2.549 5.44 3.471 8.28 1.996 3.67-1.929 4.62-6.616 2.25-9.76l-1.08-1.428c-1.51-2.004-.9-4.872 1.27-6.075 1.08-.596 2.16-1.154 3.26-1.711 2.17-1.09 4.8-.068 5.65 2.193l.72 1.923c1.13 2.991 4.23 4.876 7.38 4.252 4.06-.802 6.28-5.041 4.88-8.746l-.61-1.663c-.88-2.331.5-4.907 2.93-5.455 1.18-.266 2.38-.507 3.59-.728a4.078 4.078 0 014.8 3.702l.15 2.02c.24 3.195 2.67 5.881 5.88 6.172 4.1.368 7.43-3.071 7.13-7.02l-.13-1.784c-.19-2.485 1.87-4.57 4.34-4.414 1.23.077 2.44.177 3.66.302 2.4.252 4.07 2.553 3.56 4.911l-.47 2.175c-.74 3.513 1.51 6.991 5.02 7.736 2.69 1.993 6.55.525 7.25-2.762l.86-4.056c.53-2.436 3.08-3.861 5.42-3.002 1.15.413 2.27.849 3.41 1.318 2.24.922 3.18 3.576 2.03 5.726l-1.06 1.957c-1.89 3.492-.26 7.97 3.65 9.291 3.04 1.024 6.38-.45 7.9-3.279l.76-1.414c1.19-2.175 4.04-2.845 6.01-1.384.01.01.03.02.04.031.99.726 1.95 1.461 2.9 2.231zm-72.11 38.37l14.84 25.472 7.52-28.454a36.717 36.717 0 00-22.36 2.982zm48.78 17.184l-25.49 14.757 28.51 7.598c1.37-7.577.3-15.423-3.02-22.355zm-28.37 9.789l25.46-14.765a36.683 36.683 0 00-8.32-8.577c-3.02-2.239-6.26-3.958-9.62-5.113l-7.52 28.455zm28.33-39.301c-2.58-1.905-6.23-1.372-8.14 1.211-1.92 2.586-1.36 6.236 1.21 8.141 2.59 1.916 6.25 1.387 8.16-1.2 1.92-2.583 1.35-6.235-1.23-8.152zm16.77 43.365a5.774 5.774 0 004.9-6.612c-.48-3.187-3.44-5.381-6.62-4.899-3.17.465-5.37 3.437-4.9 6.612a5.839 5.839 0 006.62 4.899zm-5.75 34.621a5.805 5.805 0 00-1.22-8.138 5.81 5.81 0 00-8.14 1.213 5.821 5.821 0 009.36 6.925zm-14.53-10.954c2.24-3.023 3.93-6.243 5.09-9.611l-28.5-7.586 14.83 25.493a35.89 35.89 0 008.58-8.296zm-62.3-6.006l25.44-14.772-28.47-7.573c-1.38 7.558-.31 15.399 3.03 22.345zm6.98 26.595c1.91-2.58 1.34-6.228-1.24-8.137-2.58-1.911-6.23-1.389-8.14 1.191-1.92 2.583-1.35 6.237 1.23 8.148 2.58 1.909 6.24 1.381 8.15-1.202zm4.25-13.041c3 2.224 6.26 3.923 9.6 5.105l7.51-28.45-25.45 14.753a36.51 36.51 0 008.34 8.592zm37.53 3.622l-14.83-25.515-7.53 28.491a36.528 36.528 0 0022.36-2.976zm-8.64 21.361c3.17-.487 5.36-3.437 4.89-6.611-.49-3.188-3.44-5.378-6.62-4.903a5.803 5.803 0 00-4.9 6.611c.48 3.175 3.44 5.365 6.63 4.903zm-58.07-54.099a5.81 5.81 0 00-4.9 6.622 5.835 5.835 0 006.63 4.909 5.833 5.833 0 004.9-6.622c-.5-3.18-3.45-5.367-6.63-4.909zm5.74-34.617c-1.91 2.58-1.36 6.217 1.23 8.135 2.59 1.912 6.23 1.381 8.14-1.199 1.91-2.587 1.37-6.239-1.21-8.151-2.6-1.919-6.25-1.371-8.16 1.215zm15.74 12.682c-2.2 2.982-3.93 6.212-5.09 9.58l28.49 7.594-14.82-25.505c-3.24 2.226-6.11 5.004-8.58 8.331zm20.98-34.258c-3.17.469-5.37 3.437-4.89 6.608.49 3.192 3.45 5.386 6.62 4.904a5.783 5.783 0 004.9-6.608c-.46-3.179-3.43-5.373-6.63-4.904zm-105.57-16.871l6.43-4.481 4.35 3.707-3.43 7.052a36.112 36.112 0 012.99 3.76l7.74-1.77 2.63 5.066-5.92 5.28c.62 1.676 1.1 3.37 1.46 5.076l7.73 1.386.45 5.685-7.41 2.56a36.041 36.041 0 01-.55 4.754l6.65 4.194-1.72 5.432-7.84-.423a37.348 37.348 0 01-2.55 4.606l4.5 6.442-3.71 4.331-7.06-3.435a37.801 37.801 0 01-3.76 2.974l1.79 7.734-5.06 2.617-5.3-5.923a37.325 37.325 0 01-5.08 1.447l-1.36 7.719-5.69.442-2.58-7.419a38.1 38.1 0 01-4.76-.557l-4.18 6.637-5.44-1.733.4-7.839a37.502 37.502 0 01-4.62-2.562l-6.43 4.479-4.34-3.707 3.42-7.051a37.84 37.84 0 01-2.99-3.761l-7.73 1.771-2.63-5.065 5.91-5.283a37.363 37.363 0 01-1.46-5.075l-7.73-1.384-.45-5.684 7.41-2.56c.08-1.599.27-3.187.55-4.754l-6.65-4.194 1.72-5.435 7.85.424a36.157 36.157 0 012.55-4.607l-4.5-6.44 3.7-4.333 7.06 3.434a37.647 37.647 0 013.76-2.973l-1.79-7.735 5.06-2.617 5.3 5.925a36.755 36.755 0 015.08-1.446l1.36-7.72 5.69-.441 2.58 7.418c1.6.083 3.19.272 4.76.559l4.18-6.637 5.44 1.733-.4 7.839a37.76 37.76 0 014.62 2.561zm-20.56 18.731c2.33-.042 5.25.995 6.63 1.81l9.64-13.018c-6.55-4.591-12.31-5.561-18.78-5.033l2.51 16.241zm-3.97 9.048c-1.77 2.387-1.26 5.775 1.14 7.548a5.405 5.405 0 007.55-1.117c1.77-2.39 1.26-5.776-1.14-7.548-2.39-1.773-5.78-1.273-7.55 1.117zm22.78-18.325l-9.67 13.07c1.07 1.241 2.81 3.894 3.27 6.231l16.22-2.36c-1.17-6.438-4.93-12.803-9.82-16.941zm9.59 20.029l-16.52 2.712c-.04 1.918-.04 3.167-1.73 5.894l13.45 9.959c4.38-6.7 5.35-12.435 4.8-18.565zm-5.69 19.889l-13.46-9.959c-2.06 2.451-3.47 2.848-5.66 3.469l2.47 16.961c6.43-1.384 12.74-5.41 16.65-10.471zm-18.92 10.685l-2.5-16.818c-2.21.137-4.97-.708-6.46-1.388l-10.23 13.82c5.39 3.463 12.64 5.19 19.19 4.386zm-21.78-6.261l10.19-13.764c-1.19-1.077-2.84-3.272-3.52-5.33l-17 2.453c1.36 6.396 4.03 11.724 10.33 16.641zm-10.68-18.869l16.73-2.392c-.27-2.613-.05-4.871 1.67-7.577l-13.42-9.937c-3.7 5.22-5.81 13.03-4.98 19.906zm5.98-21.148l13.43 9.937c2.15-2.382 4.16-3.444 6.37-3.965l-2.66-15.876c-6.4 1.11-11.99 3.774-17.14 9.904z"/></g></g></g><defs><filter id="filter0_f_193_706" x="-250.721" y="-592.588" width="2236.44" height="1983.94" filterUnits="userSpaceOnUse" color-interpolation-filters="sRGB"><feFlood flood-opacity="0" result="BackgroundImageFix"/><feBlend in="SourceGraphic" in2="BackgroundImageFix" result="shape"/><feGaussianBlur stdDeviation="304.86" result="effect1_foregroundBlur_193_706"/></filter><filter id="filter1_f_193_706" x="277" y="-344.113" width="2373" height="2036.81" filterUnits="userSpaceOnUse" color-interpolation-filters="sRGB"><feFlood flood-opacity="0" result="BackgroundImageFix"/><feBlend in="SourceGraphic" in2="BackgroundImageFix" result="shape"/><feGaussianBlur stdDeviation="254.5" result="effect1_foregroundBlur_193_706"/></filter><radialGradient id="paint0_radial_193_706" cx="0" cy="0" r="1" gradientUnits="userSpaceOnUse" gradientTransform="rotate(175.61 628.02 239.114) scale(611.795 617.6)"><stop stop-color="#47463F"/><stop offset="1" stop-color="#22201E"/></radialGradient><linearGradient id="paint1_linear_193_706" x1="911.5" y1=".114" x2="911.5" y2="580.302" gradientUnits="userSpaceOnUse"><stop stop-opacity="0"/><stop offset=".89"/></linearGradient></defs></svg>