<svg width="745" height="279" viewBox="0 0 745 279" fill="none" xmlns="http://www.w3.org/2000/svg"><mask id="mask0_195_816" style="mask-type:alpha" maskUnits="userSpaceOnUse" x="0" y="0" width="745" height="279"><path fill="#D9D9D9" d="M0 0h745v279H0z"/></mask><g mask="url(#mask0_195_816)" fill="#fff"><path d="M588.777 105.15c-16.587 22.407-48.361 27.109-70.825 10.48-22.464-16.63-27.247-48.394-10.661-70.8 16.589-22.411 48.368-27.115 70.832-10.486 22.463 16.63 27.243 48.395 10.654 70.806zM529.98 61.624c-7.347 9.925-5.227 24.007 4.724 31.374 9.954 7.368 24.034 5.28 31.381-4.646 7.352-9.932 5.236-24.005-4.717-31.373-9.952-7.367-24.036-5.287-31.388 4.645z"/><path d="M631.922-53.816l26.729-18.626 18.058 15.408-14.211 29.31A154.501 154.501 0 01674.897-12.1l32.158-7.358L717.98 1.599l-24.576 21.944a156.897 156.897 0 016.065 21.094l32.116 5.76 1.886 23.622-30.816 10.638a155.41 155.41 0 01-2.272 19.76l27.641 17.432-7.151 22.577-32.608-1.758a155.282 155.282 0 01-10.609 19.144l18.698 26.768-15.382 17.999-29.354-14.269a155.29 155.29 0 01-15.615 12.357l7.438 32.138-21.043 10.88-22.023-24.621a155.67 155.67 0 01-21.095 6.017l-5.675 32.077-23.647 1.834-10.71-30.827a157.528 157.528 0 01-19.783-2.312l-17.382 27.581-22.61-7.203 1.679-32.582a155.873 155.873 0 01-19.182-10.643l-26.74 18.617-18.051-15.408 14.209-29.297a156.656 156.656 0 01-12.404-15.634l-32.15 7.361-10.93-21.057 24.583-21.951a155.751 155.751 0 01-6.068-21.09l-32.117-5.757-1.889-23.625 30.824-10.635a156.161 156.161 0 012.263-19.761l-27.639-17.432 7.157-22.576 32.607 1.76a155.763 155.763 0 0110.604-19.148L397.53-35.393l15.382-18.002 29.356 14.27a156.381 156.381 0 0115.605-12.359l-7.434-32.142L471.492-94.5l22.014 24.617a155.224 155.224 0 0121.104-6.013l5.675-32.08 23.641-1.833 10.718 30.826c6.65.348 13.259 1.125 19.775 2.32l17.384-27.584 22.607 7.203-1.682 32.58a156.437 156.437 0 0119.194 10.647zm-181.446 59c-39.339 53.143-28.04 128.197 25.236 167.634 53.278 39.439 128.361 28.328 167.7-24.814 39.34-53.143 28.044-128.202-25.234-167.64-53.276-39.438-128.363-28.323-167.702 24.82zM342.852 152.565l10.997-7.662 7.425 6.337-5.847 12.053a64.403 64.403 0 015.106 6.424l13.219-3.025 4.496 8.665-10.108 9.022a64.41 64.41 0 012.492 8.677l13.209 2.372.78 9.712-12.675 4.375a62.68 62.68 0 01-.939 8.132l11.373 7.17-2.944 9.291-13.407-.731a64.567 64.567 0 01-4.363 7.876l7.685 11.01-6.326 7.404-12.071-5.868a64.53 64.53 0 01-6.426 5.081l3.06 13.217-8.653 4.475-9.061-10.127a62.88 62.88 0 01-8.672 2.473l-2.331 13.197-9.732.757-4.403-12.68a64.798 64.798 0 01-8.136-.955l-7.153 11.346-9.29-2.965.681-13.399a63.18 63.18 0 01-7.884-4.378l-11.004 7.652-7.426-6.336 5.849-12.052a63.112 63.112 0 01-5.098-6.428l-13.234 3.026-4.49-8.66 10.112-9.027a64.24 64.24 0 01-2.497-8.675l-13.206-2.368-.786-9.718 12.684-4.373a64.17 64.17 0 01.93-8.134l-11.367-7.166 2.943-9.288 13.411.729a63.15 63.15 0 014.359-7.877l-7.685-11.011 6.319-7.408 12.079 5.877a65.08 65.08 0 016.419-5.088l-3.06-13.216 8.659-4.471 9.056 10.123a63.033 63.033 0 018.685-2.473l2.333-13.2 9.723-.744 4.408 12.677c2.739.142 5.454.458 8.136.954l7.143-11.353 9.302 2.966-.692 13.4a63.446 63.446 0 017.893 4.386zm-82.694 18.295c-19.467 26.298-13.874 63.44 12.493 82.959 26.364 19.515 63.525 14.019 82.991-12.277 19.47-26.302 13.873-63.447-12.491-82.963-26.365-19.517-63.523-14.021-82.993 12.281z"/><path d="M262.323 172.465c-18.555 25.066-13.206 60.594 11.928 79.199 25.128 18.601 60.675 13.348 79.231-11.719 18.557-25.07 13.204-60.602-11.926-79.205-25.134-18.603-60.675-13.345-79.233 11.725zm85.916 63.599c-16.421 22.183-47.877 26.839-70.118 10.375-22.243-16.465-26.976-47.911-10.555-70.093 16.424-22.188 47.88-26.844 70.123-10.379 22.24 16.466 26.973 47.911 10.55 70.097zm-33.144-306.92c2.374 1.916 2.558 5.492.391 7.672l-1.807 1.823c-2.866 2.902-3.407 7.468-1.047 10.775 3.051 4.244 9.067 4.56 12.598.994l1.615-1.638c2.208-2.228 5.898-2.015 7.801.49a233.15 233.15 0 012.734 3.758c1.732 2.52.905 6.015-1.775 7.506l-2.271 1.25c-3.552 1.983-5.371 6.236-4.038 10.054 1.712 4.945 7.407 6.95 11.774 4.515l1.997-1.094c2.773-1.543 6.233-.28 7.338 2.665a97.062 97.062 0 011.538 4.374c.986 2.9-.792 6.019-3.795 6.697l-2.726.627c-4.443.987-7.267 5.438-6.286 9.884-2.584 3.492.541 8.322 4.78 7.368l7.257-1.628c3.071-.694 6.057 1.502 6.289 4.625.121 1.544.197 3.087.254 4.641.103 3.074-2.477 5.565-5.541 5.38l-2.784-.186c-4.517-.281-8.484 3.199-8.792 7.717-.301 4.568 3.151 8.497 7.676 8.776l2.272.153c3.142.205 5.375 3.14 4.707 6.23-.309 1.511-.682 3-1.035 4.505-.771 2.992-3.951 4.674-6.829 3.636l-2.627-.979c-4.265-1.55-9.043.654-10.619 4.938-1.56 4.278.63 9.025 4.89 10.592l2.11.78c2.961 1.085 4.269 4.536 2.778 7.325-.743 1.34-1.503 2.68-2.308 4.026-1.563 2.625-5.06 3.368-7.533 1.538l-2.225-1.647c-3.661-2.71-8.841-1.932-11.562 1.743-2.718 3.672-1.957 8.864 1.704 11.573l1.798 1.331c2.515 1.862 2.807 5.553.613 7.796a109.927 109.927 0 01-3.343 3.238c-2.226 2.106-5.807 1.808-7.663-.652l-1.539-2.043c-2.431-3.224-6.905-4.407-10.479-2.535-4.668 2.427-5.866 8.362-2.857 12.364l1.374 1.819c1.909 2.513 1.123 6.128-1.619 7.659a111.264 111.264 0 01-4.122 2.17 5.153 5.153 0 01-7.15-2.773l-.998-2.632c-1.593-4.242-6.389-6.398-10.622-4.782-4.257 1.624-6.431 6.437-4.815 10.662l.773 2.12c1.128 2.954-.643 6.215-3.7 6.919-1.51.324-3.019.641-4.551.919-3.002.555-5.838-1.624-6.073-4.709l-.198-2.779c-.348-4.53-4.317-7.939-8.851-7.589-4.519.374-7.962 4.368-7.608 8.895l.166 2.26c.237 3.147-2.361 5.78-5.51 5.594a115.553 115.553 0 01-4.621-.386c-3.044-.324-5.139-3.211-4.507-6.213l.613-2.767c.924-4.45-1.924-8.832-6.364-9.776-4.451-.932-8.846 1.946-9.791 6.395l-.478 2.219c-.668 3.095-3.892 4.891-6.862 3.82a157.327 157.327 0 01-4.311-1.674c-2.823-1.176-4.027-4.551-2.574-7.252l1.351-2.478c2.165-4.001.671-9.047-3.307-11.202-4.008-2.139-9.053-.627-11.202 3.374l-1.082 2.009c-1.5 2.754-5.077 3.612-7.6 1.745l-.044-.033a103.06 103.06 0 01-3.669-2.827c-2.379-1.934-2.555-5.502-.395-7.683l1.968-1.972c3.198-3.26 3.169-8.513-.042-11.697-3.233-3.2-8.457-3.15-11.669.096l-1.614 1.609c-2.197 2.26-5.911 2.016-7.795-.477-.935-1.25-1.848-2.474-2.712-3.753-1.762-2.52-.939-6.02 1.742-7.5l2.484-1.387c3.977-2.192 5.434-7.266 3.26-11.233-2.187-3.967-7.236-5.421-11.216-3.202l-1.985 1.09c-2.765 1.547-6.233.28-7.345-2.672a130.474 130.474 0 01-1.551-4.37c-.956-2.91.818-6.024 3.805-6.707l2.752-.614c4.421-1.006 7.252-5.452 6.277-9.863 2.599-3.511-.53-8.354-4.801-7.4l-7.247 1.632c-3.073.697-6.043-1.502-6.282-4.65a163.42 163.42 0 01-.268-4.604c-.097-3.084 2.484-5.585 5.546-5.391l2.553.165c4.035.262 7.852-2.337 8.805-6.292 1.231-5.09-2.451-9.872-7.441-10.174l-2.279-.152c-3.133-.19-5.388-3.153-4.707-6.232.312-1.512.67-3.026 1.058-4.516.747-2.997 3.926-4.66 6.813-3.61l2.452.909c3.75 1.362 8.066-.016 10.123-3.485 2.703-4.565.516-10.252-4.221-11.98l-2.115-.788a5.136 5.136 0 01-2.761-7.303 90.948 90.948 0 012.276-4.044c1.571-2.652 5.08-3.368 7.54-1.548l2.255 1.67c3.649 2.7 8.838 1.901 11.549-1.76 2.706-3.657 1.953-8.85-1.697-11.551l-1.82-1.348c-2.521-1.866-2.81-5.565-.606-7.796a99.972 99.972 0 013.337-3.25c2.233-2.121 5.807-1.793 7.653.636l1.557 2.07c2.433 3.226 6.883 4.394 10.48 2.527 4.643-2.441 5.847-8.374 2.844-12.353l-1.36-1.807c-1.91-2.536-1.143-6.166 1.602-7.69 1.371-.753 2.735-1.46 4.135-2.165 2.742-1.38 6.07-.086 7.15 2.776l.904 2.433c1.43 3.787 5.353 6.172 9.344 5.383 5.135-1.015 7.942-6.38 6.179-11.07l-.776-2.105c-1.116-2.95.636-6.21 3.703-6.904 1.503-.337 3.015-.642 4.548-.921a5.156 5.156 0 016.074 4.685l.193 2.556c.303 4.044 3.383 7.444 7.437 7.813 5.2.464 9.406-3.888 9.034-8.886l-.166-2.257c-.241-3.145 2.363-5.785 5.49-5.587 1.551.097 3.09.224 4.636.383 3.038.318 5.15 3.23 4.496 6.214l-.591 2.753c-.938 4.446 1.912 8.849 6.35 9.791 3.408 2.522 8.298.665 9.178-3.495l1.095-5.133c.672-3.084 3.899-4.887 6.856-3.8 1.453.522 2.879 1.074 4.32 1.668 2.827 1.167 4.021 4.527 2.571 7.248l-1.348 2.477c-2.396 4.419-.328 10.086 4.622 11.758 3.852 1.296 8.069-.57 9.994-4.15l.971-1.79c1.499-2.753 5.103-3.6 7.6-1.752l.054.04c1.247.919 2.461 1.85 3.664 2.823zm-91.263 48.564l18.789 32.24 9.508-36.014c-9.579-1.738-19.517-.426-28.297 3.774zM285.568-.543l-32.257 18.678 36.079 9.616a46.416 46.416 0 00-3.822-28.294zm-35.908 12.39l32.227-18.688a46.387 46.387 0 00-10.524-10.855c-3.828-2.834-7.927-5.01-12.18-6.472l-9.523 36.014zm35.855-49.741c-3.258-2.412-7.881-1.738-10.301 1.531-2.424 3.274-1.719 7.893 1.539 10.304 3.277 2.426 7.905 1.756 10.329-1.518 2.42-3.27 1.71-7.891-1.567-10.317zm21.234 54.885c4.042-.579 6.827-4.34 6.195-8.369-.602-4.033-4.354-6.81-8.376-6.2-4.016.588-6.801 4.35-6.195 8.368.596 4.015 4.348 6.792 8.376 6.2zm-7.283 43.818a7.35 7.35 0 00-1.54-10.3 7.352 7.352 0 00-10.3 1.535c-2.413 3.259-1.73 7.87 1.544 10.294 3.275 2.425 7.884 1.73 10.296-1.53zm-18.385-13.864c2.832-3.827 4.976-7.902 6.435-12.164l-36.063-9.602 18.767 32.266a45.718 45.718 0 0010.861-10.5zm-78.851-7.602l32.199-18.696-36.037-9.585a46.158 46.158 0 003.838 28.28zm8.831 33.66c2.418-3.266 1.698-7.882-1.566-10.298-3.267-2.419-7.893-1.759-10.31 1.507-2.42 3.269-1.707 7.894 1.561 10.312 3.264 2.416 7.895 1.748 10.315-1.52zm5.377-16.505a46.514 46.514 0 0012.149 6.462l9.514-36.009-32.22 18.673a46.261 46.261 0 0010.557 10.874zm47.509 4.585l-18.774-32.294-9.527 36.06a46.245 46.245 0 0028.301-3.766zM253 88.117c4.022-.616 6.786-4.35 6.194-8.366-.614-4.035-4.358-6.807-8.383-6.206a7.336 7.336 0 00-6.194 8.367c.606 4.019 4.35 6.79 8.383 6.205zm-73.493-68.47a7.362 7.362 0 00-6.204 8.381 7.392 7.392 0 008.395 6.214 7.38 7.38 0 006.204-8.381c-.631-4.026-4.37-6.793-8.395-6.214zm7.263-43.813c-2.418 3.265-1.714 7.868 1.567 10.296 3.269 2.42 7.874 1.747 10.291-1.518 2.424-3.274 1.738-7.896-1.531-10.316a7.383 7.383 0 00-10.327 1.538zm19.929 16.05c-2.794 3.775-4.982 7.863-6.446 12.126l36.059 9.612-18.757-32.282c-4.097 2.818-7.739 6.334-10.856 10.545zm26.551-43.359c-4.018.594-6.799 4.351-6.191 8.364.62 4.04 4.372 6.817 8.385 6.207a7.31 7.31 0 006.191-8.364c-.583-4.022-4.335-6.8-8.385-6.207zM99.634-72.827l8.139-5.671 5.5 4.69-4.33 8.927a46.712 46.712 0 013.778 4.758l9.791-2.24 3.328 6.412-7.483 6.682a47.6 47.6 0 011.847 6.425l9.781 1.755.575 7.194-9.384 3.24a46.933 46.933 0 01-.692 6.018l8.418 5.308-2.178 6.875-9.928-.535a47.641 47.641 0 01-3.231 5.83l5.694 8.152-4.685 5.483-8.94-4.349a47.442 47.442 0 01-4.756 3.764l2.265 9.79-6.407 3.312-6.708-7.497a47.672 47.672 0 01-6.424 1.832l-1.729 9.77-7.202.559-3.263-9.391a47.818 47.818 0 01-6.023-.704l-5.295 8.4-6.886-2.194.511-9.92a47.476 47.476 0 01-5.842-3.244l-8.142 5.67-5.498-4.692 4.329-8.924a47.403 47.403 0 01-3.776-4.761l-9.79 2.242-3.331-6.412 7.488-6.686a47.489 47.489 0 01-1.85-6.423l-9.781-1.751-.578-7.195 9.386-3.24a47.49 47.49 0 01.69-6.017l-8.418-5.308 2.18-6.879 9.93.537a47.269 47.269 0 013.229-5.83l-5.695-8.152 4.683-5.484 8.942 4.347a47.535 47.535 0 014.75-3.763l-2.262-9.79 6.41-3.312 6.706 7.498a46.748 46.748 0 016.425-1.83l1.73-9.77 7.2-.559 3.263 9.389c2.026.105 4.038.344 6.021.708l5.295-8.4 6.884 2.194-.512 9.92a47.357 47.357 0 015.851 3.242zM73.614-49.12c2.953-.054 6.639 1.259 8.39 2.291l12.197-16.477c-8.28-5.81-15.579-7.038-23.761-6.37l3.173 20.556zm-5.026 11.45c-2.237 3.022-1.591 7.31 1.44 9.554 3.03 2.243 7.318 1.608 9.555-1.414 2.24-3.025 1.594-7.31-1.436-9.554-3.032-2.244-7.32-1.61-9.56 1.414zm28.836-23.193L85.18-44.32c1.354 1.571 3.558 4.93 4.137 7.887l20.535-2.987c-1.482-8.148-6.239-16.204-12.427-21.441zm12.135 25.35L88.648-32.08c-.05 2.429-.05 4.01-2.187 7.46l17.027 12.605c5.542-8.48 6.771-15.738 6.072-23.497zm-7.207 25.173L85.326-22.944c-2.608 3.102-4.394 3.604-7.17 4.39L81.28 2.914c8.144-1.752 16.129-6.848 21.073-13.253zM78.406 3.184l-3.154-21.286c-2.798.174-6.3-.896-8.18-1.756L54.126-2.367c6.822 4.383 15.993 6.57 24.28 5.55zM50.849-4.74l12.896-17.422c-1.508-1.362-3.595-4.14-4.456-6.745l-21.517 3.104c1.72 8.096 5.102 14.84 13.077 21.063zM37.323-28.622l21.181-3.027c-.35-3.307-.061-6.165 2.111-9.59l-16.99-12.577c-4.675 6.607-7.346 16.492-6.302 25.194zm7.574-26.766l16.99 12.577c2.725-3.015 5.268-4.36 8.063-5.018l-3.364-20.094c-8.101 1.406-15.174 4.776-21.69 12.535z"/></g></svg>