<svg width="1823" height="804" viewBox="0 0 1823 804" fill="none" xmlns="http://www.w3.org/2000/svg"><mask id="mask0_1102_2626" style="mask-type:alpha" maskUnits="userSpaceOnUse" x="1571" y="0" width="252" height="610"><path transform="matrix(0 -1 -1 0 1823 609.133)" fill="#8D8D8D" d="M0 0h608.506v252H0z"/></mask><g mask="url(#mask0_1102_2626)" fill="#F4F4F8"><path d="M1832.18 92.362c-7.42 5.29-9.15 15.649-3.84 23.09 5.3 7.442 15.65 9.194 23.08 3.905 7.42-5.291 9.15-15.651 3.84-23.093-5.3-7.442-15.65-9.192-23.08-3.902zm13.88 19.479c-3.29 2.343-7.88 1.566-10.23-1.731-2.35-3.297-1.58-7.887 1.71-10.231 3.29-2.345 7.88-1.57 10.23 1.728 2.35 3.297 1.58 7.888-1.71 10.234z"/><path d="M1884.4 79.201l6.25-8.627-4.93-5.994-9.66 4.471a49.785 49.785 0 00-5.04-4.145l2.6-10.468-6.82-3.696-7.32 7.904a51.043 51.043 0 00-6.86-2.107l-1.69-10.532-7.71-.757-3.66 10.01c-2.17.072-4.34.281-6.47.627l-5.54-9.139-7.42 2.204.38 10.669a50.766 50.766 0 00-6.32 3.354l-8.64-6.272-5.98 4.921 4.49 9.68a51.816 51.816 0 00-4.13 5.03l-10.46-2.62-3.68 6.814 7.92 7.345a50.504 50.504 0 00-2.09 6.86l-10.52 1.665-.74 7.72 10.01 3.683c.08 2.178.29 4.341.64 6.48l-9.12 5.519 2.22 7.433 10.66-.355c.97 2.178 2.1 4.3 3.37 6.333l-6.24 8.63 4.93 5.992 9.66-4.471a50.89 50.89 0 005.03 4.147l-2.59 10.466 6.82 3.699 7.32-7.906a51.21 51.21 0 006.85 2.11l1.7 10.532 7.71.758 3.66-10.013c2.17-.068 4.33-.28 6.47-.623l5.54 9.138 7.42-2.205-.38-10.669a51.128 51.128 0 006.32-3.354l8.64 6.271 5.97-4.921-4.49-9.68a50.79 50.79 0 004.13-5.029l10.47 2.62 3.68-6.817-7.92-7.341c.87-2.26 1.56-4.553 2.09-6.864l10.52-1.665.74-7.717-10.01-3.687c-.08-2.176-.29-4.34-.65-6.478l9.12-5.52-2.21-7.434-10.66.358c-.98-2.183-2.1-4.3-3.38-6.337zm-20.36 58.963c-17.6 12.545-42.07 8.406-54.64-9.242-12.58-17.65-8.5-42.127 9.1-54.672 17.61-12.545 42.07-8.408 54.65 9.241 12.58 17.649 8.5 42.128-9.11 54.673zm-37.48 365.775c-4.47 3.184-5.5 9.418-2.31 13.896 3.19 4.48 9.42 5.532 13.89 2.35 4.46-3.185 5.5-9.418 2.31-13.898-3.19-4.477-9.42-5.532-13.89-2.348zm8.35 11.722c-1.97 1.41-4.74.943-6.15-1.041a4.42 4.42 0 011.02-6.157c1.98-1.411 4.74-.944 6.16 1.04 1.41 1.984.95 4.747-1.03 6.158z"/><path d="M1857.98 496.019l3.76-5.192-2.96-3.607-5.82 2.69c-.95-.887-1.96-1.72-3.03-2.495l1.56-6.299-4.1-2.224-4.41 4.756a30.718 30.718 0 00-4.12-1.268l-1.02-6.338-4.64-.455-2.2 6.023c-1.31.043-2.61.168-3.9.377l-3.33-5.499-4.47 1.326.23 6.42c-1.31.58-2.58 1.254-3.8 2.018l-5.2-3.773-3.6 2.961 2.71 5.825a29.79 29.79 0 00-2.49 3.027l-6.3-1.577-2.21 4.1 4.76 4.42a31.09 31.09 0 00-1.26 4.129l-6.33 1.002-.44 4.646 6.03 2.217c.04 1.311.17 2.611.38 3.899l-5.49 3.321 1.34 4.473 6.42-.214a31.09 31.09 0 002.02 3.812l-3.76 5.193 2.97 3.606 5.81-2.69c.95.887 1.96 1.722 3.04 2.495l-1.57 6.298 4.11 2.226 4.4-4.758c1.36.525 2.74.948 4.13 1.27l1.02 6.338 4.64.455 2.2-6.025c1.31-.041 2.61-.168 3.9-.375l3.33 5.499 4.46-1.327-.23-6.42a31.427 31.427 0 003.81-2.018l5.2 3.772 3.59-2.96-2.7-5.826c.88-.946 1.71-1.955 2.49-3.025l6.29 1.576 2.22-4.102-4.77-4.418c.52-1.36.94-2.74 1.26-4.13l6.33-1.001.45-4.645-6.03-2.219a28.266 28.266 0 00-.39-3.898l5.49-3.322-1.33-4.474-6.42.215a30.035 30.035 0 00-2.03-3.811zm-12.25 35.481c-10.59 7.549-25.32 5.058-32.88-5.562-7.57-10.621-5.12-25.351 5.47-32.9 10.6-7.549 25.32-5.059 32.89 5.562 7.57 10.622 5.12 25.351-5.48 32.9zm-156.65-271.784c-13.29 9.474-16.38 28.028-6.88 41.357 9.49 13.329 28.04 16.467 41.34 6.993 13.29-9.475 16.39-28.032 6.89-41.361-9.5-13.329-28.05-16.465-41.35-6.989zm24.86 34.888c-5.89 4.196-14.11 2.805-18.32-3.1-4.2-5.906-2.83-14.127 3.06-18.324 5.89-4.2 14.11-2.811 18.32 3.095 4.2 5.905 2.84 14.129-3.06 18.329z"/><path d="M1782.62 236.142l11.19-15.453-8.83-10.736-17.32 8.009a90.374 90.374 0 00-9.01-7.425l4.65-18.75-12.22-6.62-13.11 14.156a91.52 91.52 0 00-12.28-3.775l-3.03-18.865-13.82-1.355-6.55 17.93c-3.9.126-7.77.502-11.59 1.121l-9.92-16.369-13.29 3.947.68 19.111a91.132 91.132 0 00-11.32 6.009l-15.48-11.232-10.7 8.816 8.05 17.338a88.89 88.89 0 00-7.4 9.011l-18.74-4.695-6.6 12.205 14.19 13.156a90.337 90.337 0 00-3.75 12.287l-18.84 2.983-1.33 13.826 17.94 6.598c.14 3.902.52 7.777 1.14 11.608l-16.33 9.884 3.98 13.315 19.09-.637c1.74 3.903 3.75 7.7 6.03 11.344l-11.18 15.459 8.83 10.732 17.3-8.009a91.978 91.978 0 009.02 7.429l-4.65 18.746 12.21 6.623 13.12-14.161a91.097 91.097 0 0012.28 3.777l3.03 18.866 13.81 1.356 6.56-17.934c3.89-.124 7.76-.502 11.59-1.116l9.92 16.368 13.29-3.951-.68-19.111a91.954 91.954 0 0011.32-6.005l15.47 11.232 10.71-8.815-8.05-17.34a90.877 90.877 0 007.4-9.006l18.75 4.694 6.58-12.211-14.18-13.151a90.231 90.231 0 003.75-12.292l18.84-2.983 1.33-13.823-17.94-6.602a89.927 89.927 0 00-1.15-11.603l16.34-9.886-3.98-13.313-19.09.639a92.14 92.14 0 00-6.03-11.351zm-36.47 105.612c-31.54 22.47-75.36 15.058-97.89-16.554-22.52-31.613-15.22-75.457 16.31-97.927 31.53-22.469 75.36-15.059 97.89 16.553 22.52 31.612 15.22 75.458-16.31 97.928zm180.41-137.833l6.64-9.155-5.24-6.36-10.25 4.745a53.405 53.405 0 00-5.35-4.4l2.76-11.109-7.24-3.922-7.77 8.386a54.078 54.078 0 00-7.28-2.234l-1.79-11.181-8.19-.8-3.88 10.624c-2.31.073-4.6.298-6.87.661l-5.88-9.697-7.88 2.341.41 11.321a53.191 53.191 0 00-6.7 3.56l-9.18-6.656-6.34 5.223 4.77 10.276a53.266 53.266 0 00-4.38 5.337l-11.11-2.784-3.9 7.232 8.4 7.799a53.558 53.558 0 00-2.22 7.28l-11.17 1.765-.78 8.195 10.63 3.905c.08 2.314.31 4.608.67 6.881l-9.67 5.857 2.35 7.888 11.32-.379a54.425 54.425 0 003.57 6.723l-6.63 9.158 5.24 6.362 10.25-4.747a52.888 52.888 0 005.35 4.403l-2.76 11.107 7.24 3.928 7.77-8.394c2.39.929 4.82 1.672 7.28 2.237l1.79 11.178 8.18.806 3.89-10.624a55.28 55.28 0 006.87-.663l5.88 9.695 7.87-2.338-.4-11.328a53.157 53.157 0 006.7-3.555l9.17 6.655 6.34-5.222-4.76-10.274a54.34 54.34 0 004.38-5.34l11.11 2.783 3.9-7.237-8.4-7.793a53.744 53.744 0 002.22-7.281l11.17-1.768.78-8.19-10.63-3.912c-.08-2.309-.3-4.606-.68-6.876l9.68-5.856-2.35-7.891-11.32.38a53.615 53.615 0 00-3.58-6.725zm-34.28 44.792c-8.88 6.332-21.24 4.246-27.59-4.664-6.34-8.906-4.28-21.264 4.6-27.597 8.89-6.33 21.24-4.243 27.59 4.664 6.35 8.91 4.29 21.267-4.6 27.597zm-233.57 154.492l4.6-6.357-3.63-4.415-7.12 3.296a37.046 37.046 0 00-3.7-3.058l1.91-7.708-5.03-2.724-5.39 5.823a37.296 37.296 0 00-5.05-1.552l-1.25-7.759-5.68-.559-2.69 7.374c-1.61.05-3.2.207-4.78.464l-4.07-6.735-5.47 1.625.28 7.858c-1.6.716-3.16 1.535-4.66 2.471l-6.36-4.616-4.4 3.625 3.3 7.129a38.721 38.721 0 00-3.04 3.709l-7.7-1.932-2.72 5.019 5.84 5.413a35.947 35.947 0 00-1.54 5.051l-7.76 1.225-.54 5.69 7.38 2.713c.06 1.605.21 3.199.47 4.774l-6.72 4.067 1.64 5.471 7.85-.256a36.81 36.81 0 002.48 4.662l-4.6 6.362 3.63 4.415 7.12-3.296a37.581 37.581 0 003.71 3.053l-1.91 7.716 5.02 2.721 5.4-5.825c1.66.644 3.35 1.159 5.05 1.554l1.24 7.758 5.69.563 2.69-7.38c1.6-.049 3.19-.208 4.77-.459l4.08 6.731 5.47-1.624-.29-7.86a36.403 36.403 0 004.66-2.469l6.37 4.617 4.4-3.622-3.31-7.134a38.995 38.995 0 003.05-3.704l7.7 1.932 2.71-5.023-5.83-5.41a37.126 37.126 0 001.54-5.059l7.75-1.226.54-5.685-7.37-2.715a36.263 36.263 0 00-.48-4.774l6.73-4.062-1.64-5.478-7.85.263a38.137 38.137 0 00-2.49-4.668zm-11.59 48.224c-15.6 11.119-37.29 7.451-48.44-8.195-11.14-15.643-7.53-37.342 8.07-48.461 15.61-11.121 37.3-7.45 48.44 8.193 11.15 15.644 7.54 37.342-8.07 48.463z"/><path d="M1646.21 450.145c-14.88 10.599-35.62 7.09-46.25-7.823-10.62-14.91-7.17-35.668 7.7-46.266 14.88-10.6 35.63-7.089 46.25 7.822 10.63 14.914 7.17 35.668-7.7 46.267zm-36.33-50.979c-13.16 9.38-16.22 27.748-6.82 40.945 9.41 13.198 27.77 16.303 40.93 6.924 13.16-9.381 16.22-27.75 6.82-40.948-9.4-13.197-27.77-16.301-40.93-6.921zm333.17-58.949l-1.4 1.342c-2.24 2.131-5.72 2.477-8.2.627-3.2-2.386-3.37-6.98-.62-9.611l1.26-1.197a3.94 3.94 0 00-.29-5.946 70.424 70.424 0 00-2.82-2.135 3.935 3.935 0 00-5.72 1.218l-.98 1.707c-1.54 2.673-4.78 3.988-7.68 2.914-3.74-1.389-5.2-5.754-3.3-9.054l.86-1.496a3.946 3.946 0 00-1.95-5.634c-1.09-.437-2.2-.851-3.3-1.243a3.935 3.935 0 00-5.14 2.785l-.5 2.073c-.81 3.359-4.22 5.437-7.58 4.62-2.69 1.92-6.33-.544-5.55-3.765l1.32-5.499c.56-2.327-1.07-4.626-3.45-4.856a84.564 84.564 0 00-3.51-.27 3.926 3.926 0 00-4.15 4.121l.1 2.124c.17 3.452-2.51 6.412-5.96 6.575-3.45.16-6.41-2.533-6.58-5.987l-.09-1.734c-.12-2.392-2.32-4.14-4.67-3.689-1.16.22-2.31.463-3.46.732-2.27.53-3.58 2.916-2.81 5.127l.7 2.028c1.14 3.268-.6 6.865-3.86 7.992l-.01-.002c-3.26 1.129-6.86-.622-7.99-3.889l-.57-1.633c-.78-2.265-3.39-3.322-5.52-2.224a88.184 88.184 0 00-3.1 1.678 3.937 3.937 0 00-1.25 5.715l1.23 1.738c2.01 2.82 1.36 6.764-1.45 8.766-2.82 2.004-6.76 1.336-8.77-1.482l-1-1.405c-1.39-1.954-4.19-2.23-5.92-.579-.85.81-1.69 1.637-2.5 2.478-1.63 1.675-1.44 4.398.4 5.842l1.54 1.215c2.43 1.91 3.28 5.316 1.81 8.027-1.9 3.503-6.42 4.319-9.42 1.959l-1.37-1.074c-1.88-1.485-4.65-.959-5.84 1.117a91.01 91.01 0 00-1.7 3.094c-1.08 2.066-.13 4.623 2.04 5.491l1.99.8c3.21 1.287 4.79 4.967 3.51 8.174-1.28 3.21-4.95 4.78-8.16 3.495l-1.6-.641c-2.22-.896-4.72.39-5.29 2.719-.27 1.142-.52 2.29-.75 3.441a3.946 3.946 0 003.49 4.7l2.12.205c3.44.333 5.99 3.42 5.67 6.86-.33 3.443-3.41 5.986-6.85 5.655l-1.71-.165a3.933 3.933 0 00-4.31 4.097c.06 1.173.14 2.349.24 3.521a3.959 3.959 0 004.68 3.535l2.1-.402c3.39-.653 6.7 1.591 7.36 4.987.66 3.393-1.58 6.707-4.97 7.358l-1.7.328a3.93 3.93 0 00-2.97 5.152c.38 1.11.79 2.213 1.22 3.311.86 2.176 3.41 3.142 5.48 2.07l1.9-.979c3.07-1.581 6.88-.361 8.47 2.713 1.59 3.077.37 6.884-2.69 8.467l-1.53.789c-2.12 1.089-2.8 3.813-1.42 5.756l.03.038c.69.967 1.39 1.912 2.11 2.841 1.43 1.838 4.14 2.027 5.82.424l1.54-1.468c2.49-2.383 6.49-2.286 8.88.219 2.38 2.503 2.3 6.504-.2 8.886l-1.25 1.199c-1.74 1.653-1.6 4.463.28 5.947a89.97 89.97 0 002.82 2.135 3.935 3.935 0 005.72-1.217l1.07-1.864c1.72-2.993 5.58-4.025 8.58-2.293 2.99 1.732 4.03 5.596 2.31 8.592l-.86 1.491a3.947 3.947 0 001.95 5.636c1.09.436 2.19.852 3.3 1.243 2.2.78 4.59-.517 5.14-2.786l.5-2.072c.81-3.357 4.22-5.435 7.57-4.62 2.7-1.919 6.34.547 5.56 3.765l-1.32 5.498c-.56 2.329 1.07 4.628 3.45 4.858 1.17.114 2.34.202 3.51.271a3.94 3.94 0 004.15-4.124l-.09-1.944c-.16-3.088 1.86-5.949 4.87-6.612 3.89-.851 7.48 2.034 7.66 5.843l.09 1.734c.11 2.394 2.32 4.141 4.67 3.693 1.15-.221 2.3-.466 3.45-.734a3.939 3.939 0 002.82-5.128l-.65-1.883c-1-2.883.09-6.148 2.74-7.649 3.5-1.988 7.81-.229 9.07 3.403l.57 1.633c.78 2.266 3.4 3.321 5.52 2.224a97.39 97.39 0 003.1-1.681c2.03-1.151 2.61-3.81 1.25-5.715l-1.24-1.737c-2-2.819-1.34-6.763 1.47-8.765 2.81-2.003 6.75-1.338 8.76 1.481l1 1.404c1.39 1.952 4.19 2.228 5.92.579.85-.811 1.69-1.637 2.5-2.479 1.63-1.676 1.44-4.397-.4-5.845l-1.54-1.21c-2.43-1.913-3.28-5.315-1.81-8.03 1.9-3.501 6.42-4.318 9.42-1.957l1.37 1.075c1.88 1.485 4.65.959 5.84-1.119a92.88 92.88 0 001.7-3.092 3.952 3.952 0 00-2.04-5.492l-1.82-.731c-2.87-1.151-4.64-4.18-3.99-7.201.83-3.898 4.93-5.955 8.47-4.535l1.6.639c2.22.893 4.73-.389 5.29-2.719.27-1.141.52-2.291.75-3.441.46-2.291-1.17-4.478-3.5-4.702l-1.93-.187c-3.07-.298-5.62-2.707-5.85-5.788-.3-3.977 3.05-7.109 6.85-6.744l1.71.165a3.939 3.939 0 004.31-4.096c-.06-1.175-.14-2.347-.24-3.519a3.96 3.96 0 00-4.68-3.536l-2.1.401c-3.39.654-6.7-1.593-7.36-4.989-1.88-2.634-.41-6.323 2.76-6.933l3.91-.75a3.93 3.93 0 002.97-5.152 82.528 82.528 0 00-1.22-3.314c-.86-2.174-3.41-3.136-5.48-2.07l-1.91.981c-3.38 1.744-7.66.079-8.88-3.722-.94-2.944.53-6.126 3.27-7.539l1.37-.705c2.12-1.092 2.8-3.816 1.41-5.759 0-.012-.01-.024-.02-.039a89.184 89.184 0 00-2.11-2.838c-1.43-1.838-4.14-2.026-5.82-.42zm-94.61 2.938c11.81-7.268 25.31-9.953 38.28-8.423l-3.35 20.086c-7.82-.719-15.88.864-23.08 4.958l-11.85-16.62v-.001zm-6.63 4.725l11.85 16.62c-6.23 5.47-10.35 12.574-12.22 20.2l-20.08-3.394c2.78-12.758 9.73-24.636 20.45-33.426zm-21.65 41.491l20.15 3.406a39.417 39.417 0 005.92 22.281l-16.55 11.793c-7.49-11.5-10.54-24.691-9.52-37.48zm46.89 63.416c-12.29-2.72-23.78-9.302-32.48-19.407l16.64-11.853a39.544 39.544 0 0019.19 11.172l-3.35 20.088zm44.23-7.422c-11.17 6.877-23.85 9.65-36.16 8.635l3.35-20.155c7.15.273 14.42-1.372 20.97-5.1l11.84 16.62zm-11.74-23.485c-15.22 10.845-36.36 7.267-47.23-7.989-10.87-15.25-7.35-36.404 7.87-47.249 15.22-10.841 36.37-7.266 47.23 7.985 10.87 15.255 7.35 36.411-7.87 47.253zm18.37 18.761l-11.84-16.62c5.66-4.975 9.58-11.303 11.66-18.148l20.15 3.405c-3.06 11.972-9.82 23.049-19.97 31.363zm21.45-39.379l-20.08-3.395c.66-7.35-.72-14.914-4.29-21.785l16.63-11.855c6.71 11.522 9.18 24.527 7.74 37.035zm-28.86-32.004a39.509 39.509 0 00-19.13-12.87l3.36-20.154a59.814 59.814 0 0132.32 21.232l-16.55 11.792zm-93.74-198.384l-.4.38c-.63.603-1.61.7-2.32.177a1.788 1.788 0 01-.17-2.72l.35-.338a1.11 1.11 0 00-.08-1.682c-.26-.207-.52-.409-.79-.604a1.113 1.113 0 00-1.62.345l-.28.483c-.44.756-1.35 1.127-2.17.824a1.793 1.793 0 01-.94-2.562l.25-.424a1.12 1.12 0 00-.56-1.594c-.31-.122-.62-.24-.93-.351-.62-.221-1.3.146-1.45.788l-.14.586c-.23.95-1.2 1.539-2.15 1.307-.76.543-1.79-.155-1.57-1.066l.37-1.555c.16-.659-.3-1.309-.97-1.374-.33-.032-.66-.058-1-.076-.66-.037-1.2.506-1.17 1.167l.03.6c.05.976-.71 1.814-1.69 1.86a1.785 1.785 0 01-1.86-1.693l-.02-.492a1.125 1.125 0 00-1.33-1.044c-.32.062-.65.131-.97.207-.65.15-1.02.826-.8 1.45l.2.574c.32.924-.17 1.942-1.1 2.261v-.001a1.784 1.784 0 01-2.26-1.1l-.16-.461c-.22-.641-.96-.94-1.56-.629-.29.151-.59.31-.88.474a1.113 1.113 0 00-.35 1.618l.35.492c.57.797.38 1.912-.42 2.479-.79.567-1.91.378-2.47-.418l-.29-.398a1.108 1.108 0 00-1.67-.163c-.24.229-.48.463-.71.701-.46.474-.41 1.244.11 1.653l.44.344c.69.541.93 1.503.51 2.271a1.776 1.776 0 01-2.66.555l-.39-.304a1.109 1.109 0 00-1.65.316c-.17.289-.33.581-.48.876-.31.584-.04 1.307.57 1.554l.57.226c.9.364 1.35 1.406.99 2.313a1.779 1.779 0 01-2.31.989l-.45-.181c-.63-.252-1.34.11-1.5.769-.07.323-.15.647-.21.973-.13.648.33 1.267.99 1.33l.6.057a1.79 1.79 0 011.6 1.941 1.778 1.778 0 01-1.94 1.601l-.48-.047a1.113 1.113 0 00-1.22 1.16c.02.331.04.664.07.995.06.66.67 1.125 1.32 1l.59-.114c.96-.184 1.9.45 2.09 1.411.18.96-.45 1.897-1.41 2.082l-.48.093c-.66.129-1.06.817-.84 1.458.11.315.22.626.35.936.24.616.96.889 1.54.586l.54-.277a1.79 1.79 0 012.4.768c.45.87.1 1.947-.76 2.394l-.44.223c-.6.309-.79 1.079-.4 1.629.01.003.01.006.01.01.2.273.39.541.6.805.4.519 1.17.572 1.64.12l.44-.417a1.78 1.78 0 012.46 2.576l-.36.339c-.49.467-.45 1.263.08 1.683.26.207.53.409.8.604.54.388 1.29.227 1.62-.344l.3-.528a1.784 1.784 0 012.43-.648c.85.49 1.14 1.583.65 2.431l-.24.422c-.34.588-.08 1.342.55 1.594.31.123.62.241.94.351.62.221 1.3-.146 1.45-.788l.14-.587a1.78 1.78 0 012.14-1.308c.77-.543 1.8.155 1.58 1.065l-.38 1.556c-.16.659.3 1.309.98 1.374.33.033.66.057.99.078a1.12 1.12 0 001.18-1.167l-.03-.55c-.04-.873.53-1.683 1.38-1.871 1.1-.24 2.11.576 2.17 1.654l.02.491c.03.677.66 1.171 1.32 1.044.33-.062.65-.131.98-.207.64-.15 1.01-.826.8-1.451l-.19-.533c-.28-.816.03-1.739.78-2.164a1.776 1.776 0 012.56.963l.16.461c.23.642.97.94 1.57.63.29-.153.58-.311.87-.476.58-.326.74-1.077.36-1.617l-.35-.491a1.785 1.785 0 01.41-2.48c.8-.567 1.91-.379 2.48.419l.28.397c.4.553 1.19.632 1.68.165.24-.23.48-.463.71-.702.46-.474.4-1.244-.12-1.653l-.43-.342c-.69-.542-.93-1.504-.51-2.273.53-.99 1.81-1.221 2.66-.554l.39.305c.53.42 1.31.271 1.65-.316.17-.29.33-.582.48-.875.31-.586.04-1.307-.58-1.554l-.51-.207c-.81-.326-1.31-1.182-1.13-2.038a1.774 1.774 0 012.4-1.282l.45.18c.63.253 1.33-.11 1.49-.769.08-.323.15-.648.22-.974a1.118 1.118 0 00-.99-1.331l-.55-.052c-.87-.084-1.59-.765-1.65-1.637a1.77 1.77 0 011.93-1.909l.49.047c.67.064 1.25-.483 1.22-1.159-.02-.333-.04-.664-.07-.996a1.12 1.12 0 00-1.32-1l-.6.114c-.96.185-1.89-.45-2.08-1.412a1.258 1.258 0 01.78-1.962l1.11-.212c.67-.128 1.06-.817.84-1.458-.11-.314-.22-.625-.35-.937a1.117 1.117 0 00-1.55-.586l-.54.277c-.95.493-2.16.023-2.51-1.054-.26-.832.15-1.732.93-2.132l.38-.201c.6-.307.8-1.078.4-1.628v-.011c-.2-.273-.4-.541-.6-.803a1.119 1.119 0 00-1.65-.117zm-26.77.831a16.863 16.863 0 0110.83-2.383l-.94 5.682c-2.22-.203-4.5.244-6.54 1.402l-3.35-4.701zm-1.87 1.337l3.35 4.702a11.13 11.13 0 00-3.46 5.715l-5.68-.959c.79-3.61 2.75-6.971 5.79-9.458zm-6.13 11.739l5.7.964c-.07 2.158.47 4.352 1.68 6.304l-4.68 3.336a16.908 16.908 0 01-2.7-10.604zm13.27 17.942a16.917 16.917 0 01-9.19-5.491l4.71-3.353c1.5 1.59 3.4 2.657 5.43 3.161l-.95 5.683zm12.51-2.1a16.817 16.817 0 01-10.23 2.443l.95-5.702c2.02.078 4.08-.388 5.93-1.442l3.35 4.701zm-6.18-10.669c-2.09 1.489-4.99.998-6.49-1.096-1.49-2.093-1.01-4.997 1.08-6.485a4.646 4.646 0 016.48 1.096 4.647 4.647 0 01-1.07 6.485zm8.06 9.332l-3.35-4.702a11.142 11.142 0 003.3-5.135l5.7.964a16.866 16.866 0 01-5.65 8.873zm6.07-11.141l-5.68-.96c.18-2.08-.21-4.22-1.22-6.163l4.71-3.354c1.9 3.258 2.6 6.938 2.19 10.477zm-8.17-9.055a11.203 11.203 0 00-5.41-3.641l.95-5.702a16.9 16.9 0 019.14 6.007l-4.68 3.336zm-18.32 242.737c-1.09-1.41-3.19-1.556-4.49-.31l-1.08 1.039c-1.73 1.647-4.41 1.915-6.32.498-2.45-1.831-2.58-5.357-.45-7.387l.98-.928c1.32-1.269 1.24-3.432-.21-4.572-.71-.553-1.45-1.104-2.17-1.641a3.056 3.056 0 00-4.41.959l-.76 1.317c-1.2 2.059-3.71 3.079-5.93 2.257-2.88-1.054-3.99-4.41-2.52-6.941l.66-1.157a3.007 3.007 0 00-1.48-4.325c-.84-.333-1.69-.655-2.54-.947-1.69-.609-3.54.4-3.96 2.151l-.4 1.589a4.87 4.87 0 01-5.85 3.576c-2.08 1.476-4.87-.405-4.27-2.877l1.03-4.232c.44-1.79-.81-3.563-2.64-3.732-.9-.086-1.8-.147-2.71-.197a3.059 3.059 0 00-3.21 3.187l.08 1.632c.11 2.648-1.97 4.934-4.61 5.066-2.68.128-4.95-1.935-5.06-4.587l-.07-1.332a3.008 3.008 0 00-3.59-2.822c-.89.165-1.77.367-2.65.558-1.76.42-2.78 2.264-2.2 3.96l.54 1.548c.86 2.514-.48 5.288-3 6.165-2.52.869-5.28-.464-6.15-2.975l-.44-1.244c-.6-1.745-2.61-2.548-4.26-1.704-.79.42-1.58.851-2.38 1.309-1.55.887-2.02 2.927-.98 4.394l.94 1.32c1.55 2.172 1.04 5.197-1.14 6.751-2.18 1.553-5.21 1.052-6.76-1.12l-.76-1.067c-1.06-1.492-3.22-1.703-4.56-.442-.66.629-1.3 1.272-1.93 1.923-1.26 1.281-1.12 3.381.3 4.494l1.18.923c1.86 1.457 2.51 4.089 1.37 6.162a4.871 4.871 0 01-7.27 1.542l-1.05-.824c-1.45-1.144-3.57-.722-4.5.867-.45.792-.89 1.587-1.31 2.39a3.017 3.017 0 001.55 4.216l1.53.612c2.46.978 3.67 3.809 2.68 6.27-.99 2.476-3.83 3.697-6.29 2.707l-1.23-.476a3.049 3.049 0 00-4.09 2.093c-.21.881-.41 1.761-.59 2.655-.36 1.752.89 3.436 2.69 3.606l1.63.145a4.835 4.835 0 014.35 5.263c-.27 2.642-2.64 4.615-5.29 4.361l-1.32-.122a3.063 3.063 0 00-3.34 3.167c.04.905.11 1.807.18 2.71a3.031 3.031 0 003.59 2.705l1.63-.33c2.61-.494 5.15 1.22 5.65 3.83.5 2.616-1.23 5.159-3.84 5.665l-1.31.256a3.056 3.056 0 00-2.31 3.977c.3.85.61 1.692.94 2.542.65 1.666 2.62 2.406 4.21 1.584l1.47-.765c2.37-1.225 5.3-.297 6.52 2.056 1.21 2.369.27 5.307-2.09 6.523l-1.19.612c-1.63.849-2.17 2.934-1.1 4.431 0 .008.01.021.02.026a57.51 57.51 0 001.61 2.179 3.048 3.048 0 004.5.313l1.17-1.132c1.95-1.838 5.02-1.765 6.85.149 1.84 1.926 1.76 4.984-.18 6.831l-.96.928c-1.34 1.262-1.24 3.44.2 4.569.72.561 1.43 1.108 2.17 1.628a3.037 3.037 0 004.41-.941l.84-1.439c1.32-2.306 4.31-3.105 6.61-1.79a4.821 4.821 0 011.75 6.601l-.66 1.151a3.017 3.017 0 001.49 4.329c.85.336 1.68.647 2.54.954a3.06 3.06 0 003.97-2.156l.39-1.606c.64-2.577 3.27-4.188 5.84-3.57 2.08-1.485 4.89.399 4.28 2.889l-1.03 4.227a3.024 3.024 0 002.66 3.727c.89.082 1.79.149 2.69.205 1.8.09 3.3-1.394 3.22-3.19l-.07-1.496c-.12-2.366 1.45-4.573 3.77-5.088 3-.667 5.76 1.539 5.88 4.464l.07 1.336a3.003 3.003 0 003.59 2.822c.89-.167 1.78-.36 2.66-.572 1.76-.405 2.77-2.249 2.19-3.95l-.51-1.445c-.76-2.211.09-4.723 2.15-5.891 2.7-1.534 6.01-.193 6.97 2.599l.44 1.246a3 3 0 004.24 1.695c.81-.41 1.61-.841 2.39-1.29 1.57-.892 2.03-2.939.99-4.398l-.95-1.338c-1.55-2.166-1.02-5.195 1.15-6.744 2.17-1.546 5.2-1.049 6.75 1.116l.77 1.08a3.03 3.03 0 004.55.438c.67-.63 1.31-1.268 1.94-1.92 1.27-1.284 1.11-3.381-.29-4.487l-1.2-.934c-1.86-1.459-2.49-4.077-1.36-6.163 1.48-2.692 4.96-3.334 7.26-1.534l1.04.816c1.47 1.145 3.6.734 4.52-.857.46-.795.89-1.586 1.31-2.398a3.015 3.015 0 00-1.55-4.216l-1.41-.555c-2.2-.877-3.56-3.2-3.05-5.528.65-2.996 3.82-4.583 6.54-3.501l1.23.477a3.043 3.043 0 004.08-2.095c.21-.876.41-1.758.59-2.653a3.024 3.024 0 00-2.68-3.606l-1.5-.14c-2.36-.22-4.32-2.06-4.49-4.438-.22-3.049 2.38-5.465 5.3-5.195l1.32.121a3.045 3.045 0 003.33-3.154c-.04-.91-.1-1.812-.18-2.719a3.022 3.022 0 00-3.59-2.699l-1.62.317c-2.61.503-5.16-1.213-5.66-3.822-1.44-2.021-.3-4.865 2.14-5.336l3.02-.587c1.81-.361 2.9-2.231 2.3-3.974-.29-.856-.6-1.697-.93-2.547a3.042 3.042 0 00-4.22-1.582l-1.47.763c-2.61 1.356-5.91.085-6.83-2.831-.72-2.269.42-4.719 2.53-5.808l1.06-.549c1.63-.849 2.16-2.95 1.11-4.432-.01-.01-.02-.02-.02-.031a61.97 61.97 0 00-1.62-2.176zm-29.4 52.92l-18.68-11.343 21.19-5.184c.92 5.626.04 11.431-2.51 16.527zm-12.08-36.377l-11.28 18.688-5.25-21.226a27.18 27.18 0 0116.53 2.538zm-7.63 20.893l11.28-18.672a27.209 27.209 0 016.24 6.278c1.62 2.271 2.85 4.694 3.66 7.2l-21.18 5.194zm29.5-20.466a4.316 4.316 0 01-1.01 6.015 4.31 4.31 0 01-6.01-1.01c-1.39-1.945-.95-4.648 1-6.032 1.93-1.382 4.63-.917 6.02 1.027zm-31.91-13.015a4.276 4.276 0 014.96-3.539c2.36.396 3.95 2.622 3.55 4.971a4.313 4.313 0 01-4.97 3.538 4.323 4.323 0 01-3.54-4.97zm-25.73 3.799a4.302 4.302 0 016.01 1.011 4.311 4.311 0 11-7.02 5.002 4.311 4.311 0 011.01-6.013zm7.92 10.912a26.22 26.22 0 017.19-3.638l5.24 21.216-18.7-11.33a26.912 26.912 0 016.27-6.248zm3.61 46.249l11.29-18.654 5.23 21.201c-5.62.92-11.41.026-16.52-2.547zm-19.61-5.528c1.94-1.381 4.63-.911 6.01 1.026 1.38 1.939.95 4.64-.99 6.021-1.94 1.382-4.64.915-6.02-1.023-1.38-1.937-.94-4.642 1-6.024zm9.72-2.973a27.465 27.465 0 01-3.66-7.182l21.19-5.189-11.28 18.667a26.943 26.943 0 01-6.25-6.296zm-2.18-27.865l18.71 11.334-21.22 5.196a27.045 27.045 0 012.51-16.53zm-15.95 6.122a4.327 4.327 0 014.97-3.538c2.35.403 3.94 2.624 3.54 4.975a4.291 4.291 0 01-4.96 3.537 4.335 4.335 0 01-3.55-4.974zm39.31 43.757a4.306 4.306 0 01-4.97 3.544 4.325 4.325 0 01-3.55-4.981 4.32 4.32 0 014.97-3.544c2.35.412 3.94 2.631 3.55 4.981zm25.73-3.787c-1.93 1.38-4.62.919-6.01-1.027-1.38-1.94-.94-4.629 1-6.01a4.316 4.316 0 016.02 1.006 4.315 4.315 0 01-1.01 6.031zm-9.18-11.84c-2.24 1.596-4.66 2.834-7.17 3.646l-5.25-21.215 18.71 11.325a26.854 26.854 0 01-6.29 6.244zm25.67-15.086a4.31 4.31 0 01-4.97 3.537c-2.36-.406-3.94-2.633-3.54-4.975a4.28 4.28 0 014.96-3.537c2.35.384 3.94 2.611 3.55 4.975zm11.08 78.462l3.41-4.705-2.69-3.271-5.27 2.441a28.023 28.023 0 00-2.75-2.262l1.42-5.71-3.72-2.016-3.99 4.31a28.24 28.24 0 00-3.75-1.149l-.92-5.746-4.21-.413-1.99 5.46c-1.19.038-2.37.153-3.53.342l-3.02-4.986-4.05 1.203.21 5.818a28.046 28.046 0 00-3.45 1.83l-4.71-3.42-3.26 2.685 2.45 5.281c-.8.857-1.56 1.772-2.26 2.745l-5.7-1.431-2.01 3.717 4.32 4.007a26.893 26.893 0 00-1.14 3.742l-5.74.908-.41 4.211 5.47 2.01c.04 1.188.16 2.368.35 3.534l-4.98 3.011 1.21 4.056 5.82-.195c.53 1.19 1.14 2.345 1.83 3.456l-3.4 4.707 2.69 3.268 5.27-2.439c.86.804 1.77 1.56 2.75 2.261l-1.42 5.708 3.72 2.019 3.99-4.314c1.23.476 2.48.86 3.74 1.152l.92 5.745 4.21.415 2-5.462c1.18-.038 2.36-.152 3.53-.34l3.02 4.985 4.05-1.203-.21-5.82a27.637 27.637 0 003.45-1.829l4.71 3.421 3.26-2.684-2.45-5.281c.8-.857 1.55-1.771 2.25-2.742l5.71 1.429 2.01-3.718-4.32-4.006c.47-1.232.85-2.482 1.14-3.743l5.74-.909.4-4.209-5.46-2.011a27.773 27.773 0 00-.35-3.533l4.97-3.011-1.21-4.053-5.81.194a27.178 27.178 0 00-1.84-3.46zm-14.16 14.984c.07-1.729-.66-3.901-1.25-4.938l9.78-6.967c3.31 4.91 3.95 9.197 3.48 13.981l-12.01-2.076zm-6.75 2.82a4.006 4.006 0 01-5.58-.945c-1.28-1.798-.87-4.301.93-5.579 1.79-1.279 4.29-.856 5.58.942a4.012 4.012 0 01-.93 5.582zm13.88-16.638l-9.81 6.994c-.91-.809-2.85-2.135-4.58-2.506l1.97-11.991c4.75.954 9.42 3.824 12.42 7.503zm-14.71-7.374l-2.23 12.208c-1.43.004-2.35-.013-4.39 1.201l-7.2-10.103c5.02-3.155 9.28-3.797 13.82-3.306zm-14.82 3.953l7.2 10.103c-1.84 1.494-2.15 2.535-2.64 4.152l-12.54-2.057c1.11-4.75 4.18-9.371 7.98-12.198zm-8.17 13.878l12.43 2.072c-.13 1.637.46 3.698.94 4.808l-10.38 7.395c-2.49-4.04-3.67-9.433-2.99-14.275zm4.35 16.219l10.33-7.366c.79.897 2.39 2.149 3.91 2.68l-2.05 12.566c-4.72-1.093-8.63-3.145-12.19-7.88zm13.84 8.172l1.99-12.369c1.94.24 3.61.101 5.64-1.135l7.19 10.082c-3.92 2.667-9.74 4.126-14.82 3.422zm15.75-4.15l-7.18-10.082c1.79-1.563 2.6-3.038 3.02-4.667l11.73 2.183c-.91 4.728-2.96 8.833-7.57 12.566z"/></g><mask id="mask1_1102_2626" style="mask-type:alpha" maskUnits="userSpaceOnUse" x="0" y="238" width="236" height="566"><path transform="matrix(0 1 1 0 0 238.861)" fill="#F4F4F8" d="M0 0h565.041v236H0z"/></mask><g mask="url(#mask1_1102_2626)" fill="#F4F4F8"><path d="M-8.598 304.984c6.952 4.912 8.566 14.531 3.6 21.441-4.966 6.91-14.664 8.536-21.615 3.625-6.953-4.912-8.57-14.533-3.603-21.443 4.966-6.91 14.665-8.536 21.618-3.623zm-13 18.087c3.081 2.176 7.38 1.455 9.58-1.607a6.78 6.78 0 00-1.597-9.5c-3.082-2.178-7.378-1.458-9.579 1.605a6.782 6.782 0 001.597 9.502z"/><path d="M-57.506 292.763l-5.85-8.011 4.616-5.566 9.05 4.151a47.509 47.509 0 014.716-3.849l-2.431-9.72 6.385-3.432 6.854 7.34a48.076 48.076 0 016.424-1.957l1.584-9.78 7.22-.703 3.429 9.296c2.037.066 4.061.26 6.061.581l5.185-8.485 6.952 2.046-.358 9.907a47.916 47.916 0 015.92 3.114l8.092-5.824 5.596 4.57-4.205 8.988a47.123 47.123 0 013.869 4.672l9.797-2.434 3.447 6.328-7.415 6.82a46.83 46.83 0 011.958 6.369l9.852 1.547.692 7.168-9.378 3.42a47.264 47.264 0 01-.598 6.018l8.54 5.124-2.08 6.902-9.984-.33a47.267 47.267 0 01-3.152 5.882l5.847 8.013-4.617 5.564-9.047-4.151a48.102 48.102 0 01-4.718 3.851l2.431 9.717-6.385 3.435-6.856-7.341a48.111 48.111 0 01-6.422 1.959l-1.585 9.78-7.223.704-3.427-9.298a47.942 47.942 0 01-6.061-.578l-5.183 8.485-6.952-2.047.359-9.908a47.734 47.734 0 01-5.921-3.114l-8.091 5.823-5.596-4.569 4.206-8.989a47.38 47.38 0 01-3.87-4.67l-9.799 2.433-3.445-6.33 7.414-6.817a46.752 46.752 0 01-1.958-6.374l-9.852-1.545-.693-7.166 9.377-3.424c.07-2.021.27-4.03.602-6.015l-8.541-5.126 2.078-6.902 9.983.332a47.655 47.655 0 013.157-5.884zm19.068 54.75c16.488 11.65 39.4 7.806 51.178-8.582 11.778-16.388 7.961-39.118-8.526-50.766-16.487-11.649-39.403-7.808-51.18 8.581-11.778 16.388-7.96 39.119 8.528 50.767zm35.103 339.661a9.21 9.21 0 012.168 12.903c-2.99 4.16-8.826 5.137-13.009 2.182a9.211 9.211 0 01-2.168-12.905c2.989-4.158 8.824-5.137 13.009-2.18zm-7.822 10.885a4.164 4.164 0 005.764-.967 4.08 4.08 0 00-.961-5.717 4.16 4.16 0 00-5.763.965 4.082 4.082 0 00.96 5.719z"/><path d="M-32.763 679.808l-3.52-4.821 2.778-3.35 5.447 2.498a28.742 28.742 0 012.838-2.317l-1.463-5.849 3.843-2.065 4.124 4.417a29.228 29.228 0 013.866-1.179l.954-5.885 4.345-.422 2.063 5.592c1.227.041 2.444.157 3.648.351l3.12-5.106 4.184 1.231-.216 5.961a28.524 28.524 0 013.563 1.875l4.869-3.504 3.367 2.749-2.531 5.409a28.466 28.466 0 012.329 2.811l5.896-1.464 2.074 3.807-4.463 4.104c.488 1.262.88 2.544 1.18 3.834l5.928.93.416 4.315-5.644 2.058a28.302 28.302 0 01-.36 3.621l5.138 3.084-1.252 4.153-6.008-.199a28.572 28.572 0 01-1.898 3.541l3.52 4.821-2.779 3.348-5.444-2.497a28.74 28.74 0 01-2.84 2.317l1.464 5.848-3.842 2.067-4.125-4.418c-1.274.487-2.564.88-3.865 1.179l-.954 5.885-4.347.423-2.062-5.595a28.887 28.887 0 01-3.648-.348l-3.12 5.106-4.183-1.232.217-5.962a28.93 28.93 0 01-3.564-1.874l-4.868 3.503-3.367-2.749 2.53-5.409a28.515 28.515 0 01-2.328-2.81l-5.897 1.464-2.074-3.809 4.462-4.103a28.128 28.128 0 01-1.179-3.835l-5.928-.929-.417-4.313 5.643-2.06c.043-1.215.163-2.425.362-3.62l-5.14-3.085 1.252-4.154 6.007.2a28.766 28.766 0 011.9-3.539zm11.474 32.946c9.922 7.01 23.71 4.697 30.798-5.165 7.088-9.862 4.792-23.539-5.13-30.55-9.922-7.009-23.712-4.697-30.8 5.166-7.087 9.862-4.79 23.54 5.132 30.549zm146.703-252.371c12.452 8.798 15.346 26.027 6.451 38.404-8.896 12.377-26.265 15.29-38.717 6.493-12.453-8.798-15.348-26.029-6.453-38.407 8.895-12.377 26.266-15.288 38.719-6.49zm-23.282 32.396c5.515 3.897 13.216 2.606 17.157-2.877 3.941-5.485 2.656-13.119-2.86-17.016-5.519-3.9-13.215-2.61-17.156 2.874-3.94 5.483-2.66 13.12 2.859 17.019z"/><path d="M37.82 438.494l-10.48-14.349 8.27-9.97 16.212 7.438a84.458 84.458 0 018.444-6.895l-4.354-17.411 11.438-6.148 12.276 13.146a86.708 86.708 0 0111.507-3.506l2.839-17.517 12.934-1.258 6.139 16.649c3.648.117 7.273.466 10.858 1.041l9.284-15.2 12.451 3.665-.64 17.747a85.265 85.265 0 0110.603 5.579l14.491-10.43 10.023 8.186-7.533 16.1a84.472 84.472 0 016.931 8.368l17.549-4.36 6.174 11.333-13.281 12.216a84.215 84.215 0 013.509 11.41l17.645 2.77 1.24 12.838-16.797 6.127a84.858 84.858 0 01-1.071 10.778l15.296 9.179-3.725 12.363-17.882-.591a84.48 84.48 0 01-5.646 10.533l10.474 14.355-8.269 9.966-16.206-7.437a85.855 85.855 0 01-8.449 6.899l4.355 17.406-11.437 6.15-12.281-13.149a86.028 86.028 0 01-11.504 3.507l-2.838 17.518-12.935 1.26-6.138-16.654a86.317 86.317 0 01-10.858-1.036l-9.284 15.199-12.45-3.669.64-17.745a85.558 85.558 0 01-10.604-5.577l-14.49 10.43-10.025-8.186 7.533-16.1a85.271 85.271 0 01-6.931-8.363l-17.552 4.358-6.17-11.339 13.279-12.211a83.87 83.87 0 01-3.507-11.415L9.23 499.723l-1.24-12.835 16.797-6.132a83.245 83.245 0 011.076-10.773l-15.298-9.18 3.725-12.362 17.88.593a84.83 84.83 0 015.649-10.54zm34.154 98.068c29.531 20.865 70.573 13.983 91.669-15.371 21.096-29.355 14.258-70.068-15.273-90.932-29.531-20.865-70.576-13.984-91.672 15.37-21.096 29.354-14.255 70.069 15.276 90.933zM-96.99 408.573l-6.209-8.5 4.902-5.906 9.604 4.406a50.413 50.413 0 015.007-4.086l-2.583-10.315 6.78-3.642 7.275 7.787a50.787 50.787 0 016.817-2.074l1.68-10.383 7.667-.743 3.637 9.866c2.16.067 4.306.276 6.43.613l5.503-9.005 7.382 2.175-.384 10.512a50.203 50.203 0 016.28 3.305l8.59-6.18 5.94 4.85-4.465 9.542c1.46 1.545 2.83 3.2 4.104 4.956l10.399-2.585 3.659 6.715-7.87 7.242a49.208 49.208 0 012.08 6.76l10.456 1.639.734 7.61-9.954 3.626a51.024 51.024 0 01-.634 6.389l9.065 5.439-2.207 7.324-10.597-.352a50.619 50.619 0 01-3.344 6.243l6.206 8.504-4.902 5.908-9.603-4.408a49.327 49.327 0 01-5.009 4.088l2.583 10.314-6.776 3.647-7.276-7.794a50.038 50.038 0 01-6.821 2.077l-1.679 10.379-7.664.749-3.637-9.865a52.324 52.324 0 01-6.435-.616l-5.503 9.002-7.373-2.171.378-10.518a50.204 50.204 0 01-6.283-3.301l-8.586 6.18-5.94-4.85 4.464-9.54a50.261 50.261 0 01-4.106-4.958l-10.401 2.584-3.657-6.72 7.867-7.237a49.356 49.356 0 01-2.076-6.76l-10.458-1.642-.732-7.605 9.952-3.633c.077-2.143.285-4.277.639-6.385l-9.065-5.437 2.203-7.327 10.599.352a50.54 50.54 0 013.348-6.245zm32.106 41.593c8.323 5.88 19.891 3.943 25.837-4.331 5.943-8.27 4.015-19.745-4.308-25.625-8.32-5.878-19.89-3.94-25.833 4.33-5.945 8.274-4.014 19.749 4.304 25.626zm218.741 143.457l-4.311-5.903 3.401-4.099 6.667 3.06a35.305 35.305 0 013.472-2.839l-1.79-7.157 4.707-2.53 5.047 5.407a35.695 35.695 0 014.733-1.441l1.17-7.205 5.318-.519 2.524 6.848c1.502.046 2.994.191 4.469.43l3.819-6.254 5.123 1.509-.267 7.297a35.602 35.602 0 014.361 2.294l5.962-4.286 4.122 3.366-3.098 6.62a35.286 35.286 0 012.851 3.444l7.216-1.794 2.54 4.661-5.463 5.026a33.985 33.985 0 011.442 4.691l7.26 1.137.511 5.284-6.909 2.518a34.684 34.684 0 01-.443 4.433l6.293 3.777-1.533 5.08-7.354-.238a34.225 34.225 0 01-2.323 4.329l4.305 5.908-3.4 4.1-6.666-3.061a34.857 34.857 0 01-3.475 2.835l1.791 7.165-4.704 2.526-5.05-5.408a35.373 35.373 0 01-4.732 1.442l-1.168 7.204-5.321.523-2.523-6.853a35.604 35.604 0 01-4.47-.426l-3.816 6.251-5.122-1.509.266-7.298a34.916 34.916 0 01-4.362-2.292l-5.962 4.286-4.125-3.363 3.103-6.625a35.368 35.368 0 01-2.854-3.439l-7.216 1.794-2.538-4.664 5.461-5.024a33.99 33.99 0 01-1.442-4.697l-7.261-1.139-.505-5.279 6.907-2.521c.051-1.49.198-2.969.443-4.433l-6.296-3.772 1.534-5.086 7.354.244a34.514 34.514 0 012.327-4.335zm10.853 44.78c14.614 10.325 34.924 6.918 45.365-7.609 10.439-14.526 7.056-34.676-7.556-45-14.616-10.327-34.928-6.918-45.367 7.608-10.44 14.526-7.058 34.674 7.558 45.001z"/><path d="M165.569 637.223c13.929 9.841 33.357 6.583 43.309-7.265 9.95-13.845 6.716-33.12-7.213-42.961-13.931-9.843-33.362-6.582-43.313 7.264-9.951 13.848-6.714 33.119 7.217 42.962zm34.02-47.338c12.326 8.71 15.192 25.766 6.385 38.02-8.808 12.256-26.003 15.139-38.33 6.429-12.329-8.711-15.195-25.767-6.387-38.022 8.808-12.254 26.003-15.137 38.332-6.427zm-312.02-54.739l1.318 1.246c2.091 1.979 5.355 2.301 7.673.583 2.996-2.216 3.16-6.482.581-8.925l-1.176-1.112a3.64 3.64 0 01.266-5.52 75.758 75.758 0 012.641-1.983c1.773-1.275 4.266-.748 5.357 1.131l.92 1.585c1.443 2.482 4.48 3.703 7.194 2.706 3.497-1.29 4.869-5.343 3.087-8.408l-.806-1.389c-1.12-1.925-.26-4.402 1.83-5.231a83.364 83.364 0 013.091-1.154c2.062-.726 4.3.478 4.81 2.586l.469 1.924c.757 3.12 3.95 5.049 7.097 4.291 2.523 1.782 5.93-.506 5.203-3.497l-1.24-5.106c-.526-2.16 1.001-4.295 3.232-4.509a82.47 82.47 0 013.29-.251c2.185-.123 3.994 1.66 3.886 3.827l-.099 1.972c-.158 3.206 2.357 5.954 5.588 6.106 3.231.148 6.005-2.353 6.164-5.56l.08-1.61c.11-2.221 2.177-3.844 4.377-3.426a83.05 83.05 0 013.233.68c2.127.493 3.357 2.708 2.636 4.761l-.66 1.883c-1.063 3.035.57 6.375 3.623 7.421l.001-.001c3.056 1.048 6.425-.578 7.488-3.612l.53-1.516c.736-2.103 3.182-3.085 5.174-2.065.974.497 1.94 1.016 2.9 1.558a3.643 3.643 0 011.176 5.307l-1.16 1.614a5.82 5.82 0 001.366 8.14c2.633 1.86 6.326 1.24 8.207-1.377l.938-1.305c1.303-1.813 3.923-2.07 5.545-.537a77 77 0 012.343 2.301c1.522 1.555 1.345 4.083-.375 5.425l-1.444 1.128c-2.274 1.773-3.07 4.936-1.69 7.454 1.774 3.252 6.007 4.01 8.817 1.819l1.281-.998c1.766-1.379 4.353-.89 5.473 1.038a84.89 84.89 0 011.59 2.872c1.01 1.919.122 4.293-1.905 5.1l-1.867.743c-3.005 1.194-4.486 4.611-3.285 7.589 1.198 2.981 4.636 4.439 7.641 3.245l1.492-.594c2.086-.832 4.428.361 4.954 2.525a83.87 83.87 0 01.707 3.195c.426 2.126-1.098 4.159-3.273 4.364l-1.982.19c-3.221.309-5.607 3.176-5.306 6.37.303 3.197 3.186 5.558 6.41 5.251l1.604-.153c2.233-.213 4.14 1.582 4.032 3.805a83.435 83.435 0 01-.224 3.269c-.193 2.162-2.231 3.687-4.38 3.283l-1.963-.374c-3.177-.606-6.278 1.478-6.896 4.631-.617 3.151 1.477 6.228 4.652 6.832l1.595.305c2.2.42 3.521 2.677 2.783 4.784a78.319 78.319 0 01-1.149 3.075c-.8 2.02-3.189 2.917-5.129 1.922l-1.78-.91c-2.875-1.468-6.441-.335-7.93 2.52-1.486 2.857-.352 6.392 2.52 7.862l1.433.733c1.982 1.011 2.622 3.54 1.325 5.345l-.026.035a79.575 79.575 0 01-1.978 2.638c-1.337 1.706-3.874 1.882-5.448.394l-1.44-1.364c-2.338-2.213-6.08-2.122-8.316.204-2.236 2.324-2.151 6.039.186 8.251l1.174 1.113a3.645 3.645 0 01-.265 5.523 82.5 82.5 0 01-2.638 1.982c-1.774 1.276-4.268.747-5.36-1.13l-1.003-1.731c-1.613-2.779-5.227-3.737-8.03-2.129-2.806 1.608-3.78 5.196-2.166 7.978l.807 1.385c1.118 1.929.257 4.405-1.83 5.233a82.832 82.832 0 01-3.091 1.154c-2.06.724-4.299-.479-4.81-2.587l-.468-1.924c-.759-3.117-3.952-5.046-7.098-4.289-2.523-1.783-5.93.507-5.205 3.496l1.24 5.105c.526 2.162-1 4.297-3.231 4.511a87.847 87.847 0 01-3.29.251c-2.181.121-3.991-1.661-3.885-3.829l.09-1.805c.141-2.868-1.743-5.524-4.568-6.14-3.642-.79-7 1.889-7.173 5.426l-.081 1.609c-.108 2.224-2.176 3.846-4.378 3.43a81.238 81.238 0 01-3.231-.682c-2.128-.493-3.359-2.71-2.638-4.761l.612-1.748c.937-2.678-.089-5.71-2.57-7.103-3.282-1.846-7.312-.213-8.494 3.16l-.532 1.516c-.736 2.104-3.182 3.084-5.174 2.065a88.397 88.397 0 01-2.899-1.561 3.642 3.642 0 01-1.175-5.307l1.16-1.613a5.821 5.821 0 00-1.368-8.139c-2.633-1.86-6.325-1.242-8.205 1.375l-.938 1.304c-1.302 1.813-3.924 2.069-5.548.538a75.905 75.905 0 01-2.34-2.302 3.642 3.642 0 01.374-5.427l1.443-1.124c2.274-1.776 3.07-4.936 1.693-7.456-1.777-3.251-6.011-4.01-8.819-1.817l-1.281.997c-1.767 1.379-4.356.892-5.472-1.038a83.888 83.888 0 01-1.591-2.872c-1.01-1.922-.122-4.293 1.907-5.099l1.708-.679c2.687-1.069 4.344-3.882 3.739-6.687-.78-3.619-4.623-5.529-7.939-4.211l-1.491.594c-2.085.829-4.43-.362-4.953-2.525a77.848 77.848 0 01-.707-3.196c-.427-2.126 1.095-4.158 3.274-4.366l1.811-.174c2.879-.276 5.267-2.513 5.483-5.373.279-3.694-2.864-6.602-6.416-6.263l-1.606.153c-2.232.213-4.14-1.584-4.031-3.804.053-1.09.127-2.179.224-3.267.195-2.166 2.232-3.69 4.381-3.283l1.962.372c3.177.607 6.279-1.479 6.897-4.633 1.758-2.446.381-5.871-2.59-6.437l-3.658-.697c-2.2-.419-3.52-2.68-2.783-4.783a83.287 83.287 0 011.148-3.078c.804-2.019 3.189-2.913 5.132-1.922l1.781.911c3.171 1.619 7.182.073 8.318-3.457.879-2.733-.495-5.688-3.061-7l-1.283-.655c-1.983-1.014-2.621-3.543-1.324-5.347l.026-.036a78.004 78.004 0 011.977-2.636c1.334-1.707 3.87-1.881 5.444-.39zm88.603 2.729c-11.06-6.749-23.697-9.243-35.844-7.822l3.134 18.651c7.325-.667 14.876.803 21.62 4.604l11.09-15.433zm6.209 4.387l-11.091 15.433a36.454 36.454 0 0111.445 18.757l18.804-3.151a55.217 55.217 0 00-19.158-31.039zM2.66 580.789l-18.868 3.163a36.457 36.457 0 01-5.544 20.689l15.498 10.951c7.009-10.679 9.872-22.927 8.914-34.803zm-43.918 58.886c11.514-2.525 22.27-8.637 30.419-18.02l-15.579-11.007c-4.992 5.22-11.265 8.722-17.971 10.374l3.131 18.653zm-41.417-6.891c10.462 6.386 22.333 8.961 33.866 8.018l-3.144-18.716c-6.694.254-13.497-1.274-19.63-4.735l-11.092 15.433zm10.99-21.808c14.254 10.07 34.055 6.748 44.235-7.418 10.177-14.161 6.88-33.804-7.372-43.874-14.25-10.067-34.055-6.747-44.232 7.414-10.18 14.166-6.879 33.811 7.37 43.878zm-17.199 17.421l11.091-15.433a36.414 36.414 0 01-10.922-16.852l-18.87 3.162a55.197 55.197 0 0018.701 29.123zm-20.091-36.566l18.805-3.153a36.422 36.422 0 014.024-20.229l-15.581-11.008a55.193 55.193 0 00-7.248 34.39zm27.03-29.718a37.05 37.05 0 0117.912-11.951l-3.142-18.714c-11.635 2.978-22.378 9.66-30.269 19.715l15.5 10.95zM5.842 377.888l.373.352c.592.56 1.515.65 2.171.165a1.65 1.65 0 00.164-2.525l-.332-.315a1.031 1.031 0 01.075-1.562c.246-.192.495-.379.748-.56a1.047 1.047 0 011.515.32l.26.449c.41.701 1.268 1.046 2.036.765a1.653 1.653 0 00.873-2.379l-.227-.394a1.035 1.035 0 01.517-1.48c.29-.114.583-.223.876-.326a1.042 1.042 0 011.36.732l.133.544a1.666 1.666 0 002.008 1.213c.713.505 1.677-.143 1.472-.989l-.351-1.444a1.04 1.04 0 01.914-1.276c.31-.03.62-.054.932-.071.619-.034 1.13.47 1.1 1.083l-.03.558a1.659 1.659 0 001.581 1.727 1.67 1.67 0 001.745-1.572l.022-.457a1.046 1.046 0 011.238-.97c.306.058.61.122.915.193.6.139.95.767.745 1.346l-.185.533a1.65 1.65 0 001.024 2.1v-.001a1.675 1.675 0 002.119-1.022l.15-.428c.208-.595.9-.873 1.464-.584.275.14.549.288.82.441a1.03 1.03 0 01.333 1.502l-.328.456a1.646 1.646 0 00.387 2.303 1.68 1.68 0 002.322-.389l.265-.369a1.048 1.048 0 011.57-.151c.225.212.446.429.662.651.43.44.38 1.155-.106 1.534l-.41.32c-.642.502-.868 1.396-.478 2.109.502.92 1.7 1.135 2.495.515l.361-.282a1.05 1.05 0 011.55.293c.154.269.304.539.449.813a1.036 1.036 0 01-.54 1.443l-.528.21a1.655 1.655 0 00-.93 2.148 1.67 1.67 0 002.162.919l.423-.168a1.041 1.041 0 011.4.714c.074.3.14.601.201.903a1.04 1.04 0 01-.926 1.235l-.56.053a1.667 1.667 0 00-1.502 1.803 1.662 1.662 0 001.814 1.486l.455-.043c.632-.06 1.17.448 1.14 1.076a23.94 23.94 0 01-.063.925 1.046 1.046 0 01-1.24.928l-.554-.105a1.67 1.67 0 00-1.95 1.31 1.654 1.654 0 001.315 1.933l.451.086c.622.12.997.759.788 1.354-.102.292-.21.581-.325.869a1.05 1.05 0 01-1.45.545l-.505-.258a1.68 1.68 0 00-2.243.713c-.42.808-.1 1.808.713 2.223l.406.207c.56.287.741 1.002.374 1.513l-.007.009c-.182.254-.369.503-.56.747a1.049 1.049 0 01-1.541.112l-.407-.387a1.68 1.68 0 00-2.354.058 1.646 1.646 0 00.053 2.334l.332.315a1.03 1.03 0 01-.075 1.563c-.246.192-.495.379-.748.56a1.05 1.05 0 01-1.516-.319l-.284-.49a1.674 1.674 0 00-2.272-.602 1.651 1.651 0 00-.613 2.257l.228.392a1.034 1.034 0 01-.518 1.48c-.29.114-.582.224-.875.326a1.042 1.042 0 01-1.36-.732l-.133-.544a1.667 1.667 0 00-2.008-1.215c-.714-.505-1.677.144-1.473.989l.351 1.444a1.04 1.04 0 01-.915 1.277c-.308.03-.619.052-.93.072a1.04 1.04 0 01-1.1-1.084l.026-.511c.04-.81-.492-1.562-1.291-1.736a1.67 1.67 0 00-2.03 1.535l-.023.456a1.044 1.044 0 01-1.237.97 24 24 0 01-.915-.193 1.034 1.034 0 01-.746-1.347l.173-.495c.265-.757-.025-1.615-.727-2.009a1.677 1.677 0 00-2.404.894l-.15.428a1.05 1.05 0 01-1.465.585 29.373 29.373 0 01-.82-.442 1.03 1.03 0 01-.332-1.501l.328-.457a1.647 1.647 0 00-.386-2.303 1.679 1.679 0 00-2.322.39l-.265.369a1.05 1.05 0 01-1.57.152 19.934 19.934 0 01-.662-.652 1.03 1.03 0 01.106-1.534l.409-.318c.643-.503.867-1.397.478-2.11a1.674 1.674 0 00-2.494-.515l-.363.283c-.5.39-1.232.251-1.548-.294a25.689 25.689 0 01-.45-.812 1.036 1.036 0 01.54-1.443l.482-.192c.761-.302 1.23-1.097 1.059-1.892a1.666 1.666 0 00-2.245-1.191l-.423.168a1.044 1.044 0 01-1.401-.715c-.073-.3-.14-.601-.2-.904a1.041 1.041 0 01.925-1.236l.512-.048c.815-.078 1.49-.711 1.55-1.521a1.66 1.66 0 00-1.814-1.772l-.455.043a1.037 1.037 0 01-1.14-1.076c.015-.309.036-.617.063-.924a1.046 1.046 0 011.239-.929l.554.105a1.67 1.67 0 001.952-1.311 1.162 1.162 0 00-.734-1.821l-1.035-.197a1.033 1.033 0 01-.787-1.354c.102-.291.21-.581.324-.87a1.052 1.052 0 011.453-.544l.504.257a1.676 1.676 0 002.353-.978c.248-.773-.14-1.609-.866-1.98l-.363-.187a1.026 1.026 0 01-.375-1.512l.007-.01c.183-.253.369-.503.56-.746a1.052 1.052 0 011.543-.108zm25.068.771a15.886 15.886 0 00-10.14-2.212l.886 5.276a10.49 10.49 0 016.116 1.302l3.138-4.366zm1.756 1.242l-3.137 4.366a10.313 10.313 0 013.238 5.307l5.32-.891a15.615 15.615 0 00-5.42-8.782zm5.737 10.9l-5.338.896a10.321 10.321 0 01-1.569 5.853l4.385 3.098a15.605 15.605 0 002.522-9.847zm-12.424 16.661a15.876 15.876 0 008.605-5.099l-4.407-3.114a10.497 10.497 0 01-5.084 2.936l.886 5.277zm-11.718-1.95a15.862 15.862 0 009.58 2.268l-.89-5.294a10.464 10.464 0 01-5.553-1.34l-3.137 4.366zm5.794-9.907a4.377 4.377 0 006.07-1.018 4.294 4.294 0 00-1.01-6.022 4.378 4.378 0 00-6.071 1.019 4.293 4.293 0 001.011 6.021zm-7.551 8.665l3.137-4.366a10.306 10.306 0 01-3.09-4.768l-5.337.895a15.614 15.614 0 005.29 8.239zM6.82 393.926l5.32-.892a10.303 10.303 0 011.14-5.723l-4.409-3.115a15.608 15.608 0 00-2.05 9.73zm7.647-8.409a10.483 10.483 0 015.068-3.381l-.89-5.295a15.852 15.852 0 00-8.562 5.578l4.384 3.098zm17.157 225.398c1.027-1.31 2.985-1.445 4.203-.288l1.017.964c1.62 1.53 4.129 1.779 5.919.463 2.297-1.7 2.41-4.975.42-6.859l-.914-.862c-1.244-1.179-1.164-3.187.19-4.246.67-.513 1.357-1.025 2.034-1.523a2.88 2.88 0 014.133.89l.708 1.223c1.123 1.912 3.473 2.859 5.553 2.096 2.695-.979 3.737-4.095 2.359-6.445l-.62-1.075a2.786 2.786 0 011.389-4.016 54.091 54.091 0 012.383-.879 2.845 2.845 0 013.71 1.997l.37 1.476c.586 2.405 3.055 3.897 5.483 3.32 1.94 1.371 4.558-.376 3.993-2.671l-.965-3.93a2.81 2.81 0 012.473-3.465 61.318 61.318 0 012.543-.183c1.684-.087 3.076 1.291 3.005 2.959l-.074 1.515c-.11 2.459 1.838 4.582 4.318 4.704 2.508.119 4.628-1.796 4.736-4.259l.061-1.237c.081-1.71 1.67-2.953 3.37-2.62.832.153 1.652.341 2.48.518 1.649.39 2.603 2.102 2.062 3.677l-.51 1.438c-.809 2.334.448 4.91 2.813 5.724 2.36.807 4.942-.431 5.759-2.762l.406-1.155c.566-1.621 2.446-2.366 3.99-1.583.742.391 1.484.791 2.23 1.216 1.455.824 1.897 2.717.918 4.08l-.881 1.226c-1.449 2.017-.972 4.826 1.071 6.269 2.04 1.442 4.879.976 6.329-1.041l.712-.99c.996-1.386 3.017-1.581 4.269-.41a60.93 60.93 0 011.808 1.785 2.792 2.792 0 01-.281 4.173l-1.105.857c-1.744 1.353-2.348 3.797-1.286 5.722 1.377 2.514 4.643 3.107 6.808 1.431l.984-.764c1.358-1.063 3.349-.671 4.215.804.428.736.838 1.474 1.231 2.22a2.793 2.793 0 01-1.45 3.915l-1.433.569c-2.31.908-3.444 3.536-2.516 5.821.933 2.299 3.593 3.433 5.894 2.514l1.155-.442c1.608-.642 3.414.288 3.83 1.944.193.818.382 1.635.55 2.465.334 1.627-.833 3.19-2.523 3.348l-1.521.135c-2.481.234-4.31 2.425-4.073 4.887.25 2.453 2.474 4.286 4.952 4.049l1.238-.113c1.723-.16 3.193 1.227 3.122 2.941-.034.84-.097 1.677-.166 2.516-.147 1.658-1.709 2.826-3.362 2.512l-1.523-.306c-2.449-.459-4.824 1.133-5.297 3.556-.467 2.429 1.155 4.79 3.604 5.261l1.221.237c1.704.333 2.721 2.068 2.163 3.693a84.639 84.639 0 01-.875 2.361c-.617 1.546-2.456 2.234-3.951 1.47l-1.372-.71c-2.216-1.137-4.968-.275-6.11 1.909-1.133 2.2-.254 4.928 1.961 6.057l1.113.568c1.525.789 2.031 2.725 1.032 4.115l-.017.024a56.027 56.027 0 01-1.514 2.023c-1.037 1.312-2.992 1.444-4.209.291l-1.101-1.051c-1.819-1.707-4.699-1.639-6.414.138-1.722 1.789-1.642 4.629.169 6.344l.898.861a2.792 2.792 0 01-.183 4.243c-.677.52-1.339 1.029-2.032 1.512-1.364.982-3.291.569-4.129-.874l-.786-1.337c-1.241-2.141-4.038-2.882-6.192-1.661a4.465 4.465 0 00-1.644 6.129l.618 1.068a2.79 2.79 0 01-1.392 4.02c-.794.313-1.577.601-2.381.887-1.587.548-3.311-.386-3.716-2.003l-.364-1.491c-.595-2.393-3.062-3.889-5.47-3.315-1.951-1.379-4.576.37-4.01 2.683l.966 3.924c.413 1.664-.763 3.301-2.487 3.461a87.45 87.45 0 01-2.522.191c-1.69.084-3.087-1.295-3.011-2.962l.065-1.389c.104-2.197-1.36-4.247-3.538-4.725-2.803-.62-5.388 1.429-5.504 4.145l-.06 1.241c-.074 1.705-1.676 2.96-3.371 2.62a49.443 49.443 0 01-2.487-.531 2.817 2.817 0 01-2.048-3.668l.475-1.342c.71-2.052-.089-4.385-2.012-5.47-2.53-1.424-5.626-.179-6.527 2.414l-.41 1.157c-.562 1.624-2.438 2.37-3.978 1.573a49.331 49.331 0 01-2.24-1.198c-1.47-.827-1.898-2.728-.924-4.084l.893-1.242c1.445-2.011.955-4.824-1.08-6.262-2.031-1.435-4.871-.974-6.316 1.036l-.721 1.003c-.998 1.39-3.024 1.583-4.269.406a53.274 53.274 0 01-1.815-1.782c-1.186-1.193-1.041-3.139.272-4.167l1.12-.867c1.745-1.354 2.341-3.785 1.282-5.722-1.385-2.501-4.65-3.097-6.803-1.425l-.977.757c-1.371 1.064-3.37.683-4.232-.795a69.328 69.328 0 01-1.228-2.227 2.795 2.795 0 011.45-3.914l1.326-.516c2.062-.814 3.331-2.971 2.858-5.133-.607-2.782-3.577-4.255-6.13-3.251l-1.147.443c-1.607.636-3.412-.284-3.823-1.945-.2-.814-.382-1.633-.55-2.464-.334-1.636.832-3.189 2.508-3.348l1.4-.131c2.215-.204 4.048-1.912 4.21-4.12.203-2.832-2.225-5.075-4.962-4.824l-1.236.112c-1.722.162-3.195-1.227-3.118-2.929.038-.844.093-1.682.164-2.525.145-1.654 1.72-2.831 3.363-2.505l1.515.294c2.448.466 4.833-1.127 5.306-3.549 1.35-1.877.282-4.518-2.008-4.955l-2.825-.545c-1.697-.335-2.718-2.072-2.152-3.69.272-.796.56-1.576.872-2.365.611-1.549 2.442-2.231 3.948-1.47l1.372.709c2.447 1.259 5.534.079 6.401-2.629.673-2.107-.392-4.381-2.374-5.393l-.991-.51c-1.525-.788-2.025-2.739-1.036-4.115l.02-.029a54.17 54.17 0 011.513-2.02zm27.535 49.14l17.491-10.533-19.841-4.814a25.075 25.075 0 002.35 15.347zm11.313-33.779l10.562 17.353 4.914-19.71a25.645 25.645 0 00-15.476 2.357zm7.15 19.4l-10.567-17.337a25.332 25.332 0 00-5.848 5.829c-1.516 2.109-2.668 4.359-3.428 6.685l19.843 4.823zm-27.63-19.003a3.987 3.987 0 00.941 5.585c1.82 1.285 4.345.856 5.635-.938a3.994 3.994 0 00-.935-5.601c-1.817-1.284-4.344-.852-5.642.954zm29.884-12.086c-.358-2.192-2.448-3.669-4.65-3.286-2.207.367-3.692 2.435-3.317 4.616.362 2.177 2.452 3.654 4.65 3.285 2.195-.364 3.68-2.431 3.317-4.615zm24.099 3.528a4.054 4.054 0 00-5.632.939 3.976 3.976 0 00.943 5.585 4.06 4.06 0 005.63-.941 3.98 3.98 0 00-.941-5.583zm-7.42 10.133a24.612 24.612 0 00-6.733-3.379l-4.907 19.701 17.506-10.521a24.96 24.96 0 00-5.866-5.801zm-3.385 42.945L82.6 653.871l-4.9 19.687a25.51 25.51 0 0015.47-2.365zm18.37-5.133c-1.815-1.283-4.339-.846-5.632.953a3.988 3.988 0 00.929 5.59c1.817 1.284 4.345.85 5.639-.95a3.992 3.992 0 00-.936-5.593zm-9.104-2.761a25.229 25.229 0 003.422-6.669l-19.839-4.818 10.56 17.334a25.274 25.274 0 005.857-5.847zm2.042-25.875l-17.521 10.525 19.867 4.825a24.957 24.957 0 00-2.346-15.35zm14.933 5.685c-.378-2.181-2.453-3.647-4.65-3.285-2.206.374-3.688 2.436-3.319 4.619.365 2.187 2.44 3.653 4.649 3.285a4.025 4.025 0 003.32-4.619zM82.596 683.74c.37 2.189 2.447 3.657 4.657 3.291a4.024 4.024 0 003.324-4.625c-.376-2.186-2.453-3.654-4.657-3.291-2.201.383-3.681 2.443-3.324 4.625zM58.5 680.224a4.058 4.058 0 005.63-.954 3.976 3.976 0 00-.935-5.58c-1.82-1.285-4.346-.867-5.64.934a3.994 3.994 0 00.945 5.6zm8.603-10.994c2.098 1.482 4.36 2.631 6.713 3.386l4.912-19.7-17.515 10.516c1.586 2.199 3.55 4.145 5.89 5.798zm-24.04-14.008c.366 2.178 2.454 3.653 4.648 3.283 2.21-.377 3.695-2.444 3.32-4.619-.356-2.188-2.443-3.663-4.647-3.284a4.01 4.01 0 00-3.32 4.62zm-10.38 72.858l-3.19-4.369 2.517-3.037 4.937 2.266a25.43 25.43 0 012.572-2.1l-1.326-5.302 3.483-1.873 3.739 4.003a26.254 26.254 0 013.504-1.067l.865-5.335 3.94-.384 1.87 5.07c1.11.035 2.214.142 3.306.317l2.827-4.629 3.792 1.116-.195 5.403a26.274 26.274 0 013.228 1.699l4.414-3.175 3.053 2.493-2.296 4.903c.75.796 1.457 1.646 2.112 2.549l5.345-1.328 1.88 3.451-4.045 3.721a25.727 25.727 0 011.069 3.474l5.374.844.378 3.91-5.117 1.867a25.783 25.783 0 01-.326 3.281l4.659 2.796-1.135 3.766-5.445-.18a25.78 25.78 0 01-1.72 3.208l3.19 4.371-2.518 3.035-4.937-2.265a25.913 25.913 0 01-2.573 2.099l1.327 5.301-3.483 1.874-3.74-4.005a26.177 26.177 0 01-3.504 1.069l-.863 5.335-3.94.385-1.87-5.071a26.246 26.246 0 01-3.306-.316l-2.827 4.629-3.793-1.117.196-5.404a26.082 26.082 0 01-3.23-1.699l-4.413 3.177-3.053-2.492 2.294-4.904a26.013 26.013 0 01-2.11-2.546l-5.346 1.326-1.88-3.452 4.045-3.72a25.295 25.295 0 01-1.067-3.475l-5.375-.844-.377-3.909 5.115-1.867a25.48 25.48 0 01.329-3.281l-4.66-2.796 1.136-3.764 5.445.181a25.582 25.582 0 011.719-3.213zm13.258 13.913c-.059-1.605.624-3.622 1.173-4.585l-9.156-6.469c-3.104 4.56-3.705 8.54-3.257 12.982l11.24-1.928zm6.329 2.619a3.772 3.772 0 005.224-.877 3.699 3.699 0 00-.87-5.181 3.77 3.77 0 00-5.224.875 3.7 3.7 0 00.87 5.183zm-13.004-15.449l9.192 6.494c.848-.751 2.667-1.983 4.283-2.327L50.9 722.195c-4.454.886-8.823 3.552-11.634 6.968zm13.78-6.848l2.09 11.336c1.331.004 2.198-.012 4.111 1.116l6.743-9.382c-4.704-2.929-8.697-3.526-12.944-3.07zm13.874 3.671l-6.742 9.382c1.727 1.387 2.02 2.353 2.478 3.855l11.74-1.911c-1.041-4.41-3.915-8.701-7.476-11.326zm7.653 12.887l-11.64 1.924c.123 1.52-.429 3.434-.882 4.464l9.72 6.867c2.335-3.752 3.443-8.759 2.802-13.255zm-4.07 15.06l-9.681-6.84c-.733.833-2.235 1.996-3.655 2.489l1.916 11.668c4.422-1.015 8.086-2.92 11.42-7.317zm-12.962 7.589l-1.87-11.486c-1.81.223-3.38.094-5.28-1.054l-6.727 9.362c3.67 2.476 9.116 3.831 13.877 3.178zm-14.752-3.854l6.728-9.362c-1.68-1.452-2.443-2.821-2.832-4.334L35.7 745.999c.852 4.391 2.77 8.203 7.089 11.669z"/></g></svg>