<svg width="187" height="46" viewBox="0 0 187 46" fill="none" xmlns="http://www.w3.org/2000/svg"><path d="M52.285 16.323a6.817 6.817 0 01-1.363 4.142c-.909 1.235-2.094 2.347-3.554 3.338-1.46.991-3.1 1.852-4.917 2.583a51.32 51.32 0 01-5.453 1.851 55.968 55.968 0 01-5.209 1.194c-1.655.293-3.034.488-4.138.585-.26.552-.479.999-.657 1.34a9.818 9.818 0 01-.998 1.56l-.584.755c-.065.065-.195.187-.39.365a1.04 1.04 0 01-.73.268 2.031 2.031 0 01-.462-.194c-.178-.098-.268-.26-.268-.488 0-.032.049-.146.146-.34a36.528 36.528 0 00.828-1.78 7.27 7.27 0 00.39-1.145l-1.461.195c-.098 0-.65.065-1.655.195a134.512 134.512 0 00-8.326 1.364 55.22 55.22 0 00-4.6 1.096c-1.412.407-2.588.845-3.53 1.316-.94.471-1.411.967-1.411 1.486 0 .65.333 1.178.998 1.584.665.406 1.469.73 2.41.975.941.243 1.914.43 2.92.56 1.007.13 1.867.227 2.58.292-.162.195-.421.35-.778.463-.357.114-.73.195-1.12.244-.39.05-.754.082-1.095.097-.34.017-.56.025-.657.025-.487 0-1.241-.073-2.264-.22a15.198 15.198 0 01-3.067-.779 9.998 9.998 0 01-2.701-1.462C.389 37.188 0 36.448 0 35.571c0-.747.544-1.43 1.631-2.046 1.088-.618 2.467-1.186 4.138-1.706a55.406 55.406 0 015.55-1.389c2.029-.406 4-.755 5.915-1.047 1.915-.293 3.643-.536 5.185-.73 1.541-.196 2.653-.342 3.334-.44.455-1.169.844-2.485 1.169-3.946a57.23 57.23 0 00.778-4.216c.195-1.348.341-2.55.438-3.606.098-1.055.146-1.762.146-2.12 0-.162.009-.365.025-.608.016-.244.024-.545.024-.902 0-.617-.032-1.323-.097-2.12a13.511 13.511 0 00-.39-2.314 7.582 7.582 0 00-.876-2.07 3.165 3.165 0 00-1.607-1.34 14.812 14.812 0 00-3.042-.854c-1.055-.178-2.15-.3-3.286-.365a4.13 4.13 0 01-.536-.049 2.134 2.134 0 01-1.266-.633 1.189 1.189 0 01-.34-.731c.227-.195.462-.373.705-.536.244-.163.585-.3 1.023-.414.438-.114 1.022-.203 1.753-.268.73-.065 1.712-.098 2.945-.098.098 0 .357.009.779.025.422.016.876.024 1.363.024s.95.008 1.387.025c.438.016.722.024.852.024.195 0 .381-.048.56-.146.178-.098.389-.211.632-.341.244-.13.52-.26.828-.39A3.52 3.52 0 0130.815 0c.26.195.48.471.658.829.178.357.43.617.754.78 1.007.422 2.2.844 3.578 1.266 1.38.423 2.808.901 4.285 1.437a53.675 53.675 0 014.405 1.828 18.014 18.014 0 013.92 2.46 11.944 11.944 0 012.799 3.339c.714 1.266 1.071 2.727 1.071 4.384zm-3.164 1.024c0-1.527-.47-2.908-1.412-4.142a13.238 13.238 0 00-3.432-3.143 17.856 17.856 0 00-4.26-1.998c-1.493-.471-2.79-.707-3.894-.707-.65 0-1.347.26-2.094.78a7.925 7.925 0 00-1.899 1.851 40.89 40.89 0 01-.219 4.045 49.226 49.226 0 01-.682 4.556 53.884 53.884 0 01-1.168 4.775 32.452 32.452 0 01-1.728 4.605c.714-.097 1.72-.268 3.018-.511a53.64 53.64 0 004.26-1 58.18 58.18 0 004.698-1.51 29.184 29.184 0 004.357-1.997c1.315-.748 2.385-1.584 3.213-2.51.828-.926 1.242-1.957 1.242-3.094zm5.791 6.104a2.281 2.281 0 01-.049-.442v-.442c0-1.31.418-2.505 1.252-3.585.834-1.081 1.905-2.096 3.214-3.045a7.758 7.758 0 00-.123-.516 1.963 1.963 0 01-.073-.516c0-.262.081-.475.245-.638.164-.164.474-.246.932-.246.687 0 1.21.303 1.57.909.36.605.663 1.318.908 2.136.245.819.483 1.637.712 2.456.228.819.556 1.44.981 1.867.13.13.343.302.638.515.294.213.597.442.908.688.31.245.58.474.81.687.228.213.343.369.343.467 0 .36-.238.614-.712.761-.474.147-.858.221-1.153.221-.49 0-.891-.073-1.202-.22a2.537 2.537 0 01-.785-.566 6.198 6.198 0 01-.614-.786 8.05 8.05 0 00-.637-.834c-.85.654-1.652 1.268-2.404 1.841-.753.574-1.62.86-2.601.86-.524 0-.998-.18-1.423-.54-.426-.36-.671-.704-.737-1.032zm6.084-3.683c0-.524-.13-1.032-.392-1.523a20.74 20.74 0 00-.834-1.424c-.327 0-.662.196-1.006.59a6.24 6.24 0 00-.907 1.4c-.262.54-.482 1.071-.663 1.595-.18.524-.27.917-.27 1.18 0 .032.009.122.025.27.017.146.05.294.098.441.05.148.115.279.196.393a.375.375 0 00.32.172c.392 0 .784-.123 1.177-.369.392-.245.76-.54 1.104-.884.343-.344.621-.687.834-1.031.212-.343.318-.614.318-.81zm13.2.737c-1.244 0-1.866.655-1.866 1.964 0 .557.05.983.148 1.277a3.1 3.1 0 01.147.983c0 .294-.246.442-.736.442-.36 0-.638-.107-.834-.32a2.035 2.035 0 01-.442-.81 5.226 5.226 0 01-.196-1.007 10.163 10.163 0 01-.049-.957v-.884c0-.164-.049-.254-.147-.27a3.393 3.393 0 00-.49-.025c-.59.033-.998.066-1.227.098a6.468 6.468 0 01-.883.05c-.425 0-.638-.082-.638-.246 0-.295.18-.516.54-.663.36-.147.76-.287 1.202-.418.442-.13.85-.278 1.227-.442.376-.164.564-.409.564-.737v-.294c0-.328-.049-.671-.147-1.032-.098-.36-.392-.54-.883-.54-.163 0-.31.04-.442.123-.13.081-.327.122-.589.122-.392 0-.589-.18-.589-.54 0-.131.123-.336.368-.614.246-.278.54-.54.883-.786.344-.246.687-.467 1.03-.663.345-.196.63-.295.86-.295.36 0 .662.098.907.295.245.196.433.425.564.688.131.261.221.532.27.81.05.278.074.516.074.712v.884c0 .786.098 1.244.294 1.375.197.131.491.197.883.197.655 0 1.146-.188 1.473-.565.327-.377.523-1.057.588-2.039.066-.687.27-1.334.614-1.94.343-.606.695-.908 1.055-.908h.049c.163 0 .335.065.515.196s.27.311.27.54l-.49 2.996a32.785 32.785 0 00-.295 1.99 23.122 23.122 0 00-.147 2.775c0 .785.049 1.637.147 2.554a.92.92 0 00.27.466c.147.148.22.287.22.418 0 .098-.04.303-.122.614-.082.31-.27.483-.565.515-.687 0-1.136-.196-1.349-.589-.213-.393-.319-.884-.319-1.473v-.835c0-.426-.008-.835-.024-1.228a3.213 3.213 0 00-.196-1.031 1.475 1.475 0 00-.516-.688c-.23-.164-.556-.245-.982-.245zm18.203.49l-1.177 2.506c-.131.262-.246.409-.344.442-.098.032-.262.049-.49.049-.262 0-.508-.066-.737-.197-.228-.13-.376-.343-.441-.638l-.638-3.34a4.676 4.676 0 01-.172-.467c-.082-.245-.172-.368-.27-.368-.13 0-.27.131-.417.393-.147.262-.294.556-.442.884a14.82 14.82 0 00-.392.957c-.114.312-.172.516-.172.614 0 .131-.024.41-.073.835a9.497 9.497 0 00-.074.835c-.098.36-.335.622-.711.786-.376.163-.76.245-1.153.245s-.728-.098-1.006-.294c-.278-.197-.45-.508-.515-.933 0-.098-.025-.32-.074-.663a43.957 43.957 0 01-.147-1.154c-.05-.426-.098-.819-.147-1.18-.05-.36-.09-.589-.123-.687 0-.065-.049-.278-.147-.638a16.93 16.93 0 00-.196-.688c-.033-.164-.147-.401-.344-.712-.196-.311-.392-.467-.589-.467-.36 0-.597.18-.711.54-.115.36-.204.745-.27 1.155a7.888 7.888 0 01-.27 1.154c-.114.36-.351.54-.711.54-.164 0-.254-.074-.27-.22a3.462 3.462 0 01-.025-.37c0-.36.082-.834.246-1.424.163-.59.384-1.162.662-1.719a6.195 6.195 0 01.957-1.424c.36-.393.752-.59 1.178-.59.425 0 .801.205 1.128.614.328.41.614.884.859 1.425.245.54.441 1.08.589 1.62.147.54.22.941.22 1.204l.098.049h.098c.23 0 .475-.238.736-.712.262-.475.524-.999.785-1.572.262-.573.54-1.097.835-1.572.294-.474.605-.712.932-.712.262 0 .523.14.785.418.262.278.425.549.49.81l.638 3.291c0 .033.017.05.05.05h.097c.328 0 .598-.205.81-.615.213-.41.417-.851.614-1.326.196-.475.409-.916.637-1.326.23-.41.54-.614.933-.614.228 0 .425.123.588.369.164.245.31.573.442.982.13.41.253.86.368 1.35.114.492.253.983.417 1.474.262.85.49 1.58.687 2.185.196.606.573.909 1.128.909.262 0 .606-.131 1.031-.393.229-.164.532-.434.908-.81.376-.377.728-.566 1.055-.566.163 0 .261.05.294.148.033.098.049.229.049.392 0 .393-.163.72-.491.983-.589.458-1.178.908-1.766 1.35-.59.442-1.227.664-1.914.664a2.86 2.86 0 01-1.153-.246c-.376-.164-.728-.475-1.055-.933a3.208 3.208 0 01-.344-.712 13.254 13.254 0 01-.27-.86 6.175 6.175 0 00-.294-.835 1.322 1.322 0 00-.466-.59l-.343.346zM84.99 13.58c-.065.033-.196.049-.392.049-.197 0-.41.016-.638.049-1.145 0-1.717-.328-1.717-.983v-.098a.667.667 0 01.44-.466c.23-.082.492-.123.786-.123h1.177c.752 0 1.497.033 2.233.098a24.13 24.13 0 002.134.098c1.145 0 2.077-.016 2.797-.049.72-.033 1.292-.073 1.718-.123.425-.049.72-.098.883-.147.163-.049.278-.073.343-.073.262 0 .393.032.393.098v.049c0 .295-.327.54-.982.736-.654.197-1.406.36-2.257.492-.85.13-1.684.22-2.502.27-.818.049-1.39.073-1.717.073l-2.699.05zm17.37 9.822a9.375 9.375 0 01-.785-1.326 16.675 16.675 0 01-1.252-3.389 6.908 6.908 0 01-.22-1.67c0-.327.008-.744.024-1.252a5.65 5.65 0 01.221-1.424c.131-.443.319-.827.564-1.155.246-.327.614-.491 1.105-.491.228 0 .408.213.539.639.131.425.229.957.295 1.596.065.638.13 1.334.196 2.087.065.753.171 1.449.319 2.087.147.639.351 1.171.613 1.596.262.426.622.639 1.08.639.589 0 1.006-.303 1.251-.909.245-.605.45-1.268.613-1.989.164-.72.36-1.383.589-1.989.23-.606.605-.908 1.129-.908s.948.147 1.276.441c.327.295.605.647.834 1.056.229.41.417.852.564 1.327.147.475.319.892.516 1.252.228.393.466.884.711 1.474.245.589.368 1.113.368 1.571 0 .557-.278.835-.834.835-.294 0-.548-.115-.761-.344a6.262 6.262 0 01-.613-.786 6.18 6.18 0 00-.614-.786c-.212-.23-.449-.344-.711-.344l-.098.05c-.36.163-.638.458-.834.883-.196.426-.401.852-.614 1.277a5.048 5.048 0 01-.76 1.13c-.295.327-.736.491-1.325.491a5.306 5.306 0 01-1.816-.319c-.589-.212-1.113-.662-1.57-1.35zm11.923-1.915c0-.687.172-1.408.507-2.16a6.847 6.847 0 011.472-2.088 7.821 7.821 0 012.339-1.572c.915-.41 1.962-.614 3.14-.614h.442c.13 0 .277.017.441.05.262.065.458.245.589.54.13.294.196.49.196.59a.897.897 0 01-.515.49 3.905 3.905 0 01-.859.221 9.9 9.9 0 01-.957.099 2.934 2.934 0 00-.76.122c-.949.328-1.751.753-2.404 1.277-.655.524-.981 1.212-.981 2.063 0 .59.163 1.154.49 1.694.328.54.883.81 1.668.81a1.6 1.6 0 001.105-.417c.31-.278.589-.573.834-.884.245-.31.499-.606.76-.884.262-.279.573-.418.932-.418.557 0 .892.205 1.007.614.114.41.171.794.171 1.155 0 .458-.147.843-.441 1.154-.295.311-.679.58-1.153.81a6.51 6.51 0 01-1.619.515 9.886 9.886 0 01-1.84.172 7.663 7.663 0 01-1.562-.172 4.628 4.628 0 01-1.48-.565 3.438 3.438 0 01-1.088-1.031c-.287-.425-.434-.95-.434-1.57zm23.65-.491l-1.177 2.505c-.131.262-.245.409-.344.442-.098.032-.261.049-.49.049-.262 0-.508-.066-.736-.197-.229-.13-.377-.343-.442-.638l-.638-3.34a4.64 4.64 0 01-.172-.467c-.081-.245-.171-.368-.269-.368-.131 0-.271.131-.418.393-.147.262-.294.556-.441.884-.148.327-.278.646-.393.957-.114.312-.171.516-.171.614 0 .131-.025.41-.074.835a9.408 9.408 0 00-.073.835c-.098.36-.335.622-.712.786-.376.163-.76.245-1.153.245-.392 0-.728-.098-1.006-.294-.278-.197-.45-.508-.515-.933 0-.098-.025-.32-.074-.663a43.568 43.568 0 01-.147-1.154 57.954 57.954 0 00-.147-1.18c-.049-.36-.09-.589-.122-.687 0-.065-.05-.278-.148-.638a16.93 16.93 0 00-.196-.688c-.032-.164-.147-.401-.343-.712-.197-.311-.393-.467-.589-.467-.36 0-.597.18-.712.54-.114.36-.204.745-.269 1.155a7.953 7.953 0 01-.271 1.154c-.114.36-.351.54-.711.54-.164 0-.253-.074-.27-.22a3.524 3.524 0 01-.024-.37c0-.36.081-.834.245-1.424.163-.59.384-1.162.662-1.719a6.213 6.213 0 01.957-1.424c.36-.393.752-.59 1.178-.59.425 0 .801.205 1.128.614.327.41.613.884.859 1.425.245.54.441 1.08.588 1.62.148.54.221.941.221 1.204l.098.049h.098c.229 0 .475-.238.736-.712.262-.475.524-.999.785-1.572.262-.573.54-1.097.834-1.572.294-.474.606-.712.932-.712.262 0 .524.14.785.418.262.278.426.549.491.81l.638 3.291c0 .033.017.05.049.05h.098c.328 0 .597-.205.81-.615.212-.41.417-.851.613-1.326.196-.475.409-.916.638-1.326.229-.41.54-.614.932-.614.229 0 .426.123.589.369.164.245.311.573.441.982.131.41.254.86.369 1.35.114.492.253.983.417 1.474.261.85.49 1.58.687 2.185.196.606.572.909 1.128.909.262 0 .605-.131 1.031-.393.229-.164.532-.434.907-.81.377-.377.728-.566 1.056-.566.163 0 .261.05.294.148.033.098.049.229.049.392 0 .393-.164.72-.491.983-.589.458-1.178.908-1.767 1.35-.588.442-1.226.664-1.913.664-.393 0-.777-.082-1.154-.246-.376-.164-.727-.475-1.054-.933a3.195 3.195 0 01-.344-.712 13.507 13.507 0 01-.27-.86 6.202 6.202 0 00-.294-.835 1.327 1.327 0 00-.466-.59l-.343.346zm-7.409-7.416c-.065.033-.196.049-.393.049-.196 0-.408.016-.638.049-1.144 0-1.717-.328-1.717-.983v-.098a.669.669 0 01.442-.466c.229-.082.49-.123.785-.123h1.177c.752 0 1.496.033 2.232.098.736.065 1.448.098 2.135.098a64.13 64.13 0 002.797-.049 26.048 26.048 0 001.717-.123c.425-.049.719-.098.883-.147.163-.049.278-.073.344-.073.261 0 .392.032.392.098v.049c0 .295-.327.54-.981.736a16.75 16.75 0 01-2.257.492c-.851.13-1.685.22-2.502.27-.818.049-1.391.073-1.718.073l-2.698.05zm22.129 1.719c1.014.098 1.652.426 1.914.982.262.557.392 1.245.392 2.063a6.11 6.11 0 01-.441 2.284 7.062 7.062 0 01-1.202 1.989 5.805 5.805 0 01-1.767 1.4 4.52 4.52 0 01-2.085.516c-1.996 0-2.993-1.163-2.993-3.488 0-.622.106-1.326.319-2.112a10.04 10.04 0 01.883-2.21c.376-.687.818-1.26 1.325-1.718.507-.459 1.071-.688 1.692-.688.164 0 .409.14.736.417.328.278.737.466 1.227.565zm-1.03 4.125a8.52 8.52 0 00-.809-1.277c-.344-.458-.516-.916-.516-1.375 0-.164.025-.343.074-.54.049-.197.155-.377.319-.54a.332.332 0 00-.246-.099c-.261 0-.507.098-.736.295a2.482 2.482 0 00-.589.785 5.102 5.102 0 00-.392 1.13 5.676 5.676 0 00-.147 1.277c0 .623.09 1.204.27 1.744.18.54.483.81.908.81.131 0 .319-.016.564-.049a2.71 2.71 0 00.712-.196 1.87 1.87 0 00.589-.393c.163-.164.245-.393.245-.688a1.639 1.639 0 00-.246-.884zm11.236 25.981a38.748 38.748 0 01-1.447-4.715 34.713 34.713 0 01-.736-4.37 48.98 48.98 0 01-.246-4.421 448.44 448.44 0 01-.025-4.764c0-.262-.13-.475-.392-.639a10.76 10.76 0 00-.883-.49c-.556-.262-1.104-.64-1.644-1.13-.539-.492-.809-1.081-.809-1.769 0-.655.163-1.269.49-1.842a6.7 6.7 0 011.252-1.571c.507-.475 1.055-.9 1.643-1.277a68.92 68.92 0 011.619-1.007c.23-.13.507-.262.834-.393.327-.13.557-.31.687-.54a8.015 8.015 0 011.914-1.793c.752-.507 1.619-.761 2.601-.761.687 0 1.227.13 1.619.393.393.262.703.614.932 1.056.229.442.376.933.442 1.473.065.54.098 1.072.098 1.596 0 1.637-.654 3.045-1.963 4.224-1.308 1.179-3.026 2.145-5.152 2.898a2.518 2.518 0 00-.932 1.277c-.393 1.539-.63 3.2-.711 4.985a54.583 54.583 0 000 5.181c.081 1.67.237 3.2.466 4.592.229 1.392.474 2.497.736 3.316.131.393.147.695.049.908-.098.214-.245.075-.442-.417zm-3.68-23.28c0 .164.025.352.074.565.049.213.122.401.22.565a.994.994 0 00.368.369c.147.081.319.073.515-.025.262-.13.483-.41.663-.835.18-.426.344-.9.491-1.424a25.11 25.11 0 00.392-1.596c.115-.54.237-1.007.368-1.4-.196.131-.458.303-.785.516a6.092 6.092 0 00-.981.81 5.689 5.689 0 00-.859 1.105 3.486 3.486 0 00-.466 1.35zm4.122.295c0 .131.057.295.171.491.115.197.254.279.418.246a5.077 5.077 0 001.913-.565 5.674 5.674 0 001.522-1.154c.425-.458.752-.966.981-1.522.229-.557.311-1.13.245-1.72-.066-.556-.238-.891-.516-1.006-.277-.114-.515-.172-.711-.172-.491 0-.973.205-1.447.614a7.308 7.308 0 00-1.301 1.498 8.918 8.918 0 00-.932 1.793c-.229.605-.343 1.104-.343 1.497zm15.75 22.985c-.621-1.67-1.104-3.241-1.447-4.715a34.713 34.713 0 01-.736-4.37 48.98 48.98 0 01-.246-4.421 449.356 449.356 0 01-.024-4.764c0-.262-.131-.475-.393-.639a10.76 10.76 0 00-.883-.49c-.556-.262-1.103-.64-1.643-1.13-.54-.492-.81-1.081-.81-1.769 0-.655.164-1.269.491-1.842a6.695 6.695 0 011.251-1.571c.508-.475 1.056-.9 1.644-1.277a68.92 68.92 0 011.619-1.007c.229-.13.507-.262.834-.393.327-.13.556-.31.687-.54a8.015 8.015 0 011.914-1.793c.752-.507 1.619-.761 2.601-.761.686 0 1.226.13 1.619.393.392.262.703.614.932 1.056.229.442.376.933.441 1.473.066.54.099 1.072.099 1.596 0 1.637-.655 3.045-1.963 4.224-1.309 1.179-3.026 2.145-5.152 2.898a2.518 2.518 0 00-.932 1.277c-.393 1.539-.63 3.2-.712 4.985a55.256 55.256 0 000 5.181c.082 1.67.237 3.2.467 4.592.228 1.392.474 2.497.736 3.316.13.393.147.695.049.908-.099.214-.247.075-.443-.417zm-3.68-23.28c0 .164.025.352.074.565.049.213.123.401.221.565.098.164.22.287.367.369.147.081.32.073.516-.025.262-.13.482-.41.662-.835.18-.426.344-.9.491-1.424.147-.524.278-1.056.393-1.596.114-.54.237-1.007.367-1.4-.196.131-.458.303-.785.516a6.092 6.092 0 00-.981.81 5.689 5.689 0 00-.859 1.105c-.245.409-.4.86-.466 1.35zm4.122.295c0 .131.057.295.172.491.114.197.253.279.417.246a5.087 5.087 0 001.914-.565 5.67 5.67 0 001.521-1.154c.425-.458.752-.966.981-1.522.229-.557.311-1.13.245-1.72-.065-.556-.237-.891-.515-1.006-.278-.114-.516-.172-.712-.172-.491 0-.973.205-1.447.614a7.308 7.308 0 00-1.301 1.498 8.97 8.97 0 00-.932 1.793c-.228.605-.343 1.104-.343 1.497z" fill="#fff"/><path d="M53.766 29.618v4.737h.85v-2.143h2.249v2.143h.85v-4.737h-.85v1.908h-2.249v-1.908h-.85zm8.76 4.737a6.67 6.67 0 01-.079-1.135v-1.771c0-.95-.352-1.938-1.799-1.938-.596 0-1.163.166-1.555.42l.196.568a2.358 2.358 0 011.232-.352c.968 0 1.076.704 1.076 1.096v.098c-1.829-.01-2.845.617-2.845 1.762 0 .685.489 1.36 1.447 1.36.674 0 1.183-.332 1.447-.704h.029l.068.597h.782v-.001zm-.91-1.595a.9.9 0 01-.049.273 1.178 1.178 0 01-1.144.794c-.44 0-.811-.265-.811-.822 0-.92 1.066-1.087 2.004-1.067v.822zm1.594-3.142l1.75 4.365a.757.757 0 01.059.225c0 .05-.03.117-.068.206a2.61 2.61 0 01-.724.959 2.29 2.29 0 01-.753.42l.215.725c.216-.04.636-.186 1.056-.558.587-.509 1.007-1.34 1.623-2.965l1.291-3.377h-.909l-.938 2.78c-.118.342-.216.704-.303.988h-.02a18.192 18.192 0 00-.303-.969l-1.036-2.799h-.94zm5.152 0v1.654c0 1.086.656 1.546 1.555 1.546.45 0 .958-.146 1.28-.362h.02v1.899h.85v-4.737h-.85v2.231a1.78 1.78 0 01-1.016.333c-.753 0-.978-.411-.978-1.008v-1.556h-.86zm5.094 0v4.737h.85v-2.143h2.25v2.143h.85v-4.737h-.85v1.908h-2.25v-1.908h-.85zm8.76 4.737a6.67 6.67 0 01-.078-1.135v-1.771c0-.95-.352-1.938-1.799-1.938-.596 0-1.163.166-1.555.42l.196.568a2.358 2.358 0 011.232-.352c.968 0 1.076.704 1.076 1.096v.098c-1.829-.01-2.845.617-2.845 1.762 0 .685.489 1.36 1.447 1.36.674 0 1.183-.332 1.447-.704h.029l.068.597h.782v-.001zm-.91-1.595a.9.9 0 01-.048.273 1.178 1.178 0 01-1.144.794c-.44 0-.812-.265-.812-.822 0-.92 1.066-1.087 2.004-1.067v.822zm5.672-3.102a13.12 13.12 0 00-1.525-.099c-.616 0-1.193.098-1.584.323-.362.206-.626.539-.626 1.028 0 .724.635 1.106 1.251 1.174v.03a1.126 1.126 0 00-.538.273c-.42.352-.538.969-.743 1.429a3.122 3.122 0 01-.293.538h.919c.068-.117.137-.244.195-.391.186-.46.313-1.047.665-1.331.186-.167.43-.264.792-.264h.636v1.986h.85v-4.697zm-.85 2.123h-.734c-.509 0-1.262-.215-1.262-.822 0-.656.695-.822 1.281-.822.303 0 .499.02.714.05v1.594zm7.547 1.752a2.44 2.44 0 01-1.056.235c-.939 0-1.642-.675-1.642-1.771 0-.989.586-1.791 1.672-1.791.469 0 .791.107.997.225l.195-.666c-.234-.117-.684-.245-1.192-.245-1.545 0-2.543 1.058-2.543 2.515 0 1.449.93 2.418 2.357 2.418.636 0 1.134-.157 1.359-.274l-.147-.646zm.547-3.915v.685H95.7v4.052h.85v-4.052h1.476v-.685h-3.803zm6.629-.107c-1.31 0-2.346.93-2.346 2.515 0 1.497.987 2.437 2.268 2.437 1.144 0 2.356-.764 2.356-2.515 0-1.449-.919-2.437-2.278-2.437zm-.019.646c1.017 0 1.418 1.017 1.418 1.82 0 1.067-.616 1.84-1.438 1.84-.84 0-1.437-.783-1.437-1.82 0-.9.44-1.84 1.457-1.84zm3.079 4.198h.792l.118-2.241c.029-.519.058-1.145.078-1.703h.039c.117.44.322 1.125.469 1.575l.841 2.34h.626l.909-2.389c.264-.724.392-1.105.518-1.536h.03c.019.577.058 1.184.088 1.693l.107 2.26h.822l-.333-4.736h-1.065l-.763 2.064a51.867 51.867 0 00-.557 1.625h-.02c-.107-.372-.313-.95-.43-1.302l-.86-2.387h-1.057l-.352 4.737zm9.953 0a6.745 6.745 0 01-.078-1.135v-1.771c0-.95-.352-1.938-1.799-1.938-.596 0-1.163.166-1.554.42l.195.568a2.36 2.36 0 011.232-.352c.968 0 1.076.704 1.076 1.096v.098c-1.829-.01-2.845.617-2.845 1.762 0 .685.489 1.36 1.447 1.36.674 0 1.183-.332 1.447-.704h.029l.068.597h.782v-.001zm-.909-1.595a.907.907 0 01-.048.273 1.178 1.178 0 01-1.144.794c-.44 0-.812-.265-.812-.822 0-.92 1.066-1.087 2.004-1.067v.822zm1.614-3.142v.685h1.476v4.052h.85v-4.052h1.477v-.685h-3.803zm6.628-.107c-1.31 0-2.346.93-2.346 2.515 0 1.497.987 2.437 2.268 2.437 1.144 0 2.357-.764 2.357-2.515 0-1.449-.92-2.437-2.279-2.437zm-.019.646c1.016 0 1.417 1.017 1.417 1.82 0 1.067-.615 1.84-1.437 1.84-.841 0-1.437-.783-1.437-1.82 0-.9.44-1.84 1.457-1.84zm3.646-.539v1.908c0 1.058-.049 1.723-.488 2.046a1.064 1.064 0 01-.47.196l.088.675c.44 0 .704-.108.939-.294.616-.401.743-1.291.743-2.622v-1.233h1.623v4.061h.85V29.62h-3.285v-.001zm6.698-.107c-1.31 0-2.347.93-2.347 2.515 0 1.497.988 2.437 2.269 2.437 1.144 0 2.356-.764 2.356-2.515 0-1.449-.919-2.437-2.278-2.437zm-.02.646c1.017 0 1.418 1.017 1.418 1.82 0 1.067-.616 1.84-1.438 1.84-.84 0-1.437-.783-1.437-1.82.001-.9.44-1.84 1.457-1.84zm3.364-.539v4.737h.85v-4.042h2.053v-.695h-2.903zm3.764 0v4.737h.987c.509-.832 1.027-1.742 1.477-2.476.273-.48.478-.861.782-1.468h.029a31.895 31.895 0 00-.059 1.938v2.006h.822v-4.737h-1.008l-1.476 2.447c-.313.548-.479.88-.762 1.458l-.03-.01c.039-.675.049-1.145.049-1.898v-1.997h-.811zm8.887.04a13.11 13.11 0 00-1.525-.099c-.616 0-1.193.098-1.584.323-.362.206-.626.539-.626 1.028 0 .724.635 1.106 1.251 1.174v.03a1.13 1.13 0 00-.538.273c-.42.352-.538.969-.743 1.429a3.136 3.136 0 01-.293.538h.919c.068-.117.137-.244.195-.391.186-.46.313-1.047.665-1.331.186-.167.43-.264.792-.264h.635v1.986h.851v-4.697h.001zm-.85 2.123h-.734c-.508 0-1.261-.215-1.261-.822 0-.656.694-.822 1.281-.822.303 0 .498.02.714.05v1.594z" fill="#BDBDBD"/></svg>