<svg width="188" height="47" viewBox="0 0 188 47" fill="none" xmlns="http://www.w3.org/2000/svg"><path d="M52.565 17.13a6.854 6.854 0 01-1.371 4.163c-.913 1.241-2.105 2.36-3.573 3.356s-3.116 1.862-4.943 2.596a51.605 51.605 0 01-5.482 1.862 56.281 56.281 0 01-5.237 1.2c-1.664.294-3.05.49-4.16.588a36.75 36.75 0 01-.66 1.347 9.904 9.904 0 01-1.004 1.568l-.587.76c-.065.065-.196.187-.392.367-.195.18-.44.27-.734.27a2.044 2.044 0 01-.465-.196c-.179-.099-.269-.262-.269-.49 0-.033.049-.147.147-.343a36.667 36.667 0 00.832-1.789c.163-.375.294-.76.391-1.151l-1.468.196c-.098 0-.652.065-1.664.196a134.375 134.375 0 00-8.369 1.371 55.257 55.257 0 00-4.625 1.103c-1.42.408-2.602.85-3.549 1.322-.946.474-1.419.972-1.419 1.495 0 .653.334 1.183 1.003 1.592.67.408 1.477.735 2.423.98.946.244 1.925.432 2.936.563a70.97 70.97 0 002.594.294c-.163.196-.424.351-.783.465a6.312 6.312 0 01-1.125.246c-.392.049-.759.081-1.101.097a18.58 18.58 0 01-.66.025c-.49 0-1.249-.074-2.277-.22a15.287 15.287 0 01-3.083-.784 10.052 10.052 0 01-2.716-1.47C.39 38.105 0 37.362 0 36.479c0-.75.547-1.436 1.64-2.056 1.093-.621 2.48-1.193 4.16-1.715 1.68-.522 3.54-.988 5.58-1.396 2.04-.408 4.021-.76 5.946-1.053 1.925-.294 3.662-.54 5.212-.735 1.55-.196 2.668-.343 3.353-.44.457-1.176.848-2.5 1.174-3.969.327-1.47.588-2.882.783-4.238.196-1.355.343-2.564.44-3.625.099-1.061.148-1.771.148-2.13 0-.164.008-.368.024-.613.017-.245.024-.547.024-.906 0-.621-.032-1.331-.097-2.131a13.64 13.64 0 00-.392-2.327 7.623 7.623 0 00-.88-2.082 3.182 3.182 0 00-1.616-1.348 14.89 14.89 0 00-3.059-.857 30.083 30.083 0 00-3.303-.367c-.131 0-.31-.017-.539-.05a2.144 2.144 0 01-1.272-.637 1.195 1.195 0 01-.343-.734 7.54 7.54 0 01.71-.539c.244-.163.587-.302 1.027-.416.44-.114 1.028-.204 1.763-.27.734-.065 1.72-.097 2.96-.097.099 0 .36.008.784.024.424.016.88.025 1.37.025.49 0 .954.008 1.394.024.44.017.726.025.857.025.196 0 .383-.049.562-.147.18-.098.392-.213.637-.343.244-.13.522-.261.832-.392A3.56 3.56 0 0130.98.719c.261.196.482.473.66.833.18.36.433.62.76.783 1.011.425 2.21.85 3.597 1.274 1.386.425 2.822.906 4.307 1.445a53.943 53.943 0 014.43 1.837 18.106 18.106 0 013.939 2.474 12.006 12.006 0 012.814 3.356c.719 1.273 1.078 2.743 1.078 4.408zm-3.181 1.028c0-1.535-.474-2.923-1.42-4.164a13.312 13.312 0 00-3.45-3.16 17.954 17.954 0 00-4.283-2.008c-1.5-.474-2.806-.71-3.915-.71-.653 0-1.355.26-2.105.783a7.97 7.97 0 00-1.91 1.862c0 1.24-.073 2.596-.22 4.066a49.475 49.475 0 01-.685 4.58 54.154 54.154 0 01-1.174 4.801 32.599 32.599 0 01-1.738 4.63c.718-.098 1.73-.27 3.035-.515a53.916 53.916 0 004.282-1.004 58.47 58.47 0 004.723-1.518 29.35 29.35 0 004.38-2.009c1.323-.751 2.399-1.592 3.231-2.523.832-.931 1.248-1.968 1.248-3.11zm5.822 6.138a2.291 2.291 0 01-.05-.445v-.444c0-1.317.42-2.519 1.258-3.605.839-1.086 1.916-2.107 3.232-3.061a7.92 7.92 0 00-.123-.519 1.971 1.971 0 01-.075-.518c0-.263.083-.478.248-.642.164-.165.476-.247.937-.247.69 0 1.216.305 1.578.914.361.608.666 1.325.913 2.147.246.823.485 1.646.715 2.47.23.822.559 1.448.987 1.876.131.131.345.304.641.518.296.214.6.445.912.691.313.247.584.478.814.692.23.214.346.37.346.469 0 .362-.239.617-.715.765-.477.148-.864.223-1.16.223-.493 0-.896-.074-1.209-.223a2.549 2.549 0 01-.789-.568 6.235 6.235 0 01-.616-.79 8.074 8.074 0 00-.642-.84 577.97 577.97 0 01-2.417 1.853c-.756.576-1.627.864-2.614.864-.527 0-1.003-.181-1.43-.544-.43-.361-.676-.707-.741-1.036zm6.116-3.703c0-.527-.131-1.038-.394-1.531a20.54 20.54 0 00-.839-1.432c-.328 0-.666.198-1.01.593-.346.395-.65.864-.913 1.407a14.551 14.551 0 00-.666 1.605c-.18.526-.271.921-.271 1.185 0 .033.008.123.024.271.017.148.05.297.099.445.05.148.115.28.197.395a.377.377 0 00.32.172c.395 0 .79-.123 1.185-.37a6.268 6.268 0 001.11-.889c.345-.346.624-.691.838-1.037.213-.345.32-.617.32-.814zm13.27.74c-1.25 0-1.875.659-1.875 1.976 0 .56.05.987.148 1.283.098.297.148.626.148.988 0 .296-.247.444-.74.444-.362 0-.642-.107-.839-.32a2.048 2.048 0 01-.444-.815 5.257 5.257 0 01-.197-1.013 10.158 10.158 0 01-.049-.962v-.889c0-.164-.05-.255-.148-.271a3.392 3.392 0 00-.493-.025c-.592.033-1.003.066-1.233.099-.23.033-.526.049-.888.049-.427 0-.641-.082-.641-.247 0-.296.18-.518.542-.666a12.62 12.62 0 011.21-.42c.443-.132.854-.28 1.233-.445.378-.164.567-.411.567-.74v-.297c0-.329-.05-.674-.148-1.037-.099-.361-.394-.543-.888-.543a.821.821 0 00-.444.123c-.131.083-.329.124-.592.124-.394 0-.592-.181-.592-.543 0-.132.123-.338.37-.618.247-.28.542-.543.888-.79.345-.247.69-.469 1.036-.666.345-.198.633-.297.863-.297.362 0 .666.099.912.297.247.197.436.427.568.691.131.263.222.535.27.815.05.28.075.518.075.716v.888c0 .79.098 1.251.296 1.383.197.131.493.197.888.197.658 0 1.151-.189 1.48-.568.329-.379.526-1.062.592-2.049a4.846 4.846 0 01.616-1.95c.346-.61.7-.914 1.061-.914h.05c.164 0 .336.066.518.198.18.131.27.312.27.543l-.493 3.012a32.97 32.97 0 00-.295 2 23.252 23.252 0 00-.148 2.79c0 .79.049 1.645.148 2.567a.925.925 0 00.27.47c.149.147.222.288.222.42 0 .098-.04.304-.123.617-.082.312-.27.485-.567.518-.69 0-1.143-.198-1.357-.593-.213-.395-.32-.889-.32-1.481v-.84c0-.428-.008-.839-.025-1.234a3.23 3.23 0 00-.197-1.037 1.483 1.483 0 00-.518-.691c-.231-.164-.56-.247-.987-.247zm18.301.494l-1.184 2.519c-.132.263-.247.41-.345.444-.099.033-.264.05-.494.05-.263 0-.51-.067-.74-.198-.23-.132-.378-.346-.444-.642l-.641-3.358a4.7 4.7 0 01-.173-.47c-.082-.246-.172-.37-.27-.37-.132 0-.272.132-.42.395-.148.264-.296.56-.444.89-.148.328-.28.65-.395.962-.115.313-.172.518-.172.617 0 .132-.025.412-.074.84-.05.427-.074.707-.074.839-.099.361-.337.625-.715.79a2.88 2.88 0 01-1.16.246c-.394 0-.731-.098-1.01-.296-.28-.197-.453-.51-.519-.938 0-.098-.025-.32-.074-.666-.05-.346-.099-.733-.148-1.16-.05-.429-.098-.823-.148-1.186-.049-.362-.09-.592-.123-.69 0-.067-.05-.281-.148-.643a17.355 17.355 0 00-.197-.691c-.033-.165-.148-.404-.346-.716-.197-.313-.394-.47-.592-.47-.361 0-.6.182-.715.544a7.982 7.982 0 00-.271 1.16 7.925 7.925 0 01-.272 1.16c-.115.363-.353.544-.715.544-.164 0-.255-.074-.271-.222a3.456 3.456 0 01-.025-.37c0-.363.082-.84.247-1.433a9.615 9.615 0 01.666-1.728c.28-.56.6-1.037.962-1.432s.756-.593 1.184-.593c.427 0 .806.206 1.134.618.33.411.617.888.864 1.432.246.543.443 1.086.592 1.629.148.543.221.946.221 1.21l.099.049h.099c.23 0 .477-.238.74-.716a23.31 23.31 0 00.789-1.58c.263-.576.542-1.102.838-1.58.296-.477.609-.716.937-.716.264 0 .527.14.79.42.263.28.427.552.493.815l.641 3.308c0 .033.017.05.05.05h.098c.33 0 .6-.206.814-.618.214-.412.42-.856.617-1.333s.411-.922.641-1.333c.23-.412.543-.617.937-.617.23 0 .428.123.592.37.165.247.313.576.444.987.131.412.255.864.37 1.358.115.494.255.988.42 1.482.263.855.493 1.588.69 2.197.197.609.576.913 1.135.913.263 0 .608-.131 1.036-.395.23-.165.534-.436.912-.815.379-.378.732-.568 1.061-.568.164 0 .263.05.296.148.033.099.049.23.049.395 0 .395-.164.724-.493.988-.592.46-1.184.913-1.776 1.358-.593.444-1.234.666-1.924.666-.395 0-.781-.082-1.16-.247-.378-.164-.732-.477-1.06-.938a3.224 3.224 0 01-.346-.716 13.01 13.01 0 01-.27-.864 6.19 6.19 0 00-.297-.84 1.329 1.329 0 00-.469-.592l-.344.347zm-7.449-7.455c-.065.032-.197.049-.394.049a4.41 4.41 0 00-.642.05c-1.15 0-1.726-.33-1.726-.989v-.098a.67.67 0 01.444-.47c.23-.082.493-.123.789-.123h1.183c.757 0 1.505.033 2.245.099.74.066 1.455.098 2.146.098 1.15 0 2.088-.016 2.811-.049a26.53 26.53 0 001.727-.123c.428-.05.724-.099.888-.148a1.4 1.4 0 01.346-.074c.263 0 .394.033.394.098v.05c0 .296-.329.543-.986.74-.658.198-1.415.363-2.27.494-.854.132-1.693.222-2.515.272a32.94 32.94 0 01-1.727.074l-2.713.05zm17.463 9.875a9.43 9.43 0 01-.789-1.334 16.834 16.834 0 01-1.258-3.407 6.937 6.937 0 01-.222-1.678c0-.33.008-.75.024-1.26.017-.51.091-.988.222-1.432a3.65 3.65 0 01.568-1.16c.247-.33.616-.494 1.11-.494.23 0 .411.214.542.642.132.428.231.962.296 1.604.066.642.132 1.342.197 2.099.066.757.173 1.457.321 2.099.148.642.354 1.177.617 1.604.263.428.625.642 1.085.642.592 0 1.012-.304 1.258-.913.247-.61.452-1.276.617-2 .164-.724.362-1.39.592-2 .23-.609.608-.913 1.135-.913.526 0 .953.148 1.282.444.329.296.609.65.839 1.062.23.41.419.855.567 1.333.148.477.321.897.518 1.26.23.394.469.888.715 1.48.247.593.37 1.12.37 1.58 0 .56-.279.84-.838.84-.296 0-.551-.115-.765-.346a6.31 6.31 0 01-.617-.79 6.306 6.306 0 00-.616-.79c-.214-.23-.453-.346-.716-.346l-.098.05c-.362.164-.641.46-.839.888-.197.428-.403.856-.616 1.284a5.092 5.092 0 01-.765 1.135c-.296.33-.74.494-1.332.494a5.332 5.332 0 01-1.825-.32c-.593-.213-1.119-.666-1.579-1.357zm11.987-1.926c0-.691.172-1.415.509-2.172a6.915 6.915 0 011.48-2.099 7.877 7.877 0 012.351-1.58c.921-.412 1.974-.617 3.157-.617h.444c.132 0 .28.016.444.05.264.065.461.246.592.542.132.296.197.494.197.593a.898.898 0 01-.518.493 3.895 3.895 0 01-.863.223 10 10 0 01-.962.099 2.957 2.957 0 00-.764.123c-.954.33-1.76.757-2.417 1.284-.658.527-.987 1.218-.987 2.074 0 .592.165 1.16.494 1.703.329.543.888.815 1.677.815.428 0 .797-.14 1.11-.42a7.05 7.05 0 00.838-.889c.247-.312.502-.609.765-.889s.576-.42.937-.42c.559 0 .896.206 1.012.618.115.412.172.798.172 1.16 0 .46-.148.848-.443 1.16-.297.313-.683.585-1.16.815-.477.23-1.02.403-1.628.518a9.924 9.924 0 01-1.849.173 7.7 7.7 0 01-1.57-.173 4.652 4.652 0 01-1.488-.568 3.467 3.467 0 01-1.094-1.037c-.288-.427-.436-.954-.436-1.579zm23.777-.494l-1.184 2.519c-.132.263-.247.41-.346.444-.098.033-.262.05-.493.05-.263 0-.51-.067-.74-.198-.23-.132-.378-.346-.444-.642l-.641-3.358a4.585 4.585 0 01-.173-.47c-.082-.246-.172-.37-.271-.37-.132 0-.272.132-.42.395-.147.264-.295.56-.444.89a14.8 14.8 0 00-.394.962c-.115.313-.173.518-.173.617 0 .132-.024.412-.074.84a9.662 9.662 0 00-.074.839c-.098.361-.336.625-.715.79a2.877 2.877 0 01-1.159.246c-.395 0-.732-.098-1.011-.296-.28-.197-.453-.51-.518-.938 0-.098-.025-.32-.074-.666a39.86 39.86 0 01-.148-1.16 58.316 58.316 0 00-.148-1.186c-.049-.362-.09-.592-.123-.69 0-.067-.05-.281-.148-.643a20.287 20.287 0 00-.197-.691c-.033-.165-.148-.404-.346-.716-.197-.313-.394-.47-.592-.47-.361 0-.6.182-.715.544a7.892 7.892 0 00-.271 1.16 7.9 7.9 0 01-.272 1.16c-.115.363-.353.544-.715.544-.165 0-.255-.074-.271-.222a3.34 3.34 0 01-.025-.37c0-.363.082-.84.246-1.433a9.698 9.698 0 01.666-1.728 6.26 6.26 0 01.962-1.432c.362-.395.757-.593 1.184-.593.427 0 .806.206 1.135.618.329.411.616.888.863 1.432.246.543.443 1.086.592 1.629.148.543.222.946.222 1.21l.098.049h.099c.23 0 .477-.238.74-.716a23.48 23.48 0 00.789-1.58 14.31 14.31 0 01.838-1.58c.296-.477.609-.716.938-.716.262 0 .526.14.789.42.263.28.427.552.493.815l.642 3.308c0 .033.016.05.049.05h.098c.33 0 .601-.206.814-.618.214-.412.419-.856.617-1.333.197-.477.411-.922.641-1.333.231-.412.543-.617.937-.617.23 0 .428.123.592.37.165.247.313.576.444.987.132.412.255.864.37 1.358.115.494.255.988.42 1.482.263.855.493 1.588.69 2.197.198.609.576.913 1.135.913.263 0 .608-.131 1.036-.395.23-.165.534-.436.912-.815.379-.378.732-.568 1.061-.568.165 0 .263.05.296.148.033.099.049.23.049.395 0 .395-.164.724-.493.988a131.9 131.9 0 01-1.776 1.358c-.592.444-1.234.666-1.924.666-.395 0-.781-.082-1.16-.247-.378-.164-.731-.477-1.06-.938a3.22 3.22 0 01-.346-.716 13.63 13.63 0 01-.271-.864 6.26 6.26 0 00-.296-.84 1.33 1.33 0 00-.468-.592l-.344.347zm-7.449-7.455c-.066.032-.198.049-.395.049s-.411.016-.642.05c-1.15 0-1.726-.33-1.726-.989v-.098a.671.671 0 01.444-.47c.23-.082.493-.123.789-.123h1.184c.756 0 1.504.033 2.244.099.74.066 1.455.098 2.146.098 1.151 0 2.088-.016 2.812-.049a26.214 26.214 0 001.726-.123c.427-.05.723-.099.888-.148.164-.05.28-.074.345-.074.263 0 .395.033.395.098v.05c0 .296-.329.543-.987.74-.658.198-1.414.363-2.269.494-.855.132-1.693.222-2.515.272a32.94 32.94 0 01-1.727.074l-2.712.05zm22.247 1.727c1.019.1 1.661.429 1.924.988.263.56.394 1.251.394 2.074 0 .79-.147 1.555-.444 2.296a7.077 7.077 0 01-1.208 2 5.845 5.845 0 01-1.776 1.407 4.543 4.543 0 01-2.097.519c-2.006 0-3.009-1.168-3.009-3.506 0-.625.107-1.333.321-2.123.214-.79.51-1.53.888-2.222.379-.691.822-1.267 1.332-1.728.51-.461 1.077-.691 1.702-.691.164 0 .411.14.74.42.329.279.74.468 1.233.566zm-1.036 4.148a8.48 8.48 0 00-.814-1.284c-.345-.46-.518-.921-.518-1.382 0-.165.025-.346.074-.543.05-.198.156-.38.321-.544a.334.334 0 00-.247-.098c-.263 0-.51.098-.74.296a2.5 2.5 0 00-.592.79c-.164.33-.295.707-.394 1.136a5.679 5.679 0 00-.148 1.283c0 .626.09 1.21.272 1.753.18.543.485.815.912.815.132 0 .321-.016.568-.05.246-.032.485-.098.715-.197.23-.098.428-.23.592-.395.164-.164.246-.395.246-.691 0-.33-.082-.626-.247-.889zm11.296 26.12a39.042 39.042 0 01-1.455-4.74 35.088 35.088 0 01-.74-4.395 49.13 49.13 0 01-.247-4.443c-.016-1.515-.024-3.11-.024-4.79 0-.263-.132-.477-.395-.642a10.689 10.689 0 00-.888-.493c-.559-.264-1.109-.642-1.652-1.136-.543-.494-.814-1.087-.814-1.778 0-.659.165-1.276.493-1.852a6.73 6.73 0 011.258-1.58 11.46 11.46 0 011.653-1.284 68.09 68.09 0 011.627-1.012 6.99 6.99 0 01.839-.395c.328-.131.559-.313.69-.543a8.081 8.081 0 011.924-1.802c.757-.51 1.628-.765 2.615-.765.691 0 1.233.131 1.628.395.395.263.707.617.937 1.061.23.445.378.938.444 1.481.066.544.099 1.078.099 1.605 0 1.646-.658 3.061-1.974 4.246-1.315 1.186-3.041 2.156-5.179 2.914a2.52 2.52 0 00-.592.592c-.164.23-.279.46-.345.691-.395 1.547-.633 3.218-.715 5.012a54.503 54.503 0 000 5.21c.082 1.678.238 3.217.468 4.616.23 1.399.477 2.51.74 3.333.132.395.148.7.05.913-.099.215-.247.075-.445-.419zm-3.699-23.404c0 .164.024.353.074.567.049.214.123.404.222.568a.992.992 0 00.369.371c.148.082.321.074.518-.025.264-.131.486-.411.666-.839.181-.428.346-.905.494-1.432a26.02 26.02 0 00.395-1.604c.115-.544.238-1.013.369-1.408-.197.132-.46.304-.789.519a6.129 6.129 0 00-1.85 1.926c-.246.41-.403.863-.468 1.357zm4.144.296c0 .132.057.297.172.494.115.197.255.28.42.247a5.114 5.114 0 001.924-.568 5.697 5.697 0 001.529-1.16c.427-.461.756-.972.986-1.53a3.46 3.46 0 00.247-1.729c-.066-.56-.239-.897-.519-1.012-.279-.115-.518-.173-.715-.173-.493 0-.978.206-1.455.618a7.357 7.357 0 00-1.307 1.506 8.958 8.958 0 00-.937 1.802c-.23.608-.345 1.11-.345 1.505zm15.834 23.108a39.042 39.042 0 01-1.455-4.74 34.907 34.907 0 01-.74-4.395 49.13 49.13 0 01-.247-4.443c-.016-1.515-.025-3.11-.025-4.79 0-.263-.131-.477-.394-.642a10.689 10.689 0 00-.888-.493c-.559-.264-1.109-.642-1.652-1.136-.543-.494-.814-1.087-.814-1.778 0-.659.164-1.276.493-1.852a6.781 6.781 0 011.258-1.58 11.46 11.46 0 011.653-1.284 68.017 68.017 0 011.628-1.012c.23-.131.509-.263.838-.395.329-.131.559-.313.691-.543a8.044 8.044 0 011.924-1.802c.756-.51 1.627-.765 2.614-.765.691 0 1.234.131 1.628.395.395.263.707.617.937 1.061.23.445.379.938.444 1.481.066.544.099 1.078.099 1.605 0 1.646-.658 3.061-1.973 4.246-1.316 1.186-3.042 2.156-5.18 2.914a2.52 2.52 0 00-.592.592c-.164.23-.279.46-.345.691-.395 1.547-.633 3.218-.715 5.012a55.167 55.167 0 000 5.21 40.63 40.63 0 00.469 4.616c.23 1.399.476 2.51.74 3.333.131.395.147.7.049.913-.099.215-.248.075-.445-.419zm-3.699-23.404c0 .164.024.353.074.567.049.214.123.404.221.568a.997.997 0 00.37.371c.148.082.321.074.518-.025.264-.131.485-.411.666-.839.181-.428.346-.905.494-1.432.147-.527.279-1.061.394-1.604a13.2 13.2 0 01.37-1.408c-.197.132-.46.304-.789.519a6.129 6.129 0 00-1.85 1.926 3.48 3.48 0 00-.468 1.357zm4.143.296c0 .132.058.297.173.494.115.197.255.28.419.247a5.11 5.11 0 001.924-.568 5.702 5.702 0 001.53-1.16c.427-.461.756-.972.986-1.53a3.46 3.46 0 00.246-1.729c-.065-.56-.238-.897-.518-1.012-.279-.115-.518-.173-.715-.173-.493 0-.978.206-1.455.618a7.326 7.326 0 00-1.307 1.506 8.964 8.964 0 00-.938 1.802c-.23.608-.345 1.11-.345 1.505z" fill="#000"/><path d="M54.053 30.496v4.762h.855v-2.155h2.26v2.155h.856v-4.762h-.855v1.918h-2.261v-1.918h-.855zm8.806 4.762a6.718 6.718 0 01-.078-1.142v-1.78c0-.955-.354-1.948-1.809-1.948-.6 0-1.17.167-1.563.422l.197.571a2.371 2.371 0 011.239-.354c.973 0 1.08.708 1.08 1.102v.099c-1.837-.01-2.86.62-2.86 1.77 0 .69.492 1.369 1.455 1.369.678 0 1.19-.335 1.455-.709h.03l.068.6h.786zm-.913-1.604c0 .088-.02.187-.05.275-.138.404-.53.797-1.15.797-.442 0-.816-.265-.816-.826 0-.925 1.072-1.092 2.015-1.072v.826zm1.602-3.158l1.76 4.388a.76.76 0 01.058.226c0 .05-.03.118-.068.207a2.625 2.625 0 01-.728.964c-.255.216-.54.354-.756.423l.215.728c.217-.039.64-.187 1.062-.56.59-.512 1.013-1.348 1.632-2.982l1.298-3.394h-.914l-.944 2.794c-.118.344-.216.708-.304.993h-.02a18.234 18.234 0 00-.305-.973l-1.041-2.814h-.945zm5.18 0v1.662c0 1.093.658 1.555 1.563 1.555.452 0 .963-.148 1.287-.364h.02v1.909h.855v-4.762h-.855v2.243a1.789 1.789 0 01-1.022.334c-.757 0-.983-.413-.983-1.013v-1.565h-.865zm5.12 0v4.762h.856v-2.155h2.26v2.155h.855v-4.762h-.855v1.918h-2.26v-1.918h-.855zm8.808 4.762a6.707 6.707 0 01-.08-1.142v-1.78c0-.955-.353-1.948-1.808-1.948-.599 0-1.17.167-1.563.422l.197.571a2.371 2.371 0 011.239-.354c.973 0 1.08.708 1.08 1.102v.099c-1.837-.01-2.86.62-2.86 1.77 0 .69.492 1.369 1.456 1.369.678 0 1.189-.335 1.454-.709h.03l.068.6h.787zm-.915-1.604c0 .088-.02.187-.049.275-.138.404-.53.797-1.15.797-.442 0-.816-.265-.816-.826 0-.925 1.071-1.092 2.015-1.072v.826zm5.702-3.119a13.07 13.07 0 00-1.534-.098c-.619 0-1.199.098-1.592.324-.364.207-.63.541-.63 1.034 0 .727.64 1.111 1.258 1.18v.03a1.118 1.118 0 00-.54.275c-.423.354-.541.973-.748 1.436a3.139 3.139 0 01-.294.541h.924c.068-.118.137-.246.196-.394.187-.462.315-1.052.668-1.338.187-.167.433-.265.797-.265h.639v1.997h.855v-4.722zm-.856 2.135h-.737c-.511 0-1.268-.216-1.268-.826 0-.66.698-.827 1.288-.827.304 0 .5.02.717.05v1.603zm7.588 1.761a2.44 2.44 0 01-1.06.236c-.945 0-1.652-.678-1.652-1.78 0-.994.59-1.8 1.68-1.8.472 0 .797.108 1.003.226l.197-.67c-.236-.117-.689-.246-1.2-.246-1.552 0-2.555 1.063-2.555 2.529 0 1.456.934 2.43 2.37 2.43.638 0 1.14-.157 1.365-.275l-.147-.65zm.55-3.935v.688h1.485v4.074h.855v-4.074h1.484v-.688h-3.823zm6.665-.108c-1.317 0-2.359.934-2.359 2.528 0 1.506.993 2.45 2.281 2.45 1.15 0 2.368-.767 2.368-2.529 0-1.456-.924-2.45-2.29-2.45zm-.019.649c1.022 0 1.425 1.023 1.425 1.83 0 1.072-.619 1.85-1.445 1.85-.845 0-1.445-.787-1.445-1.83 0-.905.443-1.85 1.465-1.85zm3.096 4.22h.796l.118-2.252a83.13 83.13 0 00.078-1.712h.04c.117.442.324 1.131.471 1.584l.846 2.351h.629l.914-2.4a23.34 23.34 0 00.521-1.545h.03c.019.58.059 1.19.088 1.701l.108 2.273h.826l-.334-4.762h-1.072l-.766 2.076a48.325 48.325 0 00-.56 1.633h-.02c-.108-.374-.315-.954-.433-1.309l-.865-2.4h-1.062l-.353 4.763zm10.006 0a6.705 6.705 0 01-.079-1.14v-1.781c0-.955-.354-1.948-1.808-1.948-.6 0-1.17.167-1.563.422l.196.571a2.373 2.373 0 011.239-.354c.973 0 1.081.708 1.081 1.102v.099c-1.838-.01-2.86.62-2.86 1.77 0 .69.492 1.369 1.455 1.369.678 0 1.189-.335 1.454-.709h.03l.069.6h.786zm-.914-1.603c0 .088-.02.187-.049.275a1.184 1.184 0 01-1.15.797c-.442 0-.816-.265-.816-.826 0-.925 1.072-1.092 2.015-1.072v.826zm1.622-3.158v.688h1.484v4.074h.855v-4.074h1.484v-.688h-3.823zm6.664-.108c-1.317 0-2.359.934-2.359 2.528 0 1.506.993 2.45 2.281 2.45 1.149 0 2.368-.767 2.368-2.529 0-1.456-.924-2.45-2.29-2.45zm-.02.649c1.022 0 1.425 1.023 1.425 1.83 0 1.072-.619 1.85-1.445 1.85-.845 0-1.445-.787-1.445-1.83.001-.905.443-1.85 1.465-1.85zm3.666-.541v1.918c0 1.063-.049 1.731-.491 2.057a1.069 1.069 0 01-.472.197l.089.678c.442 0 .707-.108.943-.295.619-.403.747-1.298.747-2.636v-1.24h1.632v4.083h.855v-4.762h-3.303zm6.734-.108c-1.317 0-2.359.934-2.359 2.528 0 1.506.992 2.45 2.28 2.45 1.15 0 2.369-.767 2.369-2.529 0-1.456-.924-2.45-2.29-2.45zm-.02.649c1.022 0 1.425 1.023 1.425 1.83 0 1.072-.619 1.85-1.445 1.85-.845 0-1.445-.787-1.445-1.83.001-.905.443-1.85 1.465-1.85zm3.382-.541v4.762h.854v-4.064h2.065v-.698h-2.919zm3.784 0v4.762h.992c.512-.837 1.032-1.752 1.485-2.49a27.7 27.7 0 00.786-1.475h.029a32.21 32.21 0 00-.059 1.948v2.017h.826v-4.762h-1.013l-1.484 2.46c-.314.55-.482.885-.766 1.465l-.03-.01c.039-.678.05-1.15.05-1.908v-2.007h-.816zm8.934.04c-.412-.05-.963-.1-1.533-.1-.619 0-1.199.1-1.593.325-.363.207-.629.541-.629 1.034 0 .727.639 1.111 1.258 1.18v.03a1.14 1.14 0 00-.541.275c-.422.354-.54.973-.747 1.436a3.099 3.099 0 01-.295.541h.924c.069-.118.138-.246.197-.394.187-.462.314-1.052.668-1.338.187-.167.433-.265.796-.265h.639v1.997h.855v-4.722h.001zm-.855 2.134h-.737c-.511 0-1.268-.216-1.268-.826 0-.66.698-.827 1.288-.827.304 0 .501.02.717.05v1.603z" fill="#BDBDBD"/></svg>