<svg width="1122" height="900" viewBox="0 0 1122 900" fill="none" xmlns="http://www.w3.org/2000/svg"><g opacity=".19"><mask id="mask0_398_2193" style="mask-type:alpha" maskUnits="userSpaceOnUse" x="0" y="-135" width="1122" height="1177"><path transform="scale(-1 1) rotate(-31.038 -102.368 2147.445)" fill="#8D8D8D" d="M0 0h755.313v918.877H0z"/></mask><g mask="url(#mask0_398_2193)"><path d="M917.641 425.808c-8.852 11.957-25.807 14.465-37.794 5.592-11.986-8.874-14.538-25.823-5.688-37.779 8.852-11.959 25.81-14.469 37.797-5.596 11.986 8.873 14.537 25.824 5.685 37.783zm-31.376-23.225c-3.922 5.298-2.789 12.81 2.521 16.741 5.312 3.933 12.825 2.82 16.747-2.479 3.924-5.301 2.794-12.809-2.519-16.741-5.31-3.932-12.825-2.822-16.749 2.479z" fill="url(#paint0_linear_398_2193)"/><path d="M940.659 340.979l14.263-9.94 9.636 8.222-7.582 15.638a82.767 82.767 0 016.615 8.338l17.159-3.926 5.83 11.235-13.115 11.708a83.465 83.465 0 013.236 11.256l17.137 3.073 1.006 12.604-16.444 5.677a82.904 82.904 0 01-1.212 10.543l14.748 9.304-3.815 12.049-17.398-.939a83.442 83.442 0 01-5.661 10.217l9.98 14.284-8.208 9.606-15.662-7.614a82.752 82.752 0 01-8.332 6.593l3.968 17.149-11.229 5.805-11.751-13.138a82.751 82.751 0 01-11.256 3.209l-3.029 17.118-12.619.977-5.714-16.45a83.709 83.709 0 01-10.556-1.234l-9.275 14.717-12.064-3.844.895-17.385a83.215 83.215 0 01-10.236-5.679l-14.267 9.932-9.632-8.222 7.581-15.632a83.569 83.569 0 01-6.618-8.343l-17.155 3.927-5.834-11.235 13.117-11.712a83.249 83.249 0 01-3.24-11.254l-17.137-3.072-1.008-12.608 16.447-5.675a82.997 82.997 0 011.208-10.544l-14.748-9.301 3.817-12.048 17.4.94a82.976 82.976 0 015.658-10.218l-9.977-14.283 8.207-9.606 15.664 7.615a83.276 83.276 0 018.328-6.594l-3.966-17.151 11.234-5.802 11.745 13.136a82.668 82.668 0 0111.262-3.209l3.027-17.118 12.616-.979 5.72 16.448c3.549.186 7.074.599 10.552 1.24l9.277-14.72 12.065 3.842-.899 17.384a84.074 84.074 0 0110.241 5.689zm-96.818 31.481c-20.993 28.359-14.962 68.406 13.466 89.45 28.429 21.044 68.493 15.117 89.484-13.241 20.992-28.357 14.964-68.409-13.465-89.454-28.427-21.043-68.494-15.112-89.485 13.245z" fill="url(#paint1_linear_398_2193)"/><path d="M840.276 280.519c-3.701 5-10.792 6.049-15.804 2.339-5.014-3.711-6.081-10.799-2.379-15.799 3.701-5 10.793-6.051 15.807-2.339 5.012 3.71 6.079 10.797 2.376 15.799zm-13.12-9.712c-1.64 2.215-1.167 5.357 1.054 7.001 2.221 1.644 5.363 1.178 7.003-1.037 1.641-2.217 1.168-5.356-1.053-7-2.221-1.644-5.363-1.18-7.004 1.036z" fill="url(#paint2_linear_398_2193)"/><path d="M849.906 245.036l5.966-4.158 4.031 3.438-3.171 6.542a34.928 34.928 0 012.766 3.488l7.178-1.642 2.437 4.7-5.485 4.898a34.82 34.82 0 011.354 4.708l7.166 1.287.422 5.271-6.878 2.376a35.1 35.1 0 01-.508 4.41l6.169 3.891-1.596 5.04-7.278-.392a34.548 34.548 0 01-2.367 4.274l4.172 5.975-3.433 4.017-6.552-3.186a34.655 34.655 0 01-3.485 2.759l1.659 7.173-4.695 2.429-4.915-5.495a35.034 35.034 0 01-4.709 1.344l-1.266 7.16-5.279.409-2.391-6.881a35.495 35.495 0 01-4.417-.515l-3.878 6.155-5.046-1.607.374-7.273a34.547 34.547 0 01-4.283-2.376l-5.967 4.156-4.029-3.439 3.171-6.539a35.057 35.057 0 01-2.768-3.49l-7.176 1.644-2.44-4.7 5.488-4.898a34.812 34.812 0 01-1.355-4.707l-7.168-1.285-.421-5.273 6.879-2.373c.073-1.482.245-2.955.507-4.411l-6.17-3.891 1.598-5.039 7.278.392a34.706 34.706 0 012.366-4.272l-4.172-5.975 3.431-4.018 6.552 3.186a34.826 34.826 0 013.483-2.759l-1.658-7.175 4.698-2.426 4.913 5.495a34.594 34.594 0 014.709-1.343l1.266-7.158 5.276-.409 2.394 6.88c1.483.079 2.959.252 4.413.52l3.88-6.158 5.047 1.607-.376 7.272a33.09 33.09 0 014.289 2.367zm-40.498 13.166c-8.781 11.862-6.259 28.614 5.631 37.415 11.892 8.803 28.65 6.324 37.431-5.538 8.781-11.862 6.258-28.614-5.633-37.417-11.89-8.801-28.649-6.322-37.429 5.54z" fill="url(#paint3_linear_398_2193)"/><path d="M245.872 422.812c-5.326 7.196-15.531 8.705-22.743 3.366-7.216-5.341-8.749-15.541-3.424-22.735 5.328-7.198 15.531-8.708 22.747-3.367 7.212 5.339 8.748 15.539 3.42 22.736zm-18.881-13.977c-2.359 3.187-1.679 7.71 1.517 10.076 3.198 2.367 7.718 1.694 10.077-1.493 2.362-3.19 1.682-7.708-1.514-10.073-3.196-2.366-7.719-1.699-10.08 1.49z" fill="url(#paint4_linear_398_2193)"/><path d="M259.727 371.77l8.583-5.982 5.799 4.949-4.561 9.411a50.123 50.123 0 013.981 5.018l10.325-2.361 3.508 6.762-7.891 7.045a50.667 50.667 0 011.948 6.774l10.312 1.85.606 7.584-9.894 3.417a49.973 49.973 0 01-.731 6.345l8.875 5.598-2.296 7.251-10.469-.566a49.548 49.548 0 01-3.407 6.149l6.004 8.596-4.937 5.78-9.427-4.583a49.999 49.999 0 01-5.013 3.968l2.388 10.32-6.756 3.493-7.072-7.907a50.184 50.184 0 01-6.775 1.933l-1.822 10.302-7.595.587-3.439-9.9a50.164 50.164 0 01-6.352-.744l-5.581 8.856-7.26-2.315.539-10.462a50.321 50.321 0 01-6.161-3.419l-8.584 5.979-5.797-4.948 4.561-9.407a50.112 50.112 0 01-3.982-5.021l-10.324 2.363-3.51-6.759 7.894-7.048a50.083 50.083 0 01-1.95-6.772l-10.312-1.85-.606-7.587 9.897-3.415a49.76 49.76 0 01.727-6.347l-8.876-5.596 2.299-7.251 10.47.567a50.354 50.354 0 013.405-6.149l-6.003-8.595 4.938-5.78 9.427 4.583a50.014 50.014 0 015.01-3.968l-2.387-10.322 6.761-3.492 7.068 7.905a49.732 49.732 0 016.777-1.932l1.821-10.3 7.591-.59 3.443 9.899c2.134.112 4.257.361 6.35.746l5.584-8.859 7.26 2.314-.54 10.461a50.751 50.751 0 016.159 3.422zm-58.261 18.943c-12.633 17.066-9.002 41.166 8.104 53.829 17.108 12.664 41.217 9.099 53.849-7.967 12.632-17.064 9.003-41.167-8.104-53.831-17.109-12.663-41.218-9.095-53.849 7.969z" fill="url(#paint5_linear_398_2193)"/><path d="M640.339 654.373c-15.853 21.416-46.222 25.91-67.692 10.016-21.47-15.893-26.042-46.252-10.189-67.668 15.855-21.419 46.228-25.915 67.698-10.021 21.47 15.893 26.038 46.254 10.183 67.673zm-56.197-41.6c-7.021 9.486-4.995 22.945 4.516 29.986 9.513 7.042 22.97 5.046 29.993-4.44 7.027-9.493 5.004-22.944-4.509-29.986-9.512-7.041-22.973-5.053-30 4.44z" fill="url(#paint6_linear_398_2193)"/><path d="M681.575 502.44l25.547-17.802 17.259 14.726-13.582 28.013a147.697 147.697 0 0111.851 14.934l30.735-7.032 10.441 20.124-23.488 20.973a150.053 150.053 0 015.797 20.162l30.695 5.504 1.802 22.578-29.453 10.167a148.504 148.504 0 01-2.171 18.886l26.419 16.661-6.835 21.578-31.166-1.68a148.369 148.369 0 01-10.14 18.298l17.871 25.583-14.702 17.202-28.055-13.637a148.579 148.579 0 01-14.924 11.811l7.108 30.716-20.112 10.398-21.048-23.532a148.87 148.87 0 01-20.162 5.752l-5.424 30.657-22.601 1.753-10.236-29.463a150.428 150.428 0 01-18.908-2.21l-16.613 26.361-21.61-6.884 1.605-31.141a148.909 148.909 0 01-18.333-10.172l-25.558 17.793-17.252-14.726 13.581-28.001a149.527 149.527 0 01-11.856-14.943l-30.728 7.036-10.446-20.126 23.496-20.979a148.647 148.647 0 01-5.8-20.157l-30.696-5.503-1.806-22.58 29.46-10.164a149.42 149.42 0 012.163-18.887l-26.416-16.661 6.841-21.577 31.164 1.682a148.766 148.766 0 0110.135-18.301l-17.872-25.582 14.702-17.206 28.057 13.639a149.465 149.465 0 0114.915-11.812l-7.105-30.721 20.121-10.392 21.04 23.528a148.389 148.389 0 0120.171-5.747l5.423-30.66 22.596-1.752 10.244 29.462a147.469 147.469 0 0118.9 2.218l16.615-26.364 21.607 6.884-1.607 31.138a149.55 149.55 0 0118.344 10.177zm-173.419 56.39c-37.599 50.792-26.799 122.526 24.12 160.219 50.921 37.694 122.683 27.075 160.282-23.717 37.599-50.792 26.803-122.531-24.118-160.225-50.92-37.693-122.685-27.069-160.284 23.723z" fill="url(#paint7_linear_398_2193)"/><path d="M738.409 268.493l15.135-10.549 10.224 8.73-8.046 16.593a87.637 87.637 0 017.021 8.856l18.21-4.174 6.186 11.93-13.914 12.429a88.024 88.024 0 013.43 11.945l18.192 3.258 1.065 13.383-17.452 6.023a88.864 88.864 0 01-1.281 11.185l15.65 9.875-4.054 12.793-18.461-1.004a87.197 87.197 0 01-6.008 10.839l10.59 15.162-8.71 10.198-16.628-8.084a87.057 87.057 0 01-8.839 6.992l4.215 18.202-11.916 6.163-12.478-13.944a87.033 87.033 0 01-11.946 3.408l-3.21 18.168-13.397 1.037-6.058-17.459a90.668 90.668 0 01-11.208-1.308l-9.844 15.62-12.802-4.077.953-18.455a89.132 89.132 0 01-10.865-6.025l-15.141 10.542-10.227-8.729 8.05-16.593a86.32 86.32 0 01-7.027-8.857l-18.206 4.173-6.196-11.924 13.927-12.43a86.767 86.767 0 01-3.435-11.951l-18.187-3.256-1.073-13.378 17.451-6.024a90.41 90.41 0 011.285-11.194l-15.646-9.874 4.047-12.778 18.474.993a87.139 87.139 0 015.999-10.843l-10.589-15.157 8.709-10.195 16.625 8.081a88.142 88.142 0 018.842-6.997l-4.213-18.205 11.925-6.158 12.469 13.939a87.062 87.062 0 0111.947-3.403l3.215-18.171 13.388-1.032 6.07 17.457c3.765.201 7.508.632 11.2 1.316l9.842-15.622 12.807 4.071-.955 18.457a89.097 89.097 0 0110.869 6.032zm-74.106 54.619c-10.597 14.315-7.557 34.533 6.795 45.157 14.346 10.62 34.572 7.624 45.169-6.691 10.592-14.309 7.552-34.53-6.795-45.15-14.352-10.622-34.578-7.624-45.169 6.684z" fill="url(#paint8_linear_398_2193)"/><path d="M805.083 119.419l10.111-7.047 6.829 5.827-5.377 11.082a59.565 59.565 0 014.696 5.908l12.155-2.782 4.135 7.967-9.294 8.296a59.223 59.223 0 012.292 7.979l12.146 2.18.717 8.931-11.656 4.023a57.186 57.186 0 01-.864 7.477l10.458 6.595-2.706 8.542-12.33-.671a59.251 59.251 0 01-4.01 7.241l7.066 10.123-5.816 6.808-11.099-5.397a58.73 58.73 0 01-5.91 4.673l2.814 12.152-7.957 4.115-8.332-9.311a58.359 58.359 0 01-7.975 2.274l-2.142 12.134-8.949.695-4.048-11.66a59.312 59.312 0 01-7.482-.878l-6.577 10.432-8.545-2.727.627-12.321a57.93 57.93 0 01-7.249-4.027l-10.118 7.041-6.828-5.826 5.379-11.081a57.424 57.424 0 01-4.688-5.911l-12.168 2.782-4.13-7.964 9.298-8.3a59.113 59.113 0 01-2.296-7.974l-12.144-2.179-.722-8.938 11.662-4.022c.121-2.513.417-5.004.856-7.479l-10.452-6.587 2.707-8.543 12.333.672a57.867 57.867 0 014.008-7.243l-7.066-10.124 5.81-6.813 11.109 5.404a60.068 60.068 0 015.902-4.679l-2.815-12.153 7.962-4.111 8.327 9.31a57.128 57.128 0 017.986-2.273l2.145-12.138 8.939-.684 4.053 11.656c2.518.13 5.013.421 7.482.878l6.568-10.439 8.552 2.726-.636 12.321a58.998 58.998 0 017.257 4.038zm-76.037 16.823c-17.9 24.181-12.758 58.335 11.487 76.282 24.242 17.946 58.411 12.893 76.311-11.288 17.903-24.185 12.757-58.341-11.485-76.286-24.245-17.948-58.41-12.894-76.313 11.292z" fill="url(#paint9_linear_398_2193)"/><path d="M731.033 137.711c-17.062 23.049-12.143 55.717 10.968 72.826 23.107 17.105 55.792 12.273 72.854-10.776 17.064-23.052 12.142-55.726-10.965-72.831-23.111-17.108-55.792-12.273-72.857 10.781zm79.001 58.481c-15.1 20.399-44.024 24.679-64.475 9.539-20.453-15.14-24.805-44.056-9.707-64.453 15.102-20.401 44.028-24.683 64.481-9.542 20.451 15.139 24.804 44.053 9.701 64.456z" fill="url(#paint10_linear_398_2193)"/><path d="M405.29 699.691l10.51-7.323 7.097 6.056-5.588 11.52a61.704 61.704 0 014.88 6.14l12.634-2.891 4.297 8.282-9.661 8.623a61.539 61.539 0 012.382 8.293l12.624 2.267.746 9.282-12.114 4.181a59.957 59.957 0 01-.897 7.773l10.869 6.853-2.813 8.879-12.815-.698a61.67 61.67 0 01-4.169 7.527l7.344 10.524-6.046 7.076-11.536-5.609a61.673 61.673 0 01-6.142 4.857l2.924 12.632-8.269 4.277-8.661-9.679a60.169 60.169 0 01-8.289 2.364l-2.227 12.613-9.302.723-4.208-12.119a61.922 61.922 0 01-7.776-.912l-6.836 10.843-8.88-2.833.651-12.806a60.35 60.35 0 01-7.535-4.185l-10.517 7.313-7.098-6.055 5.59-11.518a60.392 60.392 0 01-4.872-6.145l-12.649 2.893-4.291-8.277 9.664-8.628a61.405 61.405 0 01-2.386-8.291l-12.622-2.264-.751-9.288 12.123-4.179c.127-2.612.432-5.202.889-7.774l-10.864-6.849 2.813-8.878 12.817.698a60.46 60.46 0 014.166-7.529l-7.344-10.524 6.039-7.08 11.545 5.616a62.342 62.342 0 016.134-4.862l-2.924-12.632 8.276-4.273 8.655 9.676a60.009 60.009 0 018.301-2.364l2.23-12.616 9.293-.712 4.213 12.116c2.617.136 5.212.439 7.776.913l6.827-10.851 8.891 2.834-.662 12.808a60.608 60.608 0 017.544 4.192zm-79.036 17.485c-18.606 25.135-13.26 60.635 11.941 79.289 25.197 18.653 60.714 13.4 79.319-11.734 18.608-25.138 13.26-60.639-11.938-79.292-25.199-18.654-60.713-13.401-79.322 11.737z" fill="url(#paint11_linear_398_2193)"/><path d="M328.324 718.71c-17.734 23.958-12.621 57.914 11.4 75.696 24.017 17.779 57.992 12.757 75.726-11.2 17.737-23.961 12.621-57.922-11.398-75.702-24.022-17.78-57.991-12.754-75.728 11.206zm82.115 60.787c-15.694 21.201-45.758 25.651-67.016 9.915-21.259-15.737-25.782-45.791-10.088-66.992 15.698-21.207 45.762-25.657 67.021-9.92 21.257 15.738 25.78 45.792 10.083 66.997z" fill="url(#paint12_linear_398_2193)"/><path d="M516.486 237.556l-2.232 2.259c-3.542 3.58-4.211 9.256-1.266 13.351 3.8 5.289 11.291 5.712 15.666 1.296l1.991-2.014c2.746-2.777 7.328-2.475 9.693.639a133.288 133.288 0 013.401 4.665c2.185 3.13 1.18 7.458-2.157 9.298l-2.814 1.553c-4.407 2.435-6.649 7.69-4.982 12.449 2.156 6.135 9.236 8.654 14.678 5.647l2.466-1.361c3.419-1.889 7.744-.311 9.136 3.355a144.582 144.582 0 011.93 5.424 6.413 6.413 0 01-4.697 8.3l-3.396.755c-5.506 1.219-8.998 6.723-7.764 12.229-3.212 4.34.702 10.349 5.98 9.177l9.013-1.996c3.813-.85 7.516 1.88 7.823 5.774.15 1.912.264 3.827.336 5.742.147 3.81-3.044 6.905-6.848 6.648l-3.463-.235c-5.628-.379-10.537 3.917-10.905 9.541-.363 5.626 3.944 10.539 9.574 10.919l2.828.189c3.9.262 6.687 3.917 5.882 7.737a142.528 142.528 0 01-1.297 5.611c-.933 3.691-4.865 5.764-8.449 4.443l-3.289-1.211c-5.299-1.948-11.221.789-13.156 6.077l.003.002c-1.938 5.292.812 11.214 6.111 13.162l2.646.973c3.673 1.348 5.321 5.642 3.467 9.079a138.035 138.035 0 01-2.829 5.005c-1.944 3.275-6.296 4.152-9.365 1.88l-2.799-2.072c-4.542-3.362-10.997-2.407-14.348 2.121-3.352 4.529-2.379 10.982 2.16 14.343l2.264 1.676c3.146 2.328 3.515 6.902.769 9.679a133.981 133.981 0 01-4.118 4.01c-2.781 2.603-7.218 2.213-9.521-.826l-1.937-2.552c-3.045-4.019-8.577-5.505-13.046-3.183-5.771 2.988-7.237 10.34-3.475 15.306l1.713 2.264c2.367 3.121 1.428 7.613-1.997 9.503a148.884 148.884 0 01-5.097 2.679c-3.405 1.698-7.548.077-8.902-3.482l-1.246-3.277c-2.005-5.274-7.963-7.963-13.234-5.966-5.276 1.994-7.947 7.937-5.944 13.212l.997 2.619c1.396 3.66-.775 7.705-4.593 8.551-1.872.413-3.752.789-5.637 1.13-3.751.675-7.274-2.044-7.566-5.841l-.272-3.46c-.441-5.623-5.404-9.871-11.026-9.449-5.629.427-9.869 5.376-9.43 11.001l.217 2.802c.304 3.898-2.911 7.162-6.813 6.904a145.705 145.705 0 01-5.738-.495c-3.793-.405-6.41-4.004-5.631-7.737l.719-3.408c1.165-5.515-2.399-10.987-7.92-12.164-5.518-1.174-10.991 2.376-12.155 7.888l-.585 2.77c-.808 3.82-4.816 6.051-8.495 4.698-1.8-.661-3.587-1.359-5.367-2.099-3.525-1.46-5.027-5.65-3.216-8.999l1.654-3.074c2.671-4.961.792-11.212-4.177-13.898-4.975-2.679-11.222-.815-13.896 4.142l-1.333 2.473c-1.84 3.422-6.305 4.456-9.435 2.138l-.061-.045a138.341 138.341 0 01-4.573-3.532c-2.957-2.383-3.185-6.809-.521-9.505l2.442-2.464c3.963-4.005 3.922-10.528-.095-14.498-4.015-3.969-10.546-3.941-14.506.061l-1.994 2.011c-2.748 2.776-7.33 2.475-9.696-.638a139.357 139.357 0 01-3.4-4.66c-2.187-3.131-1.179-7.46 2.155-9.302l3.072-1.694c4.935-2.722 6.733-8.989 3.995-13.925-2.737-4.939-9.012-6.751-13.951-4.027l-2.46 1.361c-3.424 1.888-7.748.308-9.138-3.354a141.595 141.595 0 01-1.93-5.424 6.414 6.414 0 014.697-8.297l3.396-.755c5.502-1.223 8.994-6.726 7.763-12.231 3.212-4.339-.705-10.351-5.979-9.181l-9.011 1.998c-3.817.847-7.521-1.878-7.826-5.774-.151-1.908-.26-3.824-.337-5.74-.144-3.806 3.045-6.902 6.852-6.648l3.169.213c5.035.339 9.762-2.86 10.933-7.763 1.504-6.32-3.098-12.257-9.308-12.672l-2.826-.192c-3.904-.259-6.69-3.913-5.888-7.738.393-1.873.827-3.743 1.299-5.608.933-3.691 4.869-5.766 8.451-4.444l3.053 1.122c4.676 1.718 10.036.027 12.563-4.252 3.348-5.66.605-12.734-5.285-14.901l-2.647-.976c-3.674-1.349-5.32-5.643-3.466-9.08.912-1.68 1.853-3.348 2.834-5.002 1.939-3.274 6.295-4.15 9.364-1.878l2.798 2.071c4.539 3.361 10.995 2.401 14.345-2.125 3.353-4.529 2.383-10.98-2.157-14.341l-2.262-1.674c-3.144-2.328-3.511-6.904-.77-9.685a135.08 135.08 0 014.119-4.005c2.783-2.605 7.219-2.217 9.527.826l1.928 2.55c3.05 4.019 8.578 5.506 13.05 3.186 5.77-2.992 7.237-10.345 3.473-15.308l-1.713-2.264c-2.368-3.123-1.429-7.618 1.998-9.502 1.683-.928 3.382-1.82 5.096-2.68 3.41-1.699 7.548-.076 8.902 3.485l1.138 2.997c1.795 4.717 6.684 7.693 11.633 6.729 6.386-1.245 9.863-7.879 7.652-13.699l-.997-2.618c-1.392-3.659.775-7.707 4.593-8.551a140.9 140.9 0 015.639-1.129c3.75-.677 7.273 2.041 7.569 5.844l.248 3.161c.395 5.025 4.251 9.258 9.271 9.725 6.482.604 11.691-4.78 11.208-10.98l-.218-2.804c-.304-3.895 2.914-7.163 6.811-6.901 1.915.126 3.826.29 5.736.494 3.799.407 6.413 4.007 5.631 7.737l-.716 3.407c-1.168 5.516 2.4 10.988 7.923 12.166 4.243 3.141 10.307.85 11.396-4.308l1.339-6.351c.806-3.822 4.821-6.049 8.494-4.698 1.799.663 3.592 1.362 5.373 2.098 3.521 1.465 5.017 5.65 3.215 9.004l-1.657 3.073c-2.946 5.475-.355 12.513 5.812 14.605 4.776 1.619 10.011-.681 12.399-5.112l1.191-2.213c1.844-3.424 6.309-4.455 9.439-2.137l.062.046a134.73 134.73 0 014.569 3.529c2.958 2.379 3.184 6.803.514 9.497zm-7.592 154.301c12.21-19.057 16.99-40.997 14.878-62.208l-32.877 4.868c.942 12.785-1.88 25.895-8.773 37.524l26.771 19.817.001-.001zm-7.905 10.679l-26.771-19.817c-9.11 9.99-20.825 16.514-33.325 19.346l4.944 32.866c20.902-4.172 40.49-15.152 55.152-32.395zm-68.347 34.109l-4.963-32.977a64.497 64.497 0 01-36.183-10.32l-19.733 26.658c18.544 12.551 39.979 17.93 60.879 16.639zm-102.097-78.399c4.075 20.142 14.476 39.08 30.708 53.576l19.834-26.794c-9.015-8.865-14.972-19.908-17.664-31.645l-32.878 4.863zm13.418-71.948c-11.552 18.026-16.453 38.629-15.16 58.754l32.989-4.882c-.234-11.672 2.665-23.477 8.942-34.055l-26.771-19.817zm37.977 19.844c-18.147 24.515-12.933 59.123 11.639 77.313 24.565 18.184 59.188 13.066 77.335-11.449 18.142-24.508 12.932-59.124-11.633-77.308-24.572-18.19-59.2-13.063-77.341 11.444zm-30.072-30.524l26.771 19.817c8.286-9.094 18.728-15.312 29.959-18.496l-4.961-32.98c-19.627 4.642-37.902 15.347-51.769 31.659zm64.894-33.843l4.947 32.866c12.013-.855 24.316 1.619 35.421 7.657l19.838-26.799c-18.603-11.289-39.753-15.707-60.206-13.724zm51.371 48.044a64.542 64.542 0 0120.437 31.591l32.986-4.879c-4.865-20.367-16.269-39.3-33.69-53.369l-19.733 26.657z" fill="url(#paint13_linear_398_2193)"/><path d="M789.09 448.65l-.632.639c-1.003 1.013-1.19 2.618-.358 3.777a2.914 2.914 0 004.433.367l.563-.569a1.822 1.822 0 012.743.181c.33.434.651.874.961 1.319a1.817 1.817 0 01-.611 2.632l-.796.439c-1.246.689-1.88 2.175-1.41 3.522a2.917 2.917 0 004.154 1.598l.698-.385a1.825 1.825 0 012.585.949c.191.509.374 1.022.546 1.537a1.813 1.813 0 01-1.329 2.347l-.96.213a2.9 2.9 0 00-2.196 3.46c-.909 1.228.199 2.928 1.692 2.597l2.549-.566a1.826 1.826 0 012.214 1.634c.042.541.074 1.082.094 1.626a1.816 1.816 0 01-1.938 1.881l-.979-.068a2.905 2.905 0 00-3.085 2.7 2.919 2.919 0 002.708 3.089l.802.053a1.826 1.826 0 011.665 2.189 40.464 40.464 0 01-.367 1.588 1.818 1.818 0 01-2.39 1.256l-.931-.341a2.907 2.907 0 00-3.722 1.718l.001.001a2.914 2.914 0 001.729 3.724l.748.276a1.82 1.82 0 01.98 2.568 39.02 39.02 0 01-.8 1.416 1.821 1.821 0 01-2.65.532l-.792-.586a2.908 2.908 0 00-4.059.6 2.91 2.91 0 00.61 4.059l.64.474c.89.659.995 1.953.216 2.738-.38.387-.768.766-1.164 1.135a1.824 1.824 0 01-2.694-.234l-.548-.724c-.862-1.136-2.426-1.557-3.692-.9-1.633.845-2.048 2.926-.983 4.33l.484.64a1.818 1.818 0 01-.565 2.689c-.476.26-.957.513-1.443.757a1.826 1.826 0 01-2.518-.987l-.353-.927a2.918 2.918 0 00-3.746-1.688 2.903 2.903 0 00-1.682 3.738l.282.743a1.812 1.812 0 01-1.298 2.417c-.53.118-1.061.225-1.594.321a1.826 1.826 0 01-2.142-1.652l-.075-.98a2.922 2.922 0 00-3.12-2.673 2.905 2.905 0 00-2.67 3.113l.062.794a1.816 1.816 0 01-1.928 1.954 42.064 42.064 0 01-1.622-.141 1.824 1.824 0 01-1.593-2.189l.203-.963a2.915 2.915 0 00-2.241-3.441 2.905 2.905 0 00-3.438 2.231l-.167.784a1.818 1.818 0 01-2.403 1.33 40.44 40.44 0 01-1.518-.594 1.822 1.822 0 01-.91-2.545l.468-.87a2.914 2.914 0 00-1.182-3.932 2.907 2.907 0 00-3.93 1.172l-.376.7a1.814 1.814 0 01-2.687.592 44.044 44.044 0 01-1.295-.999 1.82 1.82 0 01-.147-2.69l.692-.697a2.913 2.913 0 00-.026-4.104 2.914 2.914 0 00-4.105.019l-.563.569a1.822 1.822 0 01-2.744-.182c-.33-.434-.651-.874-.961-1.32a1.818 1.818 0 01.609-2.632l.869-.48a2.903 2.903 0 001.13-3.94 2.917 2.917 0 00-3.947-1.139l-.696.384a1.824 1.824 0 01-2.585-.949 43.055 43.055 0 01-.545-1.534 1.813 1.813 0 011.329-2.347l.961-.214a2.904 2.904 0 002.198-3.46c.91-1.229-.199-2.928-1.691-2.598l-2.549.565a1.824 1.824 0 01-2.215-1.634 46.174 46.174 0 01-.097-1.623 1.818 1.818 0 011.938-1.882l.898.061c1.423.096 2.761-.809 3.093-2.196a2.915 2.915 0 00-2.635-3.585l-.8-.054a1.822 1.822 0 01-1.665-2.187c.111-.531.234-1.061.367-1.588a1.82 1.82 0 012.391-1.258l.864.318c1.323.486 2.839.007 3.554-1.202.947-1.601.172-3.604-1.495-4.217l-.748-.277a1.823 1.823 0 01-.981-2.571c.259-.472.525-.946.802-1.414a1.82 1.82 0 012.649-.531l.792.587a2.91 2.91 0 004.059-.601 2.908 2.908 0 00-.611-4.057l-.64-.474a1.82 1.82 0 01-.218-2.74c.382-.386.769-.765 1.166-1.133a1.82 1.82 0 012.693.234l.546.721c.864 1.137 2.427 1.556 3.693.902a2.904 2.904 0 00.983-4.33l-.485-.641a1.818 1.818 0 01.564-2.689c.478-.262.959-.515 1.442-.759a1.826 1.826 0 012.519.987l.322.847c.508 1.336 1.89 2.178 3.292 1.905a2.899 2.899 0 002.163-3.874l-.28-.742a1.814 1.814 0 011.3-2.419 39.108 39.108 0 011.595-.319 1.825 1.825 0 012.142 1.651l.069.894c.111 1.422 1.202 2.619 2.623 2.75a2.903 2.903 0 003.172-3.106l-.062-.794a1.815 1.815 0 011.927-1.953c.543.037 1.083.083 1.623.141a1.826 1.826 0 011.593 2.188l-.203.963a2.914 2.914 0 002.243 3.442c1.201.889 2.916.242 3.224-1.221l.378-1.798a1.817 1.817 0 012.405-1.327c.508.186 1.013.385 1.518.593a1.827 1.827 0 01.911 2.547l-.468.87a2.914 2.914 0 001.645 4.133c1.35.456 2.831-.193 3.507-1.447l.339-.627a1.812 1.812 0 012.686-.591c.44.325.872.657 1.294.998.833.677.896 1.931.142 2.693zm-2.148 43.654a27.478 27.478 0 004.208-17.598l-9.299 1.377a18.167 18.167 0 01-2.481 10.616l7.572 5.605zm-2.237 3.022l-7.574-5.607a18.151 18.151 0 01-9.428 5.473l1.397 9.298a27.485 27.485 0 0015.605-9.164zm-19.337 9.648l-1.405-9.33a18.257 18.257 0 01-10.237-2.919l-5.582 7.541a27.604 27.604 0 0017.224 4.708zm-28.886-22.179a27.628 27.628 0 008.688 15.157l5.611-7.58a18.26 18.26 0 01-4.998-8.953l-9.301 1.376zm3.797-20.356a27.451 27.451 0 00-4.289 16.622l9.331-1.381a18.14 18.14 0 012.53-9.636l-7.572-5.605zm17.226 10.412c-2.491 3.365-1.775 8.113 1.598 10.61 3.371 2.496 8.124 1.793 10.614-1.571 2.489-3.363 1.773-8.114-1.598-10.609-3.373-2.497-8.125-1.792-10.614 1.57zm-14.989-13.434l7.573 5.607a18.132 18.132 0 018.477-5.233l-1.404-9.329a27.465 27.465 0 00-14.646 8.955zm18.358-9.574l1.4 9.299c3.399-.242 6.88.459 10.021 2.166l5.613-7.581a27.627 27.627 0 00-17.034-3.884zm14.536 13.593a18.256 18.256 0 015.781 8.938l9.333-1.381a27.585 27.585 0 00-9.532-15.098l-5.582 7.541z" fill="url(#paint14_linear_398_2193)"/><path d="M378.764 486.153c2.269 1.831 2.445 5.249.373 7.333l-1.727 1.742c-2.738 2.773-3.256 7.137-1 10.298 2.916 4.057 8.666 4.359 12.041.951l1.543-1.566c2.111-2.129 5.637-1.926 7.456.468a223.086 223.086 0 012.613 3.592c1.656 2.409.865 5.748-1.696 7.174l-2.171 1.195c-3.395 1.895-5.133 5.959-3.859 9.608 1.636 4.727 7.079 6.643 11.252 4.316l1.909-1.045c2.65-1.475 5.958-.268 7.014 2.546a95.041 95.041 0 011.47 4.181c.942 2.771-.757 5.753-3.628 6.401l-2.605.599c-4.246.943-6.946 5.198-6.007 9.447-2.471 3.337.516 7.953 4.568 7.042l6.936-1.556c2.935-.664 5.789 1.435 6.011 4.42.115 1.476.187 2.95.242 4.436.098 2.937-2.367 5.319-5.295 5.143l-2.661-.178c-4.317-.269-8.109 3.056-8.403 7.375-.288 4.366 3.012 8.121 7.336 8.388l2.172.146c3.003.195 5.137 3.002 4.498 5.953-.295 1.446-.651 2.869-.989 4.307-.737 2.86-3.777 4.467-6.527 3.475l-2.511-.935c-4.076-1.483-8.642.625-10.149 4.719-1.491 4.088.602 8.625 4.674 10.124l2.017.745c2.83 1.037 4.08 4.336 2.655 7.001a133.7 133.7 0 01-2.207 3.848c-1.494 2.509-4.836 3.219-7.199 1.47l-2.127-1.574c-3.499-2.59-8.45-1.847-11.05 1.666-2.598 3.509-1.87 8.471 1.629 11.061l1.718 1.272c2.403 1.779 2.683 5.307.586 7.451a106.908 106.908 0 01-3.195 3.095c-2.128 2.013-5.551 1.728-7.324-.624l-1.472-1.952c-2.322-3.081-6.599-4.212-10.015-2.424-4.461 2.321-5.606 7.993-2.73 11.818l1.313 1.738c1.824 2.402 1.073 5.857-1.547 7.321a108.323 108.323 0 01-3.94 2.074 4.924 4.924 0 01-6.833-2.651l-.955-2.515c-1.523-4.054-6.106-6.115-10.152-4.571-4.069 1.553-6.146 6.152-4.602 10.191l.739 2.026c1.078 2.823-.614 5.94-3.536 6.613a139.42 139.42 0 01-4.35.878c-2.87.531-5.58-1.552-5.804-4.501l-.189-2.656c-.333-4.329-4.126-7.587-8.46-7.253-4.319.358-7.61 4.175-7.272 8.502l.159 2.159c.227 3.008-2.257 5.525-5.266 5.347a110.921 110.921 0 01-4.417-.369c-2.909-.309-4.912-3.069-4.308-5.938l.587-2.644c.882-4.253-1.839-8.442-6.083-9.344-4.254-.891-8.455 1.86-9.358 6.112l-.456 2.121c-.639 2.958-3.721 4.675-6.559 3.651a151.184 151.184 0 01-4.121-1.6c-2.698-1.124-3.848-4.35-2.459-6.931l1.291-2.368c2.069-3.825.641-8.648-3.161-10.707-3.831-2.044-8.653-.599-10.706 3.224l-1.035 1.921c-1.434 2.633-4.852 3.452-7.263 1.667a97.892 97.892 0 01-3.55-2.733c-2.273-1.848-2.442-5.259-.377-7.343l1.881-1.885c3.057-3.115 3.029-8.136-.04-11.18-3.09-3.058-8.082-3.01-11.153.092l-1.542 1.538c-2.1 2.161-5.65 1.927-7.451-.455-.893-1.195-1.765-2.365-2.592-3.588-1.683-2.407-.897-5.753 1.665-7.168l2.374-1.326c3.802-2.094 5.194-6.944 3.116-10.736-2.09-3.791-6.915-5.181-10.72-3.06l-1.896 1.042c-2.643 1.478-5.958.267-7.021-2.554a127.723 127.723 0 01-1.483-4.176c-.913-2.782.783-5.758 3.637-6.41l2.631-.588c4.225-.961 6.931-5.211 5.999-9.426 2.484-3.356-.506-7.984-4.588-7.074l-6.927 1.561c-2.937.666-5.776-1.435-6.004-4.444-.107-1.46-.19-2.934-.256-4.401-.093-2.948 2.374-5.338 5.301-5.153l2.439.159c3.857.25 7.505-2.235 8.416-6.015 1.177-4.864-2.343-9.435-7.112-9.723l-2.178-.145c-2.994-.182-5.15-3.014-4.499-5.957a87.481 87.481 0 011.012-4.316c.714-2.865 3.752-4.454 6.511-3.451l2.343.869c3.585 1.302 7.71-.015 9.676-3.33 2.583-4.363.493-9.799-4.035-11.45l-2.021-.753a4.91 4.91 0 01-2.639-6.981 86.869 86.869 0 012.176-3.865c1.501-2.535 4.855-3.219 7.206-1.479l2.155 1.595c3.488 2.582 8.447 1.818 11.038-1.682 2.587-3.494 1.867-8.457-1.621-11.039l-1.74-1.288c-2.41-1.784-2.686-5.319-.579-7.451a94.962 94.962 0 013.189-3.106c2.134-2.028 5.55-1.714 7.314.607l1.488 1.979c2.326 3.083 6.58 4.199 10.017 2.415 4.438-2.334 5.588-8.004 2.718-11.808l-1.3-1.726c-1.825-2.424-1.092-5.893 1.532-7.349 1.31-.721 2.614-1.396 3.952-2.07 2.621-1.319 5.801-.082 6.833 2.653l.864 2.326c1.367 3.618 5.116 5.899 8.931 5.144 4.908-.97 7.591-6.098 5.906-10.58l-.742-2.012c-1.067-2.819.608-5.935 3.539-6.598 1.437-.322 2.881-.614 4.347-.881a4.927 4.927 0 015.805 4.478l.185 2.443c.289 3.865 3.233 7.114 7.108 7.467 4.97.444 8.99-3.716 8.635-8.493l-.159-2.157c-.231-3.006 2.258-5.529 5.246-5.339 1.483.092 2.954.214 4.431.365 2.904.305 4.923 3.088 4.298 5.94l-.565 2.631c-.897 4.249 1.827 8.457 6.069 9.358 3.257 2.411 7.931.635 8.772-3.341l1.046-4.906c.643-2.947 3.727-4.67 6.554-3.631a96.837 96.837 0 014.128 1.593c2.702 1.116 3.844 4.327 2.457 6.928l-1.288 2.367c-2.29 4.224-.314 9.641 4.418 11.238 3.681 1.239 7.712-.544 9.552-3.966l.927-1.711c1.433-2.631 4.878-3.441 7.264-1.674l.052.038a96.354 96.354 0 013.502 2.698zm-87.226 46.415l17.958 30.814 9.087-34.421c-9.155-1.661-18.653-.406-27.045 3.607zm59.004 20.787l-30.829 17.852 34.483 9.191a44.356 44.356 0 00-3.654-27.043zm-34.319 11.842l30.802-17.861a44.371 44.371 0 00-10.059-10.375c-3.659-2.708-7.576-4.788-11.641-6.185l-9.102 34.421zm34.269-47.541c-3.114-2.304-7.533-1.66-9.845 1.464-2.317 3.129-1.643 7.544 1.471 9.849 3.132 2.318 7.556 1.677 9.872-1.452 2.313-3.124 1.634-7.542-1.498-9.861zm20.295 52.458c3.863-.553 6.525-4.149 5.921-7.998-.575-3.856-4.161-6.51-8.006-5.927-3.838.562-6.5 4.157-5.921 7.998.57 3.837 4.156 6.492 8.006 5.927zm-6.961 41.879a7.025 7.025 0 00-1.472-9.844 7.026 7.026 0 00-9.844 1.467 7.036 7.036 0 001.475 9.839c3.131 2.317 7.536 1.653 9.841-1.462zm-17.572-13.251c2.708-3.657 4.756-7.552 6.151-11.625l-34.468-9.177 17.937 30.839a43.686 43.686 0 0010.38-10.037zm-75.363-7.265l30.775-17.869-34.443-9.161a44.12 44.12 0 003.668 27.03zm8.441 32.171c2.311-3.121 1.623-7.533-1.497-9.843-3.123-2.311-7.544-1.68-9.854 1.441-2.313 3.124-1.631 7.544 1.492 9.856 3.12 2.309 7.546 1.671 9.859-1.454zm5.139-15.775a44.48 44.48 0 0011.611 6.176l9.094-34.416-30.795 17.847a44.204 44.204 0 0010.09 10.393zm45.407 4.382l-17.943-30.865-9.106 34.464a44.198 44.198 0 0027.049-3.599zm-10.462 25.839c3.844-.589 6.486-4.158 5.919-7.997-.586-3.856-4.164-6.505-8.012-5.931a7.011 7.011 0 00-5.919 7.997c.579 3.841 4.157 6.49 8.012 5.931zm-70.242-65.442a7.037 7.037 0 00-5.93 8.011 7.065 7.065 0 008.023 5.939 7.054 7.054 0 005.93-8.011c-.603-3.847-4.176-6.492-8.023-5.939zm6.941-41.875c-2.311 3.121-1.637 7.521 1.498 9.842 3.124 2.312 7.525 1.669 9.836-1.452 2.316-3.129 1.661-7.546-1.463-9.859a7.058 7.058 0 00-9.871 1.469zm19.048 15.341c-2.671 3.608-4.762 7.514-6.161 11.589l34.464 9.187-17.928-30.854c-3.915 2.693-7.396 6.054-10.375 10.078zm25.377-41.441c-3.841.568-6.499 4.158-5.918 7.993.593 3.862 4.179 6.516 8.014 5.933a6.986 6.986 0 005.917-7.994c-.557-3.844-4.143-6.499-8.013-5.932z" fill="url(#paint15_linear_398_2193)"/><path d="M172.833 484.269l7.778-5.42 5.258 4.484-4.139 8.531a44.548 44.548 0 013.61 4.548l9.359-2.142 3.181 6.129-7.152 6.386a45.389 45.389 0 011.765 6.141l9.348 1.677.549 6.877-8.968 3.096a44.957 44.957 0 01-.662 5.751l8.046 5.074-2.082 6.571-9.489-.512a45.547 45.547 0 01-3.087 5.572l5.442 7.792-4.478 5.24-8.545-4.156a45.163 45.163 0 01-4.546 3.597l2.165 9.357-6.123 3.165-6.411-7.165a45.555 45.555 0 01-6.14 1.751l-1.652 9.338-6.884.534-3.119-8.975a45.592 45.592 0 01-5.757-.674l-5.06 8.029-6.582-2.097.489-9.481a45.477 45.477 0 01-5.584-3.1l-7.782 5.418-5.254-4.484 4.137-8.529a45.404 45.404 0 01-3.609-4.55l-9.357 2.143-3.184-6.128 7.157-6.391a45.492 45.492 0 01-1.769-6.138l-9.347-1.675-.552-6.876 8.971-3.097a45.46 45.46 0 01.659-5.75l-8.046-5.074 2.084-6.574 9.49.513a45.235 45.235 0 013.087-5.573l-5.443-7.791 4.476-5.241 8.546 4.154a45.303 45.303 0 014.54-3.596l-2.162-9.357 6.126-3.166 6.41 7.167a44.66 44.66 0 016.14-1.748l1.654-9.339 6.881-.534 3.119 8.973c1.936.101 3.86.33 5.755.677l5.061-8.029 6.579 2.097-.49 9.482a45.34 45.34 0 015.593 3.098zm-24.87 22.658c2.823-.051 6.346 1.204 8.02 2.191l11.658-15.748c-7.915-5.554-14.891-6.728-22.711-6.088l3.033 19.645zm-4.802 10.945c-2.138 2.889-1.521 6.987 1.377 9.132 2.896 2.144 6.994 1.536 9.132-1.352 2.14-2.892 1.523-6.987-1.373-9.131-2.897-2.145-6.996-1.54-9.136 1.351zm27.56-22.166l-11.703 15.81c1.294 1.501 3.401 4.711 3.954 7.537l19.627-2.855c-1.417-7.787-5.963-15.486-11.878-20.492zm11.599 24.228l-19.987 3.28c-.049 2.321-.049 3.832-2.091 7.13l16.275 12.047c5.296-8.104 6.471-15.041 5.803-22.457zm-6.888 24.059l-16.275-12.047c-2.492 2.965-4.199 3.445-6.853 4.196l2.987 20.518c7.783-1.675 15.415-6.545 20.141-12.667zm-22.889 12.925l-3.014-20.344c-2.674.166-6.021-.856-7.817-1.679l-12.375 16.718c6.52 4.188 15.285 6.279 23.206 5.305zm-26.337-7.573l12.325-16.65c-1.441-1.303-3.436-3.958-4.258-6.448l-20.566 2.968c1.644 7.737 4.877 14.182 12.499 20.13zm-12.928-22.826l20.244-2.893c-.335-3.161-.058-5.893 2.018-9.166l-16.239-12.021c-4.468 6.316-7.021 15.763-6.023 24.08zm7.239-25.582l16.239 12.021c2.604-2.882 5.034-4.167 7.706-4.796l-3.215-19.206c-7.743 1.344-14.503 4.566-20.73 11.981z" fill="url(#paint16_linear_398_2193)"/></g></g><defs><linearGradient id="paint0_linear_398_2193" x1="896.099" y1="437.611" x2="885.729" y2="380.33" gradientUnits="userSpaceOnUse"><stop stop-color="#FFE292"/><stop offset=".086" stop-color="#FFD562"/><stop offset=".151" stop-color="#FFE2A0"/><stop offset=".327" stop-color="#FCC266"/><stop offset=".626" stop-color="#FFDD9A"/><stop offset=".906" stop-color="#E98B34"/><stop offset=".979" stop-color="#FFE292"/></linearGradient><linearGradient id="paint1_linear_398_2193" x1="896.046" y1="513.318" x2="857.862" y2="302.334" gradientUnits="userSpaceOnUse"><stop stop-color="#FFE292"/><stop offset=".086" stop-color="#FFD562"/><stop offset=".151" stop-color="#FFE2A0"/><stop offset=".327" stop-color="#FCC266"/><stop offset=".626" stop-color="#FFDD9A"/><stop offset=".906" stop-color="#E98B34"/><stop offset=".979" stop-color="#FFE292"/></linearGradient><linearGradient id="paint2_linear_398_2193" x1="831.267" y1="285.454" x2="826.931" y2="261.501" gradientUnits="userSpaceOnUse"><stop stop-color="#FFE292"/><stop offset=".086" stop-color="#FFD562"/><stop offset=".151" stop-color="#FFE2A0"/><stop offset=".327" stop-color="#FCC266"/><stop offset=".626" stop-color="#FFDD9A"/><stop offset=".906" stop-color="#E98B34"/><stop offset=".979" stop-color="#FFE292"/></linearGradient><linearGradient id="paint3_linear_398_2193" x1="831.24" y1="317.129" x2="815.261" y2="228.878" gradientUnits="userSpaceOnUse"><stop stop-color="#FFE292"/><stop offset=".086" stop-color="#FFD562"/><stop offset=".151" stop-color="#FFE2A0"/><stop offset=".327" stop-color="#FCC266"/><stop offset=".626" stop-color="#FFDD9A"/><stop offset=".906" stop-color="#E98B34"/><stop offset=".979" stop-color="#FFE292"/></linearGradient><linearGradient id="paint4_linear_398_2193" x1="232.908" y1="429.915" x2="226.667" y2="395.445" gradientUnits="userSpaceOnUse"><stop stop-color="#FFE292"/><stop offset=".086" stop-color="#FFD562"/><stop offset=".151" stop-color="#FFE2A0"/><stop offset=".327" stop-color="#FCC266"/><stop offset=".626" stop-color="#FFDD9A"/><stop offset=".906" stop-color="#E98B34"/><stop offset=".979" stop-color="#FFE292"/></linearGradient><linearGradient id="paint5_linear_398_2193" x1="232.884" y1="475.482" x2="209.906" y2="348.515" gradientUnits="userSpaceOnUse"><stop stop-color="#FFE292"/><stop offset=".086" stop-color="#FFD562"/><stop offset=".151" stop-color="#FFE2A0"/><stop offset=".327" stop-color="#FCC266"/><stop offset=".626" stop-color="#FFDD9A"/><stop offset=".906" stop-color="#E98B34"/><stop offset=".979" stop-color="#FFE292"/></linearGradient><linearGradient id="paint6_linear_398_2193" x1="601.754" y1="675.514" x2="583.181" y2="572.917" gradientUnits="userSpaceOnUse"><stop stop-color="#FFE292"/><stop offset=".086" stop-color="#FFD562"/><stop offset=".151" stop-color="#FFE2A0"/><stop offset=".327" stop-color="#FCC266"/><stop offset=".626" stop-color="#FFDD9A"/><stop offset=".906" stop-color="#E98B34"/><stop offset=".979" stop-color="#FFE292"/></linearGradient><linearGradient id="paint7_linear_398_2193" x1="601.66" y1="811.132" x2="533.259" y2="433.233" gradientUnits="userSpaceOnUse"><stop stop-color="#FFE292"/><stop offset=".086" stop-color="#FFD562"/><stop offset=".151" stop-color="#FFE2A0"/><stop offset=".327" stop-color="#FCC266"/><stop offset=".626" stop-color="#FFDD9A"/><stop offset=".906" stop-color="#E98B34"/><stop offset=".979" stop-color="#FFE292"/></linearGradient><linearGradient id="paint8_linear_398_2193" x1="691.057" y1="451.401" x2="650.528" y2="227.483" gradientUnits="userSpaceOnUse"><stop stop-color="#FFE292"/><stop offset=".086" stop-color="#FFD562"/><stop offset=".151" stop-color="#FFE2A0"/><stop offset=".327" stop-color="#FCC266"/><stop offset=".626" stop-color="#FFDD9A"/><stop offset=".906" stop-color="#E98B34"/><stop offset=".979" stop-color="#FFE292"/></linearGradient><linearGradient id="paint9_linear_398_2193" x1="773.463" y1="241.564" x2="746.398" y2="92.028" gradientUnits="userSpaceOnUse"><stop stop-color="#FFE292"/><stop offset=".086" stop-color="#FFD562"/><stop offset=".151" stop-color="#FFE2A0"/><stop offset=".327" stop-color="#FCC266"/><stop offset=".626" stop-color="#FFDD9A"/><stop offset=".906" stop-color="#E98B34"/><stop offset=".979" stop-color="#FFE292"/></linearGradient><linearGradient id="paint10_linear_398_2193" x1="773.329" y1="222.511" x2="753.347" y2="112.092" gradientUnits="userSpaceOnUse"><stop stop-color="#FFE292"/><stop offset=".086" stop-color="#FFD562"/><stop offset=".151" stop-color="#FFE2A0"/><stop offset=".327" stop-color="#FCC266"/><stop offset=".626" stop-color="#FFDD9A"/><stop offset=".906" stop-color="#E98B34"/><stop offset=".979" stop-color="#FFE292"/></linearGradient><linearGradient id="paint11_linear_398_2193" x1="372.422" y1="826.653" x2="344.289" y2="671.221" gradientUnits="userSpaceOnUse"><stop stop-color="#FFE292"/><stop offset=".086" stop-color="#FFD562"/><stop offset=".151" stop-color="#FFE2A0"/><stop offset=".327" stop-color="#FCC266"/><stop offset=".626" stop-color="#FFDD9A"/><stop offset=".906" stop-color="#E98B34"/><stop offset=".979" stop-color="#FFE292"/></linearGradient><linearGradient id="paint12_linear_398_2193" x1="372.287" y1="806.853" x2="351.517" y2="692.082" gradientUnits="userSpaceOnUse"><stop stop-color="#FFE292"/><stop offset=".086" stop-color="#FFD562"/><stop offset=".151" stop-color="#FFE2A0"/><stop offset=".327" stop-color="#FCC266"/><stop offset=".626" stop-color="#FFDD9A"/><stop offset=".906" stop-color="#E98B34"/><stop offset=".979" stop-color="#FFE292"/></linearGradient><linearGradient id="paint13_linear_398_2193" x1="427.232" y1="486.37" x2="371.818" y2="184.528" gradientUnits="userSpaceOnUse"><stop stop-color="#FFE292"/><stop offset=".086" stop-color="#FFD562"/><stop offset=".151" stop-color="#FFE2A0"/><stop offset=".327" stop-color="#FCC266"/><stop offset=".626" stop-color="#FFDD9A"/><stop offset=".906" stop-color="#E98B34"/><stop offset=".979" stop-color="#FFE292"/></linearGradient><linearGradient id="paint14_linear_398_2193" x1="763.838" y1="519.049" x2="748.156" y2="433.644" gradientUnits="userSpaceOnUse"><stop stop-color="#FFE292"/><stop offset=".086" stop-color="#FFD562"/><stop offset=".151" stop-color="#FFE2A0"/><stop offset=".327" stop-color="#FCC266"/><stop offset=".626" stop-color="#FFDD9A"/><stop offset=".906" stop-color="#E98B34"/><stop offset=".979" stop-color="#FFE292"/></linearGradient><linearGradient id="paint15_linear_398_2193" x1="309.842" y1="685.441" x2="266.373" y2="453.298" gradientUnits="userSpaceOnUse"><stop stop-color="#FFE292"/><stop offset=".086" stop-color="#FFD562"/><stop offset=".151" stop-color="#FFE2A0"/><stop offset=".327" stop-color="#FCC266"/><stop offset=".626" stop-color="#FFDD9A"/><stop offset=".906" stop-color="#E98B34"/><stop offset=".979" stop-color="#FFE292"/></linearGradient><linearGradient id="paint16_linear_398_2193" x1="148.497" y1="578.28" x2="127.669" y2="463.19" gradientUnits="userSpaceOnUse"><stop stop-color="#FFE292"/><stop offset=".086" stop-color="#FFD562"/><stop offset=".151" stop-color="#FFE2A0"/><stop offset=".327" stop-color="#FCC266"/><stop offset=".626" stop-color="#FFDD9A"/><stop offset=".906" stop-color="#E98B34"/><stop offset=".979" stop-color="#FFE292"/></linearGradient></defs></svg>