<svg width="185" height="184" viewBox="0 0 185 184" fill="none" xmlns="http://www.w3.org/2000/svg"><mask id="mask0_332_2839" style="mask-type:alpha" maskUnits="userSpaceOnUse" x="0" y="-1" width="185" height="185"><rect y="-.001" width="185" height="184" rx="15" fill="#fff"/></mask><g mask="url(#mask0_332_2839)" fill="#F3F3F3"><path d="M78.696 73.268c-2.154-2.91-6.281-3.521-9.198-1.362-2.919 2.16-3.539 6.286-1.385 9.196 2.155 2.91 6.281 3.522 9.2 1.361 2.917-2.159 3.538-6.284 1.383-9.195zM71.06 78.92a2.918 2.918 0 014.69-3.472 2.917 2.917 0 01-4.69 3.471z"/><path d="M84.298 93.911l3.472 2.42 2.345-2.002-1.845-3.806a20.221 20.221 0 001.61-2.03l4.176.955 1.42-2.735-3.192-2.85c.33-.904.59-1.818.787-2.74l4.171-.747.245-3.068-4.001-1.382a20.168 20.168 0 00-.296-2.566l3.59-2.264-.93-2.933-4.233.229a20.006 20.006 0 00-1.378-2.487l2.428-3.477-1.997-2.337-3.812 1.853a20.188 20.188 0 00-2.028-1.605l.966-4.174-2.733-1.413-2.86 3.198a20.309 20.309 0 00-2.74-.781l-.737-4.167-3.072-.237-1.39 4.004c-.866.046-1.722.146-2.57.3l-2.257-3.581-2.936.936.218 4.232c-.86.4-1.693.862-2.492 1.382l-3.472-2.418-2.345 2.001 1.845 3.805a20.318 20.318 0 00-1.61 2.03l-4.176-.955-1.42 2.734 3.193 2.85c-.33.904-.593 1.819-.789 2.74l-4.17.748-.246 3.068 4.003 1.381c.043.864.142 1.72.294 2.567l-3.59 2.264.93 2.933 4.235-.23c.399.857.859 1.69 1.377 2.487l-2.428 3.477 1.997 2.337 3.813-1.853a20.404 20.404 0 002.026 1.605l-.965 4.174 2.734 1.413 2.86-3.197c.903.328 1.819.588 2.74.781l.736 4.166 3.071.238 1.392-4.003a19.98 19.98 0 002.569-.302l2.258 3.583 2.937-.936-.219-4.23c.858-.403 1.69-.864 2.491-1.385zM60.734 86.25c-5.11-6.903-3.64-16.65 3.278-21.772 6.92-5.122 16.67-3.68 21.78 3.222 5.108 6.902 3.64 16.65-3.278 21.773-6.92 5.121-16.671 3.678-21.78-3.223zm194.181-45.187l10.333 7.2 6.98-5.956-5.493-11.33a59.787 59.787 0 004.793-6.04l12.431 2.844 4.223-8.14-9.5-8.482a60.68 60.68 0 002.345-8.154L293.441.779l.729-9.132-11.912-4.113a60.187 60.187 0 00-.878-7.638l10.685-6.738-2.764-8.728-12.606.68a59.972 59.972 0 00-4.101-7.4l7.228-10.348-5.946-6.958-11.347 5.516a60.115 60.115 0 00-6.036-4.777l2.875-12.423-8.134-4.206-8.514 9.517a60.209 60.209 0 00-8.154-2.326l-2.194-12.4-9.141-.708-4.14 11.916a60.894 60.894 0 00-7.648.894l-6.719-10.661-8.74 2.784.649 12.595a60.227 60.227 0 00-7.415 4.114l-10.337-7.197-6.977 5.956 5.492 11.326a60.68 60.68 0 00-4.795 6.043l-12.428-2.845-4.225 8.14 9.503 8.485a60.233 60.233 0 00-2.346 8.152l-12.415 2.226-.73 9.133 11.915 4.11c.128 2.57.424 5.12.875 7.64l-10.684 6.738 2.766 8.727 12.605-.68a60.275 60.275 0 004.099 7.402l-7.228 10.346 5.946 6.96 11.348-5.517a60.51 60.51 0 006.032 4.777l-2.873 12.426 8.138 4.203 8.51-9.516a60.015 60.015 0 008.158 2.324L211.76 62l9.139.709 4.144-11.916a59.695 59.695 0 007.644-.898l6.72 10.663 8.739-2.784-.65-12.594a60.514 60.514 0 007.419-4.116zm-70.14-22.807C169.568-2.287 173.936-31.3 194.53-46.545c20.596-15.246 49.62-10.951 64.827 9.592s10.841 49.558-9.755 64.804c-20.594 15.245-49.62 10.948-64.827-9.595zm3.371 129.94l-.903-.913c-1.433-1.448-1.703-3.744-.512-5.4 1.537-2.139 4.566-2.31 6.336-.524l.805.814a2.604 2.604 0 003.921-.258c.473-.621.931-1.25 1.375-1.887a2.597 2.597 0 00-.872-3.761l-1.138-.628c-1.783-.985-2.69-3.11-2.015-5.035.872-2.481 3.735-3.5 5.936-2.284l.998.551a2.608 2.608 0 003.695-1.357c.275-.727.535-1.46.78-2.194a2.594 2.594 0 00-1.899-3.357l-1.374-.305a4.148 4.148 0 01-3.14-4.947c-1.299-1.755.284-4.185 2.419-3.711l3.645.807a2.608 2.608 0 003.164-2.335c.06-.774.107-1.548.136-2.322a2.596 2.596 0 00-2.77-2.689l-1.4.095a4.152 4.152 0 01-4.411-3.859 4.173 4.173 0 013.872-4.416l1.144-.077a2.607 2.607 0 002.379-3.13 58.52 58.52 0 00-.524-2.269 2.597 2.597 0 00-3.418-1.796l-1.33.49c-2.143.787-4.539-.32-5.321-2.459h.001c-.784-2.14.328-4.536 2.472-5.324l1.07-.393c1.485-.546 2.152-2.282 1.402-3.673a56.14 56.14 0 00-1.144-2.024 2.603 2.603 0 00-3.788-.76l-1.132.838c-1.837 1.36-4.448.973-5.803-.858-1.356-1.832-.962-4.442.874-5.801l.915-.678a2.598 2.598 0 00.311-3.915 53.751 53.751 0 00-1.665-1.622 2.604 2.604 0 00-3.851.335l-.783 1.032c-1.232 1.625-3.47 2.226-5.277 1.287-2.334-1.209-2.927-4.182-1.405-6.19l.692-.916a2.596 2.596 0 00-.807-3.844 60.532 60.532 0 00-2.062-1.083 2.61 2.61 0 00-3.6 1.408l-.504 1.325c-.811 2.134-3.221 3.221-5.353 2.413a4.15 4.15 0 01-2.404-5.343l.403-1.06a2.592 2.592 0 00-1.857-3.458 60.472 60.472 0 00-2.28-.457 2.607 2.607 0 00-3.06 2.362l-.11 1.4a4.175 4.175 0 01-4.46 3.822 4.149 4.149 0 01-3.814-4.45l.088-1.133a2.594 2.594 0 00-2.756-2.793c-.773.051-1.548.12-2.32.2a2.613 2.613 0 00-2.278 3.13l.291 1.378c.471 2.231-.97 4.444-3.203 4.92-2.232.475-4.446-.961-4.916-3.19l-.237-1.12a2.596 2.596 0 00-3.436-1.9c-.728.267-1.451.549-2.171.848a2.604 2.604 0 00-1.3 3.64l.669 1.243c1.08 2.007.32 4.535-1.69 5.621-2.012 1.084-4.539.33-5.62-1.675l-.539-1c-.745-1.384-2.55-1.802-3.816-.865l-.025.018c-.63.466-1.245.942-1.85 1.429a2.596 2.596 0 00-.21 3.844l.987.997c1.603 1.62 1.587 4.258-.038 5.864-1.624 1.605-4.265 1.594-5.867-.025l-.807-.813a2.604 2.604 0 00-3.921.258c-.473.62-.932 1.25-1.375 1.884a2.598 2.598 0 00.871 3.763l1.243.685a4.15 4.15 0 011.616 5.632c-1.107 1.997-3.645 2.73-5.643 1.628l-.995-.55a2.61 2.61 0 00-3.696 1.357 57.222 57.222 0 00-.78 2.193 2.594 2.594 0 001.9 3.356l1.373.305a4.152 4.152 0 013.14 4.947c1.299 1.755-.285 4.187-2.419 3.714l-3.644-.808a2.608 2.608 0 00-3.165 2.335 60.473 60.473 0 00-.137 2.322 2.598 2.598 0 002.772 2.688l1.281-.086c2.037-.137 3.949 1.157 4.422 3.14.609 2.556-1.253 4.957-3.765 5.125l-1.142.078a2.606 2.606 0 00-2.382 3.129c.16.758.335 1.514.526 2.269a2.597 2.597 0 003.418 1.797l1.234-.454c1.892-.695 4.059-.01 5.082 1.72 1.354 2.289.244 5.15-2.138 6.027l-1.071.394c-1.486.546-2.151 2.283-1.401 3.673.368.68.749 1.354 1.146 2.023a2.602 2.602 0 003.787.76l1.132-.838c1.836-1.359 4.447-.971 5.802.859 1.356 1.832.964 4.441-.873 5.801l-.915.677a2.604 2.604 0 00-.311 3.917 54.06 54.06 0 001.666 1.62 2.604 2.604 0 003.853-.334l.78-1.032c1.234-1.625 3.469-2.226 5.278-1.288 2.334 1.21 2.927 4.184 1.405 6.191l-.693.916a2.594 2.594 0 00.808 3.843c.681.375 1.368.736 2.061 1.084a2.61 2.61 0 003.6-1.409l.461-1.213c.726-1.908 2.703-3.111 4.705-2.721 2.583.503 3.989 3.187 3.095 5.54l-.403 1.059a2.594 2.594 0 001.857 3.459c.757.167 1.519.32 2.281.456a2.608 2.608 0 003.061-2.363l.101-1.279c.159-2.032 1.719-3.744 3.749-3.933a4.147 4.147 0 014.533 4.441l-.088 1.134a2.593 2.593 0 002.755 2.791 56.395 56.395 0 002.32-.2 2.61 2.61 0 002.277-3.129l-.289-1.378c-.473-2.231.971-4.444 3.204-4.921 1.716-1.27 4.169-.343 4.609 1.743l.542 2.569a2.597 2.597 0 003.436 1.9 60.226 60.226 0 002.173-.849 2.61 2.61 0 001.3-3.642l-.67-1.243c-1.192-2.214-.144-5.061 2.35-5.907 1.932-.654 4.05.276 5.015 2.068l.482.895c.746 1.385 2.552 1.802 3.818.865a2.592 2.592 0 002.081-5.288zm-3.071-62.407c4.938 7.707 6.872 16.581 6.017 25.16l-13.297-1.969a25.96 25.96 0 00-3.548-15.177l10.828-8.015zm-3.197-4.32l-10.828 8.015a25.96 25.96 0 00-13.478-7.824l1.999-13.293c8.454 1.687 16.377 6.128 22.307 13.102zm-27.643-13.795l-2.008 13.338a26.084 26.084 0 00-14.634 4.173l-7.981-10.781a39.476 39.476 0 0124.623-6.73zm-41.294 31.709a39.5 39.5 0 0112.42-21.67l8.022 10.838a26.099 26.099 0 00-7.144 12.799l-13.298-1.967zm5.427 29.099a39.262 39.262 0 01-6.132-23.763l13.343 1.975a25.915 25.915 0 003.616 13.773l-10.827 8.015zm15.36-8.026c-7.34-9.915-5.231-23.912 4.707-31.27 9.936-7.354 23.939-5.284 31.279 4.631 7.337 9.913 5.23 23.913-4.705 31.268-9.939 7.357-23.944 5.283-31.281-4.629zm-12.163 12.346l10.828-8.015a25.908 25.908 0 0012.117 7.481l-2.007 13.339a39.28 39.28 0 01-20.938-12.805zm26.247 13.688l2-13.293a26.076 26.076 0 0014.327-3.097l8.023 10.839a39.508 39.508 0 01-24.35 5.551zm20.777-19.432a26.1 26.1 0 008.266-12.777l13.341 1.974a39.47 39.47 0 01-13.626 21.585l-7.981-10.782zm-36.147-79.409a2.002 2.002 0 00.151-2.966l-.699-.705c-1.107-1.121-1.317-2.886-.404-4.165 1.179-1.64 3.505-1.763 4.87-.384l.624.633c.853.861 2.28.779 3.015-.19.357-.477.712-.969 1.057-1.452a2.02 2.02 0 00-.686-2.902l-.878-.483c-1.373-.766-2.076-2.41-1.561-3.886a3.181 3.181 0 014.551-1.745l.772.422a1.988 1.988 0 002.837-1.03c.21-.559.412-1.124.595-1.69.381-1.122-.306-2.328-1.467-2.59l-1.054-.242a3.215 3.215 0 01-2.43-3.82c-.999-1.35.209-3.218 1.848-2.849l2.805.63c1.187.268 2.342-.581 2.431-1.788.047-.597.076-1.194.098-1.795a2.02 2.02 0 00-2.141-2.08l-1.077.073a3.224 3.224 0 01-3.398-2.983 3.18 3.18 0 012.967-3.393l.878-.059a1.99 1.99 0 001.82-2.408c-.12-.585-.264-1.16-.401-1.742a2.025 2.025 0 00-2.639-1.405l-1.016.378a3.217 3.217 0 01-4.105-1.909 3.198 3.198 0 011.89-4.094l.816-.302a2.005 2.005 0 001.074-2.831 54.782 54.782 0 00-.892-1.557 2.005 2.005 0 00-2.912-.594l-.86.637a3.198 3.198 0 01-4.47-.674 3.202 3.202 0 01.659-4.474l.695-.515a2.01 2.01 0 00.237-3.013c-.423-.43-.855-.844-1.292-1.252a1.995 1.995 0 00-2.962.252l-.595.79c-.94 1.246-2.669 1.703-4.051.98a3.215 3.215 0 01-1.104-4.78l.53-.703a2.005 2.005 0 00-.625-2.96 43.057 43.057 0 00-1.594-.84 1.99 1.99 0 00-2.763 1.073l-.386 1.017a3.188 3.188 0 01-4.106 1.849c-1.646-.628-2.486-2.488-1.862-4.122l.299-.82a2.013 2.013 0 00-1.43-2.674 56.407 56.407 0 00-1.759-.355 1.996 1.996 0 00-2.348 1.82l-.077 1.074a3.19 3.19 0 01-3.421 2.934c-1.747-.145-3.078-1.689-2.941-3.438l.064-.874a2.016 2.016 0 00-2.13-2.162c-.596.035-1.191.09-1.786.149a1.999 1.999 0 00-1.743 2.401l.238 1.07a3.2 3.2 0 01-2.46 3.779 3.21 3.21 0 01-3.786-2.472l-.184-.858a2.015 2.015 0 00-2.653-1.477c-.557.209-1.109.42-1.666.648a2.01 2.01 0 00-.995 2.803l.522.958c.837 1.547.26 3.497-1.278 4.33-1.55.827-3.5.242-4.33-1.304l-.419-.777c-.58-1.064-1.962-1.396-2.938-.674l-.017.012c-.48.356-.959.72-1.418 1.093a2.007 2.007 0 00-.153 2.97l.761.763c1.236 1.26 1.225 3.29-.016 4.521a3.19 3.19 0 01-4.511-.037l-.624-.622a1.995 1.995 0 00-3.014.184c-.36.483-.714.957-1.048 1.451a2.005 2.005 0 00.674 2.9l.96.536c1.537.847 2.1 2.808 1.26 4.342a3.189 3.189 0 01-4.336 1.238l-.767-.422a1.99 1.99 0 00-2.84 1.033 51.591 51.591 0 00-.599 1.69 2.02 2.02 0 001.471 2.592l1.064.238c1.709.388 2.803 2.107 2.426 3.812 1.005 1.357-.204 3.23-1.855 2.861l-2.802-.631a1.994 1.994 0 00-2.428 1.797 61.81 61.81 0 00-.104 1.78 2.023 2.023 0 002.144 2.084l.987-.064c1.56-.101 3.035.904 3.403 2.433.477 1.967-.947 3.816-2.876 3.932l-.88.06a1.99 1.99 0 00-1.82 2.408c.12.585.259 1.17.409 1.746a2.005 2.005 0 002.633 1.396l.948-.352c1.45-.526 3.118.006 3.913 1.347a3.188 3.188 0 01-1.632 4.631l-.817.305a1.986 1.986 0 00-1.067 2.823c.28.527.574 1.053.88 1.563a2.005 2.005 0 002.914.599l.872-.645c1.41-1.045 3.416-.736 4.464.68a3.198 3.198 0 01-.655 4.465l-.704.52a2.006 2.006 0 00-.234 3.014c.423.433.852.85 1.29 1.256.863.82 2.244.694 2.958-.245l.602-.8c.94-1.247 2.66-1.699 4.05-.977 1.796.944 2.261 3.237 1.1 4.775l-.525.699a2.014 2.014 0 00.62 2.972c.53.291 1.056.565 1.597.837a1.994 1.994 0 002.764-1.073l.35-.94c.552-1.464 2.069-2.386 3.612-2.081 1.985.392 3.07 2.466 2.389 4.279l-.3.814a2.009 2.009 0 001.43 2.668c.582.13 1.166.249 1.759.357a1.993 1.993 0 002.348-1.811l.075-.989c.117-1.563 1.307-2.877 2.875-3.02 2.01-.18 3.635 1.503 3.492 3.435l-.064.873a2.009 2.009 0 002.121 2.16c.6-.038 1.195-.087 1.793-.148a1.995 1.995 0 001.738-2.403l-.229-1.064a3.2 3.2 0 012.455-3.785c1.317-.975 3.208-.257 3.548 1.351l.423 1.985a2.01 2.01 0 002.651 1.468 39.385 39.385 0 001.669-.644 2.004 2.004 0 00.994-2.802l-.521-.958c-.926-1.708-.127-3.899 1.787-4.545 1.489-.5 3.119.22 3.863 1.604l.375.692c.58 1.064 1.973 1.392 2.938.677l.021-.015c.482-.355.951-.715 1.417-1.091zm-35.28-18.773l7.264-12.463 3.675 13.922a17.962 17.962 0 01-10.938-1.46zm23.865-8.408l-12.469-7.22 13.947-3.717a17.94 17.94 0 01-1.478 10.937zm-13.88-4.789l12.458 7.224a17.926 17.926 0 01-4.069 4.196 17.46 17.46 0 01-4.708 2.502l-3.681-13.922zm13.86 19.228a2.85 2.85 0 01-3.982-.592 2.855 2.855 0 014.588-3.396 2.854 2.854 0 01-.606 3.988zm8.209-21.217a2.826 2.826 0 012.394 3.235 2.845 2.845 0 01-3.238 2.397 2.845 2.845 0 01-2.395-3.235 2.854 2.854 0 013.239-2.397zM126.4-3.248a2.842 2.842 0 01-.595 3.982 2.845 2.845 0 11-3.385-4.573 2.845 2.845 0 013.98.591zm-7.107 5.36a17.31 17.31 0 012.488 4.701l-13.941 3.712 7.255-12.473a17.675 17.675 0 014.198 4.06zM88.812 5.05l12.447 7.227-13.93 3.706A17.846 17.846 0 0188.811 5.05zm3.414-13.012a2.85 2.85 0 01-.605 3.981 2.85 2.85 0 01-3.986-.583 2.854 2.854 0 01.603-3.986 2.854 2.854 0 013.988.588zm2.078 6.38a17.988 17.988 0 014.697-2.497l3.678 13.92-12.455-7.219a17.878 17.878 0 014.08-4.204zm18.366-1.772L105.412 9.13l-3.683-13.94a17.879 17.879 0 0110.941 1.456zm-4.232-10.45a2.851 2.851 0 012.394 3.234 2.852 2.852 0 01-3.24 2.399 2.836 2.836 0 01-2.395-3.235 2.86 2.86 0 013.241-2.399zm-28.41 26.468a2.846 2.846 0 01-2.398-3.24 2.853 2.853 0 015.643.838 2.872 2.872 0 01-3.245 2.402zM82.837 29.6a2.845 2.845 0 01.606-3.98 2.842 2.842 0 013.978.587 2.851 2.851 0 11-4.584 3.393zm7.704-6.204a17.418 17.418 0 01-2.492-4.688l13.939-3.715-7.25 12.479a17.67 17.67 0 01-4.197-4.076zm10.263 16.76a2.843 2.843 0 01-2.393-3.232 2.853 2.853 0 013.241-2.4 2.826 2.826 0 012.394 3.233 2.849 2.849 0 01-3.242 2.4zm-51.649 8.255l3.146 2.192 2.126-1.813-1.674-3.45a18.053 18.053 0 001.46-1.84l3.785.866 1.287-2.479-2.893-2.583c.3-.82.537-1.649.714-2.483l3.781-.679.222-2.78-3.627-1.253a18.42 18.42 0 00-.267-2.326l3.254-2.052-.842-2.658-3.838.207a18.424 18.424 0 00-1.249-2.254l2.201-3.151-1.811-2.12-3.456 1.681a18.298 18.298 0 00-1.839-1.455l.876-3.784-2.477-1.28-2.593 2.898a18.418 18.418 0 00-2.483-.708l-.668-3.777-2.785-.216-1.26 3.63c-.784.041-1.561.133-2.33.272L33.87 11.77l-2.662.848.198 3.835c-.779.363-1.534.782-2.259 1.254L26 15.514l-2.125 1.814 1.673 3.45a18.4 18.4 0 00-1.46 1.84l-3.784-.867-1.288 2.479 2.895 2.584c-.3.82-.538 1.648-.715 2.483l-3.781.677-.223 2.781 3.628 1.253c.04.782.129 1.56.267 2.326l-3.255 2.052.843 2.659 3.839-.208c.361.778.778 1.532 1.248 2.254l-2.201 3.151 1.81 2.12 3.456-1.68a18.363 18.363 0 001.837 1.454l-.875 3.785 2.478 1.28 2.593-2.898a18.07 18.07 0 002.483.707l.669 3.777 2.783.216 1.262-3.63c.783-.04 1.56-.133 2.327-.273l2.047 3.247 2.66-.848-.197-3.835a18.299 18.299 0 002.262-1.253zm-10.059-9.164c1.142.02 2.567-.487 3.244-.886l4.715 6.37c-3.201 2.245-6.023 2.72-9.186 2.462l1.227-7.946zm-1.942-4.427a2.645 2.645 0 014.25-3.146 2.643 2.643 0 01-4.25 3.146zM48.3 43.786l-4.734-6.395c.524-.607 1.376-1.905 1.6-3.048l7.938 1.154c-.573 3.15-2.412 6.264-4.804 8.289zm4.69-9.8l-8.083-1.326c-.02-.94-.02-1.55-.846-2.884l6.583-4.873c2.142 3.278 2.617 6.084 2.347 9.083zm-2.785-9.73l-6.582 4.872c-1.009-1.2-1.699-1.393-2.772-1.697l1.208-8.299c3.148.678 6.234 2.647 8.146 5.123zm-9.258-5.228l-1.219 8.228c-1.081-.067-2.435.346-3.161.68l-5.005-6.762c2.637-1.694 6.182-2.54 9.386-2.146zm-10.65 3.062l4.985 6.734c-.583.527-1.39 1.601-1.722 2.608l-8.318-1.2c.665-3.13 1.972-5.737 5.055-8.142zm-5.229 9.232l8.188 1.17c-.135 1.278-.023 2.383.816 3.707l-6.567 4.862c-1.807-2.554-2.84-6.375-2.437-9.739zm2.928 10.347l6.568-4.862c1.054 1.165 2.036 1.685 3.117 1.94l-1.3 7.767c-3.132-.543-5.866-1.846-8.385-4.845z"/></g></svg>