<svg width="20" height="16" viewBox="0 0 20 16" fill="none" xmlns="http://www.w3.org/2000/svg"><path d="M12.282 14.939c1.937-1.579 3.375-3.157 4.316-4.735.885-1.524 1.244-2.83 1.078-3.918l-.249-.408h-.497l-.25.081-1.161.082c-.83 0-1.522-.327-2.075-.98-.609-.598-.913-1.306-.913-2.122 0-.762.36-1.442 1.079-2.041C14.33.299 15.214 0 16.266 0c.995 0 1.88.517 2.655 1.551C19.641 2.585 20 3.782 20 5.143c0 2.177-.747 4.245-2.24 6.204-1.052 1.578-2.629 3.13-4.731 4.653l-.747-1.061zM0 14.939c1.936-1.579 3.375-3.157 4.315-4.735.886-1.524 1.245-2.83 1.08-3.918l-.25-.408h-.498l-.332.081-1.078.082c-.83 0-1.522-.327-2.075-.98C.553 4.463.249 3.755.249 2.94c0-.762.36-1.442 1.079-2.041S2.932 0 3.983 0C4.98 0 5.864.517 6.64 1.551c.72 1.034 1.079 2.231 1.079 3.592C7.718 8.898 5.394 12.517.747 16L0 14.939z" fill="#fff"/></svg>