<svg width="21" height="21" viewBox="0 0 21 21" fill="none" xmlns="http://www.w3.org/2000/svg"><path d="M8.516 9.075a1.947 1.947 0 013.173 2.262 1.948 1.948 0 01-3.173-2.262zm2.29 1.632A.864.864 0 009.4 9.705a.863.863 0 001.405 1.002z" fill="#232323"/><path d="M6.968 15.217l-1.014.735-.705-.58.526-1.136a6.003 6.003 0 01-.488-.593l-1.23.306-.435-.802.93-.861a6.011 6.011 0 01-.248-.807l-1.238-.2-.09-.906 1.178-.43c.008-.257.033-.51.073-.762l-1.074-.65.259-.874 1.254.045a6.09 6.09 0 01.395-.744l-.737-1.016.578-.703 1.138.528c.185-.172.382-.335.592-.486l-.308-1.23.8-.433.864.931c.266-.102.535-.184.807-.246l.196-1.238.907-.087.434 1.178c.255.01.51.034.762.075l.648-1.072.874.261-.042 1.254c.257.114.506.246.745.396l1.015-.735.704.58-.525 1.137c.173.185.336.382.487.592l1.23-.305.436.801-.93.861c.102.266.185.536.248.807l1.238.199.089.907-1.177.43c-.008.256-.033.51-.074.762l1.075.65-.26.874-1.254-.045a5.973 5.973 0 01-.394.743l.737 1.017-.578.702-1.138-.528a6.023 6.023 0 01-.591.486l.307 1.231-.801.433-.863-.932a5.949 5.949 0 01-.807.246l-.196 1.237-.907.087-.433-1.177a5.906 5.906 0 01-.762-.076l-.649 1.073-.874-.261.042-1.254a5.71 5.71 0 01-.746-.395zm6.933-2.394a4.61 4.61 0 00-1.087-6.428 4.607 4.607 0 00-6.428 1.071 4.61 4.61 0 001.087 6.428 4.607 4.607 0 006.428-1.071z" fill="#232323"/></svg>