<svg width="252" height="610" viewBox="0 0 252 610" fill="none" xmlns="http://www.w3.org/2000/svg"><g opacity=".05"><mask id="mask0_332_6099" style="mask-type:alpha" maskUnits="userSpaceOnUse" x="0" y="0" width="252" height="610"><path transform="matrix(0 -1 -1 0 252 609.09)" fill="#F4F4F8" d="M0 0h608.506v252H0z"/></mask><g mask="url(#mask0_332_6099)" fill="#F4F4F8"><path d="M261.181 92.319c-7.423 5.29-9.147 15.649-3.844 23.09 5.302 7.442 15.657 9.194 23.08 3.905 7.424-5.291 9.15-15.651 3.847-23.093-5.302-7.442-15.658-9.193-23.083-3.902zm13.88 19.479c-3.289 2.343-7.879 1.566-10.228-1.731-2.35-3.297-1.585-7.887 1.705-10.231 3.291-2.345 7.878-1.57 10.228 1.728 2.349 3.297 1.586 7.888-1.705 10.234z"/><path d="M313.404 79.158l6.248-8.627-4.93-5.994-9.664 4.471a50.722 50.722 0 00-5.035-4.145l2.596-10.468-6.818-3.696-7.319 7.904a51.194 51.194 0 00-6.859-2.107l-1.692-10.532-7.71-.757-3.661 10.01a51.043 51.043 0 00-6.472.627l-5.536-9.139-7.423 2.204.381 10.669a51.063 51.063 0 00-6.321 3.354l-8.64-6.272-5.976 4.921 4.491 9.68a50.678 50.678 0 00-4.132 5.03l-10.461-2.62-3.681 6.814 7.918 7.345a50.799 50.799 0 00-2.091 6.86l-10.52 1.665-.739 7.72 10.014 3.683c.076 2.178.29 4.341.639 6.48l-9.118 5.519 2.22 7.433 10.66-.355a51.15 51.15 0 003.366 6.333l-6.243 8.63 4.93 5.992 9.66-4.471a51.226 51.226 0 005.038 4.147l-2.596 10.466 6.818 3.699 7.321-7.906a50.872 50.872 0 006.858 2.11l1.692 10.532 7.712.758 3.66-10.013a50.89 50.89 0 006.472-.623l5.534 9.138 7.423-2.205-.382-10.669a50.798 50.798 0 006.322-3.354l8.639 6.271 5.976-4.921-4.492-9.68a51.1 51.1 0 004.133-5.029l10.463 2.62 3.679-6.817-7.917-7.341a50.81 50.81 0 002.091-6.864l10.52-1.665.739-7.717-10.012-3.687a50.244 50.244 0 00-.643-6.478l9.121-5.52-2.22-7.433-10.66.357a51.319 51.319 0 00-3.371-6.337zm-20.36 58.963c-17.606 12.545-42.072 8.406-54.648-9.242-12.577-17.65-8.501-42.127 9.104-54.672 17.605-12.545 42.074-8.408 54.651 9.241 12.576 17.649 8.498 42.128-9.107 54.673zm-37.483 365.775c-4.467 3.184-5.505 9.418-2.315 13.896 3.192 4.48 9.424 5.532 13.89 2.35 4.469-3.185 5.507-9.418 2.315-13.898-3.19-4.477-9.422-5.532-13.89-2.348zm8.353 11.722c-1.979 1.41-4.742.943-6.156-1.041a4.418 4.418 0 011.027-6.157 4.418 4.418 0 016.154 1.04c1.414 1.984.955 4.747-1.025 6.158z"/><path d="M286.984 495.976l3.759-5.192-2.967-3.607-5.816 2.69a30.771 30.771 0 00-3.03-2.495l1.562-6.299-4.104-2.224-4.403 4.756a30.927 30.927 0 00-4.129-1.268l-1.018-6.338-4.64-.455-2.203 6.023a30.48 30.48 0 00-3.895.377l-3.331-5.499-4.468 1.326.231 6.42a30.257 30.257 0 00-3.805 2.019l-5.199-3.774-3.596 2.961 2.703 5.825a30.718 30.718 0 00-2.486 3.027l-6.296-1.577-2.215 4.1 4.766 4.42a30.796 30.796 0 00-1.26 4.129l-6.331 1.002-.444 4.646 6.027 2.217a30.77 30.77 0 00.385 3.899l-5.487 3.321 1.337 4.473 6.416-.214a30.726 30.726 0 002.026 3.812l-3.758 5.193 2.967 3.606 5.813-2.69a30.49 30.49 0 003.032 2.495l-1.563 6.298 4.102 2.226 4.405-4.758a30.69 30.69 0 004.128 1.27l1.018 6.338 4.641.455 2.202-6.025a30.399 30.399 0 003.897-.375l3.329 5.499 4.468-1.327-.231-6.42a30.86 30.86 0 003.805-2.018l5.198 3.772 3.596-2.96-2.703-5.826a30.526 30.526 0 002.486-3.025l6.297 1.576 2.215-4.102-4.765-4.418c.522-1.36.941-2.74 1.259-4.13l6.33-1.001.446-4.645-6.026-2.219a30.251 30.251 0 00-.387-3.898l5.489-3.322-1.337-4.474-6.414.215a31.216 31.216 0 00-2.028-3.811zm-12.251 35.481c-10.595 7.55-25.319 5.058-32.887-5.562-7.568-10.621-5.116-25.351 5.478-32.9 10.594-7.549 25.32-5.059 32.888 5.562 7.568 10.622 5.114 25.351-5.479 32.9zm-156.65-271.784c-13.296 9.474-16.386 28.028-6.888 41.357s28.046 16.467 41.341 6.993c13.298-9.475 16.389-28.032 6.891-41.361-9.498-13.329-28.047-16.464-41.344-6.989zm24.86 34.888c-5.888 4.196-14.111 2.805-18.319-3.1-4.209-5.906-2.837-14.127 3.053-18.324 5.894-4.199 14.111-2.811 18.319 3.095 4.208 5.905 2.841 14.129-3.053 18.329z"/><path d="M211.616 236.099l11.189-15.453-8.83-10.736-17.311 8.009a90.475 90.475 0 00-9.018-7.425l4.65-18.75-12.213-6.62-13.109 14.156a91.836 91.836 0 00-12.287-3.775l-3.031-18.865-13.811-1.355-6.556 17.93a91.061 91.061 0 00-11.594 1.121l-9.913-16.369-13.295 3.947.684 19.111a91.013 91.013 0 00-11.322 6.009l-15.474-11.232-10.702 8.816 8.043 17.338a90.985 90.985 0 00-7.4 9.011l-18.74-4.695-6.593 12.205 14.183 13.156a91.193 91.193 0 00-3.747 12.287l-18.842 2.983-1.324 13.826 17.936 6.598a92.34 92.34 0 001.143 11.608L28 308.819l3.978 13.315 19.094-.637a91.422 91.422 0 006.029 11.344L45.916 348.3l8.83 10.732 17.304-8.009a91.728 91.728 0 009.023 7.429l-4.651 18.746 12.213 6.623 13.113-14.161a91.15 91.15 0 0012.284 3.777l3.03 18.866 13.813 1.356 6.553-17.934a91.62 91.62 0 0011.595-1.116l9.913 16.368 13.294-3.951-.684-19.111a91.217 91.217 0 0011.324-6.005l15.473 11.232 10.703-8.815-8.043-17.34a91.594 91.594 0 007.401-9.006l18.741 4.694 6.59-12.211-14.18-13.151a90.768 90.768 0 003.744-12.292l18.843-2.983 1.324-13.823-17.935-6.602a90.459 90.459 0 00-1.148-11.603l16.335-9.886-3.978-13.313-19.093.639a91.741 91.741 0 00-6.031-11.351zm-36.47 105.612c-31.533 22.47-75.358 15.058-97.883-16.554C54.736 293.544 62.038 249.7 93.57 227.23c31.533-22.469 75.361-15.059 97.887 16.554 22.526 31.611 15.221 75.457-16.312 97.927zm180.419-137.833l6.631-9.155-5.235-6.36-10.255 4.745a53.708 53.708 0 00-5.347-4.4l2.759-11.109-7.239-3.922-7.769 8.386a53.99 53.99 0 00-7.28-2.234l-1.793-11.181-8.187-.8-3.884 10.624a54.33 54.33 0 00-6.866.661l-5.876-9.697-7.882 2.341.41 11.321a53.334 53.334 0 00-6.706 3.56l-9.172-6.656-6.343 5.223 4.767 10.276a53.412 53.412 0 00-4.381 5.337l-11.104-2.784-3.907 7.232 8.403 7.799a53.422 53.422 0 00-2.221 7.28l-11.165 1.765-.784 8.195 10.629 3.905c.084 2.314.307 4.608.677 6.881l-9.679 5.857 2.356 7.888 11.316-.379a54.696 54.696 0 003.57 6.723l-6.626 9.158 5.234 6.362 10.254-4.747a52.875 52.875 0 005.349 4.403l-2.759 11.107 7.236 3.928 7.769-8.394a53.092 53.092 0 007.284 2.237l1.792 11.178 8.184.806 3.884-10.624a55.277 55.277 0 006.871-.663l5.876 9.695 7.873-2.338-.404-11.328a53.475 53.475 0 006.709-3.555l9.168 6.655 6.343-5.222-4.766-10.274a54.092 54.092 0 004.384-5.34l11.106 2.783 3.905-7.237-8.401-7.793a53.305 53.305 0 002.217-7.281l11.167-1.768.781-8.19-10.626-3.912a53.39 53.39 0 00-.682-6.876l9.679-5.856-2.352-7.891-11.317.38a54.646 54.646 0 00-3.575-6.725zm-34.282 44.792c-8.888 6.332-21.24 4.246-27.589-4.664-6.346-8.906-4.287-21.264 4.601-27.597 8.883-6.33 21.237-4.243 27.583 4.664 6.348 8.91 4.287 21.267-4.595 27.597zM87.712 403.162l4.603-6.357-3.632-4.415-7.119 3.296a37.66 37.66 0 00-3.707-3.058l1.911-7.707-5.026-2.725-5.39 5.823a37.785 37.785 0 00-5.053-1.552l-1.25-7.759-5.677-.559-2.696 7.374c-1.603.05-3.196.207-4.771.464l-4.078-6.735-5.47 1.625.284 7.858a37.726 37.726 0 00-4.657 2.471l-6.365-4.616-4.402 3.625 3.308 7.129a37.97 37.97 0 00-3.044 3.709l-7.706-1.932-2.712 5.019 5.833 5.413a36.87 36.87 0 00-1.54 5.051l-7.751 1.225-.547 5.69 7.378 2.713a38 38 0 00.473 4.774l-6.719 4.067 1.637 5.471 7.852-.256a37.017 37.017 0 002.48 4.662l-4.596 6.362 3.63 4.415 7.119-3.296a37.04 37.04 0 003.71 3.053l-1.913 7.716 5.023 2.721 5.393-5.825a37.493 37.493 0 005.053 1.554l1.246 7.758 5.682.563 2.695-7.38a37.775 37.775 0 004.772-.459l4.075 6.731 5.47-1.624-.285-7.86a36.934 36.934 0 004.659-2.469l6.365 4.617 4.405-3.622-3.313-7.134a38.233 38.233 0 003.047-3.704l7.706 1.932 2.71-5.023-5.832-5.41a36.834 36.834 0 001.54-5.059l7.754-1.226.538-5.685-7.375-2.715a36.632 36.632 0 00-.473-4.774l6.723-4.062-1.638-5.478-7.853.263a37.162 37.162 0 00-2.484-4.668zm-11.589 48.224c-15.605 11.119-37.292 7.451-48.44-8.195-11.148-15.643-7.536-37.342 8.068-48.461 15.607-11.121 37.296-7.45 48.443 8.193 11.147 15.644 7.536 37.342-8.07 48.463z"/><path d="M75.206 450.102c-14.873 10.599-35.618 7.09-46.245-7.823-10.625-14.91-7.172-35.668 7.702-46.266 14.875-10.6 35.623-7.089 46.249 7.822 10.626 14.914 7.17 35.668-7.706 46.267zM38.88 399.123c-13.163 9.379-16.223 27.748-6.819 40.945 9.405 13.198 27.766 16.303 40.929 6.924 13.165-9.382 16.225-27.75 6.82-40.948-9.405-13.197-27.766-16.301-40.93-6.921zm333.173-58.949l-1.408 1.342c-2.232 2.131-5.717 2.477-8.193.627-3.198-2.386-3.374-6.98-.62-9.611l1.256-1.197a3.944 3.944 0 00-.284-5.946 83.13 83.13 0 00-2.82-2.135 3.933 3.933 0 00-5.72 1.218l-.983 1.707c-1.541 2.673-4.785 3.988-7.682 2.914-3.734-1.389-5.198-5.754-3.296-9.054l.861-1.496a3.95 3.95 0 00-1.954-5.634 88.825 88.825 0 00-3.301-1.243 3.93 3.93 0 00-5.137 2.785l-.5 2.073c-.808 3.359-4.218 5.437-7.578 4.62-2.694 1.92-6.332-.544-5.555-3.765l1.322-5.499c.563-2.327-1.068-4.626-3.45-4.856a84.49 84.49 0 00-3.514-.27 3.932 3.932 0 00-4.148 4.121l.105 2.124c.17 3.452-2.516 6.412-5.966 6.575-3.451.16-6.412-2.533-6.583-5.987l-.084-1.734c-.117-2.392-2.326-4.14-4.675-3.689a85.08 85.08 0 00-3.451.732 3.934 3.934 0 00-2.816 5.127l.705 2.028c1.135 3.268-.608 6.865-3.868 7.992l-.002-.002c-3.263 1.129-6.86-.622-7.995-3.889l-.567-1.633c-.785-2.265-3.397-3.322-5.523-2.224a83.853 83.853 0 00-3.098 1.678 3.94 3.94 0 00-1.255 5.715l1.238 1.738c2.009 2.82 1.352 6.764-1.458 8.766-2.812 2.004-6.755 1.336-8.763-1.482l-1.001-1.405c-1.392-1.954-4.19-2.23-5.922-.579a82.394 82.394 0 00-2.502 2.478c-1.625 1.675-1.436 4.398.4 5.842l1.542 1.215c2.429 1.91 3.278 5.316 1.805 8.027-1.894 3.503-6.414 4.319-9.415 1.959l-1.368-1.074c-1.885-1.485-4.648-.959-5.844 1.117a91.903 91.903 0 00-1.697 3.094 3.954 3.954 0 002.034 5.491l1.994.8c3.209 1.287 4.79 4.967 3.508 8.174-1.281 3.21-4.951 4.78-8.16 3.495l-1.594-.641c-2.226-.895-4.728.39-5.289 2.719a92.13 92.13 0 00-.755 3.441 3.951 3.951 0 003.495 4.7l2.117.205c3.439.333 5.986 3.42 5.666 6.86-.324 3.443-3.403 5.986-6.845 5.655l-1.714-.165a3.93 3.93 0 00-4.305 4.097c.056 1.173.138 2.349.24 3.521a3.956 3.956 0 004.677 3.535l2.096-.402c3.391-.653 6.704 1.591 7.364 4.987.658 3.393-1.578 6.707-4.968 7.358l-1.703.328a3.933 3.933 0 00-2.972 5.152 84.5 84.5 0 001.226 3.311c.856 2.176 3.406 3.142 5.478 2.07l1.901-.979c3.069-1.581 6.877-.361 8.467 2.713 1.587 3.077.375 6.884-2.691 8.467l-1.53.789c-2.117 1.09-2.799 3.813-1.415 5.756l.027.038a85.372 85.372 0 002.113 2.841c1.428 1.838 4.136 2.027 5.818.424l1.536-1.468c2.497-2.383 6.494-2.286 8.881.219 2.387 2.503 2.297 6.504-.198 8.886l-1.255 1.199a3.946 3.946 0 00.284 5.947 85.408 85.408 0 002.817 2.135 3.936 3.936 0 005.722-1.217l1.072-1.864c1.722-2.993 5.581-4.025 8.575-2.293 2.995 1.732 4.035 5.596 2.312 8.592l-.861 1.492a3.952 3.952 0 001.953 5.635c1.094.436 2.194.852 3.301 1.243a3.932 3.932 0 005.136-2.786l.499-2.072c.811-3.357 4.221-5.435 7.579-4.62 2.694-1.919 6.334.547 5.558 3.765l-1.323 5.498c-.562 2.329 1.067 4.628 3.45 4.858 1.167.114 2.34.202 3.513.271a3.937 3.937 0 004.148-4.124l-.095-1.944c-.152-3.088 1.86-5.949 4.877-6.612 3.888-.851 7.474 2.034 7.66 5.843l.086 1.734c.115 2.394 2.323 4.141 4.675 3.693a86.801 86.801 0 003.45-.734 3.936 3.936 0 002.816-5.128l-.654-1.883c-1-2.883.096-6.148 2.745-7.649 3.504-1.988 7.808-.229 9.07 3.403l.568 1.633c.786 2.266 3.398 3.321 5.524 2.224a91.084 91.084 0 003.096-1.681c2.027-1.151 2.612-3.81 1.255-5.715l-1.238-1.737c-2.009-2.819-1.349-6.763 1.46-8.765 2.812-2.003 6.754-1.338 8.762 1.481l1.001 1.404c1.391 1.952 4.19 2.228 5.924.579a82.318 82.318 0 002.499-2.479c1.627-1.676 1.439-4.397-.4-5.845l-1.541-1.209c-2.428-1.914-3.277-5.316-1.807-8.031 1.897-3.501 6.418-4.318 9.417-1.957l1.367 1.075c1.888 1.485 4.652.959 5.844-1.119a91.042 91.042 0 001.698-3.092 3.953 3.953 0 00-2.036-5.492l-1.824-.731c-2.869-1.151-4.638-4.18-3.992-7.201.833-3.898 4.936-5.955 8.477-4.535l1.592.639c2.227.893 4.73-.389 5.289-2.719.275-1.141.528-2.291.755-3.441a3.952 3.952 0 00-3.496-4.702l-1.934-.187c-3.074-.298-5.624-2.707-5.854-5.788-.298-3.977 3.058-7.109 6.85-6.744l1.716.165c2.382.229 4.42-1.706 4.303-4.096a86.234 86.234 0 00-.239-3.519 3.955 3.955 0 00-4.678-3.536l-2.095.401c-3.392.654-6.704-1.593-7.365-4.989-1.877-2.634-.406-6.323 2.766-6.933l3.906-.75a3.933 3.933 0 002.972-5.152 91.13 91.13 0 00-1.226-3.314 3.954 3.954 0 00-5.48-2.07l-1.901.981c-3.386 1.744-7.67.079-8.883-3.722-.938-2.944.529-6.126 3.269-7.539l1.37-.705c2.117-1.092 2.799-3.816 1.414-5.759a83.48 83.48 0 00-2.139-2.877c-1.425-1.838-4.133-2.026-5.813-.42zm-94.61 2.938c11.81-7.268 25.304-9.953 38.274-8.423l-3.346 20.086c-7.822-.719-15.885.864-23.086 4.958l-11.843-16.62.001-.001zm-6.63 4.725l11.843 16.62c-6.221 5.47-10.347 12.574-12.221 20.2l-20.079-3.394c2.787-12.758 9.732-24.636 20.457-33.426zm-21.653 41.491l20.146 3.407a39.52 39.52 0 005.921 22.28l-16.55 11.793a59.809 59.809 0 01-9.517-37.48zm46.894 63.416c-12.294-2.72-23.78-9.302-32.48-19.407l16.634-11.853a39.548 39.548 0 0019.19 11.172l-3.344 20.088zm44.225-7.422c-11.171 6.877-23.847 9.65-36.161 8.635l3.357-20.155c7.147.273 14.411-1.372 20.961-5.1l11.843 16.62zm-11.735-23.485c-15.22 10.845-36.363 7.267-47.233-7.989-10.867-15.25-7.348-36.404 7.872-47.249 15.214-10.841 36.363-7.265 47.23 7.985 10.871 15.255 7.345 36.411-7.869 47.253zm18.365 18.761l-11.843-16.62c5.664-4.975 9.588-11.303 11.664-18.148l20.148 3.405c-3.061 11.972-9.821 23.049-19.969 31.363zm21.453-39.379l-20.079-3.395a39.51 39.51 0 00-4.297-21.785l16.637-11.855c6.709 11.522 9.181 24.527 7.739 37.035zM339.5 369.215a39.544 39.544 0 00-19.126-12.87l3.355-20.154a59.791 59.791 0 0132.321 21.232l-16.55 11.792zm-93.738-198.384l-.399.38c-.632.603-1.617.7-2.318.177a1.786 1.786 0 01-.175-2.72l.355-.338a1.116 1.116 0 00-.081-1.682 23.194 23.194 0 00-.798-.604 1.111 1.111 0 00-1.618.345l-.278.483c-.436.756-1.354 1.127-2.173.824a1.786 1.786 0 01-.933-2.562l.243-.424a1.119 1.119 0 00-.553-1.594c-.309-.122-.622-.24-.935-.351a1.112 1.112 0 00-1.453.788l-.14.586a1.78 1.78 0 01-2.145 1.307c-.762.543-1.791-.155-1.572-1.065l.375-1.556a1.118 1.118 0 00-.976-1.374 23.525 23.525 0 00-.995-.076 1.113 1.113 0 00-1.174 1.167l.03.6a1.78 1.78 0 01-1.687 1.86 1.788 1.788 0 01-1.863-1.693l-.024-.492a1.117 1.117 0 00-1.322-1.044c-.327.062-.651.131-.977.207a1.114 1.114 0 00-.796 1.45l.198.574a1.78 1.78 0 01-1.093 2.261l-.001-.001a1.785 1.785 0 01-2.262-1.1l-.161-.461a1.114 1.114 0 00-1.562-.629c-.294.151-.586.31-.876.474a1.116 1.116 0 00-.356 1.618l.351.492a1.781 1.781 0 01-.413 2.479 1.785 1.785 0 01-2.48-.418l-.283-.398a1.114 1.114 0 00-1.675-.163c-.242.229-.478.463-.708.701a1.118 1.118 0 00.113 1.653l.437.344c.687.541.928 1.503.511 2.271a1.779 1.779 0 01-2.664.555l-.386-.304a1.114 1.114 0 00-1.654.316c-.165.289-.325.581-.48.876a1.12 1.12 0 00.577 1.554l.564.226a1.788 1.788 0 01.993 2.313 1.78 1.78 0 01-2.309.989l-.452-.181a1.11 1.11 0 00-1.495.769c-.078.323-.15.647-.214.973a1.118 1.118 0 00.988 1.33l.599.057a1.791 1.791 0 011.603 1.941 1.78 1.78 0 01-1.936 1.601l-.486-.047a1.114 1.114 0 00-1.219 1.16c.017.331.039.664.069.995.058.66.674 1.125 1.323 1l.592-.114a1.786 1.786 0 012.083 1.411 1.78 1.78 0 01-1.405 2.082l-.482.093a1.114 1.114 0 00-.841 1.458c.109.315.225.626.347.936.242.616.963.889 1.549.586l.538-.277a1.786 1.786 0 012.396.768c.448.87.106 1.947-.762 2.394l-.433.223a1.11 1.11 0 00-.4 1.629l.008.01c.194.273.394.541.598.805.403.519 1.17.572 1.646.12l.435-.417a1.784 1.784 0 012.513.062c.675.709.65 1.841-.057 2.514l-.355.339a1.117 1.117 0 00.081 1.683c.263.207.528.409.798.604a1.115 1.115 0 001.619-.344l.304-.528a1.779 1.779 0 013.08 1.783l-.243.422a1.118 1.118 0 00.553 1.594c.309.123.621.241.934.351a1.11 1.11 0 001.452-.788l.142-.587a1.779 1.779 0 012.144-1.308c.763-.543 1.791.155 1.573 1.065l-.375 1.556c-.16.659.302 1.309.977 1.374.33.033.661.057.993.078a1.114 1.114 0 001.174-1.167l-.027-.55c-.043-.873.526-1.683 1.379-1.871a1.788 1.788 0 012.168 1.654l.023.491a1.118 1.118 0 001.322 1.044c.327-.062.652-.131.977-.207a1.115 1.115 0 00.797-1.451l-.185-.533c-.283-.816.027-1.739.776-2.164a1.785 1.785 0 012.567.963l.161.461c.222.642.961.94 1.564.63.292-.153.585-.311.875-.476a1.115 1.115 0 00.355-1.617l-.351-.491a1.783 1.783 0 01.413-2.48 1.782 1.782 0 012.479.419l.283.398a1.115 1.115 0 001.676.164c.241-.23.478-.463.707-.702a1.116 1.116 0 00-.113-1.653l-.436-.342c-.687-.542-.926-1.504-.511-2.273a1.779 1.779 0 012.663-.554l.387.305c.534.42 1.316.271 1.654-.316.166-.29.326-.582.481-.875a1.12 1.12 0 00-.577-1.554l-.515-.207c-.813-.326-1.314-1.182-1.131-2.037a1.777 1.777 0 012.398-1.283l.451.18a1.111 1.111 0 001.496-.769c.078-.323.15-.648.214-.974a1.12 1.12 0 00-.988-1.331l-.547-.052c-.87-.084-1.591-.765-1.656-1.637a1.779 1.779 0 011.938-1.909l.486.047a1.113 1.113 0 001.218-1.159 25.301 25.301 0 00-.069-.995 1.118 1.118 0 00-1.322-1.001l-.592.114a1.786 1.786 0 01-2.084-1.412 1.254 1.254 0 01.784-1.962l1.105-.212a1.113 1.113 0 00.84-1.458 25.806 25.806 0 00-.346-.937 1.12 1.12 0 00-1.551-.586l-.538.277a1.785 1.785 0 01-2.513-1.053c-.265-.833.149-1.733.925-2.133l.388-.201a1.11 1.11 0 00.399-1.628l-.007-.011a24.212 24.212 0 00-.597-.803 1.116 1.116 0 00-1.648-.117zm-26.767.831a16.844 16.844 0 0110.827-2.383l-.946 5.682a11.132 11.132 0 00-6.531 1.402l-3.35-4.701zm-1.876 1.337l3.35 4.702a11.124 11.124 0 00-3.457 5.715l-5.681-.959a16.842 16.842 0 015.788-9.458zm-6.125 11.739l5.699.964a11.201 11.201 0 001.675 6.304l-4.682 3.336a16.914 16.914 0 01-2.692-10.604zm13.266 17.942a16.929 16.929 0 01-9.189-5.491l4.706-3.353a11.19 11.19 0 005.429 3.161l-.946 5.683zm12.512-2.1a16.825 16.825 0 01-10.23 2.443l.95-5.702a11.109 11.109 0 005.931-1.442l3.349 4.701zm-6.187-10.669a4.647 4.647 0 01-6.482-1.096 4.65 4.65 0 011.08-6.485 4.649 4.649 0 016.482 1.096 4.65 4.65 0 01-1.08 6.485zm8.063 9.332l-3.35-4.702a11.11 11.11 0 003.3-5.135l5.699.964a16.834 16.834 0 01-5.649 8.873zm6.069-11.14l-5.681-.961c.186-2.08-.204-4.22-1.216-6.163l4.707-3.354a16.924 16.924 0 012.19 10.478zm-8.165-9.056a11.19 11.19 0 00-5.412-3.641l.95-5.702a16.904 16.904 0 019.143 6.007l-4.681 3.336zm-18.32 242.737c-1.096-1.41-3.188-1.556-4.488-.31l-1.086 1.039c-1.729 1.647-4.409 1.915-6.32.498-2.453-1.831-2.574-5.357-.449-7.387l.976-.928c1.328-1.269 1.243-3.432-.204-4.572a135.715 135.715 0 00-2.171-1.641c-1.457-1.041-3.512-.594-4.413.959l-.756 1.317c-1.199 2.059-3.708 3.079-5.93 2.257-2.877-1.054-3.99-4.41-2.518-6.941l.661-1.157c.933-1.608.23-3.647-1.482-4.325a57.223 57.223 0 00-2.545-.947c-1.687-.609-3.533.4-3.962 2.151l-.395 1.589c-.625 2.591-3.262 4.198-5.854 3.576-2.072 1.476-4.867-.405-4.264-2.877l1.031-4.232c.439-1.79-.815-3.563-2.642-3.731a65.906 65.906 0 00-2.715-.198 3.062 3.062 0 00-3.209 3.187l.08 1.632c.117 2.648-1.963 4.934-4.611 5.066-2.678.128-4.942-1.935-5.058-4.587l-.065-1.332a3.014 3.014 0 00-3.597-2.822c-.889.165-1.765.367-2.649.558-1.761.42-2.779 2.264-2.202 3.96l.545 1.548c.863 2.514-.479 5.288-3.004 6.165-2.521.869-5.277-.464-6.149-2.975l-.435-1.244a3.036 3.036 0 00-4.259-1.704 80.74 80.74 0 00-2.382 1.309c-1.553.887-2.026 2.927-.98 4.394l.941 1.32c1.548 2.172 1.037 5.197-1.144 6.751-2.178 1.553-5.21 1.052-6.758-1.12l-.76-1.067c-1.063-1.492-3.221-1.702-4.558-.442a64.865 64.865 0 00-1.931 1.923 3.023 3.023 0 00.3 4.494l1.18.923c1.862 1.457 2.507 4.089 1.374 6.162-1.471 2.708-4.959 3.346-7.27 1.542l-1.051-.824c-1.451-1.144-3.576-.722-4.502.867a67.302 67.302 0 00-1.314 2.39 3.018 3.018 0 001.548 4.216l1.531.612c2.466.978 3.678 3.809 2.687 6.27-.996 2.476-3.837 3.697-6.294 2.707l-1.233-.476c-1.717-.691-3.646.311-4.09 2.093a85.348 85.348 0 00-.587 2.655c-.357 1.752.89 3.436 2.693 3.606l1.625.145a4.833 4.833 0 014.349 5.263c-.266 2.642-2.642 4.616-5.288 4.361l-1.322-.122a3.055 3.055 0 00-3.333 3.167c.036.905.103 1.807.177 2.71a3.028 3.028 0 003.59 2.705l1.626-.33c2.615-.494 5.151 1.22 5.656 3.83.499 2.616-1.233 5.159-3.848 5.665l-1.304.256a3.053 3.053 0 00-2.31 3.977c.3.85.606 1.692.935 2.542a3.045 3.045 0 004.219 1.584l1.465-.765c2.366-1.225 5.304-.297 6.524 2.056 1.21 2.369.271 5.307-2.094 6.523l-1.188.612c-1.629.849-2.169 2.934-1.103 4.431l.019.026a61.102 61.102 0 001.616 2.179c1.108 1.413 3.195 1.554 4.495.313l1.175-1.132c1.943-1.838 5.018-1.765 6.849.149 1.839 1.926 1.754 4.985-.18 6.831l-.959.928c-1.348 1.263-1.244 3.44.196 4.569a56.243 56.243 0 002.169 1.628 3.037 3.037 0 004.409-.94l.839-1.44c1.325-2.306 4.312-3.105 6.612-1.79 2.299 1.323 3.097 4.294 1.755 6.601l-.659 1.151a3.015 3.015 0 001.486 4.329c.848.336 1.683.647 2.542.954 1.695.591 3.536-.415 3.968-2.156l.389-1.605c.636-2.578 3.269-4.189 5.841-3.571 2.084-1.485 4.886.399 4.283 2.889l-1.033 4.227a3.02 3.02 0 002.656 3.727c.893.082 1.794.149 2.693.205a3.064 3.064 0 003.215-3.19l-.07-1.496c-.111-2.366 1.452-4.573 3.778-5.088 2.993-.667 5.754 1.539 5.878 4.464l.064 1.336c.078 1.836 1.789 3.188 3.599 2.822.889-.167 1.78-.36 2.656-.572a3.037 3.037 0 002.186-3.95l-.506-1.445c-.758-2.211.094-4.723 2.148-5.891 2.701-1.534 6.008-.193 6.969 2.599l.439 1.246a3.008 3.008 0 004.247 1.695c.806-.41 1.611-.841 2.392-1.29 1.569-.892 2.026-2.939.986-4.398l-.953-1.338c-1.543-2.166-1.02-5.195 1.153-6.744 2.169-1.546 5.201-1.049 6.744 1.116l.77 1.08c1.066 1.496 3.229 1.705 4.558.438.667-.63 1.31-1.268 1.938-1.92 1.266-1.284 1.112-3.38-.29-4.487l-1.196-.934c-1.863-1.459-2.5-4.077-1.368-6.163 1.478-2.692 4.965-3.334 7.263-1.534l1.044.816c1.464 1.145 3.597.734 4.518-.857a74.13 74.13 0 001.312-2.398 3.021 3.021 0 00-1.549-4.216l-1.415-.555c-2.202-.877-3.557-3.2-3.053-5.528.649-2.996 3.821-4.583 6.547-3.501l1.225.477a3.042 3.042 0 004.081-2.095c.213-.876.408-1.758.588-2.653a3.02 3.02 0 00-2.679-3.606l-1.494-.14c-2.365-.22-4.323-2.06-4.496-4.438-.217-3.049 2.376-5.465 5.299-5.195l1.319.121c1.839.175 3.413-1.321 3.33-3.154a70.465 70.465 0 00-.175-2.719c-.154-1.782-1.837-3.05-3.591-2.699l-1.618.317c-2.613.503-5.161-1.213-5.666-3.822-1.44-2.021-.301-4.865 2.144-5.336l3.017-.587c1.813-.361 2.903-2.231 2.298-3.974a59.065 59.065 0 00-.931-2.547c-.653-1.668-2.608-2.402-4.216-1.582l-1.465.763c-2.613 1.356-5.909.085-6.835-2.831-.718-2.269.419-4.719 2.535-5.808l1.059-.549c1.627-.849 2.162-2.95 1.106-4.431l-.023-.032a57.177 57.177 0 00-1.614-2.176zm-29.402 52.921l-18.678-11.344 21.188-5.184a27.213 27.213 0 01-2.51 16.528zm-12.08-36.378l-11.278 18.688-5.248-21.226a27.176 27.176 0 0116.526 2.538zm-7.635 20.893l11.284-18.671a27.18 27.18 0 016.244 6.277c1.619 2.271 2.849 4.694 3.66 7.2l-21.188 5.194zm29.504-20.466a4.317 4.317 0 01-1.006 6.015 4.318 4.318 0 01-6.017-1.01c-1.385-1.945-.943-4.648.999-6.032 1.94-1.382 4.639-.917 6.024 1.027zm-31.91-13.015a4.28 4.28 0 014.965-3.539 4.31 4.31 0 013.542 4.971 4.309 4.309 0 01-4.966 3.538 4.322 4.322 0 01-3.541-4.97zm-25.733 3.799a4.305 4.305 0 016.014 1.011 4.31 4.31 0 11-7.019 5.002 4.31 4.31 0 011.005-6.013zm7.922 10.912c2.271-1.618 4.679-2.829 7.19-3.638l5.24 21.216-18.693-11.33a26.765 26.765 0 016.263-6.248zm3.615 46.249l11.288-18.654 5.23 21.201a27.03 27.03 0 01-16.518-2.547zm-19.615-5.528c1.938-1.381 4.633-.911 6.013 1.026 1.382 1.939.946 4.64-.992 6.021-1.939 1.382-4.64.915-6.021-1.023-1.38-1.937-.94-4.642 1-6.024zm9.721-2.973a27.265 27.265 0 01-3.655-7.182l21.185-5.189-11.275 18.667a27.06 27.06 0 01-6.255-6.296zm-2.18-27.865l18.709 11.334-21.215 5.196a27.08 27.08 0 012.506-16.53zm-15.946 6.122a4.321 4.321 0 014.965-3.538 4.322 4.322 0 013.544 4.975 4.296 4.296 0 01-4.964 3.537 4.33 4.33 0 01-3.545-4.974zm39.311 43.757a4.312 4.312 0 01-4.973 3.544 4.32 4.32 0 111.424-8.525 4.35 4.35 0 013.549 4.981zm25.73-3.787c-1.938 1.381-4.625.919-6.012-1.027a4.305 4.305 0 01.998-6.01 4.32 4.32 0 115.014 7.037zm-9.187-11.84c-2.239 1.596-4.656 2.834-7.167 3.646l-5.246-21.215 18.702 11.325c-1.693 2.369-3.79 4.464-6.289 6.244zm25.669-15.085a4.306 4.306 0 01-4.962 3.536c-2.359-.406-3.945-2.633-3.545-4.975a4.28 4.28 0 014.962-3.537c2.349.384 3.935 2.611 3.545 4.976zm11.085 78.461l3.407-4.706-2.689-3.27-5.272 2.441a27.038 27.038 0 00-2.746-2.262l1.416-5.71-3.719-2.016-3.992 4.31a27.908 27.908 0 00-3.742-1.149l-.924-5.746-4.206-.413-1.997 5.46a27.553 27.553 0 00-3.53.342l-3.019-4.986-4.049 1.203.208 5.818a27.937 27.937 0 00-3.447 1.83l-4.713-3.42-3.26 2.685 2.451 5.28a27.844 27.844 0 00-2.254 2.745l-5.708-1.43-2.007 3.717 4.318 4.007a28.056 28.056 0 00-1.141 3.741l-5.738.909-.404 4.211 5.464 2.01c.041 1.188.159 2.368.348 3.534l-4.974 3.011 1.211 4.056 5.814-.195a27.837 27.837 0 001.837 3.456l-3.406 4.707 2.689 3.268 5.271-2.439c.86.804 1.774 1.56 2.747 2.261l-1.416 5.708 3.719 2.019 3.994-4.314c1.232.476 2.481.86 3.741 1.152l.922 5.745 4.206.414 1.997-5.461a27.732 27.732 0 003.53-.34l3.019 4.985 4.05-1.203-.208-5.82a27.612 27.612 0 003.448-1.829l4.712 3.421 3.26-2.684-2.45-5.281a27.806 27.806 0 002.254-2.742l5.708 1.429 2.007-3.718-4.319-4.006a27.41 27.41 0 001.139-3.743l5.74-.909.403-4.209-5.462-2.011a27.593 27.593 0 00-.351-3.533l4.975-3.011-1.212-4.054-5.814.195a27.599 27.599 0 00-1.836-3.46zm-14.157 14.984c.063-1.729-.666-3.901-1.252-4.938l9.776-6.967c3.314 4.91 3.956 9.197 3.478 13.981l-12.002-2.076zm-6.758 2.82c-1.793 1.278-4.297.854-5.579-.945a4.005 4.005 0 01.93-5.579 4.006 4.006 0 014.649 6.524zm13.886-16.638l-9.816 6.994c-.905-.809-2.848-2.136-4.573-2.506l1.966-11.991c4.755.954 9.421 3.824 12.423 7.503zm-14.714-7.374l-2.232 12.208c-1.422.004-2.347-.013-4.391 1.201l-7.199-10.103c5.023-3.155 9.286-3.797 13.822-3.306zm-14.816 3.953l7.2 10.103c-1.844 1.494-2.157 2.535-2.647 4.152l-12.536-2.058c1.112-4.749 4.181-9.37 7.983-12.197zm-8.171 13.878l12.429 2.072c-.131 1.637.458 3.698.942 4.808l-10.379 7.395c-2.494-4.04-3.677-9.433-2.992-14.275zm4.346 16.218l10.338-7.365c.781.897 2.386 2.149 3.902 2.68l-2.046 12.566c-4.722-1.093-8.634-3.145-12.194-7.881zm13.841 8.173l1.997-12.369c1.932.24 3.609.101 5.637-1.135l7.184 10.082c-3.919 2.667-9.734 4.126-14.818 3.422zm15.752-4.15l-7.184-10.082c1.794-1.563 2.608-3.038 3.023-4.667l11.73 2.182c-.909 4.729-2.958 8.834-7.569 12.567z"/></g></g></svg>