<svg width="46" height="34" viewBox="0 0 46 34" fill="none" xmlns="http://www.w3.org/2000/svg"><rect x=".95" y="33.262" width="32.523" height="44.1" rx="8.131" transform="rotate(-90 .95 33.262)" fill="url(#paint0_angular_332_4122)"/><mask id="mask0_332_4122" style="mask-type:alpha" maskUnits="userSpaceOnUse" x="4" y="4" width="35" height="25"><path fill="#D9D9D9" d="M4.989 4.481H38.93v24.244H4.989z"/></mask><g mask="url(#mask0_332_4122)"><path d="M8.578 11.906l3.163-5.48.913.528-3.163 5.479-.913-.527zm1.37.79l3.163-5.478.913.527-3.163 5.479-.913-.527zm1.37.791l3.163-5.479.913.528-3.163 5.479-.914-.528zm24.841-1.527l-3.163-5.478-.914.527 3.164 5.48.913-.528zm-1.37.792l-3.163-5.48-.913.528 3.163 5.479.913-.527zm-1.37.79l-3.163-5.478-.913.527 3.163 5.479.913-.527zm2.974 8.01L33.23 27.03l-.913-.527 3.163-5.48.913.528zm-1.37-.791L31.86 26.24l-.913-.527 3.163-5.48.913.528zm-1.37-.79l-3.163 5.478-.913-.527 3.163-5.48.913.528zM8.812 21.497l3.163 5.479.914-.527-3.164-5.48-.913.528zm1.37-.791l3.163 5.48.913-.528-3.163-5.48-.913.528zm1.37-.79l3.163 5.478.913-.527-3.163-5.48-.913.528z" fill="#000"/><path d="M16.87 13.36a6.326 6.326 0 1110.528 7.018L16.87 13.36z" fill="#CD2E3A"/><path d="M16.871 13.36A6.327 6.327 0 0027.4 20.377a3.163 3.163 0 10-5.265-3.51l-5.264-3.509z" fill="#0047A0"/><path d="M22.14 16.869a3.163 3.163 0 10-5.265-3.51 3.163 3.163 0 005.264 3.51z" fill="#CD2E3A"/></g><defs><radialGradient id="paint0_angular_332_4122" cx="0" cy="0" r="1" gradientUnits="userSpaceOnUse" gradientTransform="matrix(0 22.0498 -15.7739 0 16.724 55.312)"><stop offset=".363" stop-color="#D6DFE6"/><stop offset=".371" stop-color="#FAFBFC"/><stop offset=".865" stop-color="#D7E0E7"/><stop offset=".872" stop-color="#F7F8F9"/></radialGradient></defs></svg>