<svg width="44" height="34" viewBox="0 0 44 34" fill="none" xmlns="http://www.w3.org/2000/svg"><rect y="33.225" width="32.45" height="44" rx="6.556" transform="rotate(-90 0 33.225)" fill="url(#paint0_angular_332_4207)"/><path d="M6.818 9.284a2.449 2.449 0 012.448-2.449H34.67a2.449 2.449 0 012.449 2.449v16.312a2.449 2.449 0 01-2.449 2.45H9.266a2.449 2.449 0 01-2.448-2.45V9.284z" fill="#009B3A"/><path d="M9.392 17.44l12.575 8.03 12.574-8.03-12.574-8.029-12.575 8.03z" fill="#FEDF00"/><mask id="mask0_332_4207" style="mask-type:alpha" maskUnits="userSpaceOnUse" x="16" y="12" width="12" height="11"><path d="M21.974 22.743a5.303 5.303 0 100-10.605 5.303 5.303 0 000 10.605z" fill="#002776"/></mask><g mask="url(#mask0_332_4207)"><path d="M21.974 22.743a5.303 5.303 0 100-10.605 5.303 5.303 0 000 10.605z" fill="#002776"/><path d="M6.066 28.045a12.878 12.878 0 0125.755 0h-.757a12.12 12.12 0 00-24.24 0h-.758z" fill="#fff"/><path fill-rule="evenodd" clip-rule="evenodd" d="M17.45 15.89a.216.216 0 00.15-.094.267.267 0 00.044-.185.267.267 0 00-.088-.17.216.216 0 00-.168-.053.216.216 0 00-.15.093.268.268 0 00-.045.185c.008.067.04.128.088.17a.216.216 0 00.169.053zm-.012-.094a.123.123 0 00.088-.057.176.176 0 00.025-.117.176.176 0 00-.052-.106.124.124 0 00-.1-.035.124.124 0 00-.088.058.175.175 0 00-.025.116c.005.042.024.08.053.107a.124.124 0 00.099.034zm1.065.009l.238-.004a.216.216 0 00.212-.22v-.072a.217.217 0 00-.221-.213l-.238.004.009.505zm.092-.095l.137-.003a.137.137 0 00.135-.139l-.001-.043a.137.137 0 00-.14-.135l-.137.002.006.318z" fill="#009B3A"/><path d="M19.14 15.798l.453.016.004-.094-.368-.013.004-.13.289.01.003-.086-.288-.01.003-.101.346.012.003-.094-.432-.015-.018.505zm.636.028l.086.007.03-.345.07.354.08.007.13-.336-.03.345.086.007.044-.503-.125-.01-.131.335-.07-.353-.126-.011-.044.503zm1.055.117l.374.064.014-.085-.288-.05.02-.114.235.04.014-.085-.234-.04.013-.078.28.048.014-.086-.365-.062-.077.448z" fill="#009B3A"/><path fill-rule="evenodd" clip-rule="evenodd" d="M21.788 16.133l.09.023.048-.182.195.05a.158.158 0 00.177-.233.159.159 0 00-.097-.073l-.28-.073-.133.488zm.161-.25l.189.05a.065.065 0 00.08-.047.065.065 0 00-.047-.08l-.19-.048-.032.126zm1.28.691c.056.021.12.016.176-.013a.268.268 0 00.125-.144.267.267 0 000-.19.216.216 0 00-.124-.126.216.216 0 00-.177.013.268.268 0 00-.125.144.267.267 0 000 .19c.024.06.068.105.125.126zm.033-.088c.033.012.07.009.104-.01a.175.175 0 00.076-.092.175.175 0 00.003-.119.124.124 0 00-.072-.076.124.124 0 00-.105.01.175.175 0 00-.076.092.175.175 0 00-.002.118.124.124 0 00.072.077z" fill="#009B3A"/><path d="M24.773 17.274l.395.224.047-.082-.32-.181.063-.113.251.142.043-.075-.251-.142.05-.088.301.17.046-.081-.377-.213-.248.439zm.738.248c-.027.043 0 .09.061.13.061.038.103.037.12.01.055-.087-.264-.214-.166-.365.085-.13.23-.029.285.006.055.035.143.125.075.23l-.093-.06c.029-.046-.003-.09-.052-.12-.047-.03-.085-.044-.113 0-.047.07.265.203.17.354-.071.111-.194.063-.276.01-.07-.044-.175-.15-.107-.256l.096.061zm.544.358c-.03.04-.004.09.055.132.058.041.1.042.119.016.06-.084-.253-.227-.147-.373.092-.125.232-.016.284.021.053.038.136.133.063.233l-.09-.064c.032-.044.002-.09-.045-.123-.046-.032-.083-.048-.114-.006-.05.068.255.218.152.363-.077.107-.197.052-.277-.004-.067-.048-.166-.159-.092-.261l.092.066z" fill="#009B3A"/><path fill-rule="evenodd" clip-rule="evenodd" d="M26.56 18.462a.216.216 0 00.172.042.267.267 0 00.163-.098.268.268 0 00.059-.182.216.216 0 00-.08-.157.216.216 0 00-.172-.043.267.267 0 00-.163.099.268.268 0 00-.059.18.22.22 0 00.08.159zm.058-.074c.028.022.065.03.103.023a.175.175 0 00.1-.064.175.175 0 00.04-.112.124.124 0 00-.045-.095.124.124 0 00-.103-.023.176.176 0 00-.1.064.176.176 0 00-.04.112.124.124 0 00.045.095z" fill="#009B3A"/></g><defs><radialGradient id="paint0_angular_332_4207" cx="0" cy="0" r="1" gradientUnits="userSpaceOnUse" gradientTransform="matrix(0 22 -15.7382 0 15.738 55.225)"><stop offset=".363" stop-color="#D6DFE6"/><stop offset=".371" stop-color="#FAFBFC"/><stop offset=".865" stop-color="#D7E0E7"/><stop offset=".872" stop-color="#F7F8F9"/></radialGradient></defs></svg>