<svg width="166" height="167" viewBox="0 0 166 167" fill="none" xmlns="http://www.w3.org/2000/svg"><path d="M17 85.416c0-38.66 31.34-70 70-70s70 31.34 70 70-31.34 70-70 70H19.745A2.745 2.745 0 0117 152.671V85.416z" fill="url(#paint0_linear_222_766)"/><g filter="url(#filter0_d_222_766)"><path d="M87 147.916H26.47a1.97 1.97 0 01-1.97-1.971V85.416c0-34.518 27.982-62.5 62.5-62.5s62.5 27.982 62.5 62.5-27.982 62.5-62.5 62.5z" stroke="url(#paint1_radial_222_766)"/></g><g filter="url(#filter1_d_222_766)" stroke-width="6" stroke-linecap="round" stroke-linejoin="round"><path d="M89.738 81.674h11.48v11.484h-11.48v11.48H78.254" stroke="url(#paint2_linear_222_766)"/><path d="M78.258 93.158h-11.48V81.674h11.48v-11.48h11.484" stroke="url(#paint3_linear_222_766)"/><path d="M97.778 56.416H70.222C60.711 56.416 53 64.126 53 73.638v27.556c0 9.511 7.71 17.222 17.222 17.222h27.556c9.511 0 17.222-7.711 17.222-17.222V73.638c0-9.511-7.711-17.222-17.222-17.222z" stroke="url(#paint4_linear_222_766)"/></g><defs><linearGradient id="paint0_linear_222_766" x1="79.5" y1="15.564" x2="-4.938" y2="139.767" gradientUnits="userSpaceOnUse"><stop offset=".004" stop-color="#2C2B2A"/><stop offset="1" stop-color="#191F1B"/></linearGradient><linearGradient id="paint2_linear_222_766" x1="80.244" y1="86.043" x2="97.165" y2="104.089" gradientUnits="userSpaceOnUse"><stop stop-color="#FFE292"/><stop offset=".086" stop-color="#FFD562"/><stop offset=".151" stop-color="#FFE2A0"/><stop offset=".327" stop-color="#FCC266"/><stop offset=".626" stop-color="#FFDD9A"/><stop offset=".906" stop-color="#E98B34"/><stop offset=".979" stop-color="#FFE292"/></linearGradient><linearGradient id="paint3_linear_222_766" x1="68.767" y1="74.563" x2="85.689" y2="92.609" gradientUnits="userSpaceOnUse"><stop stop-color="#FFE292"/><stop offset=".086" stop-color="#FFD562"/><stop offset=".151" stop-color="#FFE2A0"/><stop offset=".327" stop-color="#FCC266"/><stop offset=".626" stop-color="#FFDD9A"/><stop offset=".906" stop-color="#E98B34"/><stop offset=".979" stop-color="#FFE292"/></linearGradient><linearGradient id="paint4_linear_222_766" x1="58.373" y1="68.211" x2="104.059" y2="116.933" gradientUnits="userSpaceOnUse"><stop stop-color="#FFE292"/><stop offset=".086" stop-color="#FFD562"/><stop offset=".151" stop-color="#FFE2A0"/><stop offset=".327" stop-color="#FCC266"/><stop offset=".626" stop-color="#FFDD9A"/><stop offset=".906" stop-color="#E98B34"/><stop offset=".979" stop-color="#FFE292"/></linearGradient><filter id="filter0_d_222_766" x="0" y=".416" width="166" height="166" filterUnits="userSpaceOnUse" color-interpolation-filters="sRGB"><feFlood flood-opacity="0" result="BackgroundImageFix"/><feColorMatrix in="SourceAlpha" values="0 0 0 0 0 0 0 0 0 0 0 0 0 0 0 0 0 0 127 0" result="hardAlpha"/><feOffset dx="-4" dy="-2"/><feGaussianBlur stdDeviation="10"/><feColorMatrix values="0 0 0 0 1 0 0 0 0 0.494874 0 0 0 0 0.0264852 0 0 0 0.3 0"/><feBlend in2="BackgroundImageFix" result="effect1_dropShadow_222_766"/><feBlend in="SourceGraphic" in2="effect1_dropShadow_222_766" result="shape"/></filter><filter id="filter1_d_222_766" x="26" y="31.416" width="108" height="108" filterUnits="userSpaceOnUse" color-interpolation-filters="sRGB"><feFlood flood-opacity="0" result="BackgroundImageFix"/><feColorMatrix in="SourceAlpha" values="0 0 0 0 0 0 0 0 0 0 0 0 0 0 0 0 0 0 127 0" result="hardAlpha"/><feOffset dx="-4" dy="-2"/><feGaussianBlur stdDeviation="10"/><feColorMatrix values="0 0 0 0 1 0 0 0 0 0.494874 0 0 0 0 0.0264852 0 0 0 0.3 0"/><feBlend in2="BackgroundImageFix" result="effect1_dropShadow_222_766"/><feBlend in="SourceGraphic" in2="effect1_dropShadow_222_766" result="shape"/></filter><radialGradient id="paint1_radial_222_766" cx="0" cy="0" r="1" gradientUnits="userSpaceOnUse" gradientTransform="rotate(-135 105.738 43.142) scale(178.191 328.785)"><stop stop-color="#574031"/><stop offset=".305" stop-color="#6F5346"/><stop offset=".584" stop-color="#14141B"/><stop offset=".705" stop-color="#131320"/><stop offset=".78" stop-color="#20212C"/><stop offset=".89" stop-color="#202C32"/><stop offset="1" stop-color="#48585A"/></radialGradient></defs></svg>