<svg width="166" height="167" viewBox="0 0 166 167" fill="none" xmlns="http://www.w3.org/2000/svg"><path d="M17 85.416c0-38.66 31.34-70 70-70s70 31.34 70 70-31.34 70-70 70H19.745A2.745 2.745 0 0117 152.671V85.416z" fill="url(#paint0_linear_521_2188)"/><g filter="url(#filter0_d_521_2188)"><path d="M24.5 85.416c0-34.518 27.982-62.5 62.5-62.5s62.5 27.982 62.5 62.5-27.982 62.5-62.5 62.5H26.47a1.97 1.97 0 01-1.97-1.971V85.416z" stroke="url(#paint1_radial_521_2188)"/></g><g filter="url(#filter1_d_521_2188)" stroke-width="6" stroke-linecap="square"><path d="M86.029 71.586v16.02l12.593 7.678M56 95.749h17.222H56zm17.222 10.333H62.89h10.333zm0 10.334h-3.444 3.444z" stroke="url(#paint2_linear_521_2188)"/><path d="M56.201 81.972c1.715-15.497 14.842-27.556 30.797-27.556 17.122 0 31 13.878 31 31s-13.878 31-31 31" stroke="url(#paint3_linear_521_2188)"/></g><defs><linearGradient id="paint0_linear_521_2188" x1="79.5" y1="15.564" x2="-4.938" y2="139.767" gradientUnits="userSpaceOnUse"><stop offset=".004" stop-color="#2C2B2A"/><stop offset="1" stop-color="#191F1B"/></linearGradient><linearGradient id="paint2_linear_521_2188" x1="59.694" y1="80.115" x2="92.792" y2="113.674" gradientUnits="userSpaceOnUse"><stop stop-color="#FFE292"/><stop offset=".086" stop-color="#FFD562"/><stop offset=".151" stop-color="#FFE2A0"/><stop offset=".327" stop-color="#FCC266"/><stop offset=".626" stop-color="#FFDD9A"/><stop offset=".906" stop-color="#E98B34"/><stop offset=".979" stop-color="#FFE292"/></linearGradient><linearGradient id="paint3_linear_521_2188" x1="61.557" y1="66.211" x2="107.252" y2="114.784" gradientUnits="userSpaceOnUse"><stop stop-color="#FFE292"/><stop offset=".086" stop-color="#FFD562"/><stop offset=".151" stop-color="#FFE2A0"/><stop offset=".327" stop-color="#FCC266"/><stop offset=".626" stop-color="#FFDD9A"/><stop offset=".906" stop-color="#E98B34"/><stop offset=".979" stop-color="#FFE292"/></linearGradient><filter id="filter0_d_521_2188" x="0" y=".416" width="166" height="166" filterUnits="userSpaceOnUse" color-interpolation-filters="sRGB"><feFlood flood-opacity="0" result="BackgroundImageFix"/><feColorMatrix in="SourceAlpha" values="0 0 0 0 0 0 0 0 0 0 0 0 0 0 0 0 0 0 127 0" result="hardAlpha"/><feOffset dx="-4" dy="-2"/><feGaussianBlur stdDeviation="10"/><feColorMatrix values="0 0 0 0 1 0 0 0 0 0.494874 0 0 0 0 0.0264852 0 0 0 0.3 0"/><feBlend in2="BackgroundImageFix" result="effect1_dropShadow_521_2188"/><feBlend in="SourceGraphic" in2="effect1_dropShadow_521_2188" result="shape"/></filter><filter id="filter1_d_521_2188" x="28.889" y="29.416" width="108.109" height="108" filterUnits="userSpaceOnUse" color-interpolation-filters="sRGB"><feFlood flood-opacity="0" result="BackgroundImageFix"/><feColorMatrix in="SourceAlpha" values="0 0 0 0 0 0 0 0 0 0 0 0 0 0 0 0 0 0 127 0" result="hardAlpha"/><feOffset dx="-4" dy="-2"/><feGaussianBlur stdDeviation="10"/><feColorMatrix values="0 0 0 0 1 0 0 0 0 0.494874 0 0 0 0 0.0264852 0 0 0 0.3 0"/><feBlend in2="BackgroundImageFix" result="effect1_dropShadow_521_2188"/><feBlend in="SourceGraphic" in2="effect1_dropShadow_521_2188" result="shape"/></filter><radialGradient id="paint1_radial_521_2188" cx="0" cy="0" r="1" gradientUnits="userSpaceOnUse" gradientTransform="rotate(-135 105.738 43.142) scale(178.191 328.785)"><stop stop-color="#574031"/><stop offset=".305" stop-color="#6F5346"/><stop offset=".584" stop-color="#14141B"/><stop offset=".705" stop-color="#131320"/><stop offset=".78" stop-color="#20212C"/><stop offset=".89" stop-color="#202C32"/><stop offset="1" stop-color="#48585A"/></radialGradient></defs></svg>