<svg width="166" height="167" viewBox="0 0 166 167" fill="none" xmlns="http://www.w3.org/2000/svg"><path d="M17 85.416c0-38.66 31.34-70 70-70s70 31.34 70 70-31.34 70-70 70H19.745A2.745 2.745 0 0117 152.671V85.416z" fill="url(#paint0_linear_222_786)"/><g filter="url(#filter0_d_222_786)"><path d="M24.5 85.416c0-34.518 27.982-62.5 62.5-62.5s62.5 27.982 62.5 62.5-27.982 62.5-62.5 62.5H26.47a1.97 1.97 0 01-1.97-1.971V85.416z" stroke="url(#paint1_radial_222_786)"/></g><g filter="url(#filter1_d_222_786)"><path fill-rule="evenodd" clip-rule="evenodd" d="M57.386 62.802a4.733 4.733 0 013.347-1.386H111a4.735 4.735 0 014.733 4.733v4.734h-55a4.733 4.733 0 01-3.347-8.08zm64.347 3.347v19.285l.001.049-.001.049V100.9a.785.785 0 01.001.049l-.001.048v7.685A10.732 10.732 0 01111 119.416H60.733A10.733 10.733 0 0150 108.683V66.149a10.733 10.733 0 0110.733-10.733H111a10.734 10.734 0 0110.733 10.733zm-6 31.8v-9.466h-8.599a4.731 4.731 0 00-4.734 4.733 4.733 4.733 0 004.734 4.734h8.599zm0-15.466h-8.599a10.733 10.733 0 100 21.467h8.599v4.733a4.733 4.733 0 01-4.733 4.733H60.733A4.736 4.736 0 0156 108.683v-32.9c1.46.717 3.077 1.1 4.733 1.1h55v5.6z" fill="url(#paint2_linear_222_786)"/><path d="M85.717 97.557l-7.858 7.859L70 97.557m7.859 7.859v-22 22z" stroke="url(#paint3_linear_222_786)" stroke-width="5" stroke-linecap="square"/></g><defs><linearGradient id="paint0_linear_222_786" x1="79.5" y1="15.564" x2="-4.938" y2="139.767" gradientUnits="userSpaceOnUse"><stop offset=".004" stop-color="#2C2B2A"/><stop offset="1" stop-color="#191F1B"/></linearGradient><linearGradient id="paint2_linear_222_786" x1="56.217" y1="67.592" x2="102.731" y2="123.192" gradientUnits="userSpaceOnUse"><stop stop-color="#FFE292"/><stop offset=".086" stop-color="#FFD562"/><stop offset=".151" stop-color="#FFE2A0"/><stop offset=".327" stop-color="#FCC266"/><stop offset=".626" stop-color="#FFDD9A"/><stop offset=".906" stop-color="#E98B34"/><stop offset=".979" stop-color="#FFE292"/></linearGradient><linearGradient id="paint3_linear_222_786" x1="71.362" y1="87.602" x2="87.024" y2="99.534" gradientUnits="userSpaceOnUse"><stop stop-color="#FFE292"/><stop offset=".086" stop-color="#FFD562"/><stop offset=".151" stop-color="#FFE2A0"/><stop offset=".327" stop-color="#FCC266"/><stop offset=".626" stop-color="#FFDD9A"/><stop offset=".906" stop-color="#E98B34"/><stop offset=".979" stop-color="#FFE292"/></linearGradient><filter id="filter0_d_222_786" x="0" y=".416" width="166" height="166" filterUnits="userSpaceOnUse" color-interpolation-filters="sRGB"><feFlood flood-opacity="0" result="BackgroundImageFix"/><feColorMatrix in="SourceAlpha" values="0 0 0 0 0 0 0 0 0 0 0 0 0 0 0 0 0 0 127 0" result="hardAlpha"/><feOffset dx="-4" dy="-2"/><feGaussianBlur stdDeviation="10"/><feColorMatrix values="0 0 0 0 1 0 0 0 0 0.494874 0 0 0 0 0.0264852 0 0 0 0.3 0"/><feBlend in2="BackgroundImageFix" result="effect1_dropShadow_222_786"/><feBlend in="SourceGraphic" in2="effect1_dropShadow_222_786" result="shape"/></filter><filter id="filter1_d_222_786" x="26" y="33.416" width="111.734" height="104" filterUnits="userSpaceOnUse" color-interpolation-filters="sRGB"><feFlood flood-opacity="0" result="BackgroundImageFix"/><feColorMatrix in="SourceAlpha" values="0 0 0 0 0 0 0 0 0 0 0 0 0 0 0 0 0 0 127 0" result="hardAlpha"/><feOffset dx="-4" dy="-2"/><feGaussianBlur stdDeviation="10"/><feColorMatrix values="0 0 0 0 1 0 0 0 0 0.494874 0 0 0 0 0.0264852 0 0 0 0.3 0"/><feBlend in2="BackgroundImageFix" result="effect1_dropShadow_222_786"/><feBlend in="SourceGraphic" in2="effect1_dropShadow_222_786" result="shape"/></filter><radialGradient id="paint1_radial_222_786" cx="0" cy="0" r="1" gradientUnits="userSpaceOnUse" gradientTransform="rotate(-135 105.738 43.142) scale(178.191 328.785)"><stop stop-color="#574031"/><stop offset=".305" stop-color="#6F5346"/><stop offset=".584" stop-color="#14141B"/><stop offset=".705" stop-color="#131320"/><stop offset=".78" stop-color="#20212C"/><stop offset=".89" stop-color="#202C32"/><stop offset="1" stop-color="#48585A"/></radialGradient></defs></svg>