<svg width="40" height="34" viewBox="0 0 40 34" fill="none" xmlns="http://www.w3.org/2000/svg"><path d="M15.436 2.79c-3.873 3.257-6.75 6.514-8.631 9.77-1.77 3.145-2.49 5.84-2.158 8.086l.498.842h.996l.498-.168 2.324-.169c1.66 0 3.043.674 4.149 2.021 1.217 1.236 1.826 2.696 1.826 4.38 0 1.572-.72 2.976-2.158 4.212-1.438 1.235-3.209 1.852-5.311 1.852-1.992 0-3.762-1.066-5.311-3.2C.719 28.282 0 25.812 0 23.004c0-4.492 1.494-8.76 4.481-12.802C6.584 6.945 9.737 3.745 13.941.6l1.495 2.19zM40 2.79c-3.873 3.257-6.75 6.514-8.63 9.77-1.771 3.145-2.49 5.84-2.158 8.086l.497.842h.996l.664-.168 2.158-.169c1.66 0 3.043.674 4.15 2.021 1.217 1.236 1.825 2.696 1.825 4.38 0 1.572-.72 2.976-2.158 4.212-1.438 1.235-3.209 1.852-5.31 1.852-1.992 0-3.763-1.066-5.312-3.2-1.439-2.134-2.158-4.604-2.158-7.412 0-7.749 4.648-15.216 13.942-22.404L40 2.79z" fill="#fff"/></svg>