<svg width="24" height="21" viewBox="0 0 24 21" fill="none" xmlns="http://www.w3.org/2000/svg"><path d="M9.261 1.743C6.938 3.715 5.211 5.688 4.083 7.66c-1.062 1.905-1.494 3.537-1.295 4.898l.3.51h.597l.298-.102 1.395-.102c.995 0 1.825.408 2.49 1.224.73.749 1.095 1.633 1.095 2.653 0 .953-.432 1.803-1.295 2.552-.863.748-1.925 1.122-3.187 1.122-1.195 0-2.257-.646-3.186-1.939C.432 17.185 0 15.688 0 13.987c0-2.72.896-5.306 2.689-7.755C3.95 4.26 5.842 2.321 8.365.416l.896 1.327zm14.739 0c-2.324 1.972-4.05 3.945-5.178 5.918-1.063 1.905-1.494 3.537-1.295 4.898l.299.51h.597l.399-.102 1.294-.102c.996 0 1.826.408 2.49 1.224.73.749 1.095 1.633 1.095 2.653 0 .953-.431 1.803-1.294 2.552-.863.748-1.926 1.122-3.187 1.122-1.195 0-2.257-.646-3.187-1.939-.863-1.292-1.294-2.789-1.294-4.49 0-4.693 2.788-9.217 8.365-13.571L24 1.743z" fill="#809AA5"/></svg>