<svg width="155" height="32" viewBox="0 0 155 32" fill="none" xmlns="http://www.w3.org/2000/svg"><path d="M52.676 9.844c.694 0 1.227.51 1.227 1.174v1.174c0 .663-.533 1.174-1.227 1.174h-5.818V26.56c0 .638-.56 1.148-1.228 1.148h-2.455c-.668 0-1.228-.51-1.228-1.148V13.366h-5.818c-.694 0-1.228-.51-1.228-1.174v-1.174c0-.664.534-1.174 1.228-1.174h16.547zM68.05 20.868c0 4.696-2.83 7.095-7.874 7.095s-7.873-2.399-7.873-7.095 2.829-7.07 7.873-7.07c5.044 0 7.873 2.374 7.873 7.07zm-4.511 0c0-3.011-1.095-4.236-3.363-4.236-2.269 0-3.363 1.225-3.363 4.236 0 3.012 1.094 4.262 3.363 4.262 2.268 0 3.363-1.25 3.363-4.262zm22.179 0c0 4.696-2.83 7.095-6.993 7.095-1.601 0-2.669-.306-3.763-.638v3.828c0 .434-.347.766-.8.766h-2.91c-.454 0-.8-.332-.8-.766V14.82c0-.434.346-.766.8-.766h2.51c.453 0 .8.332.8.766v.383a7.868 7.868 0 014.563-1.404c3.79 0 6.593 2.399 6.593 7.07zm-10.756-2.935v6.508c1.094.332 2.162.51 2.829.51 2.401 0 3.282-1.25 3.282-4.083 0-2.807-.88-4.058-3.015-4.058-.961 0-2.162.562-3.096 1.123zM96.9 9.844c7.605 0 10.808 2.833 10.808 8.932 0 6.1-3.203 8.933-10.809 8.933h-7.285c-.667 0-1.228-.51-1.228-1.148V11.043c0-.663.534-1.2 1.228-1.2H96.9zm-3.604 3.522v10.82h3.47c4.777 0 6.031-1.581 6.031-5.41 0-3.828-1.253-5.41-6.031-5.41h-3.47zm20.603 8.83c.188 2.041 1.148 2.934 3.337 2.934 1.121 0 2.108-.306 2.561-.841.347-.409.828-.665 1.495-.665h1.948c.454 0 .801.332.801.766 0 2.654-2.856 3.573-7.126 3.573-4.75 0-7.606-2.45-7.606-7.07 0-4.593 2.882-7.094 7.606-7.094 4.751 0 7.606 2.424 7.606 6.916v.715c0 .434-.347.766-.8.766h-9.822zm-.025-2.63h6.058c-.081-1.913-1.041-2.934-3.016-2.934-1.922 0-2.935 1.02-3.042 2.935zm23.538.231c0-2.119-1.014-2.987-2.482-2.987-1.307 0-2.535.868-3.496 1.787v8.345c0 .435-.347.766-.8.766h-2.909c-.454 0-.801-.331-.801-.766V14.82c0-.434.347-.766.801-.766h2.909c.453 0 .8.332.8.766v.79c1.228-.994 2.562-1.811 4.564-1.811 3.47 0 5.924 1.76 5.924 5.998v7.145c0 .435-.347.766-.8.766h-2.909c-.454 0-.801-.331-.801-.766v-7.145zm13.318 8.168c-3.736 0-5.605-1.787-5.605-5.615V10.61c0-.433.347-.765.801-.765h2.909c.453 0 .8.332.8.765v4.16h3.63c.454 0 .801.332.801.766v1.48c0 .434-.347.765-.801.765h-3.63v4.568c0 1.736.935 2.655 2.296 2.655.693 0 1.201-.153 1.788-.153h.48c.454 0 .801.331.801.765v1.328c0 .382-.347.689-.801.765-.8.154-2.268.256-3.469.256z" fill="#231F20"/><path d="M8.429 7.9c1.944 0 3.856.447 5.256 1.344 1.399-.897 3.307-1.345 5.256-1.345 4.073 0 7.375 1.903 7.375 5.883 0 3.981-5.88 17.024-9.894 17.024-.993 0-1.936-2.582-2.737-5.81-.804 3.228-1.747 5.81-2.742 5.81-4.01 0-9.89-13.043-9.89-17.024C1.055 9.802 4.356 7.9 8.43 7.9z" fill="#fff"/><path d="M16.422 31.834c-.776 0-1.43-1.808-2.04-3.646a.725.725 0 00-1.397 0c-.611 1.837-1.265 3.646-2.041 3.646-2.82 0-5.574-4.122-7.387-7.58C1.496 20.326 0 15.92 0 13.78c0-4.2 3.309-6.913 8.429-6.913 1.8 0 3.492.347 4.877.99a.9.9 0 00.757 0c1.386-.642 3.078-.99 4.878-.99 5.12 0 8.429 2.714 8.429 6.913 0 2.14-1.497 6.545-3.558 10.475-1.814 3.457-4.568 7.579-7.39 7.579zM8.43 8.927c-1.483 0-6.32.35-6.321 4.853 0 1.822 1.43 5.921 3.325 9.535 2.001 3.816 3.837 5.829 4.988 6.332.234.102.467-.011.55-.254.32-.944.954-3.535 1.74-6.691l.278-1.221c.184-.811 1.329-.841 1.556-.041l.357 1.262c.781 3.145 1.25 5.732 1.512 6.683.068.247.298.364.533.261 1.152-.503 2.989-2.516 4.99-6.331 1.895-3.614 3.325-7.713 3.325-9.535 0-4.503-4.838-4.853-6.32-4.853-1.807 0-3.513.429-4.678 1.176l-.145.093a.803.803 0 01-.866 0l-.145-.093c-1.168-.747-2.873-1.176-4.679-1.176z" fill="#3398D4"/><path d="M7.215 11.38c.392-.622-.084-1.454-.779-1.215-1.161.399-2.449 1.135-2.759 2.47-.269 1.16.146 3.103.68 4.885.257.853 1.42.63 1.443-.26.035-1.347.125-2.685.326-3.474.224-.879.657-1.72 1.09-2.407z" fill="#D6E1E7"/><path d="M17.506 4.872a.84.84 0 00.866.61c1.019-.06 2.967-.097 4.4.367 1.408.457 2.622 1.422 3.233 1.97.258.23.632.3.946.15l1.45-.686c.69-.328.576-1.345-.17-1.51l-1.565-.347a.803.803 0 01-.617-.642L25.363.942a.803.803 0 00-1.315-.467L20.9 3.184a.803.803 0 01-.862.12L18.22 2.46a.803.803 0 00-1.113.939l.399 1.472z" fill="#FEA82A"/></svg>