<svg width="99" height="33" viewBox="0 0 99 33" fill="none" xmlns="http://www.w3.org/2000/svg"><path d="M94.458 12.61H99c-.575-4.422-3.803-6.746-8.291-6.746-4.542 0-7.58 2.41-7.58 6.547 0 4.704 3.913 5.753 5.993 6.178 2.681.538 5.308.595 5.308 2.975 0 1.616-1.313 2.41-3.174 2.41-2.298 0-3.83-1.191-4.214-3.345h-4.487c.273 4.648 3.53 7.142 8.318 7.142 4.433 0 8.072-2.097 8.072-6.632 0-4.874-4.186-5.753-7.114-6.206-1.998-.312-4.187-.595-4.187-2.777 0-1.53 1.122-2.466 3.01-2.466 2.19 0 3.503 1.276 3.804 2.92zM80.065 6.573h-4.296V27.12h4.296V6.573zM62.798 19.95h5.61c-.876 2.21-2.846 3.259-5.117 3.259-3.995 0-5.856-3.203-5.856-6.377 0-3.202 1.752-6.461 5.829-6.461 2.49 0 4.35 1.19 5.062 3.316h4.624c-.793-4.79-4.843-7.539-9.632-7.539-5.91 0-10.343 4.166-10.343 10.741 0 6.66 4.816 10.6 10.316 10.6 5.418 0 9.66-3.657 9.66-9.381v-1.672H62.798v3.514zM43.152 6.148c-4.926 0-8.565 3.203-8.538 8.53h4.433c-.054-2.323 1.368-4.449 3.886-4.449 2.189 0 3.475 1.587 3.475 3.401 0 1.814-1.286 2.834-3.667 3.94-3.256 1.501-5.582 2.465-7.962 3.315v6.235H51.36v-4.195H39.977l.056-.018c1.937-.607 3.391-1.267 5.116-2.05 3.694-1.7 5.801-3.826 5.801-7.454 0-4.449-3.174-7.255-7.798-7.255z" fill="#403F41"/><path d="M22.958 19.893c-5.582.028-6.485 3.514-6.786 6.461l-.137 1.304h-1.122l-.137-1.304c-.3-2.947-1.231-6.433-6.622-6.461-.903-1.927-1.286-3.486-1.286-5.243 0-4.393 3.475-8.502 8.62-8.502 5.144 0 8.564 4.081 8.564 8.53 0 1.73-.164 3.288-1.094 5.215zM15.433.82C6.95.82 0 8.02 0 16.832c0 8.842 6.95 16.04 15.433 16.04 8.564 0 15.487-7.198 15.487-16.04C30.92 8.02 23.997.82 15.433.82z" fill="#29B24A"/></svg>