<svg width="113" height="28" viewBox="0 0 113 28" fill="none" xmlns="http://www.w3.org/2000/svg"><path d="M.992 1.314h23.531c.548 0 .992.439.992.98v4.57c0 .609-.267 1.185-.733 1.584L11.624 19.32h12.9a.98.98 0 01.991.972v5.247c0 .54-.444.98-.992.98H.993a.986.986 0 01-.993-.98v-4.563c0-.609.267-1.185.733-1.584L13.892 8.52H.992A.995.995 0 010 7.53V2.294c0-.541.444-.98.992-.98zM41.918.42c2.721 0 5.147.604 7.172 1.708a11.98 11.98 0 014.767 4.709c1.118 2 1.73 4.396 1.73 7.083 0 2.687-.612 5.083-1.73 7.083a11.98 11.98 0 01-4.767 4.708c-2.025 1.105-4.451 1.709-7.172 1.709-2.72 0-5.146-.604-7.171-1.709a11.98 11.98 0 01-4.768-4.708c-1.118-2-1.73-4.396-1.73-7.083 0-2.687.612-5.083 1.73-7.083a11.98 11.98 0 014.768-4.709C36.772 1.024 39.197.42 41.918.42zm0 7.2c-1.301 0-2.444.271-3.389.776a5.358 5.358 0 00-2.204 2.177c-.51.933-.786 2.061-.786 3.347 0 1.285.275 2.414.786 3.347a5.358 5.358 0 002.204 2.177c.945.504 2.088.776 3.39.776 1.3 0 2.443-.272 3.388-.776a5.358 5.358 0 002.204-2.177c.511-.933.786-2.062.786-3.347 0-1.286-.275-2.414-.786-3.347a5.36 5.36 0 00-2.204-2.177c-.945-.505-2.087-.776-3.389-.776zm29.16-7.2c2.721 0 5.147.604 7.172 1.708a11.98 11.98 0 014.768 4.709c1.118 2 1.73 4.396 1.73 7.083 0 2.687-.612 5.083-1.73 7.083a11.98 11.98 0 01-4.768 4.708c-2.025 1.105-4.45 1.709-7.171 1.709s-5.147-.604-7.172-1.709a11.98 11.98 0 01-4.767-4.708c-1.118-2-1.73-4.396-1.73-7.083 0-2.687.612-5.083 1.73-7.083a11.98 11.98 0 014.767-4.709C65.932 1.024 68.357.42 71.08.42zm0 7.2c-1.3 0-2.443.271-3.388.776a5.36 5.36 0 00-2.204 2.177c-.511.933-.786 2.061-.786 3.347 0 1.285.275 2.414.786 3.347a5.358 5.358 0 002.204 2.177c.945.504 2.087.776 3.389.776 1.301 0 2.444-.272 3.389-.776a5.358 5.358 0 002.203-2.177c.512-.933.787-2.062.787-3.347 0-1.286-.275-2.414-.787-3.347a5.358 5.358 0 00-2.203-2.177c-.945-.505-2.088-.776-3.39-.776zM113 2.297v23.241c0 .541-.444.98-.992.98h-4.625a2.132 2.132 0 01-1.603-.724L94.772 12.8v12.738c0 .541-.455.98-1.003.98h-5.298a.986.986 0 01-.993-.98V2.297c0-.541.445-.98.993-.98h4.624c.616 0 1.2.264 1.604.724l11.008 12.999V2.297a.98.98 0 01.984-.98h5.317c.548 0 .992.439.992.98z" fill="url(#paint0_linear_414_4811)"/><defs><linearGradient id="paint0_linear_414_4811" x1="87.398" y1="13.92" x2="24.647" y2="13.92" gradientUnits="userSpaceOnUse"><stop stop-color="#6339F5"/><stop offset="1" stop-color="#3D3F55"/></linearGradient></defs></svg>