<svg width="98" height="30" viewBox="0 0 98 30" fill="none" xmlns="http://www.w3.org/2000/svg"><path d="M93.689 25.547c1.928 0 3.293-.348 4.31-1.098v-3.4c-1.043.723-2.302 1.178-4.07 1.178-2.971 0-4.203-2.303-4.203-5.944 0-3.83 1.5-5.784 4.23-5.784 1.607 0 3.187.562 4.017 1.098V8.062c-.883-.481-2.41-.83-4.498-.83-5.329 0-8.087 3.83-8.087 9.185.027 5.863 2.731 9.13 8.3 9.13zm-26.053-1.553v-3.4c-1.285.883-3.481 1.66-5.49 1.66-3.052 0-4.203-1.446-4.39-4.392h10.067v-2.195c0-6.132-2.704-8.435-6.854-8.435-5.088 0-7.498 3.883-7.498 9.211 0 6.132 3.026 9.104 8.328 9.104 2.65 0 4.605-.723 5.837-1.553zm-38.21-16.44v6.961h-5.569V7.554H19.68v17.645h4.177v-7.363h5.57v7.363h4.177V7.554h-4.177zm23.001 14.325H50.58V7.554H38.423v1.5c0 4.31-.267 9.88-1.74 12.825h-1.339v7.336H39.2V25.2h9.345v4.016H52.4V21.88h.027zm28.517 3.32h4.739l-6.694-9.505 5.89-8.14h-4.203l-5.89 8.14v-8.14h-4.178v17.645h4.177v-8.675l6.159 8.675zM60.862 10.5c2.061 0 2.704 1.714 2.704 3.936v.348h-5.81c.107-2.811 1.124-4.284 3.106-4.284zm-14.46 11.38h-5.89c1.151-2.651 1.472-7.47 1.472-10.523v-.536h4.419V21.88z" fill="#000"/><path d="M16.2 25.2h-4.258V4.125h-1.901c-3.48 0-5.302 1.74-5.302 4.338 0 2.945 1.259 4.311 3.856 6.051l2.142 1.446L4.58 25.2H0l5.543-8.247C2.356 14.676.563 12.454.563 8.705.562 4.02 3.828.833 10.013.833h6.159v24.366h.027z" fill="#FC3F1D"/></svg>