<svg width="109" height="37" viewBox="0 0 109 37" fill="none" xmlns="http://www.w3.org/2000/svg"><path d="M46.36 19.187c0 5.13-4.013 8.911-8.94 8.911-4.925 0-8.939-3.78-8.939-8.911 0-5.167 4.014-8.912 8.94-8.912 4.926 0 8.94 3.745 8.94 8.912zm-3.913 0c0-3.206-2.326-5.4-5.026-5.4-2.7 0-5.026 2.194-5.026 5.4 0 3.174 2.326 5.4 5.026 5.4 2.7 0 5.026-2.23 5.026-5.4z" fill="#EA4335"/><path d="M65.645 19.187c0 5.13-4.013 8.911-8.939 8.911s-8.94-3.78-8.94-8.911c0-5.163 4.014-8.912 8.94-8.912 4.926 0 8.94 3.745 8.94 8.912zm-3.913 0c0-3.206-2.326-5.4-5.026-5.4-2.7 0-5.026 2.194-5.026 5.4 0 3.174 2.326 5.4 5.026 5.4 2.7 0 5.026-2.23 5.026-5.4z" fill="#FBBC05"/><path d="M84.127 10.814v15.998c0 6.581-3.88 9.27-8.47 9.27-4.318 0-6.918-2.89-7.898-5.252l3.407-1.418c.607 1.45 2.093 3.162 4.488 3.162 2.937 0 4.757-1.812 4.757-5.223v-1.282h-.137c-.876 1.08-2.563 2.025-4.692 2.025-4.456 0-8.538-3.881-8.538-8.875 0-5.03 4.082-8.944 8.538-8.944 2.125 0 3.812.945 4.692 1.993h.137v-1.45h3.716v-.004zm-3.439 8.405c0-3.138-2.093-5.432-4.757-5.432-2.7 0-4.962 2.294-4.962 5.432 0 3.105 2.262 5.367 4.962 5.367 2.664 0 4.757-2.261 4.757-5.367z" fill="#4285F4"/><path d="M90.254 1.437v26.115h-3.817V1.437h3.817z" fill="#34A853"/><path d="M105.128 22.12l3.037 2.025c-.98 1.45-3.343 3.95-7.425 3.95-5.062 0-8.843-3.914-8.843-8.912 0-5.3 3.813-8.912 8.406-8.912 4.624 0 6.886 3.68 7.625 5.67l.406 1.012-11.913 4.934c.912 1.788 2.33 2.7 4.319 2.7 1.993 0 3.375-.98 4.388-2.467zm-9.35-3.206l7.964-3.307c-.438-1.113-1.756-1.888-3.307-1.888-1.989 0-4.757 1.755-4.656 5.195z" fill="#EA4335"/><path d="M14.034 16.869v-3.781h12.74c.125.659.189 1.438.189 2.282 0 2.836-.776 6.344-3.274 8.843-2.431 2.531-5.537 3.881-9.651 3.881C6.412 28.094 0 21.883 0 14.257 0 6.631 6.412.42 14.038.42c4.218 0 7.224 1.655 9.482 3.813L20.852 6.9c-1.62-1.52-3.813-2.7-6.818-2.7-5.569 0-9.924 4.487-9.924 10.056 0 5.569 4.355 10.056 9.924 10.056 3.612 0 5.669-1.45 6.987-2.768 1.069-1.069 1.772-2.595 2.049-4.68l-9.036.004z" fill="#4285F4"/></svg>