<svg width="286" height="182" fill="none" xmlns="http://www.w3.org/2000/svg"><path d="M32.506 154.274c-1.29 0-2.367-.288-3.231-.864-.858-.576-1.503-1.371-1.935-2.385-.432-1.014-.648-2.181-.648-3.501 0-1.32.216-2.487.648-3.501.432-1.014 1.077-1.809 1.935-2.385.864-.576 1.941-.864 3.231-.864 1.512 0 2.73.396 3.654 1.188.924.786 1.548 1.836 1.872 3.15l-.792.18c-.288-1.146-.828-2.058-1.62-2.736-.786-.684-1.824-1.026-3.114-1.026-1.11 0-2.034.255-2.772.765-.732.51-1.284 1.218-1.656 2.124-.372.9-.564 1.935-.576 3.105-.012 1.17.168 2.205.54 3.105.372.9.93 1.608 1.674 2.124.75.51 1.68.765 2.79.765 1.29 0 2.328-.342 3.114-1.026.792-.684 1.332-1.596 1.62-2.736l.792.18c-.324 1.314-.948 2.367-1.872 3.159-.924.786-2.142 1.179-3.654 1.179zm12.027 0c-.858 0-1.587-.228-2.187-.684-.6-.456-1.058-1.071-1.377-1.845-.312-.78-.468-1.653-.468-2.619 0-.984.16-1.86.477-2.628.319-.774.786-1.38 1.404-1.818.625-.444 1.39-.666 2.296-.666.87 0 1.608.228 2.214.684.611.45 1.076 1.062 1.394 1.836.319.774.477 1.638.477 2.592 0 .972-.161 1.848-.485 2.628-.325.774-.801 1.389-1.431 1.845-.625.45-1.395.675-2.314.675zm-4.157 4.05v-14.04h.702v7.65h.053v6.39h-.755zm4.157-4.806c.75 0 1.377-.192 1.881-.576.51-.384.895-.906 1.152-1.566.258-.666.387-1.416.387-2.25 0-.828-.126-1.569-.378-2.223-.245-.66-.62-1.179-1.125-1.557-.504-.384-1.143-.576-1.917-.576-.755 0-1.392.186-1.907.558-.51.372-.898.888-1.161 1.548-.259.654-.388 1.404-.388 2.25 0 .834.13 1.584.388 2.25.257.66.641 1.182 1.151 1.566.517.384 1.156.576 1.917.576zm10.48.756c-.918 0-1.71-.207-2.376-.621-.66-.414-1.17-1.005-1.53-1.773-.36-.768-.54-1.68-.54-2.736 0-1.062.177-1.977.53-2.745.36-.768.87-1.356 1.53-1.764.667-.414 1.462-.621 2.386-.621.93 0 1.725.21 2.385.63.66.42 1.164 1.029 1.512 1.827.354.798.53 1.761.53 2.889h-.81v-.252c-.035-1.398-.365-2.469-.99-3.213-.617-.75-1.493-1.125-2.627-1.125-1.152 0-2.046.384-2.682 1.152-.636.762-.954 1.836-.954 3.222s.318 2.463.954 3.231c.636.762 1.53 1.143 2.682 1.143.804 0 1.509-.189 2.115-.567.606-.378 1.089-.921 1.449-1.629l.63.36c-.396.828-.957 1.467-1.683 1.917-.726.45-1.563.675-2.511.675zm-3.96-4.914v-.756h7.92v.756h-7.92zm10.012 6.804v-2.916c.57 0 .981-.177 1.233-.531.252-.354.459-.891.621-1.611.114-.498.207-1.041.279-1.629.072-.588.135-1.296.189-2.124.054-.828.108-1.851.162-3.069h5.886v8.964h.9v2.916h-.756v-2.16h-7.758v2.16h-.756zm1.8-2.916h5.814v-8.208h-4.356a70.68 70.68 0 0 1-.099 1.683c-.036.6-.081 1.2-.135 1.8-.048.6-.111 1.161-.189 1.683-.072.522-.159.966-.261 1.332-.108.378-.216.714-.324 1.008a1.732 1.732 0 0 1-.45.702zm9.634.756v-9.72h.755v4.482h6.228v-4.482h.757v9.72h-.757v-4.482h-6.228v4.482H72.5zm16.907 0v-3.942h-2.628c-.288 0-.555-.015-.8-.045-.24-.03-.466-.063-.676-.099a3.32 3.32 0 0 1-1.656-.846c-.468-.438-.702-1.056-.702-1.854 0-.774.213-1.395.64-1.863.431-.468.92-.777 1.466-.927.27-.072.54-.114.81-.126.276-.012.522-.018.738-.018h3.564l.018 9.72h-.774zm-6.822 0 2.97-4.32h.936l-3.006 4.32h-.9zm4.23-4.698h2.592v-4.266h-2.592c-.168 0-.414.006-.738.018a3.39 3.39 0 0 0-.882.144 2.341 2.341 0 0 0-.657.333 1.857 1.857 0 0 0-.558.648c-.15.27-.225.609-.225 1.017 0 .558.147.999.441 1.323.3.318.687.537 1.161.657.264.06.525.096.783.108.264.012.49.018.675.018zm12.532 4.698v-3.942h-2.628c-.288 0-.555-.015-.8-.045-.24-.03-.466-.063-.676-.099a3.32 3.32 0 0 1-1.656-.846c-.468-.438-.702-1.056-.702-1.854 0-.774.213-1.395.64-1.863.431-.468.92-.777 1.466-.927.27-.072.54-.114.81-.126.276-.012.522-.018.738-.018h3.564l.018 9.72h-.774zm-6.822 0 2.97-4.32h.936l-3.006 4.32h-.9zm4.23-4.698h2.592v-4.266h-2.592c-.168 0-.414.006-.738.018a3.39 3.39 0 0 0-.882.144 2.341 2.341 0 0 0-.657.333 1.857 1.857 0 0 0-.558.648c-.15.27-.225.609-.225 1.017 0 .558.147.999.441 1.323.3.318.687.537 1.161.657.264.06.525.096.783.108.264.012.49.018.675.018zm14.12 4.968c-.96 0-1.77-.219-2.43-.657-.66-.438-1.161-1.044-1.503-1.818-.342-.774-.513-1.665-.513-2.673 0-1.02.174-1.914.522-2.682.348-.768.852-1.365 1.512-1.791.666-.426 1.47-.639 2.412-.639.966 0 1.779.219 2.439.657.66.432 1.158 1.032 1.494 1.8.342.768.513 1.653.513 2.655 0 1.026-.171 1.926-.513 2.7-.342.768-.846 1.368-1.512 1.8-.66.432-1.467.648-2.421.648zm0-.756c1.224 0 2.136-.405 2.736-1.215.6-.816.9-1.875.9-3.177 0-1.326-.303-2.382-.909-3.168-.6-.792-1.509-1.188-2.727-1.188-.822 0-1.503.186-2.043.558-.534.372-.933.885-1.197 1.539-.264.654-.396 1.407-.396 2.259 0 1.32.306 2.382.918 3.186.618.804 1.524 1.206 2.718 1.206zm15.286 1.926v-1.44h-8.496v-9.72h.756v8.964h5.742v-8.964h.756v8.964h1.998v2.196h-.756zm6.457-1.17c-.918 0-1.71-.207-2.376-.621-.66-.414-1.17-1.005-1.53-1.773-.36-.768-.54-1.68-.54-2.736 0-1.062.177-1.977.531-2.745.36-.768.87-1.356 1.53-1.764.666-.414 1.461-.621 2.385-.621.93 0 1.725.21 2.385.63.66.42 1.164 1.029 1.512 1.827.354.798.531 1.761.531 2.889h-.81v-.252c-.036-1.398-.366-2.469-.99-3.213-.618-.75-1.494-1.125-2.628-1.125-1.152 0-2.046.384-2.682 1.152-.636.762-.954 1.836-.954 3.222s.318 2.463.954 3.231c.636.762 1.53 1.143 2.682 1.143.804 0 1.509-.189 2.115-.567.606-.378 1.089-.921 1.449-1.629l.63.36c-.396.828-.957 1.467-1.683 1.917-.726.45-1.563.675-2.511.675zm-3.96-4.914v-.756h7.92v.756h-7.92zm10.733 4.644v-9.72h.756v4.482h6.228v-4.482h.756v9.72h-.756v-4.482h-6.228v4.482h-.756zm10.625 0v-9.72h.756v4.68l4.86-4.68h1.134l-5.076 4.86 5.85 4.86h-1.296l-5.472-4.68v4.68h-.756zm11.606.27c-.756 0-1.383-.132-1.881-.396s-.87-.612-1.116-1.044a2.79 2.79 0 0 1-.369-1.404c0-.57.123-1.041.369-1.413.252-.378.579-.675.981-.891a4.774 4.774 0 0 1 1.296-.468 26.505 26.505 0 0 1 1.809-.297c.648-.09 1.245-.165 1.791-.225.546-.06.954-.108 1.224-.144l-.27.18c.03-1.146-.18-1.998-.63-2.556-.444-.564-1.23-.846-2.358-.846-.816 0-1.473.183-1.971.549-.492.36-.837.915-1.035 1.665l-.828-.216c.216-.9.657-1.584 1.323-2.052.672-.468 1.521-.702 2.547-.702.9 0 1.65.183 2.25.549.6.366 1.008.861 1.224 1.485.084.24.144.531.18.873.036.342.054.675.054.999v6.084h-.702v-2.664l.36.018c-.258.924-.771 1.641-1.539 2.151-.768.51-1.671.765-2.709.765zm-.036-.756c.702 0 1.32-.126 1.854-.378.54-.252.975-.615 1.305-1.089.336-.48.549-1.053.639-1.719.048-.336.072-.696.072-1.08v-.828l.396.306-1.323.126a37.26 37.26 0 0 0-1.773.198c-.624.078-1.188.18-1.692.306a4.358 4.358 0 0 0-.909.342 2.26 2.26 0 0 0-.792.657c-.21.282-.315.645-.315 1.089 0 .312.078.627.234.945.156.318.417.585.783.801.372.216.879.324 1.521.324zm11.289.486v-9.72h.756v4.482h6.228v-4.482h.756v9.72h-.756v-4.482h-6.228v4.482h-.756zm13.452.27c-.756 0-1.383-.132-1.881-.396s-.87-.612-1.116-1.044a2.79 2.79 0 0 1-.369-1.404c0-.57.123-1.041.369-1.413.252-.378.579-.675.981-.891a4.774 4.774 0 0 1 1.296-.468 26.505 26.505 0 0 1 1.809-.297c.648-.09 1.245-.165 1.791-.225.546-.06.954-.108 1.224-.144l-.27.18c.03-1.146-.18-1.998-.63-2.556-.444-.564-1.23-.846-2.358-.846-.816 0-1.473.183-1.971.549-.492.36-.837.915-1.035 1.665l-.828-.216c.216-.9.657-1.584 1.323-2.052.672-.468 1.521-.702 2.547-.702.9 0 1.65.183 2.25.549.6.366 1.008.861 1.224 1.485.084.24.144.531.18.873.036.342.054.675.054.999v6.084h-.702v-2.664l.36.018c-.258.924-.771 1.641-1.539 2.151-.768.51-1.671.765-2.709.765zm-.036-.756c.702 0 1.32-.126 1.854-.378.54-.252.975-.615 1.305-1.089.336-.48.549-1.053.639-1.719.048-.336.072-.696.072-1.08v-.828l.396.306-1.323.126a37.26 37.26 0 0 0-1.773.198c-.624.078-1.188.18-1.692.306a4.358 4.358 0 0 0-.909.342 2.26 2.26 0 0 0-.792.657c-.21.282-.315.645-.315 1.089 0 .312.078.627.234.945.156.318.417.585.783.801.372.216.879.324 1.521.324zm15.195.756c-.966 0-1.776-.216-2.43-.648-.654-.432-1.149-1.032-1.485-1.8-.336-.774-.513-1.668-.531-2.682.018-1.038.195-1.941.531-2.709.342-.768.84-1.362 1.494-1.782.654-.426 1.461-.639 2.421-.639.9 0 1.701.216 2.403.648a3.507 3.507 0 0 1 1.503 1.764l-.72.306a3.079 3.079 0 0 0-1.251-1.449c-.558-.342-1.203-.513-1.935-.513-.816 0-1.491.186-2.025.558-.534.366-.933.879-1.197 1.539-.264.654-.402 1.413-.414 2.277.018 1.32.33 2.379.936 3.177.606.798 1.506 1.197 2.7 1.197.714 0 1.347-.165 1.899-.495.552-.33.975-.813 1.269-1.449l.738.324c-.402.78-.933 1.371-1.593 1.773-.66.402-1.431.603-2.313.603zm8.984 0c-.756 0-1.383-.132-1.881-.396s-.87-.612-1.116-1.044a2.79 2.79 0 0 1-.369-1.404c0-.57.123-1.041.369-1.413.252-.378.579-.675.981-.891a4.774 4.774 0 0 1 1.296-.468 26.505 26.505 0 0 1 1.809-.297c.648-.09 1.245-.165 1.791-.225.546-.06.954-.108 1.224-.144l-.27.18c.03-1.146-.18-1.998-.63-2.556-.444-.564-1.23-.846-2.358-.846-.816 0-1.473.183-1.971.549-.492.36-.837.915-1.035 1.665l-.828-.216c.216-.9.657-1.584 1.323-2.052.672-.468 1.521-.702 2.547-.702.9 0 1.65.183 2.25.549.6.366 1.008.861 1.224 1.485.084.24.144.531.18.873.036.342.054.675.054.999v6.084h-.702v-2.664l.36.018c-.258.924-.771 1.641-1.539 2.151-.768.51-1.671.765-2.709.765zm-.036-.756c.702 0 1.32-.126 1.854-.378.54-.252.975-.615 1.305-1.089.336-.48.549-1.053.639-1.719.048-.336.072-.696.072-1.08v-.828l.396.306-1.323.126a37.26 37.26 0 0 0-1.773.198c-.624.078-1.188.18-1.692.306a4.358 4.358 0 0 0-.909.342 2.26 2.26 0 0 0-.792.657c-.21.282-.315.645-.315 1.089 0 .312.078.627.234.945.156.318.417.585.783.801.372.216.879.324 1.521.324zm11.051-10.422c-.378 0-.723-.093-1.035-.279a2.146 2.146 0 0 1-.747-.738 2.034 2.034 0 0 1-.27-1.035h.702c0 .366.132.684.396.954.27.264.588.396.954.396.378 0 .696-.132.954-.396a1.32 1.32 0 0 0 .396-.954h.702c0 .378-.093.723-.279 1.035-.18.306-.426.552-.738.738a1.983 1.983 0 0 1-1.035.279zm3.528 1.188v9.72h-.756v-8.388l-5.796 8.388h-.702v-9.72h.756v8.388l5.796-8.388h.702zm5.652 9.72v-8.964h-3.582v-.756h7.92v.756h-3.582v8.964h-.756zm8.781.27c-.756 0-1.383-.132-1.881-.396s-.87-.612-1.116-1.044a2.79 2.79 0 0 1-.369-1.404c0-.57.123-1.041.369-1.413.252-.378.579-.675.981-.891a4.774 4.774 0 0 1 1.296-.468 26.505 26.505 0 0 1 1.809-.297c.648-.09 1.245-.165 1.791-.225.546-.06.954-.108 1.224-.144l-.27.18c.03-1.146-.18-1.998-.63-2.556-.444-.564-1.23-.846-2.358-.846-.816 0-1.473.183-1.971.549-.492.36-.837.915-1.035 1.665l-.828-.216c.216-.9.657-1.584 1.323-2.052.672-.468 1.521-.702 2.547-.702.9 0 1.65.183 2.25.549.6.366 1.008.861 1.224 1.485.084.24.144.531.18.873.036.342.054.675.054.999v6.084h-.702v-2.664l.36.018c-.258.924-.771 1.641-1.539 2.151-.768.51-1.671.765-2.709.765zm-.036-.756c.702 0 1.32-.126 1.854-.378.54-.252.975-.615 1.305-1.089.336-.48.549-1.053.639-1.719.048-.336.072-.696.072-1.08v-.828l.396.306-1.323.126a37.26 37.26 0 0 0-1.773.198c-.624.078-1.188.18-1.692.306a4.358 4.358 0 0 0-.909.342 2.26 2.26 0 0 0-.792.657c-.21.282-.315.645-.315 1.089 0 .312.078.627.234.945.156.318.417.585.783.801.372.216.879.324 1.521.324zm6.246.486 3.96-4.914-3.87-4.806h.936l3.384 4.248 3.366-4.248h.936l-3.87 4.806 3.96 4.914h-.954l-3.438-4.356-3.456 4.356h-.954zm-205.938 23.27c-.996 0-1.842-.222-2.538-.666a4.354 4.354 0 0 1-1.602-1.827c-.366-.774-.552-1.653-.558-2.637.006-1.002.198-1.887.576-2.655a4.333 4.333 0 0 1 1.62-1.818c.702-.438 1.545-.657 2.529-.657 1.062 0 1.968.264 2.718.792.756.528 1.254 1.251 1.494 2.169l-1.872.54c-.186-.546-.492-.969-.918-1.269a2.397 2.397 0 0 0-1.45-.459c-.617 0-1.124.147-1.52.441-.396.288-.69.684-.882 1.188-.192.504-.291 1.08-.297 1.728.006 1.002.234 1.812.684 2.43.456.618 1.128.927 2.016.927.606 0 1.095-.138 1.467-.414.378-.282.666-.684.864-1.206l1.908.45c-.318.948-.843 1.677-1.575 2.187-.732.504-1.62.756-2.664.756zm10.387-.27v-9.72h1.88v3.969h4.744v-3.969h1.88v9.72h-1.88v-3.978h-4.743v3.978h-1.881zm14.135.27c-.72 0-1.323-.132-1.809-.396a2.821 2.821 0 0 1-1.107-1.062 2.958 2.958 0 0 1-.369-1.458c0-.492.087-.924.261-1.296.174-.372.432-.687.774-.945a4.14 4.14 0 0 1 1.26-.639c.432-.126.921-.237 1.467-.333a49.86 49.86 0 0 1 1.72-.27l1.8-.252-.685.378c.012-.762-.15-1.326-.486-1.692-.33-.372-.9-.558-1.71-.558-.51 0-.978.12-1.404.36-.426.234-.723.624-.89 1.17l-1.756-.54c.24-.834.696-1.497 1.368-1.989.678-.492 1.578-.738 2.7-.738.87 0 1.626.15 2.268.45a2.797 2.797 0 0 1 1.422 1.404c.156.318.252.654.288 1.008.036.354.054.735.054 1.143v5.985H67.74v-2.223l.324.288c-.402.744-.915 1.299-1.539 1.665-.618.36-1.38.54-2.286.54zm.333-1.539c.534 0 .993-.093 1.377-.279a2.71 2.71 0 0 0 .927-.729c.234-.294.387-.6.46-.918.101-.288.158-.612.17-.972.018-.36.027-.648.027-.864l.612.225-1.62.243c-.486.072-.927.144-1.323.216-.39.066-.738.147-1.044.243-.258.09-.489.198-.693.324a1.587 1.587 0 0 0-.477.459c-.114.18-.17.399-.17.657 0 .252.062.486.188.702.126.21.318.378.576.504.258.126.588.189.99.189zm12.093 1.539c-.93 0-1.71-.225-2.34-.675-.63-.456-1.107-1.071-1.43-1.845-.325-.774-.487-1.647-.487-2.619 0-.972.16-1.845.477-2.619.324-.774.798-1.383 1.422-1.827.63-.45 1.404-.675 2.322-.675.912 0 1.698.225 2.358.675.666.444 1.18 1.053 1.54 1.827.36.768.54 1.641.54 2.619 0 .972-.18 1.848-.54 2.628-.355.774-.862 1.386-1.522 1.836-.654.45-1.434.675-2.34.675zm-4.572 4.05v-14.04h1.674v6.993h.216v7.047h-1.89zm4.311-5.751c.6 0 1.095-.153 1.485-.459.396-.306.69-.717.882-1.233a4.89 4.89 0 0 0 .297-1.746 4.79 4.79 0 0 0-.297-1.728 2.684 2.684 0 0 0-.89-1.233c-.403-.306-.916-.459-1.54-.459-.588 0-1.074.144-1.458.432-.378.288-.66.69-.846 1.206-.18.516-.27 1.11-.27 1.782 0 .672.09 1.266.27 1.782.18.516.465.921.855 1.215.39.294.894.441 1.512.441zm11.23 1.701c-.972 0-1.815-.219-2.529-.657a4.428 4.428 0 0 1-1.656-1.809c-.384-.774-.576-1.665-.576-2.673 0-1.014.198-1.905.594-2.673a4.354 4.354 0 0 1 1.665-1.8c.714-.432 1.548-.648 2.502-.648.972 0 1.815.219 2.53.657a4.428 4.428 0 0 1 1.655 1.809c.39.768.585 1.653.585 2.655 0 1.014-.198 1.908-.594 2.682a4.428 4.428 0 0 1-1.656 1.809c-.714.432-1.554.648-2.52.648zm0-1.773c.93 0 1.623-.312 2.08-.936.461-.63.692-1.44.692-2.43 0-1.014-.234-1.824-.702-2.43-.462-.612-1.152-.918-2.07-.918-.63 0-1.149.144-1.557.432a2.503 2.503 0 0 0-.909 1.179c-.198.498-.297 1.077-.297 1.737 0 1.02.234 1.836.702 2.448.468.612 1.155.918 2.061.918zm6.388 3.663v-3.672c.534 0 .915-.177 1.143-.531.234-.36.42-.969.558-1.827.084-.522.153-1.077.207-1.665.06-.588.111-1.224.153-1.908.042-.69.084-1.449.126-2.277h6.966v8.208h.954v3.672h-1.782v-2.16h-6.534v2.16h-1.79zm2.691-3.672h4.572v-6.696h-3.402c-.024.396-.05.804-.08 1.224-.025.42-.055.837-.09 1.251-.03.414-.067.81-.109 1.188-.042.378-.09.72-.144 1.026-.072.474-.159.87-.26 1.188a1.926 1.926 0 0 1-.487.819zm9.56 1.512v-9.72h1.881v3.969h4.743v-3.969h1.881v9.72h-1.881v-3.978h-4.743v3.978h-1.881zm11.381 0v-9.72h1.89v3.375h1.278c.276 0 .573.006.891.018.318.012.588.042.81.09.522.108.975.288 1.359.54.384.252.678.588.882 1.008.21.414.315.924.315 1.53 0 .846-.219 1.521-.657 2.025-.438.498-1.032.834-1.782 1.008-.24.054-.525.09-.855.108-.324.012-.624.018-.9.018h-3.231zm1.89-1.512h1.449c.156 0 .33-.006.522-.018.192-.012.369-.039.531-.081a1.65 1.65 0 0 0 .765-.513c.228-.258.342-.603.342-1.035 0-.444-.114-.798-.342-1.062a1.516 1.516 0 0 0-.846-.513 2.584 2.584 0 0 0-.495-.081 6.71 6.71 0 0 0-.477-.018h-1.449v3.321zm6.606 1.512v-9.72h1.881v9.72h-1.881zm4.749 0v-9.72h1.575l3.591 7.128 3.582-7.128h1.584v9.72h-1.818v-5.868l-2.925 5.868h-.855l-2.925-5.868v5.868h-1.809zm21.409-9.72v9.72h-1.809v-6.759l-4.86 6.759h-1.53v-9.72h1.809v6.624l4.869-6.624h1.521zm11.059 9.99c-.972 0-1.815-.219-2.529-.657a4.428 4.428 0 0 1-1.656-1.809c-.384-.774-.576-1.665-.576-2.673 0-1.014.198-1.905.594-2.673a4.354 4.354 0 0 1 1.665-1.8c.714-.432 1.548-.648 2.502-.648.972 0 1.815.219 2.529.657a4.428 4.428 0 0 1 1.656 1.809c.39.768.585 1.653.585 2.655 0 1.014-.198 1.908-.594 2.682a4.428 4.428 0 0 1-1.656 1.809c-.714.432-1.554.648-2.52.648zm0-1.773c.93 0 1.623-.312 2.079-.936.462-.63.693-1.44.693-2.43 0-1.014-.234-1.824-.702-2.43-.462-.612-1.152-.918-2.07-.918-.63 0-1.149.144-1.557.432a2.503 2.503 0 0 0-.909 1.179c-.198.498-.297 1.077-.297 1.737 0 1.02.234 1.836.702 2.448.468.612 1.155.918 2.061.918zm9.408 1.503v-8.028h-3.321v-1.692h8.523v1.692h-3.321v8.028h-1.881zm10.736.27c-.942 0-1.788-.201-2.538-.603a4.573 4.573 0 0 1-1.764-1.665l1.494-.981c.348.468.75.831 1.206 1.089.462.258.981.387 1.557.387.6 0 1.074-.135 1.422-.405.354-.276.531-.645.531-1.107 0-.366-.102-.636-.306-.81-.198-.18-.474-.297-.828-.351a7.81 7.81 0 0 0-1.188-.081h-.864v-1.512h.864c.588 0 1.071-.081 1.449-.243.384-.168.576-.483.576-.945 0-.45-.165-.774-.495-.972-.324-.198-.711-.297-1.161-.297-.504 0-.993.108-1.467.324-.474.21-.888.471-1.242.783l-1.098-1.287a5.668 5.668 0 0 1 1.764-1.161 5.436 5.436 0 0 1 2.142-.423c.624 0 1.2.111 1.728.333.534.216.96.537 1.278.963.324.426.486.951.486 1.575 0 .486-.108.93-.324 1.332-.216.402-.546.768-.99 1.098l-.054-.639c.366.114.672.297.918.549.246.252.429.549.549.891.126.336.189.693.189 1.071 0 .654-.174 1.212-.522 1.674-.342.462-.804.813-1.386 1.053-.582.24-1.224.36-1.926.36zm6.167-.27v-9.72h1.89v3.375h1.278c.276 0 .573.006.891.018.318.012.588.042.81.09.522.108.975.288 1.359.54.384.252.678.588.882 1.008.21.414.315.924.315 1.53 0 .846-.219 1.521-.657 2.025-.438.498-1.032.834-1.782 1.008-.24.054-.525.09-.855.108-.324.012-.624.018-.9.018h-3.231zm1.89-1.512h1.449c.156 0 .33-.006.522-.018.192-.012.369-.039.531-.081a1.65 1.65 0 0 0 .765-.513c.228-.258.342-.603.342-1.035 0-.444-.114-.798-.342-1.062a1.516 1.516 0 0 0-.846-.513 2.584 2.584 0 0 0-.495-.081 6.71 6.71 0 0 0-.477-.018h-1.449v3.321zm6.606 1.512v-9.72h1.881v9.72h-1.881zm4.749 0v-9.72h4.275c.282 0 .564.018.846.054.282.03.531.075.747.135.492.138.912.414 1.26.828.348.408.522.954.522 1.638 0 .39-.06.72-.18.99-.12.264-.285.492-.495.684a2.23 2.23 0 0 1-.306.225 1.582 1.582 0 0 1-.324.153c.222.036.441.114.657.234.33.174.6.426.81.756.216.324.324.759.324 1.305 0 .654-.159 1.203-.477 1.647-.318.438-.768.738-1.35.9a3.981 3.981 0 0 1-.774.135 9.972 9.972 0 0 1-.846.036h-4.689zm1.908-1.485h2.664c.126 0 .27-.012.432-.036.162-.024.306-.057.432-.099.27-.084.462-.237.576-.459.12-.222.18-.459.18-.711 0-.342-.09-.615-.27-.819a1.217 1.217 0 0 0-.684-.405 1.366 1.366 0 0 0-.396-.072 9.064 9.064 0 0 0-.369-.009h-2.565v2.61zm0-4.122h2.106c.174 0 .351-.009.531-.027.18-.024.336-.063.468-.117a.967.967 0 0 0 .522-.45c.114-.216.171-.45.171-.702 0-.276-.063-.522-.189-.738a.995.995 0 0 0-.567-.45 2.012 2.012 0 0 0-.603-.099 10.744 10.744 0 0 0-.423-.018h-2.016v2.601zm11.138 5.877c-.72 0-1.323-.132-1.809-.396a2.821 2.821 0 0 1-1.107-1.062 2.958 2.958 0 0 1-.369-1.458c0-.492.087-.924.261-1.296.174-.372.432-.687.774-.945a4.14 4.14 0 0 1 1.26-.639c.432-.126.921-.237 1.467-.333a49.86 49.86 0 0 1 1.719-.27l1.8-.252-.684.378c.012-.762-.15-1.326-.486-1.692-.33-.372-.9-.558-1.71-.558-.51 0-.978.12-1.404.36-.426.234-.723.624-.891 1.17l-1.755-.54c.24-.834.696-1.497 1.368-1.989.678-.492 1.578-.738 2.7-.738.87 0 1.626.15 2.268.45a2.797 2.797 0 0 1 1.422 1.404c.156.318.252.654.288 1.008.036.354.054.735.054 1.143v5.985h-1.665v-2.223l.324.288c-.402.744-.915 1.299-1.539 1.665-.618.36-1.38.54-2.286.54zm.333-1.539c.534 0 .993-.093 1.377-.279a2.71 2.71 0 0 0 .927-.729c.234-.294.387-.6.459-.918.102-.288.159-.612.171-.972.018-.36.027-.648.027-.864l.612.225-1.62.243c-.486.072-.927.144-1.323.216-.39.066-.738.147-1.044.243-.258.09-.489.198-.693.324a1.587 1.587 0 0 0-.477.459c-.114.18-.171.399-.171.657 0 .252.063.486.189.702.126.21.318.378.576.504.258.126.588.189.99.189zm7.521 1.269v-9.72h1.575l3.591 7.128 3.582-7.128h1.584v9.72h-1.818v-5.868l-2.925 5.868h-.855l-2.925-5.868v5.868h-1.809zm21.408-9.72v9.72h-1.809v-6.759l-4.86 6.759h-1.53v-9.72h1.809v6.624l4.869-6.624h1.521z" fill="#000"/><path d="M29.684 29.514A26.702 26.702 0 0 0 40.639 11.04c-7.238 2.137-12.778 11.617-10.955 18.474zm4.055 83.668c4.446-3.705 12.254-1.715 18.899 3.158-3.2 4.77-12.48 4.036-18.886-3.161l-.013.003zm-9.913-13.588c5.077-2.773 12.274.68 17.652 6.571-4.075 4.086-12.906 1.65-17.632-6.548l-.02-.023zm-6.979-15.081c5.515-1.718 11.913 3.023 15.973 9.846-4.827 3.073-12.871-.959-15.963-9.863l-.01.017zm-3.919-16.155c5.742-.607 11.124 5.297 13.76 12.713-5.33 2.092-12.422-3.396-13.75-12.73l-.01.017zm-.714-16.69c5.698.55 9.885 7.424 11.042 15.222-5.633 1.015-11.548-5.72-11.042-15.221zm2.595-16.671c5.546 1.664 8.157 9.355 7.794 17.278-5.694-.113-10.208-7.944-7.767-17.285l-.027.007zm6.133-16.179c5.077 2.764 5.974 11.014 3.983 18.822-5.597-1.227-8.43-9.903-3.983-18.822zM43.154 29.86c-3.025 5.952-8.748 10.056-14.399 8.788 2.05-7.796 9.378-11.553 14.399-8.788zm-4.31 11.438c-1.684 6.257-6.484 11.33-12.269 11.198.45-7.918 6.777-12.876 12.27-11.198zm-1.853 11.797c-.39 6.348-4.123 12.236-9.816 13.239-1.097-7.786 4.1-13.798 9.816-13.239zm.507 11.801c.843 6.258-1.679 12.767-7.065 14.86-2.57-7.377 1.355-14.29 7.065-14.86zm2.777 11.418c2.026 5.983.825 12.888-4.047 16.002-3.99-6.828-1.436-14.32 4.047-16.002zm4.93 10.7c3.166 5.494 3.372 12.587-.741 16.585-5.347-5.984-4.295-13.865.74-16.585zm7.025 9.616c4.294 4.797 6.037 11.774 2.77 16.506-6.612-4.854-7.252-12.833-2.77-16.506zm17.681 25.972c.763.319 1.221.973 1.021 1.492-.2.52-1.03.686-1.81.359a72.892 72.892 0 0 1-40.63-91.795c-11.931 35.235 5 75.491 41.386 89.925l.033.019z" fill="url(#a)"/><path d="M255.534 29.514a26.71 26.71 0 0 1-10.955-18.474c7.238 2.137 12.778 11.617 10.955 18.474zm-4.055 83.668c-4.446-3.705-12.254-1.715-18.899 3.158 3.2 4.77 12.479 4.036 18.886-3.161l.013.003zm9.913-13.588c-5.077-2.773-12.274.68-17.652 6.571 4.075 4.086 12.906 1.65 17.632-6.548l.02-.023zm6.979-15.081c-5.515-1.718-11.913 3.023-15.973 9.846 4.827 3.073 12.871-.959 15.963-9.863l.01.017zm3.919-16.155c-5.742-.607-11.124 5.297-13.761 12.713 5.33 2.092 12.423-3.396 13.751-12.73l.01.017zm.714-16.69c-5.698.55-9.885 7.424-11.042 15.222 5.632 1.015 11.548-5.72 11.042-15.221zm-2.595-16.671c-5.546 1.664-8.157 9.355-7.794 17.278 5.694-.113 10.208-7.944 7.767-17.285l.027.007zm-6.133-16.179c-5.077 2.764-5.974 11.014-3.983 18.822 5.597-1.227 8.431-9.903 3.983-18.822zM242.064 29.86c3.025 5.952 8.748 10.056 14.399 8.788-2.05-7.796-9.378-11.553-14.399-8.788zm4.309 11.438c1.685 6.257 6.485 11.33 12.27 11.198-.45-7.918-6.777-12.876-12.27-11.198zm1.854 11.797c.389 6.348 4.123 12.236 9.815 13.239 1.098-7.786-4.1-13.798-9.815-13.239zm-.507 11.801c-.843 6.258 1.679 12.767 7.065 14.86 2.57-7.377-1.355-14.29-7.065-14.86zm-2.777 11.418c-2.027 5.983-.825 12.888 4.047 16.002 3.991-6.828 1.436-14.32-4.047-16.002zm-4.929 10.7c-3.167 5.494-3.373 12.587.74 16.585 5.347-5.984 4.295-13.865-.74-16.585zm-7.026 9.616c-4.294 4.797-6.037 11.774-2.77 16.506 6.612-4.854 7.252-12.833 2.77-16.506zm-17.681 25.972c-.763.319-1.221.973-1.021 1.492.199.52 1.031.686 1.811.359a72.891 72.891 0 0 0 40.629-91.795c11.931 35.235-5 75.491-41.386 89.925l-.033.019z" fill="url(#b)"/><path d="M104.181 106.481c-3.743 0-7.173-.755-10.292-2.265-3.118-1.543-5.761-3.644-7.928-6.303-2.166-2.692-3.71-5.745-4.628-9.159l3.939-1.083c.755 2.987 2.085 5.58 3.989 7.78a19.853 19.853 0 0 0 6.746 5.023 19.502 19.502 0 0 0 8.174 1.772c3.709 0 7.025-.886 9.947-2.659 2.954-1.805 5.285-4.185 6.992-7.14 1.707-2.954 2.561-6.188 2.561-9.7 0-3.677-.903-6.976-2.709-9.898-1.805-2.955-4.185-5.285-7.14-6.992-2.954-1.74-6.171-2.61-9.651-2.61-3.743 0-7.042.886-9.898 2.659-2.856 1.773-5.17 4.136-6.943 7.09l-4.235-2.461 2.167-36.44h37.424v4.137h-36.34l3.052-2.856-2.166 35.06-1.576-2.265c2.134-2.758 4.81-4.957 8.026-6.598 3.218-1.642 6.714-2.462 10.489-2.462 4.3 0 8.24 1.067 11.818 3.2a24.345 24.345 0 0 1 8.568 8.568c2.167 3.579 3.25 7.534 3.25 11.868 0 4.267-1.067 8.207-3.201 11.818-2.134 3.578-4.99 6.467-8.568 8.666-3.578 2.167-7.534 3.25-11.867 3.25zM175.295 106.481c-3.94 0-7.551-.968-10.833-2.905a22.917 22.917 0 0 1-7.83-7.83c-1.937-3.282-2.905-6.893-2.905-10.833V54.186c0-3.939.968-7.534 2.905-10.784 1.97-3.282 4.58-5.892 7.83-7.829 3.282-1.97 6.893-2.955 10.833-2.955 3.939 0 7.534.985 10.784 2.955a21.825 21.825 0 0 1 7.829 7.83c1.97 3.25 2.955 6.844 2.955 10.783v30.727c0 3.94-.985 7.55-2.955 10.833-1.937 3.25-4.546 5.86-7.829 7.83-3.25 1.937-6.845 2.905-10.784 2.905zm0-4.136c3.184 0 6.089-.788 8.716-2.364 2.659-1.575 4.776-3.676 6.352-6.303 1.576-2.659 2.363-5.58 2.363-8.765V54.186c0-3.184-.787-6.09-2.363-8.715a17.847 17.847 0 0 0-6.352-6.353c-2.627-1.575-5.532-2.363-8.716-2.363-3.184 0-6.106.788-8.765 2.363-2.626 1.576-4.727 3.694-6.303 6.353-1.576 2.626-2.364 5.531-2.364 8.715v30.727c0 3.185.788 6.106 2.364 8.765a18.11 18.11 0 0 0 6.303 6.303c2.659 1.576 5.581 2.364 8.765 2.364zM138.718 110.774v-5.615h5.616v5.615h-5.616z" fill="#000"/><defs><linearGradient id="a" x1="43.024" y1="33.514" x2="-7.143" y2="69.9" gradientUnits="userSpaceOnUse"><stop stop-color="#FFE292"/><stop offset=".086" stop-color="#FFD562"/><stop offset=".151" stop-color="#FFE2A0"/><stop offset=".327" stop-color="#FCC266"/><stop offset=".626" stop-color="#FFDD9A"/><stop offset=".906" stop-color="#E98B34"/><stop offset=".979" stop-color="#FFE292"/></linearGradient><linearGradient id="b" x1="242.194" y1="33.514" x2="292.361" y2="69.9" gradientUnits="userSpaceOnUse"><stop stop-color="#FFE292"/><stop offset=".086" stop-color="#FFD562"/><stop offset=".151" stop-color="#FFE2A0"/><stop offset=".327" stop-color="#FCC266"/><stop offset=".626" stop-color="#FFDD9A"/><stop offset=".906" stop-color="#E98B34"/><stop offset=".979" stop-color="#FFE292"/></linearGradient></defs></svg>