<svg width="211" height="564" viewBox="0 0 211 564" fill="none" xmlns="http://www.w3.org/2000/svg"><mask id="mask0_414_4738" style="mask-type:alpha" maskUnits="userSpaceOnUse" x="0" y="0" width="211" height="564"><path transform="rotate(-90 0 563.843)" fill="#D9D9D9" d="M0 563.843h563.423v211H0z"/></mask><g mask="url(#mask0_414_4738)" fill="#fff"><path d="M79.522 118.568c16.946 12.543 20.502 36.574 7.926 53.562-12.576 16.989-36.598 20.607-53.544 8.063-16.948-12.546-20.506-36.579-7.93-53.568 12.576-16.989 36.6-20.603 53.548-8.057zm-32.916 44.466c7.505 5.556 18.155 3.953 23.727-3.573 5.572-7.528 3.993-18.176-3.514-23.733-7.512-5.56-18.155-3.959-23.727 3.568-5.571 7.527-3.998 18.178 3.514 23.738z"/><path d="M-40.698 85.937l-14.086-20.214 11.652-13.657 22.166 10.747a116.925 116.925 0 0111.817-9.377l-5.565-24.32L1.21 20.854 17.806 39.44a118.707 118.707 0 0115.953-4.587l4.355-24.288L55.98 9.138l8.045 23.306c5.027.253 10.016.83 14.944 1.718l13.183-20.904 17.074 5.408-1.329 24.66a117.489 117.489 0 0114.478 8.024l20.244-14.14 13.612 11.632-10.791 22.2a117.517 117.517 0 019.345 11.808l24.305-5.624 8.228 15.914-18.62 16.655a117.73 117.73 0 014.551 15.954l24.259 4.292 1.386 17.883-23.313 8.1a119.273 119.273 0 01-1.748 14.961l20.858 13.146-5.447 17.099-24.641-1.269a118.012 118.012 0 01-8.049 14.506l14.08 20.223-11.653 13.651-22.157-10.746a118.575 118.575 0 01-11.823 9.382l5.567 24.313-15.925 8.266-16.6-18.591a117.772 117.772 0 01-15.95 4.589l-4.355 24.289-17.867 1.429-8.043-23.311c-5.027-.25-10.016-.83-14.944-1.712L23.7 287.152l-17.073-5.413 1.33-24.66a117.73 117.73 0 01-14.48-8.019l-20.242 14.141-13.615-11.633 10.792-22.201a118.117 118.117 0 01-9.346-11.802l-24.31 5.622-8.222-15.921 18.617-16.648a117.439 117.439 0 01-4.547-15.961l-24.261-4.292-1.386-17.879 23.312-8.106a116.68 116.68 0 011.755-14.955l-20.86-13.147 5.446-17.097 24.64 1.272a118.304 118.304 0 018.052-14.516zM3.922 223.16c40.19 29.752 96.952 21.206 126.777-19.085 29.826-40.292 21.424-97.076-18.767-126.827C71.742 47.497 14.977 56.04-14.85 96.331c-29.825 40.291-21.419 97.077 18.772 126.828zm111.46 81.393l-5.795-8.316 4.793-5.616 9.115 4.422a48.662 48.662 0 014.859-3.861l-2.289-9.997 6.554-3.4 6.823 7.644a48.68 48.68 0 016.562-1.885l1.794-9.989 7.345-.59 3.308 9.585c2.069.103 4.122.342 6.15.71l5.423-8.6 7.026 2.226-.552 10.14a48.666 48.666 0 015.956 3.299l8.327-5.812 5.599 4.784-4.438 9.129a48.807 48.807 0 013.843 4.86l9.995-2.314 3.385 6.543-7.659 6.853a47.605 47.605 0 011.87 6.559l9.981 1.762.572 7.361-9.59 3.33a48.796 48.796 0 01-.722 6.152l8.581 5.41-2.242 7.026-10.133-.515a47.755 47.755 0 01-3.312 5.962l5.787 8.322-4.791 5.616-9.114-4.423a47.89 47.89 0 01-4.862 3.856l2.289 10.008-6.55 3.396-6.827-7.648a48.336 48.336 0 01-6.56 1.888l-1.791 9.988-7.35.594-3.307-9.592a48.639 48.639 0 01-6.151-.703l-5.42 8.596-7.024-2.226.552-10.142a47.674 47.674 0 01-5.958-3.297l-8.327 5.812-5.603-4.779 4.445-9.135a49.237 49.237 0 01-3.848-4.854l-9.995 2.314-3.381-6.548 7.656-6.849a47.703 47.703 0 01-1.871-6.569l-9.983-1.764-.562-7.353 9.587-3.334c.107-2.071.347-4.124.722-6.153l-8.586-5.402 2.243-7.035 10.134.523a48.119 48.119 0 013.317-5.969zm13.836 62.539c19.888 14.723 47.978 10.493 62.739-9.448 14.759-19.938 10.603-48.041-9.285-62.763-19.891-14.725-47.983-10.492-62.742 9.446-14.76 19.939-10.604 48.041 9.288 62.765z"/><path d="M130.432 365.455c18.957 14.033 45.825 9.987 59.896-9.02 14.068-19.004 10.094-45.888-8.863-59.92-18.96-14.035-45.832-9.987-59.901 9.018-14.069 19.009-10.092 45.887 8.868 59.922zm48.098-64.976c16.776 12.419 20.298 36.208 7.846 53.029-12.452 16.821-36.233 20.401-53.009 7.982-16.78-12.421-20.302-36.211-7.849-53.032 12.452-16.82 36.233-20.399 53.012-7.979zm-232.115 25.065c1.449-1.795 4.153-1.934 5.802-.295l1.378 1.367c2.195 2.167 5.648 2.576 8.15.791 3.209-2.307 3.448-6.857.751-9.527l-1.238-1.222c-1.685-1.67-1.525-4.46.37-5.899.935-.697 1.896-1.392 2.842-2.068 1.906-1.31 4.549-.684 5.677 1.342l.945 1.718c1.5 2.686 4.716 4.062 7.603 3.053 3.74-1.294 5.256-5.601 3.415-8.903l-.827-1.511c-1.167-2.097-.212-4.714 2.015-5.549a72.872 72.872 0 013.308-1.163c2.193-.747 4.552.598 5.065 2.87l.474 2.061c.746 3.36 4.113 5.496 7.475 4.754 2.64 1.955 6.293-.409 5.572-3.615l-1.231-5.488c-.525-2.322 1.136-4.581 3.498-4.757a85.154 85.154 0 013.51-.191c2.324-.078 4.208 1.873 4.069 4.19l-.141 2.105c-.213 3.416 2.419 6.417 5.836 6.649 3.454.228 6.426-2.383 6.637-5.804l.115-1.719a3.893 3.893 0 014.712-3.559c1.143.233 2.269.515 3.407.782 2.263.583 3.535 2.989 2.75 5.165l-.74 1.987c-1.173 3.225.495 6.838 3.734 8.03 3.235 1.18 6.825-.476 8.01-3.698l.59-1.596c.82-2.239 3.431-3.228 5.54-2.101 1.014.562 2.027 1.137 3.045 1.746 1.985 1.182 2.547 3.827 1.163 5.697l-1.246 1.683c-2.05 2.768-1.461 6.686 1.319 8.744 2.777 2.056 6.703 1.479 8.752-1.289l1.007-1.36c1.407-1.902 4.2-2.123 5.896-.463.84.827 1.65 1.673 2.448 2.528 1.593 1.683 1.368 4.392-.493 5.795l-1.545 1.164c-2.438 1.838-3.333 5.222-1.918 7.925 1.836 3.53 6.325 4.436 9.351 2.16l1.376-1.038c1.9-1.444 4.634-.849 5.793 1.224a83.373 83.373 0 011.64 3.118 3.896 3.896 0 01-2.097 5.406l-1.99.756c-3.208 1.205-4.839 4.831-3.617 8.032 1.228 3.22 4.868 4.864 8.064 3.642l1.603-.585c2.234-.852 4.7.486 5.233 2.799.244 1.142.485 2.283.695 3.441.42 2.271-1.229 4.415-3.562 4.593l-2.101.15a6.241 6.241 0 00-5.74 6.694c.283 3.418 3.304 6.021 6.727 5.754l1.71-.126a3.945 3.945 0 014.23 4.167 87.239 87.239 0 01-.292 3.495 3.91 3.91 0 01-4.699 3.409l-2.092-.465c-3.365-.698-6.68 1.456-7.394 4.813-.704 3.366 1.473 6.691 4.837 7.406l1.678.36c2.341.506 3.699 2.944 2.89 5.19-.408 1.09-.823 2.17-1.267 3.261a3.932 3.932 0 01-5.484 1.946l-1.874-1.022c-3.027-1.637-6.843-.507-8.472 2.502-1.618 3.031-.474 6.846 2.551 8.471l1.52.819c2.083 1.134 2.732 3.839 1.32 5.747a78.183 78.183 0 01-2.163 2.809c-1.463 1.798-4.162 1.932-5.81.298l-1.492-1.489c-2.465-2.418-6.438-2.396-8.847.033-2.42 2.444-2.381 6.395.073 8.825l1.217 1.22c1.71 1.662 1.524 4.47-.36 5.895a73.225 73.225 0 01-2.84 2.051 3.923 3.923 0 01-5.671-1.317l-1.05-1.879c-1.657-3.008-5.494-4.109-8.494-2.465-3 1.654-4.1 5.472-2.422 8.482l.825 1.501a3.893 3.893 0 01-2.02 5.555 99.482 99.482 0 01-3.305 1.173c-2.202.723-4.557-.619-5.073-2.877l-.465-2.082c-.76-3.343-4.123-5.484-7.459-4.747-2.655-1.966-6.318.401-5.597 3.631l1.235 5.481a3.9 3.9 0 01-3.517 4.75 121.8 121.8 0 01-3.482.203c-2.332.074-4.223-1.878-4.077-4.194l.125-1.931c.199-3.052-1.768-5.938-4.759-6.659-3.849-.931-7.465 1.854-7.694 5.628l-.114 1.723c-.144 2.369-2.385 4.075-4.713 3.56a67.804 67.804 0 01-3.416-.801c-2.267-.564-3.525-2.968-2.73-5.151l.687-1.855c1.03-2.836-.012-6.1-2.635-7.656-3.453-2.044-7.754-.39-9.06 3.193l-.596 1.599a3.885 3.885 0 01-5.523 2.088 68.677 68.677 0 01-3.059-1.722c-2.006-1.187-2.547-3.842-1.17-5.702l1.262-1.705c2.043-2.76 1.439-6.684-1.331-8.734-2.765-2.047-6.692-1.477-8.735 1.283l-1.02 1.377c-1.41 1.906-4.208 2.125-5.895.458a75.106 75.106 0 01-2.458-2.524c-1.605-1.688-1.356-4.391.48-5.787l1.566-1.178c2.44-1.84 3.323-5.206 1.911-7.926-1.846-3.511-6.333-4.421-9.343-2.15l-1.366 1.028c-1.918 1.444-4.663.864-5.815-1.212a96.243 96.243 0 01-1.638-3.127c-1.043-2.074-.065-4.591 2.1-5.407l1.84-.684c2.863-1.081 4.667-4.048 4.07-7.067-.767-3.883-4.825-6.006-8.372-4.673l-1.592.588c-2.23.843-4.696-.481-5.22-2.801a87.143 87.143 0 01-.697-3.439 3.9 3.9 0 013.543-4.594l1.933-.146c3.058-.229 5.63-2.558 5.909-5.625.351-3.932-2.94-7.113-6.72-6.832l-1.707.126c-2.379.182-4.375-1.787-4.225-4.152a89.35 89.35 0 01.289-3.506c.24-2.298 2.443-3.895 4.7-3.401l2.082.448c3.362.709 6.692-1.447 7.404-4.803 1.908-2.577.503-6.275-2.643-6.941l-3.882-.828c-2.332-.508-3.696-2.949-2.874-5.185a76.381 76.381 0 011.261-3.267c.883-2.138 3.424-3.041 5.482-1.944l1.873 1.019c3.342 1.812 7.628.248 8.893-3.496.98-2.913-.431-6.102-3.139-7.558l-1.353-.734c-2.082-1.134-2.723-3.859-1.325-5.748l.03-.04a76.307 76.307 0 012.135-2.772zm36.727 69.02l24.382-14.209-27.236-7.191a35.139 35.139 0 002.854 21.4zM-.41 347.875l14.126 24.395 7.273-27.286A35.105 35.105 0 00-.41 347.875zm9.37 27.156l-14.132-24.372a35.075 35.075 0 00-8.21 7.959c-2.143 2.895-3.789 5.995-4.894 9.211l27.236 7.202zm-37.617-27.116c-1.824 2.464-1.314 5.961 1.158 7.791a5.576 5.576 0 007.793-1.165c1.834-2.478 1.327-5.978-1.149-7.811-2.472-1.83-5.968-1.293-7.802 1.185zm41.508-16.059a5.528 5.528 0 00-6.329-4.685c-3.05.456-5.151 3.293-4.69 6.335.445 3.037 3.29 5.143 6.33 4.685 3.035-.451 5.136-3.288 4.689-6.335zm33.138 5.508a5.559 5.559 0 00-7.79 1.165 5.56 5.56 0 001.161 7.79 5.568 5.568 0 007.786-1.168 5.567 5.567 0 00-1.157-7.787zm-10.485 13.905c-2.894-2.143-5.976-3.764-9.2-4.867l-7.26 27.273 24.401-14.193a34.568 34.568 0 00-7.941-8.213zm-5.75 59.632L15.617 386.55l-7.25 27.254c7.236 1.319 14.74.3 21.389-2.903zm25.457-6.679c-2.47-1.828-5.96-1.284-7.788 1.185-1.83 2.471-1.33 5.969 1.14 7.797 2.472 1.83 5.97 1.291 7.799-1.18 1.827-2.469 1.322-5.971-1.15-7.802zm-12.482-4.066a35.18 35.18 0 004.887-9.188l-27.233-7.195 14.122 24.367a34.973 34.973 0 008.224-7.984zm3.467-35.929l-24.423 14.198 27.271 7.205a34.972 34.972 0 00-2.848-21.403zm20.446 8.278a5.578 5.578 0 00-6.328-4.684 5.58 5.58 0 00-4.693 6.34 5.548 5.548 0 006.328 4.684c3.04-.458 5.135-3.289 4.693-6.34zm-51.783 55.581a5.567 5.567 0 006.339 4.692 5.591 5.591 0 004.7-6.349 5.582 5.582 0 00-6.34-4.692 5.619 5.619 0 00-4.699 6.349zm-33.134-5.492c2.47 1.828 5.95 1.295 7.787-1.186 1.83-2.472 1.321-5.955-1.149-7.783a5.579 5.579 0 10-6.638 8.969zm12.139-15.073c2.854 2.113 5.945 3.768 9.17 4.876l7.269-27.271-24.414 14.185c2.131 3.099 4.79 5.853 7.975 8.21zm-32.792-20.08a5.562 5.562 0 006.325 4.683c3.056-.47 5.156-3.307 4.694-6.342a5.529 5.529 0 00-6.325-4.682c-3.042.441-5.142 3.279-4.694 6.341zm-16.148 101.051l-4.289-6.155 3.548-4.16 6.75 3.274a35.268 35.268 0 013.6-2.856l-1.696-7.405 4.85-2.517 5.053 5.659a36.034 36.034 0 014.86-1.397l1.326-7.397 5.442-.435 2.45 7.097c1.53.077 3.05.252 4.55.523l4.015-6.366 5.2 1.647-.405 7.509a35.994 35.994 0 014.408 2.443l6.166-4.306 4.147 3.543-3.289 6.761a35.906 35.906 0 012.847 3.597l7.403-1.713 2.505 4.846-5.67 5.072a36.047 36.047 0 011.386 4.859l7.388 1.307.423 5.447-7.102 2.468a36.154 36.154 0 01-.533 4.555l6.353 4.004-1.659 5.208-7.502-.387a35.913 35.913 0 01-2.453 4.419l4.287 6.157-3.548 4.158-6.75-3.274a35.696 35.696 0 01-3.6 2.856l1.696 7.404-4.849 2.519-5.056-5.663a35.94 35.94 0 01-4.858 1.4l-1.325 7.396-5.44.437-2.45-7.098a36.046 36.046 0 01-4.551-.522l-4.015 6.367-5.202-1.649.406-7.51a35.713 35.713 0 01-4.41-2.442l-6.164 4.307-4.147-3.542 3.287-6.762a35.92 35.92 0 01-2.846-3.593l-7.404 1.711-2.505-4.848 5.671-5.071a35.385 35.385 0 01-1.383-4.859l-7.39-1.308-.422-5.445 7.1-2.469c.08-1.532.26-3.053.535-4.553l-6.353-4.005 1.66-5.205 7.502.387a35.761 35.761 0 012.452-4.425zm17.929 19.678c-.04-2.233.952-5.021 1.733-6.346l-12.461-9.224c-4.394 6.263-5.323 11.782-4.817 17.971l15.545-2.401zm8.66 3.8c2.286 1.692 5.528 1.204 7.226-1.089 1.696-2.292 1.215-5.534-1.07-7.226-2.288-1.694-5.529-1.206-7.225 1.086-1.697 2.293-1.218 5.536 1.07 7.229zm-17.54-21.808l12.51 9.261c1.188-1.024 3.728-2.691 5.965-3.129l-2.26-15.53c-6.162 1.121-12.254 4.718-16.215 9.398zm19.172-9.177l2.595 15.815c1.837.039 3.032.038 5.642 1.654l9.533-12.877c-6.413-4.191-11.902-5.121-17.77-4.592zm19.037 5.45l-9.533 12.878c2.346 1.972 2.726 3.323 3.32 5.422l16.236-2.363c-1.325-6.159-5.179-12.197-10.023-15.937zM2.41 504.546l-16.098 2.385c.132 2.117-.677 4.764-1.328 6.186l13.228 9.792c3.315-5.159 4.968-12.095 4.198-18.363zm-5.992 20.84l-13.175-9.752c-1.03 1.14-3.132 2.719-5.102 3.369l2.348 16.274c6.122-1.301 11.223-3.859 15.929-9.891zm-18.062 10.23l-2.29-16.019c-2.5.265-4.662.047-7.252-1.596l-9.511 12.849c4.997 3.535 12.472 5.556 19.053 4.766zm-20.242-5.728l9.511-12.849c-2.28-2.061-3.296-3.984-3.794-6.098l-15.197 2.544c1.063 6.127 3.612 11.475 9.48 16.403z"/></g></svg>