<svg width="745" height="343" viewBox="0 0 745 343" fill="none" xmlns="http://www.w3.org/2000/svg"><mask id="mask0_332_3905" style="mask-type:alpha" maskUnits="userSpaceOnUse" x="0" y="0" width="745" height="343"><path fill="#D9D9D9" d="M0 0h745v343H0z"/></mask><g mask="url(#mask0_332_3905)" fill="#fff"><path d="M68.26-31.276c9.261-12.51 27.001-15.134 39.543-5.85 12.541 9.283 15.211 27.018 5.952 39.527-9.263 12.512-27.005 15.139-39.547 5.855-12.541-9.284-15.21-27.02-5.948-39.532zm32.828 24.3c4.103-5.543 2.918-13.403-2.638-17.516-5.558-4.114-13.418-2.95-17.522 2.593-4.105 5.547-2.923 13.403 2.635 17.517 5.557 4.113 13.419 2.953 17.525-2.594z"/><path d="M44.176 57.48l-14.923 10.4-10.081-8.603 7.932-16.362a86.463 86.463 0 01-6.921-8.724L2.23 38.299l-6.1-11.755 13.722-12.25A87.404 87.404 0 016.466 2.516l-17.93-3.215-1.053-13.188 17.205-5.94c.188-3.71.613-7.395 1.269-11.03l-15.431-9.735 3.991-12.606 18.204.981a87.156 87.156 0 015.922-10.689L8.203-77.85l8.586-10.05 16.388 7.966a86.547 86.547 0 018.718-6.899l-4.152-17.942 11.748-6.074 12.295 13.746a86.721 86.721 0 0111.777-3.358l3.17-17.91 13.202-1.022 5.979 17.211c3.716.197 7.403.629 11.044 1.291l9.705-15.398 12.622 4.022-.936 18.19a87.103 87.103 0 0110.709 5.942l14.927-10.392 10.079 8.603-7.932 16.355a87.65 87.65 0 016.924 8.73l17.949-4.11 6.104 11.756-13.724 12.254a87.035 87.035 0 013.39 11.774l17.93 3.215 1.055 13.192-17.208 5.937A86.99 86.99 0 01177.288.211l15.43 9.732-3.993 12.605-18.206-.983a86.778 86.778 0 01-5.92 10.69L175.038 47.2l-8.587 10.05-16.389-7.968a87.041 87.041 0 01-8.713 6.9l4.149 17.945-11.753 6.07-12.289-13.744a86.548 86.548 0 01-11.784 3.358l-3.167 17.91-13.2 1.024-5.985-17.209a85.752 85.752 0 01-11.04-1.297l-9.706 15.4L53.95 81.62l.94-18.189a87.998 87.998 0 01-10.714-5.951zm101.3-32.94c21.964-29.67 15.653-71.571-14.09-93.589-29.744-22.018-71.663-15.816-93.626 13.854-21.963 29.67-15.656 71.575 14.09 93.594 29.743 22.017 71.663 15.812 93.627-13.858zm3.729 96.199c3.873-5.232 11.292-6.33 16.536-2.448 5.246 3.883 6.363 11.298 2.49 16.53-3.873 5.232-11.293 6.331-16.539 2.448-5.244-3.882-6.361-11.297-2.487-16.53zm13.728 10.16c1.715-2.317 1.221-5.604-1.103-7.324-2.324-1.72-5.611-1.233-7.327 1.085-1.717 2.319-1.222 5.603 1.102 7.324 2.323 1.72 5.611 1.235 7.328-1.085z"/><path d="M139.128 157.863l-6.242 4.35-4.217-3.597 3.318-6.844a36.622 36.622 0 01-2.895-3.65l-7.509 1.718-2.55-4.917 5.739-5.125a36.55 36.55 0 01-1.417-4.926l-7.498-1.347-.442-5.515 7.197-2.485c.081-1.554.257-3.094.532-4.614l-6.455-4.072 1.669-5.273 7.615.41a36.085 36.085 0 012.478-4.472l-4.366-6.251 3.592-4.203 6.855 3.333a36.264 36.264 0 013.647-2.886l-1.736-7.506 4.913-2.54 5.142 5.749a36.66 36.66 0 014.926-1.407l1.326-7.49 5.523-.429 2.501 7.199c1.554.083 3.097.264 4.621.54l4.058-6.44 5.28 1.68-.391 7.61a36.158 36.158 0 014.48 2.486l6.244-4.349 4.215 3.6-3.318 6.841a36.47 36.47 0 012.896 3.651l7.509-1.719 2.552 4.916-5.741 5.126a36.378 36.378 0 011.417 4.924l7.5 1.345.44 5.517-7.197 2.482a36.18 36.18 0 01-.53 4.615l6.455 4.072-1.671 5.272-7.615-.41a36.575 36.575 0 01-2.476 4.47l4.365 6.251-3.59 4.205-6.855-3.334a36.384 36.384 0 01-3.644 2.887l1.735 7.507-4.916 2.538-5.14-5.75a36.145 36.145 0 01-4.928 1.405l-1.324 7.49-5.52.428-2.505-7.199a36.01 36.01 0 01-4.617-.544l-4.06 6.443-5.28-1.681.393-7.608a34.634 34.634 0 01-4.488-2.477zm42.373-13.775c9.188-12.412 6.548-29.939-5.892-39.148-12.442-9.21-29.976-6.616-39.163 5.795-9.187 12.412-6.548 29.939 5.894 39.149 12.44 9.209 29.974 6.615 39.161-5.796zM756.625 25.264l-8.981 6.258-6.067-5.178 4.773-9.847a52.127 52.127 0 01-4.166-5.25l-10.803 2.471-3.67-7.076 8.256-7.37a52.919 52.919 0 01-2.038-7.088l-10.79-1.935-.633-7.935 10.351-3.576c.115-2.235.368-4.45.765-6.638l-9.286-5.857 2.403-7.587 10.953.592a51.69 51.69 0 013.565-6.433l-6.282-8.994 5.166-6.048 9.863 4.795a52.214 52.214 0 015.245-4.152L752.75-72.38l7.069-3.655 7.399 8.273a52.517 52.517 0 017.089-2.022l1.906-10.779 7.947-.615 3.598 10.36c2.237.118 4.453.377 6.646.777l5.839-9.266 7.596 2.423-.564 10.946a52.658 52.658 0 016.447 3.577l8.981-6.255 6.065 5.176-4.772 9.843a52.484 52.484 0 014.167 5.253l10.801-2.473 3.673 7.073-8.26 7.374a52.334 52.334 0 012.04 7.086l10.79 1.935.634 7.938-10.355 3.573a52.15 52.15 0 01-.761 6.64l9.286 5.856-2.404 7.586-10.955-.593a52.742 52.742 0 01-3.563 6.434l6.281 8.993-5.166 6.047-9.863-4.795a52.337 52.337 0 01-5.243 4.152l2.497 10.8-7.073 3.653-7.396-8.27a52.079 52.079 0 01-7.09 2.02l-1.905 10.777-7.943.618-3.602-10.357a51.75 51.75 0 01-6.644-.781L770.1 42.21l-7.597-2.42.566-10.946a53.138 53.138 0 01-6.444-3.58zm60.957-19.82c13.217-17.856 9.419-43.071-8.479-56.32-17.9-13.251-43.125-9.521-56.342 8.334-13.216 17.855-9.419 43.073 8.48 56.324 17.901 13.248 43.125 9.516 56.341-8.338zM315.251-111.455l-26.729 18.626-18.058-15.408 14.211-29.309a154.568 154.568 0 01-12.399-15.625l-32.158 7.358-10.925-21.056 24.576-21.944a156.908 156.908 0 01-6.065-21.095l-32.116-5.759-1.886-23.623 30.816-10.638a155.407 155.407 0 012.272-19.759l-27.641-17.432 7.151-22.577 32.608 1.758a155.222 155.222 0 0110.609-19.145l-18.698-26.767 15.382-17.999 29.354 14.268a155.432 155.432 0 0115.615-12.357l-7.438-32.138 21.043-10.879 22.023 24.621a155.675 155.675 0 0121.095-6.018l5.675-32.076 23.647-1.834 10.71 30.827a157.713 157.713 0 0119.783 2.311l17.382-27.58 22.61 7.202-1.679 32.582a155.88 155.88 0 0119.182 10.644l26.74-18.618 18.051 15.408-14.209 29.298a156.541 156.541 0 0112.404 15.634l32.15-7.361 10.93 21.057-24.583 21.95a155.793 155.793 0 016.068 21.09l32.117 5.757 1.889 23.626-30.824 10.635a156.175 156.175 0 01-2.263 19.761l27.639 17.432-7.157 22.575-32.607-1.759a155.838 155.838 0 01-10.604 19.148l18.699 26.765-15.382 18.002-29.356-14.269a156.45 156.45 0 01-15.605 12.358l7.434 32.143-21.053 10.873-22.013-24.617a155.263 155.263 0 01-21.105 6.013l-5.675 32.08-23.641 1.832-10.718-30.825a154.365 154.365 0 01-19.775-2.32L355.37-61.026l-22.607-7.203 1.682-32.579a156.468 156.468 0 01-19.194-10.648zm181.446-58.999c39.339-53.143 28.04-128.198-25.236-167.635-53.278-39.438-128.361-28.328-167.7 24.815-39.34 53.143-28.044 128.202 25.234 167.64 53.276 39.438 128.363 28.322 167.702-24.82zM255.786 133.32l-15.835 11.038-10.697-9.134 8.418-17.362a91.717 91.717 0 01-7.346-9.265l-19.052 4.366-6.473-12.481 14.558-13.004a91.987 91.987 0 01-3.589-12.499l-19.034-3.408-1.114-14.003 18.26-6.301a92.743 92.743 0 011.34-11.703l-16.374-10.332 4.241-13.385 19.315 1.05a91.398 91.398 0 016.286-11.34l-11.079-15.864 9.113-10.67 17.398 8.458a91.018 91.018 0 019.248-7.316l-4.41-19.045 12.467-6.447 13.056 14.589a91.125 91.125 0 0112.498-3.566l3.359-19.008 14.017-1.086 6.339 18.268a94.62 94.62 0 0111.727 1.368l10.299-16.343 13.394 4.266-.997 19.309a93.317 93.317 0 0111.368 6.304l15.842-11.03 10.7 9.133-8.423 17.36a90.19 90.19 0 017.353 9.268l19.049-4.366 6.482 12.476-14.572 13.005a90.715 90.715 0 013.595 12.504l19.028 3.407 1.123 13.997-18.258 6.302c-.2 3.942-.66 7.85-1.345 11.712l16.371 10.332-4.235 13.37-19.329-1.04a91.1 91.1 0 01-6.277 11.345l11.079 15.858-9.112 10.668-17.394-8.455a92.454 92.454 0 01-9.252 7.321l4.408 19.047-12.477 6.443-13.046-14.584a91.136 91.136 0 01-12.5 3.56l-3.363 19.012-14.008 1.08-6.351-18.265a90.866 90.866 0 01-11.719-1.377l-10.297 16.345-13.399-4.259.998-19.311a93.163 93.163 0 01-11.372-6.312zm77.536-57.146c11.087-14.978 7.907-36.132-7.109-47.247-15.01-11.112-36.172-7.978-47.26 7-11.082 14.971-7.901 36.128 7.109 47.24 15.017 11.113 36.179 7.976 47.26-6.993zm59.508 149.108l-7.259 5.06-4.903-4.184 3.861-7.957a42.514 42.514 0 01-3.372-4.241l-8.727 1.997-2.968-5.72 6.672-5.956a42.585 42.585 0 01-1.646-5.728l-8.72-1.566-.514-6.412 8.368-2.888c.088-1.806.297-3.598.62-5.368l-7.508-4.735 1.943-6.133 8.852.481a42.507 42.507 0 012.879-5.198l-5.073-7.268 4.176-4.888 7.968 3.875a42.363 42.363 0 014.243-3.355l-2.02-8.725 5.713-2.954 5.982 6.685a41.694 41.694 0 015.725-1.632l1.539-8.713 6.424-.498 2.907 8.371c1.809.099 3.602.305 5.372.63l4.722-7.49 6.134 1.958-.449 8.847a41.698 41.698 0 015.204 2.89l7.264-5.055 4.902 4.183-3.862 7.956a41.079 41.079 0 013.366 4.244l8.736-1.997 2.965 5.717-6.675 5.96a42.35 42.35 0 011.649 5.725l8.718 1.564.519 6.417-8.373 2.888a42.24 42.24 0 01-.615 5.369l7.504 4.729-1.943 6.134-8.855-.483a41.586 41.586 0 01-2.877 5.201l5.073 7.269-4.172 4.891-7.975-3.88a43.12 43.12 0 01-4.238 3.359l2.021 8.726-5.716 2.951-5.979-6.684c-1.89.69-3.801 1.23-5.733 1.632l-1.54 8.714-6.418.492-2.91-8.369a41.108 41.108 0 01-5.372-.63l-4.715 7.495-6.14-1.958.456-8.846a42.414 42.414 0 01-5.21-2.899zm54.592-12.078c12.851-17.361 9.159-41.882-8.248-54.768-17.405-12.884-41.937-9.256-54.788 8.105-12.853 17.364-9.159 41.886 8.246 54.77 17.407 12.886 41.936 9.258 54.79-8.107z"/><path d="M445.995 212.15c12.25-16.548 8.718-40.003-7.875-52.286-16.589-12.281-40.056-8.812-52.306 7.736-12.251 16.551-8.717 40.009 7.873 52.29 16.593 12.283 40.056 8.812 52.308-7.74zm-56.719-41.987c10.841-14.646 31.607-17.719 46.29-6.849 14.685 10.87 17.809 31.63 6.969 46.274-10.843 14.648-31.61 17.722-46.294 6.852-14.684-10.87-17.809-31.629-6.965-46.277zm98.703-4.474l2.335-2.363c3.707-3.746 4.406-9.685 1.325-13.969-3.976-5.534-11.814-5.977-16.392-1.356l-2.083 2.107c-2.873 2.905-7.667 2.59-10.141-.668a141.236 141.236 0 01-3.559-4.882c-2.286-3.275-1.234-7.803 2.257-9.728l2.944-1.625c4.611-2.548 6.957-8.045 5.214-13.025-2.257-6.419-9.665-9.054-15.358-5.908l-2.581 1.423c-3.577 1.977-8.102.326-9.558-3.51a150.173 150.173 0 01-2.02-5.674 6.711 6.711 0 014.914-8.685l3.554-.79c5.761-1.276 9.414-7.033 8.123-12.795 3.361-4.54-.734-10.828-6.256-9.602l-9.43 2.089c-3.99.889-7.865-1.967-8.185-6.041a147.269 147.269 0 01-.352-6.008c-.154-3.986 3.185-7.225 7.165-6.956l3.623.246c5.889.396 11.025-4.098 11.41-9.983.38-5.886-4.127-11.026-10.018-11.424l-2.959-.197c-4.079-.275-6.995-4.1-6.153-8.096.412-1.96.862-3.918 1.356-5.87.977-3.862 5.091-6.03 8.841-4.649l3.441 1.267c5.544 2.038 11.741-.826 13.765-6.358l-.003-.002c2.027-5.537-.849-11.733-6.394-13.772l-2.769-1.018c-3.843-1.41-5.567-5.903-3.627-9.5.946-1.76 1.934-3.502 2.96-5.236 2.034-3.427 6.587-4.343 9.798-1.967l2.929 2.169c4.752 3.517 11.506 2.518 15.012-2.22 3.508-4.738 2.49-11.49-2.26-15.006l-2.369-1.754c-3.291-2.436-3.677-7.221-.804-10.127a140.042 140.042 0 014.308-4.196c2.91-2.723 7.553-2.316 9.962.864l2.027 2.67c3.185 4.206 8.974 5.76 13.649 3.33 6.039-3.126 7.573-10.817 3.636-16.014l-1.792-2.368c-2.477-3.265-1.494-7.966 2.089-9.943 1.759-.97 3.539-1.902 5.333-2.803 3.563-1.777 7.898-.08 9.314 3.643l1.304 3.429c2.098 5.518 8.332 8.331 13.847 6.242 5.52-2.087 8.314-8.305 6.219-13.824l-1.044-2.74c-1.461-3.83.811-8.061 4.806-8.946 1.958-.433 3.925-.826 5.898-1.183 3.924-.706 7.611 2.14 7.916 6.112l.285 3.62c.461 5.883 5.653 10.328 11.536 9.886 5.889-.447 10.326-5.624 9.867-11.51l-.228-2.932c-.318-4.078 3.046-7.493 7.129-7.224 2.001.132 4.005.308 6.003.518 3.969.424 6.707 4.19 5.892 8.096l-.752 3.565c-1.22 5.77 2.509 11.495 8.286 12.727 5.774 1.229 11.5-2.486 12.717-8.253l.613-2.898c.845-3.997 5.039-6.33 8.888-4.916 1.883.692 3.753 1.422 5.616 2.197 3.688 1.527 5.259 5.911 3.364 9.416l-1.731 3.215c-2.793 5.191-.828 11.732 4.372 14.542 5.204 2.803 11.741.853 14.538-4.334l1.395-2.588c1.925-3.58 6.596-4.661 9.872-2.237l.063.047a146.826 146.826 0 014.786 3.696c3.093 2.494 3.332 7.124.544 9.945l-2.555 2.578c-4.146 4.19-4.103 11.016.1 15.169 4.2 4.153 11.034 4.124 15.177-.063l2.086-2.105c2.875-2.904 7.669-2.589 10.145.668a146.971 146.971 0 013.558 4.875c2.287 3.277 1.233 7.805-2.255 9.733l-3.215 1.772c-5.163 2.849-7.044 9.405-4.18 14.57 2.864 5.167 9.429 7.063 14.597 4.213l2.574-1.424c3.583-1.975 8.107-.322 9.561 3.51a147.81 147.81 0 012.019 5.674 6.711 6.711 0 01-4.914 8.682l-3.553.79c-5.757 1.28-9.41 7.037-8.122 12.797-3.361 4.54.737 10.83 6.256 9.605l9.428-2.09c3.993-.886 7.868 1.965 8.188 6.041.157 1.997.271 4.001.352 6.006.151 3.982-3.186 7.221-7.169 6.955l-3.315-.222c-5.269-.354-10.215 2.992-11.44 8.122-1.574 6.613 3.242 12.824 9.739 13.259l2.957.2c4.085.271 6.999 4.095 6.161 8.096-.412 1.96-.866 3.916-1.36 5.868-.976 3.862-5.094 6.033-8.842 4.65l-3.194-1.174c-4.893-1.797-10.5-.028-13.145 4.449-3.503 5.922-.633 13.323 5.53 15.59l2.77 1.021c3.844 1.412 5.566 5.905 3.626 9.501a157.007 157.007 0 01-2.966 5.233c-2.027 3.426-6.586 4.342-9.796 1.966l-2.928-2.167c-4.75-3.517-11.504-2.513-15.009 2.223-3.508 4.738-2.493 11.488 2.257 15.004l2.366 1.752c3.29 2.436 3.674 7.224.806 10.133a139.353 139.353 0 01-4.31 4.19c-2.911 2.727-7.553 2.321-9.967-.863l-2.018-2.669c-3.191-4.204-8.974-5.76-13.654-3.333-6.037 3.13-7.572 10.823-3.633 16.016l1.792 2.369c2.478 3.268 1.495 7.971-2.09 9.942a153.889 153.889 0 01-5.332 2.804c-3.568 1.778-7.898.08-9.314-3.646l-1.191-3.136c-1.878-4.936-6.994-8.049-12.172-7.04-6.681 1.302-10.32 8.244-8.005 14.333l1.042 2.739c1.456 3.828-.811 8.064-4.806 8.946-1.956.434-3.927.829-5.899 1.182-3.924.708-7.609-2.135-7.92-6.115l-.259-3.307c-.413-5.258-4.448-9.686-9.7-10.175-6.782-.631-12.233 5.001-11.727 11.488l.228 2.934c.318 4.075-3.048 7.494-7.126 7.221a148.916 148.916 0 01-6.001-.517c-3.975-.426-6.711-4.192-5.892-8.096l.749-3.565c1.222-5.771-2.512-11.496-8.29-12.729-4.439-3.286-10.783-.889-11.923 4.508l-1.401 6.646c-.843 3.998-5.044 6.328-8.887 4.915a156.288 156.288 0 01-5.622-2.196c-3.684-1.532-5.249-5.911-3.364-9.42l1.734-3.216c3.082-5.728.371-13.092-6.081-15.281-4.997-1.694-10.475.713-12.973 5.349l-1.246 2.316c-1.929 3.581-6.601 4.66-9.876 2.236l-.065-.048a142.675 142.675 0 01-4.781-3.693c-3.094-2.489-3.331-7.118-.537-9.937zm7.943-161.442c-12.774 19.94-17.776 42.894-15.566 65.086l34.398-5.092c-.986-13.377 1.967-27.094 9.179-39.261l-28.01-20.735-.001.002zm8.272-11.174l28.01 20.734c9.531-10.452 21.788-17.277 34.867-20.24l-5.174-34.388c-21.869 4.365-42.364 15.854-57.703 33.894zm71.509-35.687l5.194 34.503a67.483 67.483 0 0137.857 10.797L639.4-25.205c-19.402-13.132-41.829-18.76-63.697-17.41zm106.823 82.028c-4.263-21.075-15.146-40.89-32.129-56.056l-20.753 28.034c9.433 9.275 15.666 20.829 18.482 33.11l34.4-5.089zm-14.039 75.277c12.087-18.86 17.214-40.417 15.861-61.473l-34.516 5.108c.246 12.212-2.788 24.564-9.355 35.631l28.01 20.734zm-39.735-20.762c18.987-25.65 13.532-61.86-12.178-80.891-25.702-19.026-61.927-13.67-80.914 11.979-18.981 25.641-13.53 61.86 12.171 80.886 25.71 19.031 61.94 13.667 80.921-11.974zm31.464 31.937l-28.01-20.735c-8.67 9.516-19.595 16.021-31.346 19.352l5.191 34.507c20.535-4.857 39.656-16.057 54.165-33.124zm-67.897 35.409l-5.176-34.387c-12.569.894-25.442-1.694-37.061-8.011l-20.756 28.039c19.464 11.812 41.593 16.434 62.993 14.359zm-53.749-50.268a67.527 67.527 0 01-21.383-33.053l-34.513 5.105c5.091 21.31 17.022 41.119 35.249 55.839l20.647-27.891z"/></g></svg>