<svg width="20" height="20" viewBox="0 0 20 20" fill="none" xmlns="http://www.w3.org/2000/svg"><path d="M19.2 8.407c.668-.587.294-1.687-.592-1.748l-4.965-.339a1 1 0 01-.865-.64L10.929.857c-.328-.856-1.54-.856-1.867 0L7.214 5.68a1 1 0 01-.866.64l-4.959.34C.503 6.72.13 7.82.796 8.406l3.875 3.418a1 1 0 01.31.988L3.72 17.95c-.217.882.76 1.573 1.52 1.074l4.206-2.762a1 1 0 011.098 0l4.206 2.762c.759.499 1.736-.192 1.52-1.074l-1.26-5.137a1 1 0 01.31-.988l3.88-3.418z" fill="url(#paint0_linear_602_2323)"/><defs><linearGradient id="paint0_linear_602_2323" x1=".907" y1="2.605" x2="17.118" y2="19.894" gradientUnits="userSpaceOnUse"><stop stop-color="#FFE292"/><stop offset=".086" stop-color="#FFD562"/><stop offset=".151" stop-color="#FFE2A0"/><stop offset=".327" stop-color="#FCC266"/><stop offset=".626" stop-color="#FFDD9A"/><stop offset=".906" stop-color="#E98B34"/><stop offset=".979" stop-color="#FFE292"/></linearGradient></defs></svg>