<svg width="8" height="11" viewBox="0 0 8 11" fill="none" xmlns="http://www.w3.org/2000/svg"><g clip-path="url(#clip0_332_2875)"><path fill-rule="evenodd" clip-rule="evenodd" d="M5.058-.001c.637 0 1.154.52 1.154 1.163 0 .642-.517 1.163-1.154 1.163-.637 0-1.153-.52-1.153-1.163 0-.642.516-1.163 1.153-1.163zm.094 4.597l-.828 1.446c.656.585.937.982.715 1.903-.188.78-.657 1.87-.658 1.873-.3.668-1.308.21-1.009-.459.001-.002.43-.996.593-1.676.094-.39-.01-.472-.284-.728-.497-.077-.823-.1-1.132-.228-.302 1.447-.776 2.115-1.52 3.313-.383.622-1.323.033-.939-.59l.493-.794c.833-1.344.737-2.57 1.144-3.282l1.162-2.03c-.714-.035-1.224.966-1.643 1.517-.441.582-1.32-.095-.879-.677.96-1.263 1.146-2.156 2.915-1.918 1.047.14 2.035.448 2.655 1.388.155.235.222.461.29.65.33-.148.665-.28 1-.417.674-.276 1.09.76.415 1.035-.143.058-1.31.55-1.318.55-.927.318-.923-.296-1.172-.876z" fill="#000"/></g><defs><clipPath id="clip0_332_2875"><path fill="#fff" transform="translate(0 -.001)" d="M0 0h8v11H0z"/></clipPath></defs></svg>