<svg width="40" height="40" viewBox="0 0 40 40" fill="none" xmlns="http://www.w3.org/2000/svg"><path fill-rule="evenodd" clip-rule="evenodd" d="M9.438 19.9c5.636-2.25 9.388-3.746 11.272-4.471 5.362-2.059 6.49-2.414 7.214-2.429.16 0 .515.03.757.207.193.148.241.34.273.489.033.148.065.459.033.696-.29 2.814-1.546 9.64-2.19 12.78-.274 1.332-.806 1.776-1.32 1.821-1.128.089-1.981-.681-3.06-1.333-1.707-1.022-2.657-1.658-4.316-2.665-1.916-1.155-.676-1.792.419-2.829.29-.266 5.233-4.413 5.33-4.783.016-.044.016-.222-.097-.31-.113-.09-.273-.06-.402-.03-.177.03-2.883 1.688-8.148 4.96-.773.49-1.466.726-2.094.711-.692-.015-2.013-.355-3.01-.651-1.209-.356-2.175-.548-2.094-1.17.048-.326.531-.652 1.433-.992z" fill="#fff"/></svg>