<svg width="40" height="40" viewBox="0 0 40 40" fill="none" xmlns="http://www.w3.org/2000/svg"><path d="M30.652 25.507c0-.09-.089-.09-.089-.18-.355-.72-1.153-1.62-2.217-2.61-.532-.45-.798-.81-.975-.99-.266-.361-.266-.631-.177-.991.088-.27.443-.72 1.064-1.53.354-.45.532-.72.798-.99 1.33-1.801 1.95-2.971 1.773-3.511l-.089-.09c-.088-.09-.177-.18-.354-.18-.178-.09-.444-.09-.71 0h-3.99l-.088.09c-.09.09-.09.09-.09.18-.354.99-.797 1.8-1.24 2.7-.267.45-.533.9-.799 1.26s-.443.63-.62.81c-.178.18-.355.27-.444.45-.088.09-.266.18-.266.09-.088 0-.177 0-.177-.09l-.266-.27c-.089-.09-.089-.27-.177-.45v-4.5c0-.09-.089-.27-.089-.36l-.266-.27c-.089-.09-.266-.09-.355-.18a7.841 7.841 0 00-1.596-.18c-1.418 0-2.394.09-2.748.27-.178.09-.355.18-.444.36-.177.18-.177.27-.088.27.443.09.798.27.975.54l.089.18c.088.09.088.27.177.54s.089.54.089.9v1.44c0 .45-.09.72-.09.99s-.088.45-.176.54c-.09.18-.09.27-.178.27 0 0 0 .09-.088.09-.09 0-.178.09-.355.09-.089 0-.266-.09-.355-.18a1.077 1.077 0 01-.443-.45c-.177-.18-.355-.45-.532-.81-.178-.36-.444-.72-.62-1.26l-.178-.36c-.089-.18-.266-.54-.443-.99-.178-.45-.355-.81-.532-1.26a1.241 1.241 0 00-.266-.36h-.09s-.088-.09-.176-.09c-.09 0-.178-.09-.266-.09H9.282c-.354 0-.532.09-.62.18l-.089.09v.18c0 .09 0 .18.089.36.443 1.08.975 2.16 1.507 3.24.532.99 1.064 1.89 1.419 2.52.443.631.798 1.261 1.241 1.801.444.54.71.9.798 1.08l.355.36.266.27c.177.18.443.45.798.72.355.27.798.541 1.241.811.444.27.976.45 1.508.63.62.18 1.152.27 1.684.18h1.33a.8.8 0 00.621-.27l.089-.09c0-.09.088-.09.088-.18v-.36c0-.36 0-.63.09-.9.088-.27.088-.45.176-.63.09-.18.178-.27.266-.36l.178-.18h.088c.178-.09.444 0 .621.18.266.18.532.45.71.72.177.27.443.54.797.9.355.36.621.63.798.72l.267.18c.177.09.354.18.62.27.266.09.444.09.62.09l3.016-.09c.266 0 .532-.09.709-.18.177-.09.266-.18.266-.36v-.36c-.177-.18-.177-.27-.177-.36z" fill="#fff"/></svg>