<svg width="1220" height="340" viewBox="0 0 1220 340" fill="none" xmlns="http://www.w3.org/2000/svg"><mask id="mask0_414_4258" style="mask-type:alpha" maskUnits="userSpaceOnUse" x="0" y="0" width="1220" height="340"><rect width="1220" height="340" rx="15" transform="matrix(1 0 0 -1 0 340)" fill="url(#paint0_linear_414_4258)"/></mask><g mask="url(#mask0_414_4258)"><rect width="1220" height="340" rx="15" transform="matrix(1 0 0 -1 0 340)" fill="url(#paint1_linear_414_4258)"/><g filter="url(#filter0_f_414_4258)"><ellipse cx="1131.37" cy="-84.069" rx="115.368" ry="161.347" fill="#785C1A" fill-opacity=".4"/></g><g filter="url(#filter1_f_414_4258)"><ellipse cx="1287.3" cy="28.846" rx="153.7" ry="215.219" fill="#C6650D" fill-opacity=".6"/></g><g opacity=".1" fill="#8D8D8D"><path d="M208.355 202.945c-5.208-4.297-12.951-3.545-17.259 1.676s-3.576 12.967 1.631 17.263c5.209 4.298 12.953 3.547 17.262-1.674 4.308-5.221 3.575-12.967-1.634-17.265zm-11.276 13.666c-2.308-1.904-2.632-5.337-.723-7.65 1.909-2.314 5.34-2.646 7.647-.742 2.309 1.905 2.634 5.336.725 7.65-1.909 2.313-5.34 2.648-7.649.742z"/><path d="M227.785 237.79l7.371 2.817 3.343-4.677-5.052-6.058a37.634 37.634 0 002.001-4.397l7.988-.15 1.337-5.587-7.059-3.721a37.92 37.92 0 00.193-5.312l7.212-3.23-.937-5.662-7.865-.7a37.691 37.691 0 00-1.689-4.511l5.478-5.713-3-4.89-7.561 2.319a37.826 37.826 0 00-3.612-3.88l2.831-7.385-4.667-3.332-6.065 5.069a37.513 37.513 0 00-4.392-1.992l-.13-7.988-5.582-1.327-3.737 7.074a37.546 37.546 0 00-5.309-.181l-3.209-7.208-5.665.951-.716 7.872a38.025 38.025 0 00-4.514 1.699l-5.697-5.466-4.893 3.014 2.298 7.559a37.888 37.888 0 00-3.887 3.623l-7.371-2.813-3.343 4.677 5.051 6.055a37.92 37.92 0 00-2.001 4.4l-7.986.148-1.34 5.588 7.06 3.723a37.739 37.739 0 00-.194 5.311l-7.212 3.23.937 5.664 7.866.699a37.546 37.546 0 001.687 4.512l-5.478 5.712 3.001 4.888 7.561-2.319a37.7 37.7 0 003.611 3.881l-2.83 7.384 4.667 3.332 6.065-5.07a37.882 37.882 0 004.39 1.993l.132 7.989 5.583 1.325 3.735-7.072c1.783.188 3.557.244 5.312.18l3.208 7.208 5.664-.95.719-7.871a37.188 37.188 0 004.511-1.702l5.699 5.468 4.893-3.014-2.299-7.559a38.154 38.154 0 003.888-3.627zm-46.094-3.264c-12.352-10.192-14.081-28.492-3.864-40.874 10.217-12.383 28.513-14.159 40.865-3.968 12.352 10.192 14.083 28.494 3.865 40.877-10.217 12.382-28.514 14.157-40.866 3.965zm8.489 40.89c-2.178-1.797-5.416-1.482-7.217.701-1.802 2.184-1.496 5.422.682 7.219 2.178 1.797 5.416 1.483 7.218-.7 1.802-2.183 1.496-5.422-.683-7.22zm-4.715 5.715a2.275 2.275 0 012.895-3.509 2.274 2.274 0 01-2.895 3.509z"/><path d="M198.31 289.99l3.083 1.178 1.399-1.956-2.113-2.534a15.7 15.7 0 00.836-1.839l3.342-.063.559-2.337-2.953-1.557c.08-.746.106-1.488.081-2.222l3.016-1.351-.392-2.368-3.29-.294a15.925 15.925 0 00-.706-1.886l2.291-2.39-1.255-2.045-3.163.97a15.556 15.556 0 00-1.511-1.624l1.184-3.088-1.952-1.394-2.537 2.121a15.749 15.749 0 00-1.838-.834l-.054-3.341-2.334-.555-1.564 2.958a15.915 15.915 0 00-2.221-.076l-1.342-3.015-2.37.398-.299 3.292c-.646.198-1.276.435-1.889.711l-2.382-2.287-2.047 1.261.961 3.162c-.574.465-1.119.971-1.626 1.516l-3.084-1.177-1.398 1.956 2.113 2.533a16.04 16.04 0 00-.837 1.84l-3.341.062-.56 2.337 2.954 1.557c-.08.746-.106 1.488-.081 2.221l-3.017 1.351.392 2.369 3.29.292c.194.645.431 1.275.706 1.887l-2.291 2.39 1.255 2.045 3.163-.97c.464.574.968 1.117 1.51 1.623l-1.183 3.088 1.951 1.394 2.537-2.12c.589.313 1.201.592 1.836.833l.056 3.342 2.335.554 1.562-2.958c.746.079 1.487.102 2.221.076l1.342 3.014 2.369-.398.301-3.292a15.682 15.682 0 001.886-.713l2.384 2.288 2.047-1.261-.962-3.162a14.918 14.918 0 001.63-1.512zm-19.28-1.364c-5.167-4.263-5.89-11.918-1.617-17.097 4.274-5.18 11.927-5.923 17.094-1.66 5.166 4.264 5.89 11.919 1.616 17.098-4.274 5.179-11.926 5.922-17.093 1.659zM61.172 132.641c-9.328-7.697-23.197-6.351-30.913 3.001-7.716 9.352-6.405 23.224 2.922 30.921 9.33 7.698 23.2 6.353 30.917-2.999 7.716-9.352 6.403-23.225-2.926-30.923zm-20.197 24.477c-4.131-3.409-4.713-9.559-1.295-13.702 3.42-4.144 9.565-4.738 13.697-1.329 4.135 3.412 4.717 9.558 1.298 13.702-3.418 4.143-9.565 4.741-13.7 1.329z"/><path d="M95.973 195.047l13.202 5.043 5.99-8.376-9.05-10.852a67.23 67.23 0 003.584-7.875l14.308-.269 2.395-10.007-12.642-6.666c.341-3.196.45-6.374.345-9.515l12.917-5.786-1.678-10.143-14.087-1.253a67.392 67.392 0 00-3.025-8.08l9.813-10.232-5.374-8.756-13.544 4.153a67.374 67.374 0 00-6.47-6.95l5.07-13.225-8.36-5.967-10.864 9.08a67.404 67.404 0 00-7.866-3.569l-.233-14.308-9.998-2.377-6.694 12.67a67.55 67.55 0 00-9.51-.326l-5.747-12.91-10.147 1.704-1.282 14.098a68.338 68.338 0 00-8.086 3.044L8.735 77.606l-8.764 5.398 4.117 13.541a67.69 67.69 0 00-6.961 6.488l-13.206-5.038-5.987 8.375 9.049 10.847a68.05 68.05 0 00-3.586 7.88l-14.305.266-2.397 10.009 12.646 6.668a67.53 67.53 0 00-.347 9.513l-12.918 5.786 1.677 10.143 14.09 1.251a67.763 67.763 0 003.021 8.082l-9.81 10.232 5.375 8.755 13.543-4.154a67.414 67.414 0 006.468 6.951l-5.07 13.225 8.36 5.969 10.864-9.08a67.684 67.684 0 007.863 3.569l.235 14.31 10.001 2.374 6.69-12.668a67.36 67.36 0 009.515.323l5.746 12.911 10.145-1.703 1.286-14.099a66.89 66.89 0 008.081-3.047l10.206 9.793 8.763-5.398-4.118-13.54a67.892 67.892 0 006.966-6.491zm-82.56-5.847c-22.124-18.254-25.223-51.034-6.923-73.213 18.302-22.179 51.073-25.36 73.197-7.106 22.123 18.255 25.224 51.036 6.923 73.216-18.3 22.178-51.074 25.358-73.198 7.103zm133.215 102.668l7.821 2.99 3.548-4.965-5.361-6.428a39.852 39.852 0 002.122-4.669l8.478-.156 1.419-5.932-7.491-3.951c.202-1.895.269-3.775.203-5.637l7.657-3.428-.997-6.011-8.347-.742a40.253 40.253 0 00-1.789-4.786l5.812-6.064-3.186-5.191-8.022 2.464a39.645 39.645 0 00-3.833-4.116l3.004-7.838-4.954-3.538-6.438 5.381a39.742 39.742 0 00-4.659-2.112l-.137-8.478-5.924-1.41-3.969 7.508a39.607 39.607 0 00-5.635-.193l-3.403-7.65-6.015 1.01-.756 8.354a40.91 40.91 0 00-4.794 1.803l-6.046-5.802-5.193 3.198 2.441 8.024a40.457 40.457 0 00-4.126 3.844l-7.824-2.985-3.548 4.964 5.363 6.428a39.067 39.067 0 00-2.126 4.67l-8.476.156-1.423 5.931 7.496 3.95a39.342 39.342 0 00-.205 5.64l-7.654 3.426.992 6.01 8.347.742a41.024 41.024 0 001.791 4.79l-5.81 6.063 3.182 5.185 8.029-2.461a39.53 39.53 0 003.83 4.119l-3.005 7.836 4.953 3.537 6.438-5.38a40.133 40.133 0 004.661 2.114l.138 8.48 5.927 1.406 3.965-7.505c1.892.199 3.775.261 5.635.19l3.406 7.652 6.01-1.011.762-8.354a39.415 39.415 0 004.789-1.807l6.046 5.804 5.195-3.196-2.441-8.025a40.397 40.397 0 004.127-3.848zm-38.623-15.942c-6.235-5.145-7.111-14.383-1.953-20.634 5.156-6.249 14.393-7.145 20.629-2 6.232 5.143 7.107 14.383 1.951 20.632-5.158 6.25-14.395 7.144-20.627 2.002zm84.317 74.303l5.225 1.997 2.369-3.315-3.582-4.292a26.927 26.927 0 001.422-3.117l5.659-.106.948-3.961-5.002-2.637c.136-1.266.177-2.523.136-3.765l5.111-2.29-.662-4.013-5.575-.495a26.037 26.037 0 00-1.199-3.199l3.884-4.05-2.128-3.467-5.357 1.646a26.923 26.923 0 00-2.559-2.75l2.004-5.233-3.308-2.362-4.297 3.593a26.916 26.916 0 00-3.115-1.411l-.092-5.661-3.955-.941-2.65 5.014a26.401 26.401 0 00-3.762-.128l-2.273-5.111-4.017.675-.507 5.579a26.74 26.74 0 00-3.199 1.206l-4.04-3.875-3.464 2.137 1.625 5.359a26.256 26.256 0 00-2.752 2.567l-5.228-1.994-2.369 3.314 3.583 4.292a25.935 25.935 0 00-1.418 3.118l-5.664.107-.947 3.959 5.004 2.638a26.744 26.744 0 00-.138 3.764l-5.111 2.29.661 4.016 5.578.494a26.59 26.59 0 001.196 3.201l-3.883 4.046 2.128 3.466 5.359-1.646a26.287 26.287 0 002.558 2.751l-2.003 5.233 3.305 2.365 4.301-3.597a27.213 27.213 0 003.112 1.414l.091 5.662 3.958.939 2.648-5.013c1.265.135 2.52.175 3.766.127l2.274 5.111 4.013-.677.509-5.579a26.13 26.13 0 003.199-1.205l4.036 3.878 3.469-2.137-1.63-5.358a26.778 26.778 0 002.755-2.573zm-35.335.917c-10.533-8.691-12.008-24.297-3.294-34.858 8.713-10.559 24.316-12.075 34.849-3.385 10.534 8.693 12.008 24.301 3.295 34.86-8.714 10.56-24.316 12.076-34.85 3.383z"/><path d="M157.702 350.282c-10.04-8.284-11.45-23.212-3.144-33.279 8.304-10.064 23.23-11.516 33.27-3.231 10.041 8.285 11.45 23.215 3.146 33.28-8.306 10.067-23.231 11.516-33.272 3.23zm28.393-34.411c-8.885-7.331-22.094-6.048-29.444 2.86-7.351 8.908-6.101 22.121 2.783 29.452 8.886 7.333 22.096 6.051 29.447-2.858 7.35-8.908 6.101-22.12-2.786-29.454zM52.264 329.799l-1.23-.75c-1.952-1.189-2.869-3.616-2.02-5.742 1.095-2.746 4.348-3.753 6.759-2.287l1.097.669a2.92 2.92 0 004.2-1.343c.347-.804.676-1.613.987-2.427a2.913 2.913 0 00-1.968-3.859l-1.41-.376c-2.208-.59-3.77-2.659-3.558-4.938.278-2.938 3.12-4.823 5.847-4.095l1.235.33a2.927 2.927 0 003.657-2.478c.103-.866.188-1.735.256-2.601a2.911 2.911 0 00-2.977-3.142l-1.58.04c-2.558.066-4.699-1.976-4.758-4.537-1.89-1.559-.825-4.635 1.629-4.696l4.188-.108a2.927 2.927 0 002.813-3.4 63.508 63.508 0 00-.48-2.566 2.912 2.912 0 00-3.744-2.178l-1.5.482c-2.438.783-5.07-.571-5.848-3.008-.776-2.439.583-5.074 3.021-5.858l1.225-.393c1.689-.542 2.516-2.458 1.743-4.052a64.883 64.883 0 00-1.185-2.33 2.915 2.915 0 00-4.208-1.031l-1.316.893c-2.121 1.439-5.03.882-6.46-1.235v-.002c-1.433-2.119-.87-5.028 1.25-6.467l1.06-.718c1.47-.996 1.726-3.068.533-4.379a62.335 62.335 0 00-1.795-1.894 2.92 2.92 0 00-4.33.197l-1.007 1.219c-1.632 1.979-4.58 2.265-6.552.638-1.972-1.628-2.25-4.577-.619-6.555l.814-.986c1.13-1.37.792-3.425-.722-4.347a60.713 60.713 0 00-2.253-1.316 2.922 2.922 0 00-4.103 1.407l-.573 1.336c-.902 2.104-3.176 3.364-5.398 2.831-2.87-.685-4.32-3.762-3.207-6.362l.506-1.184a2.914 2.914 0 00-1.92-3.968 67.296 67.296 0 00-2.538-.621 2.93 2.93 0 00-3.54 2.508l-.19 1.58c-.306 2.543-2.636 4.38-5.176 4.077-2.542-.3-4.37-2.626-4.065-5.168l.153-1.263a2.91 2.91 0 00-2.96-3.264c-.87.023-1.739.064-2.607.12a2.927 2.927 0 00-2.693 3.402l.26 1.553c.42 2.525-1.3 4.94-3.822 5.37a4.656 4.656 0 01-5.359-3.813l-.21-1.258a2.91 2.91 0 00-3.758-2.295c-.829.265-1.654.548-2.473.846a2.932 2.932 0 00-1.633 4.025l.69 1.422c1.117 2.302.146 5.102-2.157 6.225-2.302 1.122-5.101.158-6.217-2.143l-.562-1.156a2.913 2.913 0 00-4.256-1.139c-.72.488-1.43.992-2.134 1.513a2.923 2.923 0 00-.43 4.316l1.064 1.172c1.72 1.893 1.577 4.852-.318 6.579-1.897 1.725-4.853 1.588-6.574-.302l-.858-.944c-1.185-1.305-3.265-1.272-4.39.092l-.022.026a63.508 63.508 0 00-1.627 2.057 2.915 2.915 0 00.811 4.244l1.346.817c2.184 1.331 2.88 4.209 1.545 6.397-1.333 2.188-4.213 2.891-6.396 1.562l-1.098-.668a2.923 2.923 0 00-4.201 1.343 64.175 64.175 0 00-.987 2.425 2.915 2.915 0 001.968 3.861l1.538.41c2.472.659 3.95 3.222 3.285 5.696-.665 2.475-3.23 3.96-5.704 3.301l-1.233-.33a2.929 2.929 0 00-3.657 2.478c-.103.867-.19 1.734-.257 2.601a2.91 2.91 0 002.978 3.14l1.578-.039c2.558-.064 4.698 1.978 4.76 4.537 1.89 1.56.822 4.636-1.63 4.699l-4.187.107a2.926 2.926 0 00-2.815 3.4c.143.857.305 1.713.48 2.565a2.916 2.916 0 003.747 2.178l1.372-.441c2.18-.7 4.613.191 5.666 2.222 1.355 2.619-.022 5.738-2.712 6.601l-1.224.394a2.925 2.925 0 00-1.746 4.053c.378.782.774 1.558 1.186 2.328a2.915 2.915 0 004.21 1.032l1.221-.828c1.872-1.269 4.418-1.111 6 .497 2.094 2.126 1.66 5.542-.696 7.142l-1.06.72c-1.47.996-1.725 3.068-.532 4.379.586.64 1.183 1.271 1.796 1.892a2.92 2.92 0 004.33-.197l1.006-1.219c1.632-1.978 4.58-2.262 6.551-.635 1.973 1.627 2.252 4.575.62 6.553l-.812.985a2.921 2.921 0 00.721 4.35c.744.454 1.495.893 2.253 1.313a2.923 2.923 0 004.106-1.407l.57-1.335c.903-2.103 3.175-3.364 5.4-2.832 2.868.686 4.32 3.764 3.205 6.362l-.506 1.185c-.701 1.635.205 3.512 1.92 3.967.843.224 1.69.431 2.539.622a2.929 2.929 0 003.539-2.51l.173-1.445c.274-2.274 2.102-4.12 4.387-4.237 2.95-.151 5.208 2.39 4.87 5.196l-.152 1.262c-.212 1.764 1.186 3.31 2.96 3.263.87-.022 1.74-.062 2.607-.12a2.927 2.927 0 002.694-3.403l-.237-1.419c-.376-2.257.859-4.544 3.019-5.299a4.654 4.654 0 016.14 3.609l.21 1.259a2.91 2.91 0 003.756 2.294c.83-.265 1.653-.547 2.472-.846a2.93 2.93 0 001.633-4.025l-.688-1.422c-1.119-2.302-.146-5.103 2.157-6.227 1.525-1.848 4.447-1.503 5.492.65l1.285 2.651a2.914 2.914 0 004.256 1.139c.72-.489 1.433-.993 2.137-1.513a2.928 2.928 0 00.43-4.317l-1.067-1.173c-1.897-2.088-1.526-5.472.96-7.069 1.927-1.236 4.485-.796 6.022.894l.767.844c1.187 1.306 3.267 1.271 4.392-.092l.022-.027a62.565 62.565 0 001.626-2.055 2.908 2.908 0 00-.814-4.24zm-20.241-67.133c7.465 7.057 11.973 16.197 13.365 25.771l-15.014 1.457c-.985-5.735-3.664-11.201-7.973-15.568l9.621-11.661v.001zm-4.652-3.838l-9.622 11.66c-5.106-3.402-10.98-4.993-16.797-4.871l-1.421-15.018c9.663-.452 19.494 2.24 27.84 8.229zm-33.84-7.539l1.425 15.069a29.274 29.274 0 00-14.807 8.507l-11.611-9.58a44.298 44.298 0 0124.993-13.996zm-36.385 45.713a44.33 44.33 0 017.659-26.962l11.67 9.63a29.296 29.296 0 00-4.315 15.873l-15.014 1.459zm13.79 30.221c-7.063-6.674-11.478-15.213-13.112-24.219l15.065-1.462a29.08 29.08 0 007.668 14.021l-9.622 11.66zm14.554-12.899c-10.678-8.811-12.171-24.626-3.34-35.329 8.829-10.699 24.64-12.237 35.318-3.426 10.674 8.808 12.17 24.626 3.342 35.326-8.832 10.703-24.645 12.237-35.32 3.429zm-9.903 16.738l9.622-11.661A29.064 29.064 0 00.43 324.267l1.427 15.07c-9.154.105-18.375-2.609-26.27-8.275zm32.29 7.8l-1.42-15.018a29.26 29.26 0 0014.763-7.252l11.673 9.632a44.334 44.334 0 01-25.016 12.638zm17.366-26.788a29.291 29.291 0 005.542-16.153l15.064-1.463a44.291 44.291 0 01-8.995 27.197l-11.611-9.581zm123.978-105.108l-.348-.212c-.553-.337-.811-1.023-.572-1.625a1.324 1.324 0 011.913-.647l.31.189c.428.26.99.081 1.188-.38.098-.228.192-.456.279-.687a.824.824 0 00-.557-1.092l-.399-.106c-.624-.167-1.066-.752-1.006-1.397a1.323 1.323 0 011.654-1.159l.35.093a.829.829 0 001.035-.701c.028-.245.052-.491.072-.737a.823.823 0 00-.842-.888l-.447.012a1.318 1.318 0 01-1.346-1.284c-.535-.441-.233-1.311.461-1.329l1.185-.03a.83.83 0 00.796-.962 18.223 18.223 0 00-.137-.727.825.825 0 00-1.06-.616l-.423.137a1.318 1.318 0 01-1.655-.851c-.22-.69.166-1.436.855-1.657l.347-.112a.828.828 0 00.494-1.146 17.007 17.007 0 00-.336-.659.824.824 0 00-1.19-.292l-.373.252c-.6.407-1.422.249-1.827-.349v-.001a1.322 1.322 0 01.354-1.829l.299-.204a.826.826 0 00.151-1.238c-.165-.181-.335-.36-.508-.536a.825.825 0 00-1.225.056l-.285.345a1.322 1.322 0 01-1.854.18 1.322 1.322 0 01-.176-1.855l.23-.279a.825.825 0 00-.204-1.23c-.21-.128-.423-.253-.637-.372a.829.829 0 00-1.161.398l-.163.379c-.255.595-.897.952-1.527.801a1.318 1.318 0 01-.907-1.8l.143-.334a.825.825 0 00-.543-1.123 22.15 22.15 0 00-.719-.176.83.83 0 00-1.001.711l-.054.447a1.325 1.325 0 01-1.465 1.154 1.318 1.318 0 01-1.15-1.463l.043-.358a.822.822 0 00-.837-.922c-.246.006-.492.017-.737.033a.827.827 0 00-.762.962l.074.44a1.327 1.327 0 01-1.082 1.519 1.32 1.32 0 01-1.517-1.079l-.06-.356a.824.824 0 00-1.063-.65c-.234.076-.468.155-.699.24a.828.828 0 00-.462 1.138l.195.402a1.318 1.318 0 01-2.369 1.155l-.159-.327a.824.824 0 00-1.204-.322c-.205.138-.405.281-.604.428a.826.826 0 00-.122 1.22l.302.332a1.323 1.323 0 01-.091 1.862 1.32 1.32 0 01-1.859-.086l-.242-.267a.822.822 0 00-1.248.033c-.158.192-.312.386-.461.582a.825.825 0 00.229 1.201l.382.231c.617.377.814 1.191.437 1.81a1.322 1.322 0 01-1.81.442l-.31-.189a.828.828 0 00-1.189.38c-.098.228-.191.457-.279.687a.827.827 0 00.557 1.093l.435.116a1.317 1.317 0 01-.684 2.546l-.349-.093a.827.827 0 00-1.034.701c-.029.244-.054.49-.073.735a.824.824 0 00.843.889l.447-.011a1.318 1.318 0 011.347 1.283c.535.441.232 1.311-.461 1.33l-1.185.03a.827.827 0 00-.796.962c.04.242.086.484.135.726a.825.825 0 001.06.616l.388-.125c.617-.198 1.305.054 1.603.628a1.323 1.323 0 01-.768 1.868l-.346.111a.828.828 0 00-.494 1.146c.107.222.219.442.335.659a.826.826 0 001.191.293l.346-.235c.53-.359 1.25-.314 1.697.14.593.602.47 1.569-.197 2.022l-.299.203a.828.828 0 00-.15 1.24c.166.18.335.359.508.535a.826.826 0 001.225-.056l.285-.345a1.32 1.32 0 011.853-.18 1.32 1.32 0 01.175 1.854l-.23.279a.825.825 0 00.204 1.23c.211.129.423.253.638.372a.827.827 0 001.161-.398l.161-.378c.256-.595.899-.951 1.528-.801a1.318 1.318 0 01.907 1.799l-.143.336a.825.825 0 00.543 1.123c.239.063.478.121.718.176a.83.83 0 001.001-.711l.05-.408c.077-.644.593-1.167 1.241-1.2a1.316 1.316 0 011.377 1.47l-.042.357a.822.822 0 00.837.923c.246-.006.492-.017.738-.034a.828.828 0 00.763-.961l-.068-.402c-.107-.639.243-1.285.854-1.498a1.318 1.318 0 011.738 1.02l.059.357a.824.824 0 001.063.649c.235-.076.468-.155.699-.24a.828.828 0 00.462-1.138l-.195-.402a1.325 1.325 0 01.611-1.762.93.93 0 011.554.185l.364.75a.824.824 0 001.204.322c.204-.138.404-.281.604-.428a.829.829 0 00.122-1.221l-.301-.332a1.322 1.322 0 01.272-2.001c.545-.349 1.268-.225 1.703.253l.218.239c.335.37.924.36 1.242-.026l.006-.007c.158-.192.312-.385.46-.582a.826.826 0 00-.232-1.201zm-5.727-18.993a12.472 12.472 0 013.781 7.29l-4.247.412a8.24 8.24 0 00-2.255-4.404l2.721-3.298zm-1.316-1.086l-2.722 3.298a8.25 8.25 0 00-4.752-1.378l-.403-4.248a12.471 12.471 0 017.877 2.328zm-9.574-2.133l.403 4.264a8.285 8.285 0 00-4.189 2.407l-3.285-2.711a12.53 12.53 0 017.071-3.96zm-10.294 12.933a12.536 12.536 0 012.167-7.628l3.301 2.725a8.283 8.283 0 00-1.221 4.49l-4.247.413zm3.901 8.55a12.457 12.457 0 01-3.709-6.852l4.261-.413a8.233 8.233 0 002.17 3.967l-2.722 3.298zm6.448-6.472a3.444 3.444 0 01-.459-4.849 3.444 3.444 0 014.847-.47 3.443 3.443 0 01.459 4.848 3.444 3.444 0 01-4.847.471zm-5.132 7.558l2.722-3.298a8.236 8.236 0 004.307 1.376l.404 4.263a12.473 12.473 0 01-7.433-2.341zm9.135 2.207l-.402-4.249a8.285 8.285 0 004.177-2.052l3.303 2.725a12.546 12.546 0 01-7.078 3.576zm4.914-7.579a8.282 8.282 0 001.568-4.57l4.262-.414a12.519 12.519 0 01-2.545 7.694l-3.285-2.71z"/></g><g opacity=".1" fill="#8D8D8D"><path d="M1028.7 177.246c-3.13-2.586-7.79-2.134-10.39 1.008-2.59 3.143-2.15 7.804.99 10.389 3.13 2.587 7.79 2.135 10.38-1.008 2.6-3.141 2.16-7.802-.98-10.389zm-6.79 8.224a3.28 3.28 0 01-.43-4.604 3.27 3.27 0 014.6-.446 3.271 3.271 0 01.44 4.603 3.283 3.283 0 01-4.61.447z"/><path d="M1040.39 198.211l4.44 1.695 2.01-2.815-3.04-3.646c.45-.847.86-1.729 1.2-2.646l4.81-.091.81-3.363-4.25-2.238c.11-1.075.15-2.141.11-3.197l4.34-1.944-.56-3.407-4.73-.422c-.28-.929-.62-1.835-1.02-2.715l3.3-3.437-1.81-2.943-4.55 1.396a21.84 21.84 0 00-2.17-2.335l1.7-4.444-2.81-2.005-3.65 3.051c-.84-.452-1.72-.853-2.64-1.199l-.08-4.807-3.36-.799-2.24 4.257a22.774 22.774 0 00-3.2-.109l-1.93-4.338-3.41.573-.43 4.737c-.93.284-1.84.625-2.72 1.023l-3.43-3.289-2.94 1.814 1.38 4.55c-.82.669-1.61 1.397-2.34 2.18l-4.43-1.693-2.01 2.814 3.04 3.644c-.46.848-.86 1.731-1.21 2.648l-4.804.089-.806 3.362 4.25 2.24c-.12 1.073-.15 2.14-.12 3.196l-4.338 1.945.564 3.408 4.734.42c.28.928.62 1.835 1.01 2.716l-3.292 3.437 1.802 2.942 4.55-1.396c.67.825 1.4 1.606 2.18 2.335l-1.71 4.443 2.81 2.006 3.65-3.051c.85.451 1.73.853 2.64 1.199l.08 4.807 3.36.798 2.25-4.255c1.07.112 2.14.147 3.2.108l1.93 4.338 3.41-.572.43-4.737c.93-.283 1.83-.625 2.71-1.024l3.43 3.29 2.95-1.814-1.39-4.548a22.54 22.54 0 002.34-2.182zm-27.73-1.964c-7.44-6.133-8.48-17.146-2.33-24.597 6.15-7.452 17.16-8.522 24.59-2.388 7.43 6.133 8.48 17.147 2.33 24.598-6.15 7.452-17.16 8.52-24.59 2.387zm164.43-164.195c-9.33-7.697-23.2-6.351-30.91 3-7.72 9.353-6.41 23.226 2.92 30.923 9.33 7.698 23.2 6.352 30.92-3 7.71-9.352 6.4-23.225-2.93-30.923zm-20.2 24.477c-4.13-3.409-4.71-9.56-1.29-13.702 3.42-4.144 9.56-4.738 13.7-1.329 4.13 3.412 4.71 9.558 1.29 13.702-3.41 4.143-9.56 4.741-13.7 1.33z"/><path d="M1211.89 94.458l13.21 5.043 5.98-8.376-9.05-10.851a66.337 66.337 0 003.59-7.876l14.31-.268 2.39-10.008-12.64-6.666c.34-3.196.45-6.374.34-9.515l12.92-5.786-1.68-10.142-14.08-1.253a67.435 67.435 0 00-3.03-8.081l9.81-10.232-5.37-8.756-13.54 4.153a68.335 68.335 0 00-6.47-6.949l5.07-13.226-8.36-5.967-10.87 9.08a67.767 67.767 0 00-7.86-3.569l-.24-14.308-9.99-2.377-6.7 12.67c-3.19-.335-6.37-.44-9.51-.325l-5.75-12.91-10.14 1.703-1.28 14.099a68.029 68.029 0 00-8.09 3.043l-10.2-9.791-8.77 5.398 4.12 13.541a67.7 67.7 0 00-6.96 6.489l-13.21-5.04-5.99 8.377 9.05 10.846a66.678 66.678 0 00-3.58 7.88l-14.31.266-2.4 10.009 12.65 6.668a69.087 69.087 0 00-.35 9.514L1082 56.75l1.67 10.143 14.09 1.251a69.3 69.3 0 003.02 8.083l-9.81 10.231 5.38 8.755 13.54-4.154a68.429 68.429 0 006.47 6.951l-5.07 13.225 8.36 5.969 10.86-9.08a67.938 67.938 0 007.87 3.569l.23 14.31 10 2.374 6.69-12.668c3.2.336 6.37.438 9.52.323l5.74 12.911 10.15-1.703 1.28-14.099a66.697 66.697 0 008.09-3.046l10.2 9.792 8.77-5.398-4.12-13.54a67.732 67.732 0 006.96-6.49zm-82.56-5.846c-22.12-18.255-25.22-51.035-6.92-73.213 18.3-22.18 51.07-25.361 73.2-7.107 22.12 18.255 25.22 51.036 6.92 73.216-18.3 22.179-51.07 25.358-73.2 7.104zm133.22 102.668l7.82 2.989 3.55-4.965-5.37-6.428c.8-1.495 1.52-3.05 2.13-4.669l8.48-.156 1.41-5.932-7.49-3.951c.21-1.895.27-3.775.21-5.637l7.65-3.428-.99-6.011-8.35-.742a40.259 40.259 0 00-1.79-4.786l5.81-6.064-3.18-5.191-8.03 2.464a38.654 38.654 0 00-3.83-4.116l3.01-7.838-4.96-3.538-6.44 5.382a38.995 38.995 0 00-4.66-2.112l-.13-8.479-5.93-1.41-3.97 7.508a39.547 39.547 0 00-5.63-.193l-3.4-7.65-6.02 1.01-.75 8.354a41.27 41.27 0 00-4.8 1.803l-6.05-5.802-5.19 3.198 2.44 8.024a40.639 40.639 0 00-4.12 3.844l-7.83-2.985-3.54 4.965 5.36 6.427a40.623 40.623 0 00-2.13 4.671l-8.47.155-1.43 5.931 7.5 3.95c-.21 1.893-.27 3.776-.21 5.64l-7.65 3.426.99 6.01 8.35.742c.5 1.638 1.1 3.236 1.79 4.79l-5.81 6.063 3.18 5.185 8.03-2.461a39.748 39.748 0 003.83 4.119l-3 7.836 4.95 3.537 6.44-5.38c1.49.797 3.05 1.504 4.66 2.114l.14 8.48 5.92 1.406 3.97-7.505c1.89.2 3.77.261 5.63.191l3.41 7.651 6.01-1.011.76-8.354a39.277 39.277 0 004.79-1.806l6.05 5.803 5.19-3.196-2.44-8.025a40.32 40.32 0 004.13-3.847zm-38.63-15.943c-6.23-5.145-7.11-14.383-1.95-20.634 5.16-6.249 14.39-7.145 20.63-2 6.23 5.143 7.11 14.383 1.95 20.632-5.16 6.25-14.39 7.144-20.63 2.002zM1068.6 37.831l5.43 2.075 2.46-3.445-3.72-4.462a29.286 29.286 0 001.48-3.24l5.88-.109.98-4.119-5.2-2.74c.14-1.317.19-2.623.14-3.913l5.32-2.382-.69-4.17-5.8-.515a27.635 27.635 0 00-1.24-3.325l4.04-4.21-2.22-3.602-5.56 1.71a27.633 27.633 0 00-2.67-2.858l2.09-5.44-3.44-2.454-4.47 3.733a27.69 27.69 0 00-3.24-1.466l-.09-5.884-4.11-.979-2.76 5.212c-1.31-.141-2.62-.18-3.91-.133l-2.36-5.312-4.17.7-.53 5.799c-1.14.35-2.25.766-3.33 1.253l-4.19-4.027-3.61 2.22 1.69 5.57a27.282 27.282 0 00-2.86 2.668l-5.43-2.07-2.46 3.445 3.72 4.461a26.083 26.083 0 00-1.47 3.24l-5.89.111-.99 4.116 5.21 2.742a28.584 28.584 0 00-.15 3.913l-5.31 2.38.69 4.173 5.8.513c.34 1.137.76 2.244 1.24 3.327l-4.04 4.207 2.21 3.602 5.57-1.711a28.438 28.438 0 002.66 2.86l-2.08 5.44 3.44 2.457 4.47-3.738c1.03.554 2.11 1.042 3.23 1.47l.1 5.884 4.11.976 2.75-5.21c1.32.14 2.62.18 3.92.132l2.36 5.313 4.17-.704.53-5.798c1.14-.347 2.25-.764 3.33-1.254l4.19 4.032 3.61-2.222-1.7-5.57c1.02-.819 1.97-1.71 2.87-2.672zm-36.73.954c-10.95-9.034-12.48-25.255-3.42-36.232 9.05-10.975 25.27-12.551 36.22-3.518 10.95 9.035 12.48 25.258 3.42 36.233-9.05 10.976-25.27 12.552-36.22 3.517z"/><path d="M1032.61 37.883c-10.43-8.611-11.9-24.128-3.27-34.59 8.64-10.462 24.15-11.97 34.59-3.36 10.43 8.612 11.9 24.13 3.27 34.592-8.64 10.463-24.15 11.97-34.59 3.358zm29.52-35.768c-9.24-7.62-22.97-6.287-30.61 2.972-7.64 9.26-6.34 22.993 2.89 30.613 9.24 7.622 22.97 6.29 30.61-2.97 7.64-9.26 6.34-22.993-2.89-30.615zm106.05 227.095l-1.23-.75c-1.95-1.189-2.86-3.616-2.02-5.742 1.1-2.746 4.35-3.753 6.76-2.287l1.1.669c1.51.923 3.5.288 4.2-1.343.35-.804.68-1.613.99-2.427a2.915 2.915 0 00-1.97-3.859l-1.41-.376c-2.21-.59-3.77-2.659-3.56-4.938.28-2.938 3.12-4.823 5.85-4.094l1.23.329a2.926 2.926 0 003.66-2.478c.1-.866.19-1.735.26-2.601a2.915 2.915 0 00-2.98-3.141l-1.58.039c-2.56.066-4.7-1.976-4.76-4.536-1.89-1.56-.82-4.636 1.63-4.697l4.19-.108a2.926 2.926 0 002.81-3.4c-.14-.859-.3-1.715-.48-2.566a2.91 2.91 0 00-3.74-2.178l-1.5.482a4.66 4.66 0 01-5.85-3.008c-.78-2.438.58-5.074 3.02-5.858l1.22-.393c1.69-.542 2.52-2.458 1.75-4.052-.38-.782-.78-1.559-1.19-2.329-.81-1.524-2.77-2.006-4.21-1.032l-1.31.893c-2.12 1.439-5.03.882-6.46-1.235v-.002c-1.43-2.118-.87-5.028 1.25-6.466l1.06-.719a2.923 2.923 0 00.53-4.379 63.702 63.702 0 00-1.79-1.894 2.92 2.92 0 00-4.33.197l-1.01 1.22c-1.63 1.978-4.58 2.264-6.55.637-1.97-1.628-2.25-4.577-.62-6.555l.81-.986c1.13-1.37.79-3.425-.72-4.347-.74-.456-1.49-.895-2.25-1.316-1.51-.842-3.42-.184-4.11 1.407l-.57 1.336c-.9 2.104-3.17 3.364-5.4 2.831-2.87-.685-4.32-3.762-3.2-6.362l.5-1.184c.7-1.634-.2-3.51-1.92-3.968a66.2 66.2 0 00-2.54-.621c-1.68-.375-3.33.793-3.54 2.508l-.19 1.58c-.3 2.543-2.63 4.38-5.17 4.077-2.54-.3-4.37-2.626-4.07-5.168l.16-1.263c.21-1.765-1.19-3.309-2.96-3.263a67 67 0 00-2.61.119 2.92 2.92 0 00-2.69 3.402l.26 1.553c.42 2.525-1.3 4.94-3.83 5.37a4.65 4.65 0 01-5.35-3.813l-.22-1.258a2.903 2.903 0 00-3.75-2.295c-.83.265-1.66.548-2.48.846a2.936 2.936 0 00-1.63 4.025l.69 1.422c1.12 2.302.15 5.102-2.16 6.225-2.3 1.122-5.1.158-6.21-2.143l-.56-1.156a2.919 2.919 0 00-4.26-1.139c-.72.489-1.43.992-2.13 1.513a2.922 2.922 0 00-.44 4.316l1.07 1.172c1.72 1.893 1.58 4.852-.32 6.579-1.9 1.725-4.85 1.589-6.57-.302l-.86-.944c-1.19-1.305-3.27-1.272-4.39.092-.01.008-.02.018-.02.026-.56.678-1.1 1.363-1.63 2.057a2.914 2.914 0 00.81 4.244l1.35.818a4.661 4.661 0 011.54 6.396c-1.33 2.188-4.21 2.891-6.39 1.562l-1.1-.668a2.92 2.92 0 00-4.2 1.343c-.35.804-.68 1.614-.99 2.425a2.917 2.917 0 001.97 3.861l1.54.41a4.65 4.65 0 013.28 5.696c-.66 2.475-3.23 3.961-5.7 3.301l-1.23-.33a2.928 2.928 0 00-3.66 2.479c-.11.866-.19 1.733-.26 2.6a2.91 2.91 0 002.98 3.14l1.58-.039c2.55-.064 4.7 1.978 4.76 4.537 1.89 1.56.82 4.637-1.63 4.699l-4.19.107c-1.77.045-3.11 1.651-2.81 3.4.14.857.3 1.713.48 2.565a2.909 2.909 0 003.74 2.178l1.37-.441c2.18-.7 4.62.191 5.67 2.222 1.35 2.619-.02 5.738-2.71 6.601l-1.23.394a2.925 2.925 0 00-1.74 4.053c.38.782.77 1.558 1.18 2.328a2.917 2.917 0 004.21 1.032l1.23-.828c1.87-1.269 4.41-1.111 5.99.497 2.1 2.126 1.67 5.543-.69 7.142l-1.06.72c-1.47.996-1.73 3.068-.53 4.379.58.64 1.18 1.271 1.79 1.893a2.92 2.92 0 004.33-.198l1.01-1.219c1.63-1.978 4.58-2.262 6.55-.635 1.97 1.627 2.25 4.575.62 6.553l-.81.985c-1.13 1.37-.79 3.426.72 4.35.74.454 1.49.893 2.25 1.313 1.51.843 3.42.186 4.11-1.407l.57-1.334c.9-2.104 3.17-3.365 5.4-2.833 2.87.686 4.32 3.764 3.2 6.363l-.5 1.184c-.7 1.635.2 3.512 1.92 3.967.84.225 1.69.431 2.54.622a2.92 2.92 0 003.53-2.509l.18-1.445c.27-2.275 2.1-4.121 4.38-4.238 2.95-.151 5.21 2.39 4.88 5.196l-.16 1.262c-.21 1.764 1.19 3.31 2.96 3.263.87-.022 1.74-.062 2.61-.12a2.919 2.919 0 002.69-3.403l-.23-1.419c-.38-2.257.86-4.543 3.02-5.299 2.78-.976 5.67.825 6.13 3.609l.22 1.259a2.903 2.903 0 003.75 2.294c.83-.265 1.66-.547 2.47-.846a2.934 2.934 0 001.64-4.025l-.69-1.422c-1.12-2.302-.15-5.103 2.16-6.226 1.52-1.849 4.44-1.503 5.49.649l1.28 2.651a2.919 2.919 0 004.26 1.139c.72-.489 1.43-.993 2.14-1.512a2.93 2.93 0 00.43-4.318l-1.07-1.173c-1.9-2.088-1.53-5.472.96-7.069 1.93-1.236 4.48-.796 6.02.894l.77.844a2.908 2.908 0 004.39-.092c.01-.008.01-.017.02-.027.56-.677 1.1-1.362 1.63-2.055a2.905 2.905 0 00-.82-4.24zm-20.24-67.133c7.47 7.057 11.98 16.197 13.37 25.771l-15.02 1.457a29.09 29.09 0 00-7.97-15.568l9.62-11.66zm-4.65-3.838l-9.62 11.66c-5.11-3.402-10.98-4.993-16.8-4.871l-1.42-15.018c9.66-.452 19.49 2.24 27.84 8.229zm-33.84-7.539l1.43 15.069a29.245 29.245 0 00-14.81 8.508l-11.61-9.581a44.27 44.27 0 0124.99-13.996zm-36.38 45.713a44.272 44.272 0 017.65-26.961l11.68 9.629a29.3 29.3 0 00-4.32 15.874l-15.01 1.458zm13.79 30.222c-7.07-6.675-11.48-15.214-13.12-24.22l15.07-1.462a28.985 28.985 0 007.67 14.021l-9.62 11.661zm14.55-12.9c-10.68-8.811-12.17-24.626-3.34-35.329 8.83-10.699 24.64-12.237 35.32-3.426 10.67 8.808 12.17 24.626 3.34 35.326-8.83 10.703-24.65 12.237-35.32 3.429zm-9.9 16.738l9.62-11.661c4.64 3.099 9.92 4.694 15.22 4.866l1.43 15.07c-9.16.105-18.38-2.608-26.27-8.275zm32.29 7.8l-1.42-15.018a29.267 29.267 0 0014.76-7.252l11.67 9.632a44.343 44.343 0 01-25.01 12.638zm17.36-26.788a29.207 29.207 0 005.54-16.152l15.07-1.464a44.233 44.233 0 01-9 27.197l-11.61-9.581zm-60.86-76.693c.8-1.055.5-2.579-.64-3.27l-.95-.579c-1.51-.921-2.22-2.787-1.57-4.426.84-2.106 3.34-2.869 5.2-1.737l.85.52c1.16.707 2.69.231 3.23-1.023.26-.616.51-1.248.76-1.868.47-1.242-.25-2.626-1.53-2.974l-1.09-.288c-1.7-.464-2.91-2.063-2.75-3.81.2-2.261 2.39-3.701 4.48-3.133l.96.251a2.231 2.231 0 002.81-1.89c.07-.665.14-1.335.19-2.002.11-1.324-.97-2.451-2.3-2.422l-1.21.021c-1.98.05-3.63-1.529-3.69-3.503-1.45-1.199-.64-3.56 1.25-3.602l3.22-.074a2.234 2.234 0 002.16-2.606c-.11-.662-.24-1.32-.37-1.98a2.273 2.273 0 00-2.9-1.685l-1.15.37c-1.87.59-3.91-.459-4.51-2.329a3.569 3.569 0 012.31-4.498l.94-.302a2.23 2.23 0 001.33-3.115c-.29-.604-.6-1.192-.91-1.788a2.266 2.266 0 00-3.25-.816l-1.01.687a3.6 3.6 0 01-4.98-.968 3.582 3.582 0 01.95-4.97l.8-.55a2.245 2.245 0 00.41-3.375c-.46-.486-.92-.97-1.4-1.453a2.247 2.247 0 00-3.33.141l-.76.927a3.588 3.588 0 01-5.05.476 3.598 3.598 0 01-.5-5.05l.62-.749c.87-1.047.6-2.631-.56-3.346-.57-.353-1.16-.688-1.74-1.013a2.24 2.24 0 00-3.16 1.076l-.43 1.022c-.69 1.61-2.45 2.577-4.15 2.164-2.22-.534-3.35-2.907-2.5-4.907l.39-.91a2.253 2.253 0 00-1.48-3.054c-.66-.175-1.31-.336-1.97-.482a2.226 2.226 0 00-2.71 1.916l-.15 1.212a3.578 3.578 0 01-3.97 3.125c-1.96-.238-3.38-2.037-3.14-3.984l.1-.974c.17-1.361-.92-2.55-2.28-2.525-.67.021-1.34.045-2.01.089a2.242 2.242 0 00-2.07 2.618l.21 1.19a3.581 3.581 0 01-2.93 4.122c-1.94.316-3.81-1.006-4.14-2.948l-.16-.969a2.266 2.266 0 00-2.91-1.778c-.64.2-1.27.42-1.9.646a2.243 2.243 0 00-1.25 3.087l.55 1.1c.85 1.777.11 3.92-1.66 4.782-1.77.859-3.93.107-4.79-1.667l-.43-.884a2.263 2.263 0 00-3.29-.89c-.55.377-1.1.758-1.64 1.156a2.256 2.256 0 00-.33 3.322l.83.902c1.33 1.458 1.23 3.739-.22 5.062a3.609 3.609 0 01-5.07-.248l-.66-.732c-.92-1.003-2.52-.99-3.38.06-.01.006-.02.016-.02.019-.43.517-.85 1.044-1.25 1.574a2.252 2.252 0 00.64 3.276l1.03.624c1.69 1.038 2.23 3.252 1.21 4.929-1.02 1.686-3.23 2.21-4.921 1.18l-.848-.508a2.24 2.24 0 00-3.232 1.017c-.262.624-.519 1.235-.749 1.864a2.25 2.25 0 001.519 2.975l1.191.324c1.903.506 3.048 2.49 2.548 4.388a3.579 3.579 0 01-4.387 2.521l-.949-.25a2.233 2.233 0 00-2.813 1.893 58.32 58.32 0 00-.196 2.002 2.268 2.268 0 002.304 2.425l1.223-.029c1.966-.04 3.624 1.536 3.675 3.495 1.462 1.206.651 3.572-1.246 3.618l-3.223.071a2.237 2.237 0 00-2.157 2.615c.112.655.237 1.313.369 1.967a2.27 2.27 0 002.899 1.689l1.057-.337c1.672-.533 3.551.162 4.366 1.727 1.05 2.014.001 4.413-2.068 5.062l-.943.302a2.234 2.234 0 00-1.33 3.117c.29.604.599 1.204.918 1.79a2.25 2.25 0 003.246.807l.937-.639c1.44-.966 3.4-.838 4.63.407 1.61 1.639 1.29 4.262-.53 5.485l-.8.553a2.226 2.226 0 00-.4 3.364c.45.498.91.991 1.38 1.464.94.952 2.49.886 3.34-.137l.77-.939c1.25-1.519 3.52-1.726 5.05-.468a3.594 3.594 0 01.49 5.04l-.62.758c-.87 1.05-.6 2.637.56 3.345.57.357 1.16.694 1.74 1.019 1.16.66 2.63.147 3.16-1.068l.44-1.035c.68-1.613 2.43-2.57 4.14-2.16 2.21.541 3.34 2.913 2.49 4.903l-.38.903a2.256 2.256 0 001.48 3.069c.66.174 1.3.328 1.97.479a2.24 2.24 0 002.72-1.917l.12-1.119c.21-1.744 1.61-3.159 3.37-3.244 2.27-.11 4.01 1.855 3.76 4.013l-.1.968a2.244 2.244 0 002.28 2.518c.67-.015 1.33-.045 2.01-.088a2.225 2.225 0 002.06-2.608l-.18-1.096c-.3-1.734.64-3.488 2.31-4.068 2.14-.74 4.37.653 4.74 2.796l.16.967a2.258 2.258 0 002.9 1.777c.64-.203 1.27-.417 1.91-.646 1.24-.452 1.83-1.899 1.24-3.087l-.54-1.097a3.59 3.59 0 011.65-4.786c1.17-1.419 3.43-1.149 4.23.511l1 2.046c.61 1.228 2.15 1.649 3.28.882.56-.372 1.1-.754 1.65-1.154a2.245 2.245 0 00.32-3.321l-.82-.901c-1.48-1.61-1.2-4.212.71-5.434 1.49-.949 3.46-.605 4.64.701l.6.652c.92 1.002 2.52.981 3.38-.058.01-.008.01-.014.02-.023.43-.517.84-1.036 1.25-1.572zm-43.51-10.892l4.54-15.539 7.77 14.166a20.155 20.155 0 01-12.31 1.373zm23.72-15.618l-15.54-4.487 14.18-7.824a20.12 20.12 0 011.36 12.311zm-16.42-1.457l15.53 4.494a20.159 20.159 0 01-3.3 5.671 19.454 19.454 0 01-4.45 4l-7.78-14.165zm20.3 17.187a3.19 3.19 0 11-4.92-4.065 3.193 3.193 0 014.5-.442c1.37 1.123 1.55 3.143.42 4.507zm3.2-25.328a3.166 3.166 0 013.48 2.874 3.192 3.192 0 01-2.87 3.488 3.196 3.196 0 01-3.49-2.875 3.201 3.201 0 012.88-3.487zM1059.94 81a3.198 3.198 0 01.43 4.497 3.194 3.194 0 11-4.93-4.064 3.2 3.2 0 014.5-.434zm-6.29 7.76a19.475 19.475 0 013.98 4.448l-14.18 7.816 4.53-15.547c2.01.753 3.93 1.847 5.67 3.283zm-32.4 11.454l15.51 4.5-14.17 7.807a20.083 20.083 0 01-1.34-12.307zm.19-15.095c1.36 1.122 1.54 3.14.42 4.5-1.12 1.36-3.14 1.566-4.5.444-1.36-1.123-1.54-3.145-.42-4.505a3.2 3.2 0 014.5-.44zm3.99 6.386a20.348 20.348 0 014.44-3.992l7.78 14.163-15.52-4.489a20.085 20.085 0 013.3-5.682zm19.52-6.903l-4.52 15.56-7.78-14.183a20.043 20.043 0 0112.3-1.377zm-7.43-10.236a3.2 3.2 0 013.48 2.874 3.202 3.202 0 01-2.88 3.49 3.18 3.18 0 01-3.48-2.874 3.204 3.204 0 012.88-3.49zm-23.78 36.518a3.186 3.186 0 01-3.48-2.879 3.198 3.198 0 012.88-3.495 3.202 3.202 0 013.49 2.879 3.229 3.229 0 01-2.89 3.495zm7.65 17.684a3.19 3.19 0 01-.42-4.499 3.188 3.188 0 014.49-.437 3.206 3.206 0 01.44 4.503 3.205 3.205 0 01-4.51.433zm6.71-8.843a19.758 19.758 0 01-3.99-4.43l14.18-7.82-4.52 15.553a19.762 19.762 0 01-5.67-3.303zm15.71 15.475a3.194 3.194 0 01-3.48-2.873c-.16-1.766 1.13-3.328 2.88-3.491a3.17 3.17 0 013.48 2.873c.18 1.755-1.11 3.316-2.88 3.491zm-54.013 22.975l4.02 1.535 1.825-2.55-2.757-3.305c.412-.767.776-1.568 1.092-2.399l4.356-.081.73-3.048-3.849-2.03c.104-.974.137-1.941.105-2.898l3.933-1.762-.511-3.089-4.289-.382a20.656 20.656 0 00-.921-2.461l2.988-3.116-1.637-2.666-4.123 1.264a20.73 20.73 0 00-1.97-2.116l1.543-4.028-2.546-1.817-3.308 2.766a20.539 20.539 0 00-2.397-1.087l-.071-4.358-3.044-.724-2.039 3.858a20.848 20.848 0 00-2.896-.099l-1.75-3.931-3.091.518-.391 4.295c-.842.257-1.663.567-2.462.927l-3.108-2.982-2.669 1.644 1.254 4.123c-.75.606-1.46 1.266-2.121 1.977l-4.021-1.535-1.823 2.551 2.756 3.304c-.41.769-.776 1.568-1.091 2.399l-4.356.081-.731 3.048 3.852 2.031c-.104.973-.14 1.94-.107 2.897l-3.934 1.762.51 3.089 4.29.381c.255.842.563 1.663.921 2.461l-2.989 3.116 1.638 2.668 4.124-1.266a20.517 20.517 0 001.97 2.117l-1.544 4.028 2.545 1.818 3.309-2.766c.767.409 1.566.773 2.394 1.087l.072 4.358 3.046.724 2.038-3.859c.972.103 1.939.134 2.896.098l1.751 3.932 3.09-.518.391-4.294a20.563 20.563 0 002.461-.928l3.108 2.982 2.668-1.644-1.254-4.123a20.563 20.563 0 002.124-1.977zm-13.436-7.257c1.249-.287 2.664-1.225 3.293-1.843l6.86 5.66c-2.878 3.313-5.822 4.594-9.337 5.168l-.816-8.985zm-3.313-4.295a2.968 2.968 0 013.777-4.578 2.968 2.968 0 01-3.777 4.578zm14.567 6.745l-6.887-5.682c.406-.803.982-2.447.917-3.753l8.957-.892c.229 3.586-.93 7.475-2.987 10.327zm2.455-11.942l-9.163.744c-.275-1.017-.441-1.682-1.701-2.911l5.849-7.089c3.22 2.99 4.497 5.917 5.015 9.256zm-5.669-9.843l-5.849 7.089c-1.422-1.033-2.227-1.057-3.478-1.098l-.931-9.364c3.612-.115 7.506 1.195 10.258 3.373zm-11.497-3.186l.9 9.291c-1.196.22-2.558 1.037-3.259 1.595l-7.281-6.008c2.413-2.559 6.045-4.439 9.64-4.878zm-10.771 6.22l7.252 5.984c-.492.732-1.08 2.12-1.169 3.306l-9.384.946c-.123-3.588.595-6.782 3.301-10.236zm-3.195 11.47l9.234-.943c.199 1.429.619 2.602 1.892 3.816l-5.836 7.074c-2.659-2.293-4.819-6.174-5.29-9.947zm5.99 10.475l5.837-7.073c1.462.984 2.673 1.284 3.919 1.269l.687 8.811c-3.558.256-6.888-.422-10.443-3.007z"/></g></g><defs><linearGradient id="paint0_linear_414_4258" x1="1182.72" y1="0" x2="1161.81" y2="400.648" gradientUnits="userSpaceOnUse"><stop offset=".023" stop-color="#352A24"/><stop offset="1" stop-color="#141421"/></linearGradient><linearGradient id="paint1_linear_414_4258" x1="1182.72" y1="0" x2="1161.81" y2="400.648" gradientUnits="userSpaceOnUse"><stop offset=".023" stop-color="#352A24"/><stop offset="1" stop-color="#141421"/></linearGradient><filter id="filter0_f_414_4258" x="406.279" y="-855.137" width="1450.18" height="1542.14" filterUnits="userSpaceOnUse" color-interpolation-filters="sRGB"><feFlood flood-opacity="0" result="BackgroundImageFix"/><feBlend in="SourceGraphic" in2="BackgroundImageFix" result="shape"/><feGaussianBlur stdDeviation="304.86" result="effect1_foregroundBlur_414_4258"/></filter><filter id="filter1_f_414_4258" x="624.601" y="-695.373" width="1325.4" height="1448.44" filterUnits="userSpaceOnUse" color-interpolation-filters="sRGB"><feFlood flood-opacity="0" result="BackgroundImageFix"/><feBlend in="SourceGraphic" in2="BackgroundImageFix" result="shape"/><feGaussianBlur stdDeviation="254.5" result="effect1_foregroundBlur_414_4258"/></filter></defs></svg>