<svg width="40" height="40" viewBox="0 0 40 40" fill="none" xmlns="http://www.w3.org/2000/svg"><path fill-rule="evenodd" clip-rule="evenodd" d="M28.195 13.427c.88.236 1.571.927 1.807 1.806.425 1.593.427 4.917.427 4.917s0 3.325-.427 4.918a2.558 2.558 0 01-1.806 1.806c-1.593.427-7.982.427-7.982.427s-6.388 0-7.98-.427a2.558 2.558 0 01-1.807-1.806C10 23.475 10 20.15 10 20.15s0-3.324.427-4.917a2.56 2.56 0 011.806-1.806C13.826 13 20.214 13 20.214 13s6.389 0 7.982.427zm-4.718 6.724l-5.308 3.064v-6.128l5.308 3.064z" fill="#fff"/></svg>